<svg xmlns="http://www.w3.org/2000/svg" xmlns:xlink="http://www.w3.org/1999/xlink" viewBox="0 0 122.78 159.11">
  <defs>
    <style>
      .a, .e, .k {
        fill: none;
      }

      .b {
        isolation: isolate;
      }

      .c {
        clip-path: url(#a);
      }

      .d {
        fill: #ffcfc7;
      }

      .e {
        stroke: #ff9e91;
      }

      .e, .k {
        stroke-linecap: round;
        stroke-linejoin: round;
        stroke-width: 0.97px;
      }

      .f {
        fill: #0f3742;
      }

      .g {
        fill: #ffb1ac;
      }

      .h {
        fill: #1d4a61;
      }

      .i, .j {
        mix-blend-mode: multiply;
      }

      .i {
        fill: url(#b);
      }

      .j {
        fill: url(#c);
      }

      .k {
        stroke: #0f3742;
      }
    </style>
    <clipPath id="a" transform="translate(-103.75 -68)">
      <rect class="a" x="55" y="-55" width="220" height="330" transform="translate(275 -55) rotate(90)"/>
    </clipPath>
    <radialGradient id="b" data-name="•º©R¶W∫•ºh 37" cx="149.29" cy="111.01" r="5.71" gradientUnits="userSpaceOnUse">
      <stop offset="0" stop-color="#f9bbbb"/>
      <stop offset="0.31" stop-color="#fbd4d4"/>
      <stop offset="0.75" stop-color="#fef3f3"/>
      <stop offset="1" stop-color="#fff"/>
    </radialGradient>
    <radialGradient id="c" cx="73.34" cy="43.26" r="5.71" xlink:href="#b"/>
  </defs>
  <title>middle-1-2</title>
  <g class="b">
    <g class="c">
      <g>
        <g>
          <path class="d" d="M121.55,127.09s3.21-8.92,7.1-10.43,8.53-2.32,9-1.19,1,2-4.21,4.27c0,0,4.25-2,5.42.34s-3.43,4-3.43,4,4.13-1.63,4.77.39-3.51,3.49-3.51,3.49,2.44-1.11,3.2,1-3.26,1.8-4.59,3.61-3.63,8.47-10.93,7.24S119,132.65,121.55,127.09Z" transform="translate(-103.75 -68)"/>
          <path class="e" d="M133.59,119.55a9.73,9.73,0,0,0-5.51,3" transform="translate(-103.75 -68)"/>
          <path class="e" d="M135,123.83a17.18,17.18,0,0,0-3.12,1.32,7.07,7.07,0,0,0-1.62,1.3" transform="translate(-103.75 -68)"/>
          <path class="e" d="M136.4,127.91a7,7,0,0,0-4,3" transform="translate(-103.75 -68)"/>
        </g>
        <path class="f" d="M120.46,181.42s-2.92-.66-3.08-10.09,6.5-8.33,6.5-8.33S124.63,178.34,120.46,181.42Z" transform="translate(-103.75 -68)"/>
        <path class="g" d="M111,173.61s7.23.25,13.12-3,1-5.67,1-5.67-4.45-2.56-4.78-2.33S107.68,166.94,111,173.61Z" transform="translate(-103.75 -68)"/>
        <path class="h" d="M140.14,143.9s-15.51,4.73-20.85,9.84c0,0,4,26.52,1.17,27.68,0,0,13.84-3,16.18-4.67S142.36,144.79,140.14,143.9Z" transform="translate(-103.75 -68)"/>
        <path class="g" d="M153.78,140.61a58.29,58.29,0,0,0-6.17,1.88c-2.05.86,1.2,5.82,1.2,5.82s24.73,6.1,31-1.71c3.87-4.82-.12-5.42-.12-5.42S164.17,135.69,153.78,140.61Z" transform="translate(-103.75 -68)"/>
        <polygon class="g" points="50.66 62.79 50.66 78.38 70.52 78.38 70.52 61.25 50.51 61.25 50.66 62.79"/>
        <path class="h" d="M151.89,141s1.81,7.31,12.26,7.08c9.69-.21,11.34-4.83,11.42-8.08,0,0,10.71,1.91,17.09,5.25,7.2,3.77,9.4,81.87,9.4,81.87H128.69s4.82-76.64,7.9-80.75C139.31,142.75,149.5,141.33,151.89,141Z" transform="translate(-103.75 -68)"/>
        <path class="d" d="M122.3,131.43S92,166.34,108.84,173.16c13.1,5.31,19.86-38,19.86-38S124.62,129,122.3,131.43Z" transform="translate(-103.75 -68)"/>
        <g>
          <path class="f" d="M209.7,181.59s2.91-.67,3.08-10.09-6.5-8.34-6.5-8.34S205.53,178.5,209.7,181.59Z" transform="translate(-103.75 -68)"/>
          <path class="g" d="M221.32,171.34s-9.4,2.69-15.29-.53-1-5.67-1-5.67,4.44-2.56,4.78-2.34S224.66,164.67,221.32,171.34Z" transform="translate(-103.75 -68)"/>
          <path class="h" d="M190,144.07s15.51,4.73,20.84,9.84c0,0-4,26.51-1.16,27.68,0,0-13.85-3-16.18-4.67S187.8,145,190,144.07Z" transform="translate(-103.75 -68)"/>
          <g>
            <g>
              <path class="d" d="M202.84,126.3s-4.1-8-8-9-8.32-1.16-8.65,0-.65,2,4.49,3.51c0,0-4.26-1.41-5.06,1s3.71,3.3,3.71,3.3-4.09-1-4.45,1,3.73,2.86,3.73,2.86-2.44-.74-2.9,1.32,3.29,1.3,4.77,2.84,4.44,7.54,11.17,5.49S206,131.22,202.84,126.3Z" transform="translate(-103.75 -68)"/>
              <path class="e" d="M190.59,120.66a9.23,9.23,0,0,1,5.55,2.19" transform="translate(-103.75 -68)"/>
              <path class="e" d="M189.77,124.87a15.84,15.84,0,0,1,3.1.86,6.43,6.43,0,0,1,1.68,1" transform="translate(-103.75 -68)"/>
              <path class="e" d="M189,128.88a6.63,6.63,0,0,1,4.09,2.35" transform="translate(-103.75 -68)"/>
            </g>
            <path class="d" d="M203.69,131.17s34.5,30.75,18.69,39.67c-12.32,6.94-24.56-35.19-24.56-35.19S201.08,129,203.69,131.17Z" transform="translate(-103.75 -68)"/>
          </g>
        </g>
        <g>
          <path class="h" d="M144.12,76.29s3.43-6.36,13.36-7.84,19.91.58,27.8,8.39c7.35,7.27,10.64,21.5,5.16,31.74l-27.83,12.2L136.34,110.3S126.45,88.17,144.12,76.29Z" transform="translate(-103.75 -68)"/>
          <path class="g" d="M185.93,108.69s5.57-4,5.73,1.72c.21,7.34-6.36,11.67-8.55,10C183.11,120.36,185.72,109.52,185.93,108.69Z" transform="translate(-103.75 -68)"/>
          <path class="g" d="M139.08,108.69s-5.58-4-5.74,1.72c-.21,7.34,6.36,11.67,8.55,10Z" transform="translate(-103.75 -68)"/>
          <path class="d" d="M138.09,104.31s2.6,19,7.71,22.83,13.24,8.34,17.72,8.44,15.33-5,18.77-12.51S189,101.39,189,101.39s.93-28.15-27.52-26.06C132.84,77.42,138.09,104.31,138.09,104.31Z" transform="translate(-103.75 -68)"/>
          <path class="i" d="M155,111a5.72,5.72,0,1,1-5.72-5.71A5.72,5.72,0,0,1,155,111Z" transform="translate(-103.75 -68)"/>
          <circle class="j" cx="73.34" cy="43.26" r="5.71"/>
          <path class="f" d="M153.42,106.55c0,1.7-.93,3.07-2.07,3.07s-2.07-1.37-2.07-3.07.93-3.08,2.07-3.08S153.42,104.85,153.42,106.55Z" transform="translate(-103.75 -68)"/>
          <path class="f" d="M175.82,106.55c0,1.7-.92,3.07-2.07,3.07s-2.07-1.37-2.07-3.07.93-3.08,2.07-3.08S175.82,104.85,175.82,106.55Z" transform="translate(-103.75 -68)"/>
          <path class="h" d="M149.87,87.78s-.72,9.52-5.83,14a10.58,10.58,0,0,0-.81.83c-.82,1.08-3.39,5.65-3,10a22.44,22.44,0,0,1-3.76-9.35c-.86-5.55,1-24.08,11.49-25.09S149.87,87.78,149.87,87.78Z" transform="translate(-103.75 -68)"/>
          <path class="e" d="M164.56,121.58a7,7,0,0,0-5,0" transform="translate(-103.75 -68)"/>
          <path class="k" d="M148,101.2a6,6,0,0,0,5.63-2" transform="translate(-103.75 -68)"/>
          <path class="k" d="M172.09,99.69a6,6,0,0,0,5.91.79" transform="translate(-103.75 -68)"/>
          <path class="h" d="M190.51,95.21C190.23,88,183.85,68.54,164,70s-18.7,6.34-18.7,6.34-.06.19-.14.55c-.68,3-1,18.72,18.94,21.44,0,0-2.58-5.5-4-8.09,1.49,1.9,4.85,5.39,14.06,8.14a9.21,9.21,0,0,0,.24-3.28c3.11,2.21,5.47,5.47,8.39,8.87a6.39,6.39,0,0,0,.85-3.64,38.75,38.75,0,0,1,2.23,11.26S190.8,102.4,190.51,95.21Z" transform="translate(-103.75 -68)"/>
        </g>
        <path class="k" d="M139.67,147.46a89.52,89.52,0,0,0-6.42,26.85" transform="translate(-103.75 -68)"/>
        <path class="k" d="M189.25,147.9a103.88,103.88,0,0,1,8.69,27.5" transform="translate(-103.75 -68)"/>
        <path class="k" d="M150.26,143.08c.67,2.38,2.73,4.06,4.85,5.34a13.85,13.85,0,0,0,7.35,2" transform="translate(-103.75 -68)"/>
        <path class="k" d="M167.24,150.5a15.87,15.87,0,0,0,6.89-2.43,9.6,9.6,0,0,0,3.57-6.24" transform="translate(-103.75 -68)"/>
        <g>
          <path class="k" d="M149.13,90.75a16.24,16.24,0,0,1-2.94-10.19" transform="translate(-103.75 -68)"/>
          <path class="k" d="M140.92,84.37A27.84,27.84,0,0,0,137.25,105" transform="translate(-103.75 -68)"/>
          <path class="k" d="M171.82,73.11A25.31,25.31,0,0,1,187,85.49a27.9,27.9,0,0,1,1.8,20.56" transform="translate(-103.75 -68)"/>
          <path class="k" d="M183.89,100.21a23.75,23.75,0,0,0-6.29-13.68" transform="translate(-103.75 -68)"/>
          <path class="k" d="M154.72,81.59a56.66,56.66,0,0,0,5.15,8.56" transform="translate(-103.75 -68)"/>
          <path class="k" d="M166.59,83.81a35,35,0,0,1,7.64,11.07" transform="translate(-103.75 -68)"/>
        </g>
      </g>
    </g>
  </g>
</svg>
