<svg xmlns="http://www.w3.org/2000/svg" viewBox="0 0 51.76 29.08">
  <defs>
    <style>
      .a, .c {
        fill: none;
        stroke-linecap: round;
        stroke-linejoin: round;
        stroke-width: 0.97px;
      }

      .a {
        stroke: #249485;
      }

      .b {
        fill: #63c6b6;
      }

      .c {
        stroke: #fff;
      }
    </style>
  </defs>
  <title>middle-mask</title>
  <g>
    <path class="a" d="M51.22,10.53c.29,1.44-.63,2.84-1.65,3.89A16.76,16.76,0,0,1,44,18.29"/>
    <path class="a" d="M.49,11.17a5,5,0,0,0,2.05,3.9,17.25,17.25,0,0,0,6.14,3.19"/>
    <g>
      <path class="a" d="M49.81,1c-1.89,2.52-3.29,6.36-4.72,9"/>
      <path class="a" d="M1.65.49c2.67,3,3.28,5.22,5.13,8.74"/>
      <path class="a" d="M1.65.49A48.53,48.53,0,0,0,.49,11.17"/>
      <path class="a" d="M51.23,11.05C51.42,8.32,50.3,2.8,49.9.84"/>
      <g>
        <path class="b" d="M26.76,29.08C37.6,27.94,44.11,19.36,44.9,17.41s.83-9.88.83-9.88-13.46-5.47-19.28-6-20,6.05-20,6.05-1.35,8,2.3,12.25C8.73,19.86,16.64,27.76,26.76,29.08Z"/>
        <path class="c" d="M8.6,9.09S22.29,3.61,26.75,4.24,43.86,8.55,43.86,8.55"/>
        <path class="a" d="M10.32,12.69S22.59,6.05,42.06,11.6"/>
        <path class="a" d="M10.63,16.44s18.3-2.5,31.82-.47"/>
        <path class="a" d="M11.65,20.12s18.53,3.44,29.47-.63"/>
      </g>
    </g>
  </g>
</svg>
