<?xml version="1.0" encoding="utf-8"?>
<!-- Generator: Adobe Illustrator 22.1.0, SVG Export Plug-In . SVG Version: 6.00 Build 0)  -->
<svg version="1.1" xmlns="http://www.w3.org/2000/svg" xmlns:xlink="http://www.w3.org/1999/xlink" x="0px" y="0px"
	 viewBox="0 0 500 500" style="enable-background:new 0 0 500 500;" xml:space="preserve">
<style type="text/css">
	.st0{fill:#2C384C;}
	.st1{display:none;fill:#6883AA;}
	.st2{fill:#3F4DA1;}
	.st3{fill:#222D3D;}
	.st4{fill:#93AFD1;}
	.st5{fill:#FEF59F;}
	.st6{display:none;}
	.st7{display:inline;}
	.st8{fill:#FFCA28;}
	.st9{fill:#F6D552;}
	.st10{display:inline;fill:#2C384C;}
	.st11{fill:#FAFAFA;}
	.st12{fill:#FF8A65;}
	.st13{fill:#E5E5E5;}
	.st14{display:inline;fill:#FAFAFA;}
</style>
<g id="BACKGROUND">
	<rect x="0" class="st0" width="500" height="500"/>
</g>
<g id="OBJECTS">
	<path class="st1" d="M174.3,463.1c-4.5,0-8.8,0.9-12.8,2.4c-3.1-10.3-10.8-18.5-20.7-22.4c1.8-4.2,2.8-8.9,2.8-13.7
		c0-19.5-15.8-35.2-35.2-35.2c-2.4,0-4.7,0.2-6.9,0.7c-2.2-9.1-6.7-17.3-12.7-24c2.4-3.3,3.9-7.5,3.9-11.9
		c0-11.2-9.1-20.2-20.2-20.2c-1.1,0-2.2,0.1-3.3,0.3c-5-25.2-26.7-44.3-53.1-45.2c0.1-0.8,0.1-1.5,0.1-2.3c0-9.8-6.9-17.9-16.1-19.8
		V500h209.5c0-0.6,0.1-1.1,0.1-1.7C209.6,478.9,193.8,463.1,174.3,463.1z"/>
	<path class="st1" d="M325.7,463.1c4.5,0,8.8,0.9,12.8,2.4c3.1-10.3,10.8-18.5,20.7-22.4c-1.8-4.2-2.8-8.9-2.8-13.7
		c0-19.5,15.8-35.2,35.2-35.2c2.4,0,4.7,0.2,6.9,0.7c2.2-9.1,6.7-17.3,12.7-24c-2.4-3.3-3.9-7.5-3.9-11.9c0-11.2,9.1-20.2,20.2-20.2
		c1.1,0,2.2,0.1,3.3,0.3c5-25.2,26.7-44.3,53.1-45.2c-0.1-0.8-0.1-1.5-0.1-2.3c0-9.8,6.9-17.9,16.1-19.8V500H290.5
		c0-0.6-0.1-1.1-0.1-1.7C290.4,478.9,306.2,463.1,325.7,463.1z"/>
	<g>
		<path class="st2" d="M378.6,292.6c-0.3-1.3,0.5-2.6,1.7-2.9c1.3-0.3,2.6,0.5,2.9,1.7c0.3,1.3-0.5,2.6-1.7,2.9
			C380.2,294.7,378.9,293.9,378.6,292.6z"/>
		<path class="st2" d="M343.7,311.7c-0.3-1.3,0.5-2.6,1.7-2.9c1.3-0.3,2.6,0.5,2.9,1.7c0.3,1.3-0.5,2.6-1.7,2.9
			C345.3,313.8,344,313,343.7,311.7z"/>
		<path class="st2" d="M358.5,345.4c-0.5-1.9,0.7-3.9,2.6-4.4c1.9-0.5,3.9,0.7,4.4,2.6c0.5,1.9-0.7,3.9-2.6,4.4
			C361,348.5,359,347.3,358.5,345.4z"/>
		<path class="st2" d="M271.6,367.2c-0.3-1.3,0.5-2.6,1.7-2.9c1.3-0.3,2.6,0.5,2.9,1.7c0.3,1.3-0.5,2.6-1.7,2.9
			C273.3,369.2,272,368.4,271.6,367.2z"/>
		<path class="st2" d="M254.9,386.9c-0.3-1.3,0.5-2.6,1.7-2.9c1.3-0.3,2.6,0.5,2.9,1.7c0.3,1.3-0.5,2.6-1.7,2.9
			C256.5,388.9,255.2,388.1,254.9,386.9z"/>
		<path class="st2" d="M254.4,372.7c-0.3-1.3,0.5-2.6,1.7-2.9c1.3-0.3,2.6,0.5,2.9,1.7c0.3,1.3-0.5,2.6-1.7,2.9
			C256.1,374.8,254.8,374,254.4,372.7z"/>
		<path class="st2" d="M373,308.9c-0.3-1.3,0.5-2.6,1.8-2.9c1.3-0.3,2.6,0.5,2.9,1.8c0.3,1.3-0.5,2.6-1.8,2.9
			C374.6,311,373.3,310.2,373,308.9z"/>
		<path class="st2" d="M332.9,339.4c-0.3-1.3,0.5-2.6,1.7-2.9c1.3-0.3,2.6,0.5,2.9,1.7c0.3,1.3-0.5,2.6-1.7,2.9
			C334.5,341.5,333.2,340.7,332.9,339.4z"/>
		<path class="st2" d="M311.6,353.4c-0.3-1.3,0.5-2.6,1.7-2.9c1.3-0.3,2.6,0.5,2.9,1.7c0.3,1.3-0.5,2.6-1.7,2.9
			C313.2,355.5,311.9,354.7,311.6,353.4z"/>
		<path class="st2" d="M290,386.1c-0.3-1.3,0.5-2.6,1.7-2.9c1.3-0.3,2.6,0.5,2.9,1.7c0.3,1.3-0.5,2.6-1.7,2.9
			C291.7,388.2,290.4,387.4,290,386.1z"/>
		<path class="st2" d="M270.2,396c-0.3-1.3,0.5-2.6,1.7-2.9c1.3-0.3,2.6,0.5,2.9,1.7c0.3,1.3-0.5,2.6-1.7,2.9
			C271.8,398.1,270.5,397.3,270.2,396z"/>
		<path class="st2" d="M364.2,302.4c-0.1-0.6,0.2-1.2,0.8-1.3c0.6-0.1,1.2,0.2,1.3,0.8c0.1,0.6-0.2,1.2-0.8,1.3
			S364.4,303,364.2,302.4z"/>
		<path class="st2" d="M377,317c-0.1-0.6,0.2-1.2,0.8-1.3c0.6-0.1,1.2,0.2,1.3,0.8c0.1,0.6-0.2,1.2-0.8,1.3
			C377.7,317.9,377.1,317.6,377,317z"/>
		<path class="st2" d="M351.7,334.8c-0.1-0.6,0.2-1.2,0.8-1.3c0.6-0.1,1.2,0.2,1.3,0.8c0.1,0.6-0.2,1.2-0.8,1.3
			C352.4,335.7,351.8,335.4,351.7,334.8z"/>
		<path class="st2" d="M313.6,390.6c-0.1-0.6,0.2-1.2,0.8-1.3c0.6-0.1,1.2,0.2,1.3,0.8c0.1,0.6-0.2,1.2-0.8,1.3
			C314.3,391.5,313.7,391.2,313.6,390.6z"/>
		<path class="st2" d="M339.1,368.2c-0.1-0.6,0.2-1.2,0.8-1.3c0.6-0.1,1.2,0.2,1.3,0.8s-0.2,1.2-0.8,1.3
			C339.8,369.1,339.3,368.8,339.1,368.2z"/>
		<path class="st2" d="M357.5,323.9c-0.1-0.6,0.2-1.2,0.8-1.3c0.6-0.1,1.2,0.2,1.3,0.8s-0.2,1.2-0.8,1.3
			C358.2,324.9,357.7,324.5,357.5,323.9z"/>
		<path class="st2" d="M312.4,368.7c-0.1-0.6,0.2-1.2,0.8-1.3c0.6-0.1,1.2,0.2,1.3,0.8c0.1,0.6-0.2,1.2-0.8,1.3
			C313.2,369.6,312.6,369.3,312.4,368.7z"/>
		<path class="st2" d="M282.1,376.4c-0.1-0.6,0.2-1.2,0.8-1.3c0.6-0.1,1.2,0.2,1.3,0.8c0.1,0.6-0.2,1.2-0.8,1.3
			C282.9,377.4,282.3,377,282.1,376.4z"/>
		<path class="st2" d="M302.8,360.6c-0.1-0.6,0.2-1.2,0.8-1.3c0.6-0.1,1.2,0.2,1.3,0.8c0.1,0.6-0.2,1.2-0.8,1.3
			C303.6,361.5,303,361.1,302.8,360.6z"/>
		<path class="st2" d="M268.1,378.1c-0.3-1,0.4-2,1.4-2.3c1-0.3,2,0.4,2.3,1.4c0.3,1-0.4,2-1.4,2.3
			C269.4,379.7,268.3,379.1,268.1,378.1z"/>
	</g>
	<g>
		<g>
			<path class="st3" d="M264,390.2c1-0.8,2.5-0.7,3.4,0.4c0.8,1,0.7,2.5-0.4,3.4c-1,0.8-2.5,0.7-3.4-0.4
				C262.8,392.6,263,391.1,264,390.2z"/>
			<path class="st3" d="M232,366.6c1-0.8,2.5-0.7,3.4,0.4c0.8,1,0.7,2.5-0.4,3.4c-1,0.8-2.5,0.7-3.4-0.4
				C230.8,368.9,231,367.4,232,366.6z"/>
			<path class="st3" d="M207.7,394.2c1.6-1.3,3.8-1,5.1,0.5c1.3,1.6,1,3.8-0.5,5.1c-1.6,1.3-3.8,1-5.1-0.5S206.1,395.4,207.7,394.2z
				"/>
			<path class="st3" d="M151.4,324.4c1-0.8,2.5-0.7,3.4,0.4c0.8,1,0.7,2.5-0.4,3.4c-1,0.8-2.5,0.7-3.4-0.4
				C150.3,326.8,150.4,325.3,151.4,324.4z"/>
			<path class="st3" d="M126.5,317.5c1-0.8,2.5-0.7,3.4,0.4c0.8,1,0.7,2.5-0.4,3.4c-1,0.8-2.5,0.7-3.4-0.4
				C125.3,319.8,125.5,318.3,126.5,317.5z"/>
			<path class="st3" d="M139.2,311.1c1-0.8,2.5-0.7,3.4,0.4c0.8,1,0.7,2.5-0.4,3.4c-1,0.8-2.5,0.7-3.4-0.4
				C138,313.5,138.2,312,139.2,311.1z"/>
			<path class="st3" d="M246.9,391.9c1-0.8,2.6-0.6,3.4,0.4c0.8,1,0.6,2.6-0.4,3.4c-1,0.8-2.6,0.6-3.4-0.4
				C245.6,394.3,245.8,392.7,246.9,391.9z"/>
			<path class="st3" d="M202.3,368.4c1-0.8,2.5-0.7,3.4,0.4c0.8,1,0.7,2.5-0.4,3.4c-1,0.8-2.5,0.7-3.4-0.4
				C201.1,370.7,201.3,369.2,202.3,368.4z"/>
			<path class="st3" d="M180.7,354.9c1-0.8,2.5-0.7,3.4,0.4c0.8,1,0.7,2.5-0.4,3.4c-1,0.8-2.5,0.7-3.4-0.4
				C179.5,357.3,179.6,355.8,180.7,354.9z"/>
			<path class="st3" d="M142,349.1c1-0.8,2.5-0.7,3.4,0.4c0.8,1,0.7,2.5-0.4,3.4c-1,0.8-2.5,0.7-3.4-0.4
				C140.8,351.4,140.9,349.9,142,349.1z"/>
			<path class="st3" d="M124.6,335.2c1-0.8,2.5-0.7,3.4,0.4c0.8,1,0.7,2.5-0.4,3.4c-1,0.8-2.5,0.7-3.4-0.4
				C123.4,337.6,123.6,336.1,124.6,335.2z"/>
			<path class="st3" d="M249.1,381.3c0.5-0.4,1.1-0.3,1.5,0.2c0.4,0.5,0.3,1.1-0.2,1.5c-0.5,0.4-1.1,0.3-1.5-0.2
				C248.5,382.4,248.6,381.7,249.1,381.3z"/>
			<path class="st3" d="M241.2,399c0.5-0.4,1.1-0.3,1.5,0.2c0.4,0.5,0.3,1.1-0.2,1.5s-1.1,0.3-1.5-0.2
				C240.7,400,240.7,399.4,241.2,399z"/>
			<path class="st3" d="M214.4,383.5c0.5-0.4,1.1-0.3,1.5,0.2c0.4,0.5,0.3,1.1-0.2,1.5s-1.1,0.3-1.5-0.2
				C213.9,384.6,213.9,383.9,214.4,383.5z"/>
			<path class="st3" d="M147.8,372.4c0.5-0.4,1.1-0.3,1.5,0.2c0.4,0.5,0.3,1.1-0.2,1.5c-0.5,0.4-1.1,0.3-1.5-0.2
				C147.2,373.4,147.3,372.7,147.8,372.4z"/>
			<path class="st3" d="M178.8,386.1c0.5-0.4,1.1-0.3,1.5,0.2c0.4,0.5,0.3,1.1-0.2,1.5c-0.5,0.4-1.1,0.3-1.5-0.2
				C178.3,387.2,178.3,386.5,178.8,386.1z"/>
			<path class="st3" d="M226.7,384.2c0.5-0.4,1.1-0.3,1.5,0.2c0.4,0.5,0.3,1.1-0.2,1.5c-0.5,0.4-1.1,0.3-1.5-0.2
				C226.2,385.3,226.3,384.6,226.7,384.2z"/>
			<path class="st3" d="M167.2,362.1c0.5-0.4,1.1-0.3,1.5,0.2c0.4,0.5,0.3,1.1-0.2,1.5c-0.5,0.4-1.1,0.3-1.5-0.2
				C166.6,363.2,166.7,362.5,167.2,362.1z"/>
			<path class="st3" d="M147.4,337.9c0.5-0.4,1.1-0.3,1.5,0.2c0.4,0.5,0.3,1.1-0.2,1.5c-0.5,0.4-1.1,0.3-1.5-0.2
				C146.9,338.9,147,338.2,147.4,337.9z"/>
			<path class="st3" d="M170.5,350c0.5-0.4,1.1-0.3,1.5,0.2c0.4,0.5,0.3,1.1-0.2,1.5c-0.5,0.4-1.1,0.3-1.5-0.2
				C170,351.1,170.1,350.4,170.5,350z"/>
			<path class="st3" d="M140,325.8c0.8-0.7,2-0.5,2.7,0.3c0.7,0.8,0.5,2-0.3,2.7c-0.8,0.7-2,0.5-2.7-0.3
				C139.1,327.6,139.2,326.5,140,325.8z"/>
		</g>
		<g>
			<path class="st3" d="M378.6,292.6c-0.3-1.3,0.5-2.6,1.7-2.9c1.3-0.3,2.6,0.5,2.9,1.7c0.3,1.3-0.5,2.6-1.7,2.9
				C380.2,294.7,378.9,293.9,378.6,292.6z"/>
			<path class="st3" d="M343.7,311.7c-0.3-1.3,0.5-2.6,1.7-2.9c1.3-0.3,2.6,0.5,2.9,1.7c0.3,1.3-0.5,2.6-1.7,2.9
				C345.3,313.8,344,313,343.7,311.7z"/>
			<path class="st3" d="M358.5,345.4c-0.5-1.9,0.7-3.9,2.6-4.4c1.9-0.5,3.9,0.7,4.4,2.6c0.5,1.9-0.7,3.9-2.6,4.4
				C361,348.5,359,347.3,358.5,345.4z"/>
			<path class="st3" d="M271.6,367.2c-0.3-1.3,0.5-2.6,1.7-2.9c1.3-0.3,2.6,0.5,2.9,1.7c0.3,1.3-0.5,2.6-1.7,2.9
				C273.3,369.2,272,368.4,271.6,367.2z"/>
			<path class="st3" d="M254.9,386.9c-0.3-1.3,0.5-2.6,1.7-2.9c1.3-0.3,2.6,0.5,2.9,1.7c0.3,1.3-0.5,2.6-1.7,2.9
				C256.5,388.9,255.2,388.1,254.9,386.9z"/>
			<path class="st3" d="M254.4,372.7c-0.3-1.3,0.5-2.6,1.7-2.9c1.3-0.3,2.6,0.5,2.9,1.7c0.3,1.3-0.5,2.6-1.7,2.9
				C256.1,374.8,254.8,374,254.4,372.7z"/>
			<path class="st3" d="M373,308.9c-0.3-1.3,0.5-2.6,1.8-2.9c1.3-0.3,2.6,0.5,2.9,1.8c0.3,1.3-0.5,2.6-1.8,2.9
				C374.6,311,373.3,310.2,373,308.9z"/>
			<path class="st3" d="M332.9,339.4c-0.3-1.3,0.5-2.6,1.7-2.9c1.3-0.3,2.6,0.5,2.9,1.7c0.3,1.3-0.5,2.6-1.7,2.9
				C334.5,341.5,333.2,340.7,332.9,339.4z"/>
			<path class="st3" d="M311.6,353.4c-0.3-1.3,0.5-2.6,1.7-2.9c1.3-0.3,2.6,0.5,2.9,1.7c0.3,1.3-0.5,2.6-1.7,2.9
				C313.2,355.5,311.9,354.7,311.6,353.4z"/>
			<path class="st3" d="M290,386.1c-0.3-1.3,0.5-2.6,1.7-2.9c1.3-0.3,2.6,0.5,2.9,1.7c0.3,1.3-0.5,2.6-1.7,2.9
				C291.7,388.2,290.4,387.4,290,386.1z"/>
			<path class="st3" d="M270.2,396c-0.3-1.3,0.5-2.6,1.7-2.9c1.3-0.3,2.6,0.5,2.9,1.7c0.3,1.3-0.5,2.6-1.7,2.9
				C271.8,398.1,270.5,397.3,270.2,396z"/>
			<path class="st3" d="M364.2,302.4c-0.1-0.6,0.2-1.2,0.8-1.3c0.6-0.1,1.2,0.2,1.3,0.8c0.1,0.6-0.2,1.2-0.8,1.3
				S364.4,303,364.2,302.4z"/>
			<path class="st3" d="M377,317c-0.1-0.6,0.2-1.2,0.8-1.3c0.6-0.1,1.2,0.2,1.3,0.8c0.1,0.6-0.2,1.2-0.8,1.3
				C377.7,317.9,377.1,317.6,377,317z"/>
			<path class="st3" d="M351.7,334.8c-0.1-0.6,0.2-1.2,0.8-1.3c0.6-0.1,1.2,0.2,1.3,0.8c0.1,0.6-0.2,1.2-0.8,1.3
				C352.4,335.7,351.8,335.4,351.7,334.8z"/>
			<path class="st3" d="M313.6,390.6c-0.1-0.6,0.2-1.2,0.8-1.3c0.6-0.1,1.2,0.2,1.3,0.8c0.1,0.6-0.2,1.2-0.8,1.3
				C314.3,391.5,313.7,391.2,313.6,390.6z"/>
			<path class="st3" d="M339.1,368.2c-0.1-0.6,0.2-1.2,0.8-1.3c0.6-0.1,1.2,0.2,1.3,0.8s-0.2,1.2-0.8,1.3
				C339.8,369.1,339.3,368.8,339.1,368.2z"/>
			<path class="st3" d="M357.5,323.9c-0.1-0.6,0.2-1.2,0.8-1.3c0.6-0.1,1.2,0.2,1.3,0.8s-0.2,1.2-0.8,1.3
				C358.2,324.9,357.7,324.5,357.5,323.9z"/>
			<path class="st3" d="M312.4,368.7c-0.1-0.6,0.2-1.2,0.8-1.3c0.6-0.1,1.2,0.2,1.3,0.8c0.1,0.6-0.2,1.2-0.8,1.3
				C313.2,369.6,312.6,369.3,312.4,368.7z"/>
			<path class="st3" d="M282.1,376.4c-0.1-0.6,0.2-1.2,0.8-1.3c0.6-0.1,1.2,0.2,1.3,0.8c0.1,0.6-0.2,1.2-0.8,1.3
				C282.9,377.4,282.3,377,282.1,376.4z"/>
			<path class="st3" d="M302.8,360.6c-0.1-0.6,0.2-1.2,0.8-1.3c0.6-0.1,1.2,0.2,1.3,0.8c0.1,0.6-0.2,1.2-0.8,1.3
				C303.6,361.5,303,361.1,302.8,360.6z"/>
			<path class="st3" d="M268.1,378.1c-0.3-1,0.4-2,1.4-2.3c1-0.3,2,0.4,2.3,1.4c0.3,1-0.4,2-1.4,2.3
				C269.4,379.7,268.3,379.1,268.1,378.1z"/>
		</g>
		<g>
			<path class="st3" d="M300.2,139.7c-1.3,0.1-2.5-0.9-2.6-2.2c-0.1-1.3,0.9-2.5,2.2-2.6c1.3-0.1,2.5,0.9,2.6,2.2
				C302.5,138.4,301.5,139.6,300.2,139.7z"/>
			<circle class="st3" cx="312.8" cy="174.9" r="2.4"/>
			<path class="st3" d="M348.7,168.5c-2,0.1-3.7-1.3-3.9-3.3c-0.1-2,1.3-3.7,3.3-3.9s3.7,1.3,3.9,3.3
				C352.2,166.6,350.7,168.3,348.7,168.5z"/>
			<path class="st3" d="M355.2,257.8c-1.3,0.1-2.5-0.9-2.6-2.2c-0.1-1.3,0.9-2.5,2.2-2.6c1.3-0.1,2.5,0.9,2.6,2.2
				C357.5,256.6,356.5,257.8,355.2,257.8z"/>
			<path class="st3" d="M371.7,277.7c-1.3,0.1-2.5-0.9-2.6-2.2c-0.1-1.3,0.9-2.5,2.2-2.6c1.3-0.1,2.5,0.9,2.6,2.2
				C374,276.5,373,277.7,371.7,277.7z"/>
			<path class="st3" d="M357.7,275.8c-1.3,0.1-2.5-0.9-2.6-2.2c-0.1-1.3,0.9-2.5,2.2-2.6c1.3-0.1,2.5,0.9,2.6,2.2
				C360,274.5,359,275.7,357.7,275.8z"/>
			<path class="st3" d="M315.2,148c-1.3,0.1-2.5-0.9-2.5-2.3c-0.1-1.3,0.9-2.5,2.3-2.5s2.5,0.9,2.5,2.3
				C317.6,146.8,316.5,147.9,315.2,148z"/>
			<path class="st3" d="M338.4,192.8c-1.3,0.1-2.5-0.9-2.6-2.2c-0.1-1.3,0.9-2.5,2.2-2.6c1.3-0.1,2.5,0.9,2.6,2.2
				C340.7,191.5,339.7,192.7,338.4,192.8z"/>
			<path class="st3" d="M348.5,216.1c-1.3,0.1-2.5-0.9-2.6-2.2c-0.1-1.3,0.9-2.5,2.2-2.6c1.3-0.1,2.5,0.9,2.6,2.2
				C350.9,214.9,349.9,216,348.5,216.1z"/>
			<path class="st3" d="M377,243c-1.3,0.1-2.5-0.9-2.6-2.2c-0.1-1.3,0.9-2.5,2.2-2.6c1.3-0.1,2.5,0.9,2.6,2.2
				C379.3,241.7,378.4,242.9,377,243z"/>
			<path class="st3" d="M383.4,264.2c-1.3,0.1-2.5-0.9-2.6-2.2c-0.1-1.3,0.9-2.5,2.2-2.6c1.3-0.1,2.5,0.9,2.6,2.2
				C385.7,263,384.7,264.1,383.4,264.2z"/>
			<path class="st3" d="M307.4,155.5c-0.6,0-1.1-0.4-1.2-1c0-0.6,0.4-1.1,1-1.2c0.6,0,1.1,0.4,1.2,1
				C308.4,154.9,308,155.5,307.4,155.5z"/>
			<path class="st3" d="M323.9,145.5c-0.6,0-1.1-0.4-1.2-1c0-0.6,0.4-1.1,1-1.2c0.6,0,1.1,0.4,1.2,1
				C325,144.9,324.5,145.4,323.9,145.5z"/>
			<path class="st3" d="M337.1,173.4c-0.6,0-1.1-0.4-1.2-1c0-0.6,0.4-1.1,1-1.2c0.6,0,1.1,0.4,1.2,1S337.7,173.4,337.1,173.4z"/>
			<path class="st3" d="M385.5,220.6c-0.6,0-1.1-0.4-1.2-1c0-0.6,0.4-1.1,1-1.2c0.6,0,1.1,0.4,1.2,1
				C386.6,220,386.1,220.5,385.5,220.6z"/>
			<path class="st3" d="M367.9,191.6c-0.6,0-1.1-0.4-1.2-1c0-0.6,0.4-1.1,1-1.2c0.6,0,1.1,0.4,1.2,1
				C368.9,191,368.5,191.5,367.9,191.6z"/>
			<path class="st3" d="M327.4,165.8c-0.6,0-1.1-0.4-1.2-1c0-0.6,0.4-1.1,1-1.2c0.6,0,1.1,0.4,1.2,1
				C328.4,165.3,328,165.8,327.4,165.8z"/>
			<path class="st3" d="M363.7,217.9c-0.6,0-1.1-0.4-1.2-1c0-0.6,0.4-1.1,1-1.2c0.6,0,1.1,0.4,1.2,1
				C364.8,217.4,364.3,217.9,363.7,217.9z"/>
			<path class="st3" d="M366.1,249.1c-0.6,0-1.1-0.4-1.2-1c0-0.6,0.4-1.1,1-1.2c0.6,0,1.1,0.4,1.2,1S366.7,249.1,366.1,249.1z"/>
			<path class="st3" d="M354.1,226c-0.6,0-1.1-0.4-1.2-1c0-0.6,0.4-1.1,1-1.2c0.6,0,1.1,0.4,1.2,1
				C355.1,225.4,354.7,225.9,354.1,226z"/>
			<path class="st3" d="M365.4,263.2c-1,0.1-2-0.7-2-1.8c-0.1-1,0.7-2,1.8-2c1-0.1,2,0.7,2,1.8C367.2,262.2,366.4,263.2,365.4,263.2
				z"/>
		</g>
		<g>
			<path class="st3" d="M158.7,186.5c-0.2,1.3-1.3,2.3-2.7,2.1c-1.3-0.2-2.3-1.3-2.1-2.7s1.3-2.3,2.7-2.1
				C157.9,183.9,158.8,185.1,158.7,186.5z"/>
			<path class="st3" d="M198.1,181c-0.2,1.3-1.3,2.3-2.7,2.1c-1.3-0.2-2.3-1.3-2.1-2.7c0.2-1.3,1.3-2.3,2.7-2.1
				C197.3,178.5,198.2,179.7,198.1,181z"/>
			<path class="st3" d="M196.1,144.2c-0.2,2-2,3.4-4,3.2c-2-0.2-3.4-2-3.2-4c0.2-2,2-3.4,4-3.2C194.9,140.5,196.3,142.3,196.1,144.2
				z"/>
			<path class="st3" d="M285.1,154.7c-0.2,1.3-1.3,2.3-2.7,2.1s-2.3-1.3-2.1-2.7c0.2-1.3,1.3-2.3,2.7-2.1
				C284.3,152.1,285.2,153.3,285.1,154.7z"/>
			<path class="st3" d="M307.7,142.2c-0.2,1.3-1.3,2.3-2.7,2.1s-2.3-1.3-2.1-2.7c0.2-1.3,1.3-2.3,2.7-2.1S307.9,140.9,307.7,142.2z"
				/>
			<path class="st3" d="M303.1,155.6c-0.2,1.3-1.3,2.3-2.7,2.1c-1.3-0.2-2.3-1.3-2.1-2.7c0.2-1.3,1.3-2.3,2.7-2.1
				S303.3,154.2,303.1,155.6z"/>
			<path class="st3" d="M169.7,173.3c-0.2,1.3-1.4,2.2-2.7,2.1c-1.3-0.2-2.2-1.4-2.1-2.7c0.2-1.3,1.4-2.2,2.7-2.1
				C168.9,170.7,169.9,171.9,169.7,173.3z"/>
			<path class="st3" d="M218,158.9c-0.2,1.3-1.3,2.3-2.7,2.1c-1.3-0.2-2.3-1.3-2.1-2.7c0.2-1.3,1.3-2.3,2.7-2.1
				C217.2,156.4,218.1,157.6,218,158.9z"/>
			<path class="st3" d="M242.9,153.3c-0.2,1.3-1.3,2.3-2.7,2.1s-2.3-1.3-2.1-2.7c0.2-1.3,1.3-2.3,2.7-2.1S243,152,242.9,153.3z"/>
			<path class="st3" d="M274.6,130.4c-0.2,1.3-1.3,2.3-2.7,2.1c-1.3-0.2-2.3-1.3-2.1-2.7s1.3-2.3,2.7-2.1
				C273.8,127.9,274.8,129.1,274.6,130.4z"/>
			<path class="st3" d="M296.7,128.2c-0.2,1.3-1.3,2.3-2.7,2.1s-2.3-1.3-2.1-2.7s1.3-2.3,2.7-2.1
				C295.9,125.7,296.8,126.8,296.7,128.2z"/>
			<path class="st3" d="M175.6,182.4c-0.1,0.6-0.6,1-1.2,1c-0.6-0.1-1-0.6-1-1.2c0.1-0.6,0.6-1,1.2-1
				C175.2,181.3,175.6,181.8,175.6,182.4z"/>
			<path class="st3" d="M168.8,164.2c-0.1,0.6-0.6,1-1.2,1c-0.6-0.1-1-0.6-1-1.2c0.1-0.6,0.6-1,1.2-0.9
				C168.5,163.1,168.9,163.6,168.8,164.2z"/>
			<path class="st3" d="M198.8,156.5c-0.1,0.6-0.6,1-1.2,1c-0.6-0.1-1-0.6-1-1.2c0.1-0.6,0.6-1,1.2-1
				C198.4,155.4,198.8,155.9,198.8,156.5z"/>
			<path class="st3" d="M254.2,117.9c-0.1,0.6-0.6,1-1.2,1c-0.6-0.1-1-0.6-1-1.2c0.1-0.6,0.6-1,1.2-1
				C253.8,116.7,254.2,117.3,254.2,117.9z"/>
			<path class="st3" d="M222.4,129.8c-0.1,0.6-0.6,1-1.2,1c-0.6-0.1-1-0.6-1-1.2c0.1-0.6,0.6-1,1.2-1
				C222,128.6,222.5,129.2,222.4,129.8z"/>
			<path class="st3" d="M189.5,164.6c-0.1,0.6-0.6,1-1.2,1c-0.6-0.1-1-0.6-1-1.2c0.1-0.6,0.6-1,1.2-1
				C189.1,163.5,189.5,164,189.5,164.6z"/>
			<path class="st3" d="M247.5,138.7c-0.1,0.6-0.6,1-1.2,1c-0.6-0.1-1-0.6-1-1.2c0.1-0.6,0.6-1,1.2-1
				C247.1,137.6,247.6,138.2,247.5,138.7z"/>
			<path class="st3" d="M278.6,142.3c-0.1,0.6-0.6,1-1.2,0.9c-0.6-0.1-1-0.6-1-1.2c0.1-0.6,0.6-1,1.2-1
				C278.2,141.1,278.6,141.7,278.6,142.3z"/>
			<path class="st3" d="M253.6,149.8c-0.1,0.6-0.6,1-1.2,1c-0.6-0.1-1-0.6-1-1.2c0.1-0.6,0.6-1,1.2-1
				C253.2,148.6,253.6,149.2,253.6,149.8z"/>
			<path class="st3" d="M292.3,145.7c-0.1,1-1.1,1.8-2.1,1.7c-1-0.1-1.8-1.1-1.7-2.1c0.1-1,1.1-1.8,2.1-1.7
				C291.7,143.7,292.4,144.7,292.3,145.7z"/>
		</g>
		<g>
			<path class="st3" d="M152.2,338.6c1.3,0.4,2,1.7,1.7,3c-0.4,1.3-1.7,2-3,1.7c-1.3-0.4-2-1.7-1.7-3
				C149.6,339,150.9,338.2,152.2,338.6z"/>
			<path class="st3" d="M152.8,298.8c1.3,0.4,2,1.7,1.7,3c-0.4,1.3-1.7,2-3,1.7c-1.3-0.4-2-1.7-1.7-3
				C150.2,299.2,151.5,298.4,152.8,298.8z"/>
			<path class="st3" d="M116.2,295.1c1.9,0.5,3,2.5,2.5,4.4c-0.5,1.9-2.5,3-4.4,2.5c-1.9-0.5-3-2.5-2.5-4.4
				C112.3,295.7,114.3,294.6,116.2,295.1z"/>
			<path class="st3" d="M140.1,208.8c1.3,0.4,2,1.7,1.7,3c-0.4,1.3-1.7,2-3,1.7c-1.3-0.4-2-1.7-1.7-3
				C137.5,209.1,138.8,208.4,140.1,208.8z"/>
			<path class="st3" d="M131.3,184.5c1.3,0.4,2,1.7,1.7,3c-0.4,1.3-1.7,2-3,1.7c-1.3-0.4-2-1.7-1.7-3
				C128.7,184.9,130,184.1,131.3,184.5z"/>
			<path class="st3" d="M143.8,191c1.3,0.4,2,1.7,1.7,3c-0.4,1.3-1.7,2-3,1.7c-1.3-0.4-2-1.7-1.7-3
				C141.2,191.4,142.5,190.7,143.8,191z"/>
			<path class="st3" d="M140.8,325.6c1.3,0.4,2,1.7,1.6,3c-0.4,1.3-1.7,2-3,1.6c-1.3-0.4-2-1.7-1.6-3
				C138.2,326,139.6,325.3,140.8,325.6z"/>
			<path class="st3" d="M134.1,275.7c1.3,0.4,2,1.7,1.7,3c-0.4,1.3-1.7,2-3,1.7c-1.3-0.4-2-1.7-1.7-3
				C131.4,276.1,132.8,275.4,134.1,275.7z"/>
			<path class="st3" d="M132.4,250.3c1.3,0.4,2,1.7,1.7,3c-0.4,1.3-1.7,2-3,1.7c-1.3-0.4-2-1.7-1.7-3
				C129.8,250.7,131.1,249.9,132.4,250.3z"/>
			<path class="st3" d="M114.6,215.4c1.3,0.4,2,1.7,1.7,3c-0.4,1.3-1.7,2-3,1.7c-1.3-0.4-2-1.7-1.7-3
				C112,215.8,113.3,215,114.6,215.4z"/>
			<path class="st3" d="M115.7,193.3c1.3,0.4,2,1.7,1.7,3c-0.4,1.3-1.7,2-3,1.7c-1.3-0.4-2-1.7-1.7-3
				C113.1,193.7,114.4,192.9,115.7,193.3z"/>
			<path class="st3" d="M150.8,321.2c0.6,0.2,0.9,0.8,0.8,1.3c-0.2,0.6-0.8,0.9-1.3,0.8c-0.6-0.2-0.9-0.8-0.8-1.3
				C149.6,321.4,150.2,321.1,150.8,321.2z"/>
			<path class="st3" d="M131.8,325.1c0.6,0.2,0.9,0.8,0.8,1.3c-0.2,0.6-0.8,0.9-1.3,0.8c-0.6-0.2-0.9-0.8-0.8-1.3
				C130.6,325.3,131.2,325,131.8,325.1z"/>
			<path class="st3" d="M128.8,294.3c0.6,0.2,0.9,0.8,0.8,1.3c-0.2,0.6-0.8,0.9-1.3,0.8c-0.6-0.2-0.9-0.8-0.8-1.3
				C127.6,294.5,128.2,294.2,128.8,294.3z"/>
			<path class="st3" d="M99,233.7c0.6,0.2,0.9,0.8,0.8,1.3c-0.2,0.6-0.8,0.9-1.3,0.8c-0.6-0.2-0.9-0.8-0.8-1.3
				C97.8,233.9,98.4,233.5,99,233.7z"/>
			<path class="st3" d="M105.9,266.9c0.6,0.2,0.9,0.8,0.8,1.3c-0.2,0.6-0.8,0.9-1.3,0.8c-0.6-0.2-0.9-0.8-0.8-1.3
				C104.7,267.1,105.3,266.7,105.9,266.9z"/>
			<path class="st3" d="M135.4,304.8c0.6,0.2,0.9,0.8,0.8,1.3c-0.2,0.6-0.8,0.9-1.3,0.8c-0.6-0.2-0.9-0.8-0.8-1.3
				C134.2,304.9,134.8,304.6,135.4,304.8z"/>
			<path class="st3" d="M118.6,243.5c0.6,0.2,0.9,0.8,0.8,1.3c-0.2,0.6-0.8,0.9-1.3,0.8c-0.6-0.2-0.9-0.8-0.8-1.3
				C117.5,243.7,118.1,243.3,118.6,243.5z"/>
			<path class="st3" d="M126.9,213.3c0.6,0.2,0.9,0.8,0.8,1.3c-0.2,0.6-0.8,0.9-1.3,0.8s-0.9-0.8-0.8-1.3
				C125.7,213.5,126.3,213.2,126.9,213.3z"/>
			<path class="st3" d="M130.5,239.1c0.6,0.2,0.9,0.8,0.8,1.3c-0.2,0.6-0.8,0.9-1.3,0.8c-0.6-0.2-0.9-0.8-0.8-1.3
				C129.3,239.3,129.9,239,130.5,239.1z"/>
			<path class="st3" d="M132.4,200.3c1,0.3,1.6,1.3,1.3,2.3c-0.3,1-1.3,1.6-2.3,1.3c-1-0.3-1.6-1.3-1.3-2.3
				C130.3,200.6,131.4,200,132.4,200.3z"/>
		</g>
		<g>
			<g>
				<path class="st4" d="M434.9,336.9c0-1.4-1.1-2.5-2.5-2.5c-1.4,0-2.5,1.1-2.5,2.5c0,1.4,1.1,2.5,2.5,2.5
					C433.8,339.5,434.9,338.3,434.9,336.9z"/>
				<path class="st4" d="M424.4,411.7c0-1.4-1.1-2.5-2.5-2.5c-1.4,0-2.5,1.1-2.5,2.5c0,1.4,1.1,2.5,2.5,2.5
					C423.3,414.2,424.4,413,424.4,411.7z"/>
				<path class="st4" d="M433.3,475.9c0-1.4-1.1-2.5-2.5-2.5c-1.4,0-2.5,1.1-2.5,2.5s1.1,2.5,2.5,2.5
					C432.1,478.5,433.3,477.3,433.3,475.9z"/>
				<circle class="st4" cx="37.5" cy="440.6" r="2.5"/>
				<path class="st4" d="M77.8,410.4c0-1.4-1.1-2.5-2.5-2.5c-1.4,0-2.5,1.1-2.5,2.5c0,1.4,1.1,2.5,2.5,2.5
					C76.7,412.9,77.8,411.8,77.8,410.4z"/>
				<path class="st4" d="M32.4,199.9c0-1.4-1.1-2.5-2.5-2.5c-1.4,0-2.5,1.1-2.5,2.5s1.1,2.5,2.5,2.5
					C31.3,202.4,32.4,201.3,32.4,199.9z"/>
				<path class="st4" d="M466,226c0-1.4-1.1-2.5-2.5-2.5c-1.4,0-2.5,1.1-2.5,2.5c0,1.4,1.1,2.5,2.5,2.5
					C464.9,228.5,466,227.4,466,226z"/>
				<path class="st4" d="M448.8,174.8c0-0.7-0.6-1.3-1.3-1.3c-0.7,0-1.3,0.6-1.3,1.3c0,0.7,0.6,1.3,1.3,1.3
					C448.2,176,448.8,175.5,448.8,174.8z"/>
				<path class="st4" d="M473.6,169.6c0-0.7-0.6-1.3-1.3-1.3c-0.7,0-1.3,0.6-1.3,1.3c0,0.7,0.6,1.3,1.3,1.3
					C473,170.9,473.6,170.3,473.6,169.6z"/>
				<path class="st4" d="M47.6,163.3c0-0.7-0.6-1.3-1.3-1.3c-0.7,0-1.3,0.6-1.3,1.3c0,0.7,0.6,1.3,1.3,1.3
					C47,164.6,47.6,164,47.6,163.3z"/>
				<path class="st4" d="M100.5,400.3c0-0.7-0.6-1.3-1.3-1.3c-0.7,0-1.3,0.6-1.3,1.3c0,0.7,0.6,1.3,1.3,1.3
					C99.9,401.6,100.5,401,100.5,400.3z"/>
				<path class="st4" d="M75.3,467.1c0-0.7-0.6-1.3-1.3-1.3c-0.7,0-1.3,0.6-1.3,1.3c0,0.7,0.6,1.3,1.3,1.3
					C74.7,468.4,75.3,467.8,75.3,467.1z"/>
				<path class="st4" d="M255.5,449.5c0-0.7-0.6-1.3-1.3-1.3c-0.7,0-1.3,0.6-1.3,1.3c0,0.7,0.6,1.3,1.3,1.3
					C255,450.7,255.5,450.2,255.5,449.5z"/>
				<path class="st4" d="M352.6,475.9c0-0.7-0.6-1.3-1.3-1.3c-0.7,0-1.3,0.6-1.3,1.3c0,0.7,0.6,1.3,1.3,1.3
					C352,477.2,352.6,476.6,352.6,475.9z"/>
				<path class="st4" d="M459.7,453.2c0-0.7-0.6-1.3-1.3-1.3c-0.7,0-1.3,0.6-1.3,1.3c0,0.7,0.6,1.3,1.3,1.3
					C459.2,454.5,459.7,453.9,459.7,453.2z"/>
				<path class="st4" d="M467.3,367.5c0-0.7-0.6-1.3-1.3-1.3s-1.3,0.6-1.3,1.3c0,0.7,0.6,1.3,1.3,1.3S467.3,368.2,467.3,367.5z"/>
				<path class="st4" d="M35,402.8c0-0.7-0.6-1.3-1.3-1.3c-0.7,0-1.3,0.6-1.3,1.3c0,0.7,0.6,1.3,1.3,1.3
					C34.4,404.1,35,403.5,35,402.8z"/>
				<path class="st4" d="M464.8,409.1c0-0.7-0.6-1.3-1.3-1.3c-0.7,0-1.3,0.6-1.3,1.3c0,0.7,0.6,1.3,1.3,1.3
					C464.2,410.4,464.8,409.8,464.8,409.1z"/>
				<path class="st4" d="M386.6,450.7c0-0.7-0.6-1.3-1.3-1.3c-0.7,0-1.3,0.6-1.3,1.3c0,0.7,0.6,1.3,1.3,1.3
					C386.1,452,386.6,451.4,386.6,450.7z"/>
				<path class="st4" d="M262.3,475.9c0-1-0.8-1.7-1.7-1.7c-1,0-1.7,0.8-1.7,1.7c0,1,0.8,1.7,1.7,1.7
					C261.5,477.7,262.3,476.9,262.3,475.9z"/>
				<path class="st4" d="M160.2,433.1c0-1-0.8-1.7-1.7-1.7s-1.7,0.8-1.7,1.7c0,1,0.8,1.7,1.7,1.7S160.2,434,160.2,433.1z"/>
				<path class="st4" d="M480.4,272.2c0-1.9-1.6-3.5-3.5-3.5c-1.9,0-3.5,1.6-3.5,3.5c0,1.9,1.6,3.5,3.5,3.5
					C478.8,275.7,480.4,274.2,480.4,272.2z"/>
				<circle class="st4" cx="320.6" cy="442" r="4.4"/>
				<path class="st4" d="M64.5,331.7c0-2.4-2-4.4-4.4-4.4c-2.4,0-4.4,2-4.4,4.4c0,2.4,2,4.4,4.4,4.4
					C62.5,336.1,64.5,334.1,64.5,331.7z"/>
				<path class="st4" d="M111.2,453.9c0-2.4-2-4.4-4.4-4.4c-2.4,0-4.4,2-4.4,4.4c0,2.4,2,4.4,4.4,4.4
					C109.3,458.3,111.2,456.3,111.2,453.9z"/>
				<circle class="st4" cx="192.5" cy="471.5" r="4.4"/>
			</g>
			<g>
				<path class="st4" d="M387.4,312c0-1.1-0.9-2-2-2c-1.1,0-2,0.9-2,2c0,1.1,0.9,2,2,2C386.5,314,387.4,313.1,387.4,312z"/>
				<path class="st4" d="M379.1,371.3c0-1.1-0.9-2-2-2c-1.1,0-2,0.9-2,2c0,1.1,0.9,2,2,2C378.2,373.3,379.1,372.4,379.1,371.3z"/>
				<circle class="st4" cx="384.1" cy="422.4" r="2"/>
				<path class="st4" d="M73.6,394.4c0-1.1-0.9-2-2-2s-2,0.9-2,2c0,1.1,0.9,2,2,2S73.6,395.5,73.6,394.4z"/>
				<path class="st4" d="M103.7,370.3c0-1.1-0.9-2-2-2c-1.1,0-2,0.9-2,2s0.9,2,2,2C102.8,372.3,103.7,371.4,103.7,370.3z"/>
				<path class="st4" d="M67.6,203c0-1.1-0.9-2-2-2s-2,0.9-2,2c0,1.1,0.9,2,2,2S67.6,204.2,67.6,203z"/>
				<circle class="st4" cx="410.1" cy="223.8" r="2"/>
				<path class="st4" d="M398.4,183.1c0-0.6-0.4-1-1-1c-0.6,0-1,0.4-1,1c0,0.6,0.4,1,1,1C398,184.1,398.4,183.6,398.4,183.1z"/>
				<path class="st4" d="M418.2,179c0-0.6-0.4-1-1-1c-0.6,0-1,0.4-1,1c0,0.6,0.4,1,1,1C417.7,180,418.2,179.6,418.2,179z"/>
				<path class="st4" d="M79.6,174c0-0.6-0.4-1-1-1c-0.6,0-1,0.4-1,1c0,0.6,0.4,1,1,1C79.2,175,79.6,174.6,79.6,174z"/>
				<path class="st4" d="M121.7,362.3c0-0.6-0.4-1-1-1c-0.6,0-1,0.4-1,1c0,0.6,0.4,1,1,1C121.2,363.3,121.7,362.9,121.7,362.3z"/>
				<path class="st4" d="M101.6,415.4c0-0.6-0.4-1-1-1c-0.6,0-1,0.4-1,1c0,0.6,0.4,1,1,1C101.2,416.4,101.6,416,101.6,415.4z"/>
				<path class="st4" d="M244.9,401.4c0-0.6-0.4-1-1-1c-0.6,0-1,0.4-1,1c0,0.6,0.4,1,1,1C244.4,402.4,244.9,401.9,244.9,401.4z"/>
				<path class="st4" d="M322,422.4c0-0.6-0.4-1-1-1c-0.6,0-1,0.4-1,1c0,0.6,0.4,1,1,1C321.6,423.4,322,423,322,422.4z"/>
				<path class="st4" d="M407.2,404.4c0-0.6-0.4-1-1-1c-0.6,0-1,0.4-1,1c0,0.6,0.4,1,1,1C406.7,405.4,407.2,404.9,407.2,404.4z"/>
				<path class="st4" d="M413.2,336.3c0-0.6-0.4-1-1-1c-0.6,0-1,0.4-1,1c0,0.6,0.4,1,1,1C412.7,337.3,413.2,336.8,413.2,336.3z"/>
				<circle class="st4" cx="68.6" cy="364.3" r="1"/>
				<path class="st4" d="M411.2,369.3c0-0.6-0.4-1-1-1c-0.6,0-1,0.4-1,1c0,0.6,0.4,1,1,1C410.7,370.3,411.2,369.9,411.2,369.3z"/>
				<path class="st4" d="M349.1,402.4c0-0.6-0.4-1-1-1c-0.6,0-1,0.4-1,1c0,0.6,0.4,1,1,1C348.6,403.4,349.1,402.9,349.1,402.4z"/>
				<path class="st4" d="M250.3,422.4c0-0.8-0.6-1.4-1.4-1.4c-0.8,0-1.4,0.6-1.4,1.4c0,0.8,0.6,1.4,1.4,1.4
					C249.7,423.8,250.3,423.2,250.3,422.4z"/>
				<path class="st4" d="M169.1,388.4c0-0.8-0.6-1.4-1.4-1.4s-1.4,0.6-1.4,1.4c0,0.8,0.6,1.4,1.4,1.4S169.1,389.1,169.1,388.4z"/>
				<path class="st4" d="M423.6,260.5c0-1.5-1.2-2.8-2.8-2.8c-1.5,0-2.8,1.2-2.8,2.8c0,1.5,1.2,2.8,2.8,2.8
					C422.3,263.3,423.6,262.1,423.6,260.5z"/>
				<path class="st4" d="M300.1,395.4c0-1.9-1.6-3.5-3.5-3.5c-1.9,0-3.5,1.6-3.5,3.5s1.6,3.5,3.5,3.5
					C298.5,398.9,300.1,397.4,300.1,395.4z"/>
				<path class="st4" d="M93.1,307.8c0-1.9-1.6-3.5-3.5-3.5s-3.5,1.6-3.5,3.5c0,1.9,1.6,3.5,3.5,3.5S93.1,309.7,93.1,307.8z"/>
				<path class="st4" d="M130.2,404.9c0-1.9-1.6-3.5-3.5-3.5c-1.9,0-3.5,1.6-3.5,3.5c0,1.9,1.6,3.5,3.5,3.5
					C128.6,408.4,130.2,406.8,130.2,404.9z"/>
				<path class="st4" d="M198.3,418.9c0-1.9-1.6-3.5-3.5-3.5c-1.9,0-3.5,1.6-3.5,3.5c0,1.9,1.6,3.5,3.5,3.5
					C196.7,422.4,198.3,420.8,198.3,418.9z"/>
			</g>
		</g>
	</g>
	<g>
		<path class="st5" d="M387.1,209.9l0.9-3.6c0.2-0.7,1.2-0.7,1.4,0l0.9,3.6c0.1,0.2,0.3,0.4,0.5,0.5l3.6,0.9c0.7,0.2,0.7,1.2,0,1.4
			l-3.6,0.9c-0.2,0.1-0.4,0.3-0.5,0.5l-0.9,3.6c-0.2,0.7-1.2,0.7-1.4,0l-0.9-3.6c-0.1-0.2-0.3-0.4-0.5-0.5l-3.6-0.9
			c-0.7-0.2-0.7-1.2,0-1.4l3.6-0.9C386.9,210.3,387.1,210.2,387.1,209.9z"/>
		<path class="st5" d="M115.4,305l1.8-7.3c0.4-1.4,2.4-1.4,2.7,0l1.8,7.3c0.1,0.5,0.5,0.9,1,1l7.3,1.8c1.4,0.4,1.4,2.4,0,2.7
			l-7.3,1.8c-0.5,0.1-0.9,0.5-1,1l-1.8,7.3c-0.4,1.4-2.4,1.4-2.7,0l-1.8-7.3c-0.1-0.5-0.5-0.9-1-1l-7.3-1.8c-1.4-0.4-1.4-2.4,0-2.7
			l7.3-1.8C114.9,305.9,115.3,305.5,115.4,305z"/>
		<path class="st5" d="M209.3,130.2l0.9-3.6c0.2-0.7,1.2-0.7,1.4,0l0.9,3.6c0.1,0.2,0.3,0.4,0.5,0.5l3.6,0.9c0.7,0.2,0.7,1.2,0,1.4
			l-3.6,0.9c-0.2,0.1-0.4,0.3-0.5,0.5l-0.9,3.6c-0.2,0.7-1.2,0.7-1.4,0l-0.9-3.6c-0.1-0.2-0.3-0.4-0.5-0.5l-3.6-0.9
			c-0.7-0.2-0.7-1.2,0-1.4l3.6-0.9C209,130.7,209.2,130.5,209.3,130.2z"/>
		<path class="st5" d="M241,399.2l0.9-3.6c0.2-0.7,1.2-0.7,1.4,0l0.9,3.6c0.1,0.2,0.3,0.4,0.5,0.5l3.6,0.9c0.7,0.2,0.7,1.2,0,1.4
			l-3.6,0.9c-0.2,0.1-0.4,0.3-0.5,0.5l-0.9,3.6c-0.2,0.7-1.2,0.7-1.4,0l-0.9-3.6c-0.1-0.2-0.3-0.4-0.5-0.5l-3.6-0.9
			c-0.7-0.2-0.7-1.2,0-1.4l3.6-0.9C240.7,399.6,240.9,399.4,241,399.2z"/>
		<path class="st5" d="M438.7,294.2l0.6-2.3c0.1-0.4,0.7-0.4,0.8,0l0.6,2.3c0,0.2,0.2,0.3,0.3,0.3l2.3,0.6c0.4,0.1,0.4,0.7,0,0.8
			l-2.3,0.6c-0.2,0-0.3,0.2-0.3,0.3l-0.6,2.3c-0.1,0.4-0.7,0.4-0.8,0l-0.6-2.3c0-0.2-0.2-0.3-0.3-0.3l-2.3-0.6
			c-0.4-0.1-0.4-0.7,0-0.8l2.3-0.6C438.5,294.5,438.7,294.4,438.7,294.2z"/>
		<path class="st5" d="M308.9,379.7l0.7-2.7c0.1-0.5,0.9-0.5,1,0l0.7,2.7c0,0.2,0.2,0.3,0.4,0.4l2.7,0.7c0.5,0.1,0.5,0.9,0,1
			l-2.7,0.7c-0.2,0-0.3,0.2-0.4,0.4l-0.7,2.7c-0.1,0.5-0.9,0.5-1,0l-0.7-2.7c0-0.2-0.2-0.3-0.4-0.4l-2.7-0.7c-0.5-0.1-0.5-0.9,0-1
			l2.7-0.7C308.7,380,308.8,379.9,308.9,379.7z"/>
		<path class="st5" d="M67.9,155l0.7-2.7c0.1-0.5,0.9-0.5,1,0l0.7,2.7c0,0.2,0.2,0.3,0.4,0.4l2.7,0.7c0.5,0.1,0.5,0.9,0,1l-2.7,0.7
			c-0.2,0-0.3,0.2-0.4,0.4l-0.7,2.7c-0.1,0.5-0.9,0.5-1,0l-0.7-2.7c0-0.2-0.2-0.3-0.4-0.4l-2.7-0.7c-0.5-0.1-0.5-0.9,0-1l2.7-0.7
			C67.7,155.3,67.9,155.2,67.9,155z"/>
		<path class="st5" d="M86.7,253.5l0.7-2.7c0.1-0.5,0.9-0.5,1,0l0.7,2.7c0,0.2,0.2,0.3,0.4,0.4l2.7,0.7c0.5,0.1,0.5,0.9,0,1
			l-2.7,0.7c-0.2,0-0.3,0.2-0.4,0.4l-0.7,2.7c-0.1,0.5-0.9,0.5-1,0l-0.7-2.7c0-0.2-0.2-0.3-0.4-0.4l-2.7-0.7c-0.5-0.1-0.5-0.9,0-1
			l2.7-0.7C86.5,253.8,86.7,253.7,86.7,253.5z"/>
	</g>
	<g class="st6">
		<g class="st7">
			
				<ellipse transform="matrix(0.7071 -0.7071 0.7071 0.7071 -114.3777 251.2575)" class="st3" cx="246.1" cy="263.7" rx="115.9" ry="115.9"/>
			
				<ellipse transform="matrix(0.7071 -0.7071 0.7071 0.7071 -114.3777 251.2575)" class="st8" cx="246.1" cy="263.7" rx="107.8" ry="107.8"/>
			<path class="st5" d="M322.5,233c0-23.6-8.2-45.3-22-62.4c-16-9.3-34.6-14.7-54.4-14.7c-59.6,0-107.8,48.3-107.8,107.8
				c0,9.3,1.2,18.3,3.4,27c18.1,25.4,47.7,42,81.2,42C277.9,332.6,322.5,288,322.5,233z"/>
		</g>
		<g class="st7">
			<circle class="st9" cx="157.2" cy="281.5" r="2.8"/>
			<circle class="st9" cx="201.2" cy="270.1" r="2.8"/>
			<path class="st9" d="M196.9,228.6c0,2.3-1.8,4.1-4.1,4.1s-4.1-1.8-4.1-4.1c0-2.3,1.8-4.1,4.1-4.1S196.9,226.3,196.9,228.6z"/>
			<path class="st9" d="M299.4,228.6c0,1.5-1.2,2.8-2.8,2.8c-1.5,0-2.8-1.2-2.8-2.8s1.2-2.8,2.8-2.8
				C298.1,225.8,299.4,227.1,299.4,228.6z"/>
			<path class="st9" d="M323.4,211.4c0,1.5-1.2,2.8-2.8,2.8s-2.8-1.2-2.8-2.8c0-1.5,1.2-2.8,2.8-2.8S323.4,209.9,323.4,211.4z"/>
			<circle class="st9" cx="317.2" cy="227.2" r="2.8"/>
			<path class="st9" d="M170.8,265.1c0,1.5-1.3,2.7-2.8,2.7c-1.5,0-2.7-1.3-2.7-2.8c0-1.5,1.3-2.7,2.8-2.7
				C169.6,262.3,170.8,263.6,170.8,265.1z"/>
			<circle class="st9" cx="221" cy="242.3" r="2.8"/>
			<path class="st9" d="M251.2,232.7c0,1.5-1.2,2.8-2.8,2.8s-2.8-1.2-2.8-2.8c0-1.5,1.2-2.8,2.8-2.8S251.2,231.2,251.2,232.7z"/>
			<path class="st9" d="M284.2,202.5c0,1.5-1.2,2.8-2.8,2.8s-2.8-1.2-2.8-2.8c0-1.5,1.2-2.8,2.8-2.8S284.2,200.9,284.2,202.5z"/>
			<path class="st9" d="M309,197c0,1.5-1.2,2.8-2.8,2.8c-1.5,0-2.8-1.2-2.8-2.8c0-1.5,1.2-2.8,2.8-2.8
				C307.8,194.2,309,195.4,309,197z"/>
			<path class="st9" d="M178.6,274.7c0,0.7-0.6,1.2-1.2,1.2c-0.7,0-1.2-0.6-1.2-1.2c0-0.7,0.6-1.2,1.2-1.2
				C178.1,273.4,178.6,274,178.6,274.7z"/>
			<path class="st9" d="M168.6,255c0,0.7-0.6,1.2-1.2,1.2c-0.7,0-1.2-0.6-1.2-1.2c0-0.7,0.6-1.2,1.2-1.2
				C168,253.7,168.6,254.3,168.6,255z"/>
			<path class="st9" d="M201.6,242.2c0,0.7-0.6,1.2-1.2,1.2c-0.7,0-1.2-0.6-1.2-1.2c0-0.7,0.6-1.2,1.2-1.2
				C201,241,201.6,241.5,201.6,242.2z"/>
			<path class="st9" d="M259.3,190.9c0,0.7-0.6,1.2-1.2,1.2c-0.7,0-1.2-0.6-1.2-1.2c0-0.7,0.6-1.2,1.2-1.2
				C258.8,189.7,259.3,190.2,259.3,190.9z"/>
			<circle class="st9" cx="223.6" cy="208.6" r="1.2"/>
			<circle class="st9" cx="190.8" cy="252.7" r="1.2"/>
			<path class="st9" d="M254.5,215.5c0,0.7-0.6,1.2-1.2,1.2c-0.7,0-1.2-0.6-1.2-1.2c0-0.7,0.6-1.2,1.2-1.2
				C254,214.3,254.5,214.8,254.5,215.5z"/>
			<path class="st9" d="M290.3,215.4c0,0.7-0.6,1.2-1.2,1.2c-0.7,0-1.2-0.6-1.2-1.2c0-0.7,0.6-1.2,1.2-1.2
				C289.7,214.1,290.3,214.7,290.3,215.4z"/>
			<circle class="st9" cx="261.7" cy="227.2" r="1.2"/>
			<path class="st9" d="M306.3,217.4c0,1.2-1,2.2-2.2,2.2c-1.2,0-2.2-1-2.2-2.2s1-2.2,2.2-2.2C305.4,215.3,306.3,216.3,306.3,217.4z
				"/>
		</g>
	</g>
	<g class="st6">
		<path class="st10" d="M202.7,218.2v9.9h11.5v-9.9h3.1V242h-3.1v-11.1h-11.5V242h-3.1v-23.7H202.7z"/>
		<path class="st10" d="M226.4,234.5L224,242h-3.2l8.1-23.7h3.7l8.1,23.7h-3.3l-2.5-7.5H226.4z M234.2,232.1l-2.3-6.8
			c-0.5-1.5-0.9-3-1.2-4.3h-0.1c-0.4,1.4-0.7,2.9-1.2,4.3l-2.3,6.9H234.2z"/>
		<path class="st10" d="M244.1,218.5c1.5-0.2,3.4-0.5,5.9-0.5c3,0,5.2,0.7,6.7,2c1.3,1.1,2.1,2.9,2.1,5c0,2.1-0.6,3.8-1.8,5.1
			c-1.6,1.7-4.3,2.6-7.3,2.6c-0.9,0-1.8,0-2.5-0.2v9.5h-3.1V218.5z M247.2,230c0.7,0.2,1.5,0.2,2.5,0.2c3.7,0,6-1.8,6-5.1
			c0-3.1-2.2-4.6-5.6-4.6c-1.3,0-2.4,0.1-2.9,0.2V230z"/>
		<path class="st10" d="M262.9,218.5c1.5-0.2,3.4-0.5,5.9-0.5c3,0,5.2,0.7,6.7,2c1.3,1.1,2.1,2.9,2.1,5c0,2.1-0.6,3.8-1.8,5.1
			c-1.6,1.7-4.3,2.6-7.3,2.6c-0.9,0-1.8,0-2.5-0.2v9.5h-3.1V218.5z M265.9,230c0.7,0.2,1.5,0.2,2.5,0.2c3.7,0,6-1.8,6-5.1
			c0-3.1-2.2-4.6-5.6-4.6c-1.3,0-2.4,0.1-2.9,0.2V230z"/>
		<path class="st10" d="M286.6,242v-10.1l-7.5-13.7h3.5l3.3,6.6c0.9,1.8,1.6,3.2,2.4,4.9h0.1c0.7-1.5,1.5-3.1,2.4-4.9l3.4-6.6h3.5
			l-8,13.6V242H286.6z"/>
		<path class="st10" d="M239.9,265.6c-0.2-3.3-0.4-7.3-0.4-10.2h-0.1c-0.8,2.8-1.8,5.7-3,9l-4.2,11.5h-2.3l-3.8-11.3
			c-1.1-3.3-2.1-6.4-2.7-9.2h-0.1c-0.1,3-0.2,6.9-0.5,10.5l-0.6,10.2h-2.9l1.7-23.7h3.9l4,11.5c1,2.9,1.8,5.5,2.4,8h0.1
			c0.6-2.4,1.4-5,2.5-8l4.2-11.5h3.9l1.5,23.7h-3L239.9,265.6z"/>
		<path class="st10" d="M251.3,252.3V276h-3.1v-23.7H251.3z"/>
		<path class="st10" d="M256.6,252.6c1.9-0.3,4.1-0.5,6.5-0.5c4.4,0,7.5,1,9.6,3c2.1,1.9,3.3,4.7,3.3,8.5c0,3.9-1.2,7-3.4,9.2
			c-2.2,2.2-5.9,3.4-10.5,3.4c-2.2,0-4-0.1-5.6-0.3V252.6z M259.7,273.6c0.8,0.1,1.9,0.2,3.1,0.2c6.5,0,10.1-3.7,10.1-10.1
			c0-5.6-3.1-9.2-9.6-9.2c-1.6,0-2.8,0.1-3.6,0.3V273.6z"/>
		<path class="st10" d="M186.3,302.6l-2.5,7.5h-3.2l8.1-23.7h3.7l8.1,23.7h-3.3l-2.5-7.5H186.3z M194,300.2l-2.3-6.8
			c-0.5-1.5-0.9-3-1.2-4.3h-0.1c-0.4,1.4-0.7,2.9-1.2,4.3l-2.3,6.9H194z"/>
		<path class="st10" d="M206,286.4v14.1c0,5.3,2.4,7.6,5.5,7.6c3.5,0,5.8-2.3,5.8-7.6v-14.1h3.1v13.8c0,7.3-3.8,10.3-9,10.3
			c-4.9,0-8.5-2.8-8.5-10.1v-14H206z"/>
		<path class="st10" d="M230.3,289h-7.2v-2.6h17.6v2.6h-7.3v21.1h-3.1V289z"/>
		<path class="st10" d="M246.3,286.4v14.1c0,5.3,2.4,7.6,5.5,7.6c3.5,0,5.8-2.3,5.8-7.6v-14.1h3.1v13.8c0,7.3-3.8,10.3-9,10.3
			c-4.9,0-8.5-2.8-8.5-10.1v-14H246.3z"/>
		<path class="st10" d="M286.1,299.7c-0.2-3.3-0.4-7.3-0.4-10.2h-0.1c-0.8,2.8-1.8,5.7-3,9l-4.2,11.5h-2.3l-3.8-11.3
			c-1.1-3.3-2.1-6.4-2.7-9.2h-0.1c-0.1,3-0.2,6.9-0.5,10.5l-0.6,10.2h-2.9l1.7-23.7h3.9l4,11.5c1,2.9,1.8,5.5,2.4,8h0.1
			c0.6-2.4,1.4-5,2.5-8l4.2-11.5h3.9l1.5,23.7h-3L286.1,299.7z"/>
		<path class="st10" d="M294.4,310.1v-23.7h3.3l7.6,12c1.8,2.8,3.1,5.3,4.3,7.7l0.1,0c-0.3-3.2-0.4-6.1-0.4-9.8v-9.9h2.9v23.7h-3.1
			l-7.5-12c-1.7-2.6-3.2-5.4-4.4-7.9l-0.1,0c0.2,3,0.2,5.8,0.2,9.8v10.1H294.4z"/>
	</g>
	<g class="st6">
		<g class="st7">
			<g>
				<g>
					<g>
						<ellipse class="st11" cx="407.8" cy="275.5" rx="25.5" ry="18.9"/>
						<path class="st11" d="M417.6,286.6c0,0,20,10,13.3,50c-10,11.1-34.2,11.1-44.2,0c-1.1-6.5-1.5-12.2-1.3-17.2
							c0.6-25.8,14.7-32.8,14.7-32.8H417.6z"/>
						<path class="st11" d="M416.7,263.2c0,0,5.6-38.9,28.9-47.8c14.4,8.9-20,54.4-20,54.4L416.7,263.2z"/>
						<path class="st11" d="M400.3,263.2c0,0-5.6-38.9-28.9-47.8c-14.4,8.9,20,54.4,20,54.4L400.3,263.2z"/>
					</g>
					<path class="st12" d="M413.9,278.7c0-2-2.6-3.6-5.9-3.6c-3.3,0-5.9,1.6-5.9,3.6c0,1.7,2,3.3,4.7,3.7v3.2
						c-0.8-0.1-1.7-0.3-2.5-0.6c-0.9-0.3-1.3,1.1-0.4,1.4c2.7,1.1,5.6,0.9,8.2-0.4c0.9-0.4,0.1-1.7-0.7-1.3c-1,0.5-2,0.7-3.1,0.8
						v-3.2C411.3,282.4,413.9,280.6,413.9,278.7z"/>
					<path class="st12" d="M424.3,256.8c0,0,7.9-26.2,18-31.6c3.6,4.3-14,35.6-14,35.6S425,257.2,424.3,256.8z"/>
					<path class="st12" d="M393.5,256.4c0,0-7.9-26.2-18-31.6c-3.6,4.3,14,35.6,14,35.6S392.8,256.8,393.5,256.4z"/>
				</g>
				<path class="st12" d="M400.9,273.3c0,0.7-0.6,1.3-1.3,1.3c-0.7,0-1.3-0.6-1.3-1.3c0-0.7,0.6-1.3,1.3-1.3
					C400.3,271.9,400.9,272.5,400.9,273.3z"/>
				<path class="st12" d="M417.3,273.3c0,0.7-0.6,1.3-1.3,1.3c-0.7,0-1.3-0.6-1.3-1.3c0-0.7,0.6-1.3,1.3-1.3
					C416.7,271.9,417.3,272.5,417.3,273.3z"/>
			</g>
			<path class="st13" d="M473.1,355.2c-3.5,5.6-13.2,4.1-17.9-4.4c-4.4-8-9.1-9.5-9.6-9.7c-2.8-2.5-6.5-4-10.5-4
				c-0.8,0-1.6,0.1-2.3,0.2c-5.4-8.1-14.5-13.4-24.9-13.4c-2.4,0-4.8,0.3-7.1,0.8c-0.5-16.1-13.7-29-29.9-29
				c-10.9,0-20.5,5.9-25.7,14.6c-1.3-0.4-2.7-0.6-4.2-0.6c-8.7,0-15.8,7.1-15.8,15.8c-5.9,3.1-10.6,8.2-13.3,14.3
				c-0.8-0.1-1.7-0.2-2.6-0.2c-3.4,0-6.5,1.1-9.1,2.9c-0.5,0.1-5.2,1.6-9.6,9.7c-4.7,8.5-14.4,10-17.9,4.4c-2.1-2.6-2.9,2.3-0.6,5
				c2.3,2.6,5.6,8.5,14.7,6.2c4.3-1.1,9.4-0.3,13.3,0.6c2.6,1.9,5.8,3,9.2,3c2.2,0,4.2-0.4,6.1-1.2c5.5,7.2,14.1,11.8,23.8,11.8
				c1.8,0,3.6-0.2,5.3-0.5c4.1,11.5,15.2,19.8,28.1,19.8c12.5,0,23.2-7.7,27.7-18.5c2.4,0.6,4.9,1,7.5,1c11.1,0,20.8-6,25.9-15
				c0.4,0,0.9,0.1,1.3,0.1c1.7,0,3.3-0.3,4.9-0.8c0.1,0,0.2,0.1,0.3,0.1c2.6-0.3,11.7-3.6,18.8-1.8c9.1,2.3,12.3-3.5,14.7-6.2
				C476,357.5,475.1,352.5,473.1,355.2z"/>
		</g>
		<path class="st14" d="M384.8,317.1c-1.6,0-3.2-0.9-3.9-2.5c-3-6.6-11.1-6.6-11.2-6.6c0,0,0,0-0.1,0c-2.4,0-4.3-1.9-4.3-4.3
			c0-2.4,1.9-4.3,4.3-4.4c0.5,0,13.9-0.1,19.2,11.7c1,2.2,0,4.7-2.2,5.7C386,317,385.4,317.1,384.8,317.1z"/>
		<path class="st14" d="M393.2,323c0,2-1.6,3.6-3.6,3.6c-2,0-3.6-1.6-3.6-3.6c0-2,1.6-3.6,3.6-3.6C391.6,319.4,393.2,321,393.2,323z
			"/>
	</g>
	<g class="st6">
		<g class="st7">
			<g>
				<g>
					<g>
						<ellipse class="st11" cx="157.7" cy="112.6" rx="25.5" ry="18.9"/>
						<path class="st11" d="M167.4,123.7c0,0,20,10,13.3,50c-10,11.1-34.2,11.1-44.2,0c-1.1-6.5-1.5-12.2-1.3-17.2
							c0.6-25.8,14.7-32.8,14.7-32.8H167.4z"/>
						<path class="st11" d="M166.5,100.4c0,0,5.6-38.9,28.9-47.8c14.4,8.9-20,54.4-20,54.4L166.5,100.4z"/>
						<path class="st11" d="M150.1,100.4c0,0-5.6-38.9-28.9-47.8c-14.4,8.9,20,54.4,20,54.4L150.1,100.4z"/>
					</g>
					<path class="st12" d="M163.7,115.9c0-2-2.6-3.6-5.9-3.6c-3.3,0-5.9,1.6-5.9,3.6c0,1.7,2,3.3,4.7,3.7v3.2
						c-0.8-0.1-1.7-0.3-2.5-0.6c-0.9-0.3-1.3,1.1-0.4,1.4c2.7,1.1,5.6,0.9,8.2-0.4c0.9-0.4,0.1-1.7-0.7-1.3c-1,0.5-2,0.7-3.1,0.8
						v-3.2C161.2,119.6,163.7,117.8,163.7,115.9z"/>
					<path class="st12" d="M174.1,94c0,0,7.9-26.2,18-31.6c3.6,4.3-14,35.6-14,35.6S174.9,94.3,174.1,94z"/>
					<path class="st12" d="M143.4,93.6c0,0-7.9-26.2-18-31.6c-3.6,4.3,14,35.6,14,35.6S142.6,94,143.4,93.6z"/>
				</g>
				<path class="st12" d="M150.7,110.4c0,0.7-0.6,1.3-1.3,1.3s-1.3-0.6-1.3-1.3s0.6-1.3,1.3-1.3S150.7,109.7,150.7,110.4z"/>
				<path class="st12" d="M167.1,110.4c0,0.7-0.6,1.3-1.3,1.3s-1.3-0.6-1.3-1.3s0.6-1.3,1.3-1.3S167.1,109.7,167.1,110.4z"/>
			</g>
			<path class="st13" d="M222.9,192.4c-3.5,5.6-13.2,4.1-17.9-4.4c-4.4-8-9.1-9.5-9.6-9.7c-2.8-2.5-6.5-4-10.5-4
				c-0.8,0-1.6,0.1-2.3,0.2c-5.4-8.1-14.5-13.4-24.9-13.4c-2.4,0-4.8,0.3-7.1,0.8c-0.5-16.1-13.7-29-29.9-29
				c-10.9,0-20.5,5.9-25.7,14.6c-1.3-0.4-2.7-0.6-4.2-0.6c-8.7,0-15.8,7.1-15.8,15.8c-5.9,3.1-10.6,8.2-13.3,14.3
				c-0.8-0.1-1.7-0.2-2.6-0.2c-3.4,0-6.5,1.1-9.1,2.9c-0.5,0.1-5.2,1.6-9.6,9.7c-4.7,8.5-14.4,10-17.9,4.4c-2.1-2.6-2.9,2.3-0.6,5
				c2.3,2.6,5.6,8.5,14.7,6.2c4.3-1.1,9.4-0.3,13.3,0.6c2.6,1.9,5.8,3,9.2,3c2.2,0,4.2-0.4,6.1-1.2c5.5,7.2,14.1,11.8,23.8,11.8
				c1.8,0,3.6-0.2,5.3-0.5c4.1,11.5,15.2,19.8,28.1,19.8c12.5,0,23.2-7.7,27.7-18.5c2.4,0.6,4.9,1,7.5,1c11.1,0,20.8-6,25.9-15
				c0.4,0,0.9,0.1,1.3,0.1c1.7,0,3.3-0.3,4.9-0.8c0.1,0,0.2,0.1,0.3,0.1c2.6-0.3,11.7-3.6,18.8-1.8c9.1,2.3,12.3-3.5,14.7-6.2
				C225.8,194.7,225,189.7,222.9,192.4z"/>
		</g>
		<path class="st14" d="M134.7,154.3c-1.6,0-3.2-0.9-3.9-2.5c-3-6.6-11.1-6.6-11.2-6.6c0,0,0,0-0.1,0c-2.4,0-4.3-1.9-4.3-4.3
			c0-2.4,1.9-4.3,4.3-4.4c0.5,0,13.9-0.1,19.2,11.7c1,2.2,0,4.7-2.2,5.7C135.8,154.2,135.2,154.3,134.7,154.3z"/>
		<circle class="st14" cx="139.5" cy="160.1" r="3.6"/>
	</g>
</g>
<g id="DESIGNED_BY_FREEPIK_1_" class="st6">
	<g class="st7">
		<g>
			<path class="st11" d="M175.9,475.9c-0.1-0.2-0.3-0.2-0.6-0.2c-0.3,0-0.5,0.1-0.6,0.3c-0.1,0.2-0.2,0.5-0.2,0.8v2.6
				c-0.3-0.4-0.7-0.6-1-0.8c-0.4-0.2-0.8-0.3-1.3-0.3c-0.9,0-1.6,0.3-2.1,0.9c-0.5,0.6-0.8,1.5-0.8,2.6c0,0.5,0.1,1,0.2,1.4
				c0.1,0.5,0.3,0.8,0.6,1.2c0.3,0.3,0.6,0.6,0.9,0.8c0.4,0.2,0.7,0.3,1.2,0.3c0.3,0,0.6,0,0.9-0.1c0.3-0.1,0.5-0.2,0.8-0.4
				c0.2-0.2,0.5-0.4,0.7-0.7v0.2c0,0.3,0.1,0.6,0.2,0.8c0.2,0.2,0.4,0.3,0.6,0.3c0.2,0,0.4-0.1,0.6-0.2c0.1-0.2,0.2-0.4,0.2-0.8
				v-7.8C176.1,476.4,176,476.1,175.9,475.9z M174.1,483.1c-0.1,0.3-0.4,0.6-0.6,0.7c-0.2,0.2-0.5,0.2-0.8,0.2
				c-0.3,0-0.6-0.1-0.9-0.3c-0.3-0.2-0.5-0.4-0.6-0.8c-0.1-0.3-0.2-0.7-0.2-1.2c0-0.5,0.1-0.8,0.2-1.2c0.1-0.3,0.3-0.6,0.6-0.8
				c0.2-0.2,0.5-0.3,0.9-0.3c0.3,0,0.6,0.1,0.9,0.3c0.3,0.2,0.5,0.4,0.6,0.8c0.2,0.3,0.2,0.7,0.2,1.2
				C174.3,482.4,174.3,482.8,174.1,483.1z"/>
			<path class="st11" d="M182.9,483c-0.2,0-0.3,0-0.4,0.1c-0.2,0.2-0.4,0.4-0.5,0.5c-0.1,0.1-0.3,0.2-0.5,0.3
				c-0.2,0.1-0.3,0.2-0.5,0.2c-0.2,0.1-0.4,0.1-0.6,0.1c-0.3,0-0.6-0.1-0.9-0.2c-0.3-0.2-0.5-0.4-0.6-0.7c-0.2-0.3-0.2-0.7-0.2-1
				h3.4c0.5,0,0.8-0.1,1.1-0.2c0.2-0.1,0.4-0.4,0.4-0.9c0-0.5-0.1-0.9-0.4-1.4c-0.2-0.5-0.6-0.8-1.1-1.1c-0.5-0.3-1.1-0.4-1.8-0.4
				c-0.5,0-1,0.1-1.4,0.2c-0.4,0.2-0.8,0.4-1.1,0.7c-0.3,0.3-0.5,0.7-0.7,1.1c-0.2,0.4-0.2,0.9-0.2,1.4c0,1.1,0.3,2,0.9,2.6
				c0.6,0.6,1.5,1,2.6,1c0.5,0,0.9-0.1,1.3-0.2c0.4-0.1,0.7-0.3,0.9-0.5c0.2-0.2,0.4-0.4,0.6-0.6c0.1-0.2,0.2-0.4,0.2-0.6
				c0-0.2,0-0.3-0.2-0.4C183.2,483.1,183.1,483,182.9,483z M179.2,480c0.3-0.3,0.6-0.4,1.1-0.4c0.5,0,0.8,0.1,1.1,0.4
				c0.3,0.3,0.4,0.8,0.5,1.4h-3.2C178.8,480.7,179,480.3,179.2,480z"/>
			<path class="st11" d="M189.9,482.3c-0.2-0.2-0.4-0.5-0.8-0.6c-0.3-0.2-0.8-0.4-1.3-0.5c-0.5-0.1-0.8-0.2-1.1-0.3
				c-0.3-0.1-0.5-0.2-0.6-0.3c-0.1-0.1-0.2-0.3-0.2-0.5c0-0.2,0.1-0.4,0.3-0.5c0.2-0.1,0.5-0.2,0.8-0.2c0.3,0,0.5,0.1,0.7,0.2
				c0.2,0.1,0.3,0.2,0.5,0.4c0.2,0.2,0.3,0.4,0.4,0.5c0.1,0.1,0.3,0.2,0.5,0.2c0.2,0,0.4-0.1,0.6-0.2c0.1-0.1,0.2-0.3,0.2-0.5
				c0-0.2-0.1-0.4-0.2-0.6c-0.1-0.2-0.3-0.4-0.5-0.5c-0.2-0.2-0.5-0.3-0.9-0.4c-0.4-0.1-0.8-0.1-1.2-0.1c-0.6,0-1.1,0.1-1.5,0.3
				c-0.4,0.2-0.7,0.4-0.9,0.8c-0.2,0.3-0.3,0.7-0.3,1c0,0.4,0.1,0.7,0.3,1c0.2,0.3,0.5,0.5,0.9,0.7c0.4,0.2,0.9,0.3,1.5,0.5
				c0.5,0.1,0.9,0.3,1.1,0.4c0.2,0.1,0.4,0.4,0.4,0.7c0,0.2-0.1,0.4-0.3,0.5c-0.2,0.2-0.5,0.2-0.9,0.2c-0.4,0-0.8-0.1-1-0.2
				c-0.2-0.2-0.5-0.4-0.7-0.7c-0.1-0.2-0.2-0.3-0.3-0.4c-0.1-0.1-0.2-0.1-0.4-0.1c-0.2,0-0.4,0.1-0.5,0.2c-0.1,0.1-0.2,0.3-0.2,0.5
				c0,0.3,0.1,0.6,0.3,0.9c0.2,0.3,0.6,0.5,1,0.7c0.5,0.2,1,0.3,1.6,0.3c0.7,0,1.2-0.1,1.7-0.3c0.5-0.2,0.8-0.4,1-0.8
				c0.2-0.3,0.4-0.8,0.4-1.2C190.2,482.8,190.1,482.5,189.9,482.3z"/>
			<path class="st11" d="M192.6,478.6c-0.2-0.2-0.4-0.3-0.6-0.3c-0.3,0-0.5,0.1-0.6,0.3c-0.2,0.2-0.2,0.4-0.2,0.8v5
				c0,0.3,0.1,0.6,0.2,0.8c0.2,0.2,0.4,0.3,0.6,0.3c0.3,0,0.5-0.1,0.6-0.3c0.2-0.2,0.2-0.5,0.2-0.8v-5.1
				C192.8,479,192.8,478.7,192.6,478.6z M192.6,476c-0.2-0.1-0.4-0.2-0.6-0.2c-0.2,0-0.4,0.1-0.6,0.2c-0.2,0.2-0.3,0.4-0.3,0.6
				c0,0.3,0.1,0.5,0.3,0.6c0.2,0.1,0.4,0.2,0.6,0.2c0.2,0,0.4-0.1,0.6-0.2c0.2-0.2,0.3-0.4,0.3-0.6
				C192.8,476.3,192.8,476.1,192.6,476z"/>
			<path class="st11" d="M200.4,478.6c-0.1-0.2-0.3-0.3-0.7-0.3c-0.2,0-0.4,0.1-0.6,0.2c-0.1,0.2-0.2,0.4-0.2,0.7v0.2
				c-0.3-0.4-0.6-0.7-1-0.9c-0.4-0.2-0.8-0.3-1.3-0.3c-0.4,0-0.8,0.1-1.1,0.2c-0.4,0.1-0.6,0.4-0.9,0.7c-0.3,0.3-0.5,0.7-0.6,1.1
				c-0.2,0.4-0.2,0.9-0.2,1.4c0,0.7,0.1,1.3,0.4,1.9c0.2,0.5,0.6,1,1,1.3c0.4,0.3,0.9,0.5,1.5,0.5c0.5,0,0.9-0.1,1.3-0.3
				c0.4-0.2,0.7-0.5,0.9-0.9c0,0.6,0,1,0,1.2c0,0.3-0.1,0.5-0.2,0.7c-0.1,0.2-0.3,0.4-0.5,0.5c-0.2,0.1-0.6,0.2-1.1,0.2
				c-0.2,0-0.4,0-0.6-0.1c-0.2,0-0.3-0.1-0.4-0.2c-0.1-0.1-0.2-0.2-0.3-0.3c-0.1-0.1-0.2-0.2-0.3-0.3c-0.2-0.2-0.4-0.3-0.7-0.3
				c-0.2,0-0.4,0.1-0.5,0.2c-0.1,0.1-0.2,0.3-0.2,0.5c0,0.3,0.1,0.5,0.4,0.8c0.3,0.3,0.6,0.5,1.1,0.7c0.5,0.2,1,0.2,1.6,0.2
				c0.7,0,1.2-0.1,1.6-0.2c0.4-0.1,0.8-0.3,1.1-0.6c0.3-0.3,0.5-0.6,0.6-1c0.1-0.4,0.2-0.9,0.2-1.5v-5.1
				C200.5,479.2,200.5,478.9,200.4,478.6z M198.6,483c-0.2,0.3-0.4,0.6-0.6,0.7c-0.3,0.2-0.5,0.2-0.8,0.2c-0.5,0-0.9-0.2-1.2-0.5
				c-0.3-0.4-0.5-0.9-0.5-1.6c0-0.7,0.1-1.2,0.5-1.6c0.3-0.4,0.7-0.6,1.2-0.6c0.5,0,0.9,0.2,1.2,0.6c0.3,0.4,0.5,1,0.5,1.7
				C198.8,482.3,198.7,482.7,198.6,483z"/>
			<path class="st11" d="M207.9,480.2c0-0.2-0.1-0.5-0.2-0.7c-0.2-0.4-0.5-0.6-0.8-0.9c-0.4-0.2-0.8-0.3-1.2-0.3
				c-0.5,0-0.9,0.1-1.3,0.3c-0.1,0-0.2,0.1-0.3,0.2c-0.2,0.2-0.5,0.4-0.7,0.7v-0.2c0-0.2,0-0.4-0.1-0.5c-0.1-0.1-0.2-0.3-0.3-0.3
				c-0.1-0.1-0.3-0.1-0.4-0.1c-0.2,0-0.4,0.1-0.6,0.2c-0.2,0.2-0.2,0.4-0.2,0.8v5.1c0,0.3,0.1,0.6,0.2,0.8c0.2,0.2,0.4,0.3,0.6,0.3
				c0.3,0,0.5-0.1,0.6-0.3c0.2-0.2,0.2-0.5,0.2-0.8v-2.2c0-0.7,0-1.2,0.1-1.5c0.1-0.3,0.3-0.6,0.6-0.8c0.3-0.2,0.5-0.3,0.9-0.3
				c0.5,0,0.8,0.2,1,0.5c0.2,0.3,0.2,0.8,0.2,1.3v2.9c0,0.3,0.1,0.6,0.2,0.8c0.2,0.2,0.4,0.3,0.6,0.3c0.2,0,0.5-0.1,0.6-0.3
				c0.2-0.2,0.2-0.5,0.2-0.8v-3.3C208,480.7,207.9,480.4,207.9,480.2z"/>
			<path class="st11" d="M214.8,483c-0.2,0-0.3,0-0.4,0.1c-0.2,0.2-0.4,0.4-0.5,0.5c-0.1,0.1-0.3,0.2-0.5,0.3
				c-0.2,0.1-0.3,0.2-0.5,0.2c-0.2,0.1-0.4,0.1-0.5,0.1h0c0,0,0,0,0,0c-0.3,0-0.6-0.1-0.9-0.2c-0.3-0.2-0.5-0.4-0.6-0.7
				c0-0.1-0.1-0.1-0.1-0.2v0c-0.1-0.3-0.2-0.6-0.2-0.9h3.4c0.5,0,0.8-0.1,1.1-0.2c0.2-0.1,0.4-0.4,0.4-0.9c0-0.5-0.1-0.9-0.4-1.4
				c-0.2-0.5-0.6-0.8-1.1-1.1c-0.5-0.3-1.1-0.4-1.8-0.4c-0.5,0-1,0.1-1.4,0.2c-0.4,0.2-0.8,0.4-1.1,0.7c-0.3,0.3-0.5,0.7-0.7,1.1
				c-0.2,0.4-0.2,0.9-0.2,1.4c0,1.1,0.3,2,0.9,2.6c0.6,0.6,1.5,1,2.6,1c0.5,0,0.9-0.1,1.3-0.2c0,0,0,0,0,0c0.4-0.1,0.7-0.3,0.9-0.5
				c0.2-0.2,0.4-0.4,0.6-0.6c0.1-0.2,0.2-0.4,0.2-0.6c0-0.2-0.1-0.3-0.2-0.4C215.1,483.1,214.9,483,214.8,483z M211.1,480
				c0.3-0.3,0.6-0.4,1.1-0.4c0.5,0,0.8,0.1,1.1,0.4c0.3,0.3,0.5,0.8,0.5,1.4h-3.2C210.6,480.7,210.8,480.3,211.1,480z"/>
			<path class="st11" d="M222.6,475.9c-0.1-0.2-0.4-0.2-0.6-0.2c-0.3,0-0.5,0.1-0.6,0.3c-0.1,0.2-0.2,0.5-0.2,0.8v2.6
				c-0.3-0.4-0.7-0.6-1-0.8c-0.4-0.2-0.8-0.3-1.3-0.3c-0.9,0-1.6,0.3-2.1,0.9c-0.5,0.6-0.8,1.5-0.8,2.6c0,0.5,0.1,1,0.2,1.4
				c0.1,0.5,0.3,0.8,0.6,1.2c0.3,0.3,0.6,0.6,0.9,0.8c0.4,0.2,0.8,0.3,1.2,0.3c0.3,0,0.6,0,0.9-0.1c0.3-0.1,0.5-0.2,0.8-0.4
				c0.2-0.2,0.5-0.4,0.7-0.7v0.2c0,0.3,0.1,0.6,0.2,0.8c0.2,0.2,0.4,0.3,0.6,0.3c0.2,0,0.4-0.1,0.6-0.2c0.2-0.2,0.2-0.4,0.2-0.8
				v-7.8C222.9,476.4,222.8,476.1,222.6,475.9z M220.9,483.1c-0.1,0.3-0.4,0.6-0.6,0.7c-0.3,0.2-0.5,0.2-0.8,0.2
				c-0.3,0-0.6-0.1-0.8-0.3c-0.3-0.2-0.5-0.4-0.6-0.8c-0.1-0.3-0.2-0.7-0.2-1.2c0-0.5,0.1-0.8,0.2-1.2c0.1-0.3,0.3-0.6,0.6-0.8
				c0.2-0.2,0.5-0.3,0.9-0.3c0.3,0,0.6,0.1,0.9,0.3c0.3,0.2,0.5,0.4,0.6,0.8c0.1,0.3,0.2,0.7,0.2,1.2
				C221.1,482.4,221,482.8,220.9,483.1z"/>
			<path class="st11" d="M233.2,479.9c-0.2-0.5-0.6-0.9-1-1.2c-0.4-0.3-1-0.4-1.5-0.4c-0.5,0-0.9,0.1-1.3,0.3
				c-0.4,0.2-0.7,0.4-1,0.8v-2.7c0-0.3-0.1-0.6-0.2-0.7c-0.2-0.2-0.4-0.3-0.6-0.3c-0.2,0-0.5,0.1-0.6,0.3c-0.1,0.2-0.2,0.5-0.2,0.8
				v7.7c0,0.3,0.1,0.6,0.2,0.8c0.1,0.2,0.3,0.3,0.6,0.3s0.4-0.1,0.6-0.3c0.2-0.2,0.2-0.4,0.2-0.8v-0.2c0.2,0.2,0.4,0.4,0.5,0.5
				c0.1,0.1,0.3,0.2,0.4,0.3c0.2,0.1,0.4,0.2,0.6,0.2c0.2,0.1,0.5,0.1,0.8,0.1c0.4,0,0.9-0.1,1.2-0.3c0.4-0.2,0.7-0.4,0.9-0.8
				c0.3-0.3,0.5-0.7,0.6-1.1c0.1-0.5,0.2-0.9,0.2-1.5C233.6,481.1,233.5,480.5,233.2,479.9z M231.3,483.5c-0.3,0.4-0.7,0.6-1.1,0.6
				c-0.5,0-0.9-0.2-1.3-0.6c-0.3-0.4-0.5-0.9-0.5-1.6c0-0.5,0.1-0.9,0.2-1.2c0.1-0.4,0.4-0.6,0.6-0.8c0.3-0.2,0.6-0.3,0.9-0.3
				c0.3,0,0.6,0.1,0.8,0.3c0.2,0.2,0.4,0.4,0.6,0.8c0.1,0.3,0.2,0.7,0.2,1.2C231.8,482.6,231.7,483.1,231.3,483.5z"/>
			<path class="st11" d="M240,478.7c-0.1-0.1-0.2-0.2-0.3-0.3c-0.1-0.1-0.2-0.1-0.4-0.1c-0.2,0-0.3,0-0.4,0.1
				c-0.1,0.1-0.2,0.2-0.3,0.4c-0.1,0.2-0.2,0.4-0.3,0.8l-1.4,4l-1.5-4.3c-0.1-0.3-0.2-0.5-0.3-0.7c-0.1-0.2-0.3-0.2-0.6-0.2
				c-0.1,0-0.3,0-0.4,0.1c-0.1,0.1-0.2,0.2-0.3,0.3c-0.1,0.1-0.1,0.3-0.1,0.4c0,0.1,0.1,0.4,0.2,0.7l2.2,5.4l-0.2,0.4
				c-0.1,0.3-0.2,0.5-0.3,0.7c-0.1,0.2-0.2,0.2-0.3,0.3c-0.1,0.1-0.3,0.1-0.5,0.1c-0.1,0-0.2,0-0.3,0c-0.1,0-0.2,0-0.3,0
				c-0.2,0-0.4,0.1-0.5,0.2c-0.1,0.1-0.2,0.3-0.2,0.5c0,0.3,0.1,0.5,0.4,0.6c0.3,0.1,0.6,0.2,1.2,0.2c0.5,0,0.9-0.1,1.2-0.2
				c0.3-0.2,0.6-0.4,0.8-0.7c0.2-0.3,0.4-0.7,0.6-1.2l2.3-6c0-0.2,0.1-0.3,0.1-0.5c0-0.1,0.1-0.3,0.1-0.3
				C240.1,478.9,240.1,478.8,240,478.7z"/>
		</g>
		<g>
			<path class="st11" d="M261.3,478.5h0.4v-0.5c0-0.6,0.1-1,0.2-1.3c0.1-0.3,0.4-0.6,0.7-0.7c0.3-0.1,0.8-0.2,1.4-0.2
				c1,0,1.5,0.2,1.5,0.8c0,0.2-0.1,0.3-0.2,0.4c-0.1,0.1-0.2,0.2-0.4,0.2c-0.1,0-0.2,0-0.4,0c-0.2,0-0.3,0-0.4,0
				c-0.3,0-0.5,0.1-0.6,0.3c-0.1,0.2-0.1,0.5-0.1,0.8v0.4h0.4c0.7,0,1,0.2,1,0.6c0,0.3-0.1,0.5-0.3,0.5c-0.2,0.1-0.4,0.1-0.7,0.1
				h-0.4v4.7c0,0.3-0.1,0.6-0.2,0.8c-0.2,0.2-0.4,0.3-0.6,0.3c-0.2,0-0.5-0.1-0.6-0.3c-0.2-0.2-0.2-0.4-0.2-0.8v-4.7h-0.5
				c-0.3,0-0.5-0.1-0.6-0.2c-0.1-0.1-0.2-0.3-0.2-0.5C260.4,478.7,260.7,478.5,261.3,478.5L261.3,478.5z"/>
			<path class="st11" d="M267.1,482.9v1.5c0,0.4-0.1,0.6-0.3,0.8c-0.2,0.2-0.4,0.3-0.6,0.3c-0.3,0-0.5-0.1-0.6-0.3
				c-0.2-0.2-0.2-0.4-0.2-0.8v-4.9c0-0.8,0.3-1.2,0.9-1.2c0.3,0,0.5,0.1,0.6,0.3c0.1,0.2,0.2,0.5,0.2,0.8c0.2-0.4,0.4-0.6,0.6-0.8
				c0.2-0.2,0.5-0.3,0.9-0.3c0.4,0,0.7,0.1,1.1,0.3c0.3,0.2,0.5,0.4,0.5,0.7c0,0.2-0.1,0.4-0.2,0.5c-0.1,0.1-0.3,0.2-0.5,0.2
				c-0.1,0-0.2,0-0.5-0.1c-0.2-0.1-0.5-0.1-0.7-0.1c-0.3,0-0.5,0.1-0.6,0.2c-0.2,0.1-0.3,0.3-0.4,0.6c-0.1,0.3-0.1,0.6-0.2,1
				C267.1,481.9,267.1,482.4,267.1,482.9L267.1,482.9z"/>
			<path class="st11" d="M275.9,483c-0.2,0-0.3,0-0.4,0.1c-0.2,0.2-0.4,0.4-0.5,0.5c-0.1,0.1-0.3,0.2-0.4,0.3
				c-0.2,0.1-0.3,0.2-0.5,0.2c-0.2,0.1-0.4,0.1-0.6,0.1c-0.3,0-0.6-0.1-0.9-0.2c-0.3-0.2-0.5-0.4-0.6-0.7c-0.2-0.3-0.2-0.7-0.2-1.1
				h3.4c0.5,0,0.8-0.1,1.1-0.2c0.2-0.1,0.4-0.4,0.4-0.9c0-0.5-0.1-0.9-0.4-1.4c-0.2-0.5-0.6-0.8-1.1-1.1c-0.5-0.3-1.1-0.4-1.8-0.4
				c-0.5,0-1,0.1-1.4,0.2c-0.4,0.2-0.8,0.4-1.1,0.7c-0.3,0.3-0.5,0.7-0.7,1.1c-0.2,0.5-0.2,0.9-0.2,1.5c0,1.1,0.3,2,0.9,2.6
				c0.6,0.6,1.5,1,2.6,1c0.5,0,0.9-0.1,1.3-0.2c0.4-0.1,0.7-0.3,1-0.5c0.2-0.2,0.4-0.4,0.6-0.6c0.1-0.2,0.2-0.4,0.2-0.5
				c0-0.2-0.1-0.3-0.2-0.4C276.2,483.1,276.1,483,275.9,483z M272.2,480c0.3-0.3,0.6-0.4,1.1-0.4c0.5,0,0.8,0.1,1.1,0.4
				c0.3,0.3,0.4,0.7,0.5,1.3h-3.2C271.8,480.7,271.9,480.3,272.2,480z"/>
			<path class="st11" d="M283.2,483c-0.2,0-0.3,0-0.4,0.1c-0.2,0.2-0.4,0.4-0.5,0.5c-0.1,0.1-0.3,0.2-0.5,0.3
				c-0.2,0.1-0.3,0.2-0.5,0.2c-0.2,0.1-0.4,0.1-0.6,0.1c-0.3,0-0.6-0.1-0.9-0.2c-0.3-0.2-0.5-0.4-0.6-0.7c-0.2-0.3-0.2-0.7-0.2-1.1
				h3.4c0.5,0,0.8-0.1,1.1-0.2c0.2-0.1,0.4-0.4,0.4-0.9c0-0.5-0.1-0.9-0.4-1.4c-0.2-0.5-0.6-0.8-1.1-1.1c-0.5-0.3-1.1-0.4-1.8-0.4
				c-0.5,0-1,0.1-1.4,0.2c-0.4,0.2-0.8,0.4-1.1,0.7c-0.3,0.3-0.5,0.7-0.7,1.1c-0.2,0.5-0.2,0.9-0.2,1.5c0,1.1,0.3,2,1,2.6
				c0.6,0.6,1.5,1,2.6,1c0.5,0,0.9-0.1,1.3-0.2c0.4-0.1,0.7-0.3,0.9-0.5c0.2-0.2,0.4-0.4,0.6-0.6c0.1-0.2,0.2-0.4,0.2-0.5
				c0-0.2,0-0.3-0.2-0.4C283.5,483.1,283.4,483,283.2,483z M279.5,480c0.3-0.3,0.6-0.4,1.1-0.4c0.5,0,0.8,0.1,1.1,0.4
				c0.3,0.3,0.4,0.7,0.5,1.3H279C279.1,480.7,279.2,480.3,279.5,480z"/>
			<path class="st11" d="M291.5,481.7c0-0.7-0.1-1.2-0.4-1.7c-0.3-0.5-0.6-0.9-1.1-1.2c-0.5-0.3-1-0.4-1.5-0.4
				c-0.5,0-0.8,0.1-1.2,0.3c-0.4,0.2-0.7,0.5-1,0.9v-0.2c0-0.3-0.1-0.6-0.2-0.7c-0.2-0.2-0.4-0.2-0.6-0.2s-0.4,0.1-0.6,0.2
				c-0.2,0.2-0.2,0.4-0.2,0.8v7.6c0,0.4,0.1,0.7,0.2,0.9c0.1,0.2,0.3,0.3,0.7,0.3c0.6,0,0.8-0.4,0.8-1.2v-2.6
				c0.2,0.2,0.4,0.4,0.6,0.6c0.1,0.1,0.3,0.2,0.4,0.3c0.3,0.2,0.8,0.3,1.3,0.3c0.4,0,0.8-0.1,1.2-0.2c0.4-0.2,0.7-0.4,1-0.7
				c0.3-0.3,0.5-0.7,0.6-1.1c0.2-0.5,0.2-1,0.2-1.5C291.5,481.8,291.5,481.7,291.5,481.7z M289.5,483.1c-0.2,0.3-0.3,0.6-0.6,0.8
				c-0.2,0.2-0.5,0.3-0.8,0.3c-0.1,0-0.1,0-0.2,0c-0.4,0-0.8-0.2-1.1-0.6c-0.3-0.4-0.5-0.9-0.5-1.6c0-0.7,0.2-1.3,0.5-1.7
				c0.3-0.4,0.7-0.6,1.2-0.6c0.3,0,0.6,0.1,0.8,0.3c0.2,0.2,0.4,0.4,0.6,0.8c0.2,0.3,0.2,0.7,0.2,1.2c0,0.4-0.1,0.8-0.2,1.1
				C289.6,483,289.5,483,289.5,483.1z"/>
			<path class="st11" d="M293.9,478.6c-0.2-0.2-0.4-0.3-0.6-0.3c-0.2,0-0.5,0.1-0.6,0.3c-0.2,0.2-0.2,0.4-0.2,0.8v5
				c0,0.3,0.1,0.6,0.2,0.8c0.2,0.2,0.4,0.3,0.6,0.3c0.3,0,0.5-0.1,0.6-0.3c0.2-0.2,0.2-0.4,0.2-0.8v-5.1
				C294.2,479,294.1,478.7,293.9,478.6z M293.9,476c-0.2-0.2-0.4-0.2-0.6-0.2c-0.2,0-0.4,0.1-0.6,0.2c-0.2,0.2-0.3,0.4-0.3,0.6
				c0,0.3,0.1,0.5,0.3,0.6c0.2,0.2,0.4,0.2,0.6,0.2c0.2,0,0.4-0.1,0.6-0.2c0.2-0.1,0.2-0.4,0.2-0.6
				C294.2,476.3,294.1,476.1,293.9,476z"/>
			<path class="st11" d="M299.8,484.6l-1.5-2.6l-1,0.9v1.4c0,0.3-0.1,0.6-0.3,0.8c-0.2,0.2-0.4,0.3-0.6,0.3c-0.3,0-0.5-0.1-0.6-0.3
				c-0.2-0.2-0.2-0.4-0.2-0.8v-7.5c0-0.4,0.1-0.7,0.2-0.9c0.2-0.2,0.4-0.3,0.6-0.3c0.3,0,0.5,0.1,0.6,0.3c0.2,0.2,0.2,0.5,0.2,0.8
				v4.3l2-2.1c0.2-0.3,0.4-0.4,0.6-0.5c0.1-0.1,0.3-0.1,0.5-0.1c0.2,0,0.4,0.1,0.6,0.2c0.1,0.1,0.2,0.3,0.2,0.5c0,0.3-0.2,0.6-0.7,1
				l-0.9,0.9l1.8,2.8c0.1,0.2,0.2,0.4,0.3,0.5c0.1,0.1,0.1,0.2,0.1,0.3c0,0.3-0.1,0.5-0.2,0.7c-0.2,0.2-0.4,0.2-0.6,0.2
				c-0.2,0-0.4-0.1-0.5-0.2C300.2,485.2,300,485,299.8,484.6L299.8,484.6z"/>
			<path class="st11" d="M303.6,485.5c-0.3,0-0.5-0.1-0.7-0.3c-0.2-0.2-0.3-0.4-0.3-0.7c0-0.3,0.1-0.5,0.3-0.7
				c0.2-0.2,0.4-0.3,0.7-0.3c0.3,0,0.5,0.1,0.7,0.3c0.2,0.2,0.3,0.4,0.3,0.7c0,0.3-0.1,0.5-0.3,0.7
				C304.1,485.4,303.9,485.5,303.6,485.5L303.6,485.5z"/>
			<path class="st11" d="M312.4,483.3c0,0.2-0.1,0.5-0.2,0.7c-0.1,0.3-0.3,0.5-0.6,0.7c-0.3,0.2-0.6,0.4-1,0.5
				c-0.4,0.1-0.9,0.2-1.4,0.2c-1.1,0-1.9-0.3-2.5-0.9c-0.6-0.6-0.9-1.5-0.9-2.5c0-0.7,0.1-1.4,0.4-1.9c0.3-0.6,0.7-1,1.2-1.3
				c0.5-0.3,1.2-0.5,1.9-0.5c0.5,0,0.9,0.1,1.3,0.2c0.4,0.1,0.7,0.3,1,0.5c0.3,0.2,0.5,0.4,0.6,0.7c0.1,0.2,0.2,0.5,0.2,0.7
				c0,0.2-0.1,0.4-0.2,0.5c-0.2,0.1-0.3,0.2-0.6,0.2c-0.1,0-0.3,0-0.4-0.1c-0.1-0.1-0.2-0.2-0.3-0.4c-0.2-0.3-0.4-0.6-0.7-0.7
				c-0.2-0.2-0.5-0.2-0.9-0.2c-0.5,0-0.9,0.2-1.3,0.6c-0.3,0.4-0.5,1-0.5,1.7c0,0.3,0,0.6,0.1,0.9c0.1,0.3,0.2,0.5,0.4,0.7
				c0.2,0.2,0.3,0.3,0.6,0.4c0.2,0.1,0.5,0.2,0.7,0.2c0.4,0,0.7-0.1,0.9-0.2c0.3-0.2,0.5-0.4,0.7-0.7c0.1-0.2,0.2-0.4,0.3-0.5
				c0.1-0.1,0.3-0.2,0.5-0.2c0.2,0,0.4,0.1,0.5,0.2C312.3,482.9,312.4,483.1,312.4,483.3L312.4,483.3z"/>
			<path class="st11" d="M319.7,480.4c-0.2-0.4-0.4-0.8-0.7-1.1c-0.3-0.3-0.7-0.6-1.1-0.7c-0.4-0.2-0.9-0.3-1.5-0.3
				c-0.5,0-1,0.1-1.4,0.2c-0.4,0.2-0.8,0.4-1.1,0.7c-0.3,0.3-0.5,0.7-0.7,1.1c-0.2,0.4-0.2,0.9-0.2,1.5c0,0.5,0.1,1,0.2,1.5
				c0.2,0.4,0.4,0.8,0.7,1.1c0.3,0.3,0.7,0.6,1.1,0.7c0.4,0.2,0.9,0.3,1.4,0.3c0.5,0,1-0.1,1.5-0.3c0.4-0.2,0.8-0.4,1.1-0.7
				c0.3-0.3,0.5-0.7,0.7-1.1c0.2-0.4,0.2-0.9,0.2-1.5C320,481.3,319.9,480.9,319.7,480.4z M317.7,483.5c-0.3,0.4-0.7,0.6-1.3,0.6
				c-0.4,0-0.7-0.1-0.9-0.3c-0.3-0.2-0.5-0.5-0.6-0.8c-0.1-0.3-0.2-0.7-0.2-1.2c0-0.5,0.1-0.9,0.2-1.2c0.1-0.3,0.3-0.6,0.6-0.8
				c0.3-0.2,0.6-0.3,0.9-0.3c0.5,0,1,0.2,1.3,0.6c0.3,0.4,0.5,1,0.5,1.7C318.2,482.6,318,483.1,317.7,483.5z"/>
			<path class="st11" d="M326.7,482v2.3c0,0.4-0.1,0.6-0.3,0.8c-0.2,0.2-0.4,0.3-0.7,0.3c-0.3,0-0.5-0.1-0.6-0.3
				c-0.2-0.2-0.3-0.5-0.3-0.8v-2.8c0-0.4,0-0.8,0-1c0-0.2-0.1-0.4-0.2-0.6c-0.1-0.2-0.3-0.2-0.6-0.2c-0.6,0-1,0.2-1.1,0.6
				c-0.2,0.4-0.3,1-0.3,1.7v2.4c0,0.4-0.1,0.6-0.2,0.8c-0.2,0.2-0.4,0.3-0.7,0.3c-0.3,0-0.5-0.1-0.7-0.3c-0.2-0.2-0.3-0.5-0.3-0.8
				v-5c0-0.3,0.1-0.6,0.2-0.8c0.2-0.2,0.4-0.3,0.6-0.3c0.2,0,0.4,0.1,0.6,0.2c0.2,0.2,0.2,0.4,0.2,0.7v0.2c0.3-0.4,0.6-0.6,1-0.8
				c0.4-0.2,0.7-0.3,1.2-0.3c0.4,0,0.8,0.1,1.1,0.3c0.3,0.2,0.6,0.4,0.8,0.8c0.3-0.4,0.6-0.6,1-0.8c0.3-0.2,0.7-0.3,1.1-0.3
				c0.5,0,0.9,0.1,1.2,0.3c0.3,0.2,0.6,0.5,0.8,0.8c0.1,0.3,0.2,0.8,0.2,1.5v3.4c0,0.4-0.1,0.6-0.2,0.8c-0.2,0.2-0.4,0.3-0.7,0.3
				c-0.3,0-0.5-0.1-0.7-0.3c-0.2-0.2-0.3-0.5-0.3-0.8v-3c0-0.4,0-0.7,0-0.9c0-0.2-0.1-0.4-0.3-0.6c-0.1-0.2-0.4-0.2-0.6-0.2
				c-0.2,0-0.5,0.1-0.7,0.2c-0.2,0.1-0.4,0.3-0.5,0.6C326.7,480.7,326.7,481.3,326.7,482L326.7,482z"/>
		</g>
		<g>
			<path class="st11" d="M244.9,481.5C244.9,481.5,244.9,481.4,244.9,481.5C244.9,481.4,244.9,481.5,244.9,481.5z"/>
			<path class="st11" d="M245,482C245,482,245,482,245,482c0-0.2-0.1-0.3-0.1-0.5C244.9,481.7,244.9,481.9,245,482z"/>
			<path class="st11" d="M245.5,483.6C245.5,483.6,245.5,483.6,245.5,483.6C245.5,483.6,245.5,483.6,245.5,483.6z"/>
			<path class="st11" d="M245.5,483.5C245.5,483.5,245.5,483.5,245.5,483.5C245.5,483.5,245.5,483.5,245.5,483.5z"/>
			<path class="st11" d="M245.1,482.6c0.1,0.3,0.2,0.5,0.3,0.8C245.3,483.2,245.2,482.9,245.1,482.6
				C245.1,482.6,245.1,482.6,245.1,482.6z"/>
			<path class="st11" d="M251.7,474.7c0.3,0,0.6,0,0.9,0.1l0.1-0.5c0,0-0.8-0.2-1.8-0.2l-0.1-0.3c0.3-0.1,0.6-0.4,0.6-0.7
				c0-0.4-0.3-0.7-0.7-0.7c-0.4,0-0.7,0.3-0.7,0.7c0,0.3,0.2,0.6,0.6,0.7l0.1,0.3c-1.1,0.2-2,0.6-2,0.6l0.2,0.5
				c0.7-0.2,1.3-0.4,1.8-0.4C251,474.7,251.4,474.7,251.7,474.7z"/>
			<path class="st11" d="M245.5,477.3L245.5,477.3c0,0,0.1-0.1,0.1-0.1l-0.2-0.2l-0.3-0.2c0,0-0.5,0.5-0.9,1.4c0,0,0-0.1-0.1-0.1
				c-0.1-0.1-0.3-0.2-0.5-0.2c0,0,0,0,0,0c-0.1,0-0.2,0-0.3-0.1c0.1-0.1,0.1-0.2,0.1-0.3c0-0.2-0.2-0.5-0.5-0.5
				c-0.2,0-0.5,0.2-0.5,0.5c0,0.3,0.2,0.5,0.5,0.5c0,0,0.1,0,0.1,0c0.1,0.1,0.3,0.2,0.5,0.2c0.1,0,0.2,0,0.3,0.1
				c0.1,0.1,0.1,0.2,0.1,0.3c0,0,0,0,0,0c-0.3,0.8-0.2,1.8-0.2,1.8l0.7,0c0-0.4,0.1-1,0.3-1.5C245.1,478,245.5,477.4,245.5,477.3z"
				/>
			<path class="st11" d="M257.9,475.3c-0.2,0-0.5,0.2-0.5,0.5c0,0,0,0.1,0,0.1c-0.1,0.1-0.2,0.3-0.2,0.5c0,0.1,0,0.2-0.1,0.3
				c-0.1,0.1-0.1,0.1-0.2,0.1c-0.5-0.7-1.2-1.2-1.2-1.2l-0.5,0.6c0.4,0.4,0.8,0.8,1.2,1.3c0.3,0.4,0.5,0.9,0.8,1.4l0.7-0.3
				c0,0-0.3-0.8-0.8-1.5c0.1,0,0.2-0.1,0.2-0.1c0.1-0.1,0.2-0.3,0.2-0.5c0-0.1,0-0.2,0.1-0.3c0.1,0.1,0.2,0.1,0.3,0.1
				c0.3,0,0.5-0.2,0.5-0.5C258.4,475.5,258.2,475.3,257.9,475.3z"/>
			<path class="st11" d="M256.1,481.6c-1,0.5-2.5,1.1-4.6,1.4c-0.8,0.1-1.6,0.2-2.3,0.2c-0.9,0-1.8-0.1-2.4-0.2
				c-0.7-0.1-1.3-0.2-1.6-0.3c0.1,0.3,0.2,0.5,0.3,0.8c0,0,0,0,0,0c0,0,0,0.1,0,0.1c0,0,0,0.1,0,0.1c0,0,0,0,0,0
				c0.2,0.4,0.5,0.7,0.7,1c1,1.1,2,1.2,2,1.2l0,0l0,0c0,0,0.9,0.3,2.2,0.3c1.3,0,2.6-0.3,3.8-0.8c0.9-0.5,1.8-1.2,2.2-1.8
				c0.3-0.5,0.6-1,0.7-1.6c0.1-0.3,0.1-0.8,0.1-1.2C257.1,481,256.7,481.3,256.1,481.6z"/>
			<path class="st11" d="M256.1,477.7c-1.3-1.9-2.8-2.4-3.6-2.6c-0.3,0-0.5-0.1-0.8-0.1c-0.3,0-0.7,0-1.2,0.1
				c-0.5,0.1-1.1,0.2-1.7,0.4c-0.9,0.3-1.7,0.8-2.4,1.4l0,0c-0.1,0.1-0.3,0.3-0.5,0.6c0,0-0.4,0.6-0.8,1.5c-0.2,0.7-0.2,1.7-0.2,1.7
				c0,0.2,0,0.5,0,0.7c0,0,0,0,0,0c0,0,0,0,0,0.1c0,0.2,0.1,0.3,0.1,0.5c0.5,0.1,3.3,0.8,6.5,0.3c2-0.3,3.5-0.9,4.4-1.3
				c0.8-0.4,1.2-0.7,1.4-0.8C257.1,479.5,256.6,478.4,256.1,477.7z M248.6,480.9c-1.1,0-1.9-0.8-1.9-1.9c0-1,0.8-1.9,1.9-1.9
				c1.1,0,1.9,0.8,1.9,1.9C250.5,480,249.6,480.9,248.6,480.9z M254.1,479.5c-0.7,0-1.2-0.5-1.2-1.2c0-0.7,0.5-1.2,1.2-1.2
				c0.6,0,1.2,0.5,1.2,1.2C255.3,478.9,254.8,479.5,254.1,479.5z"/>
		</g>
	</g>
</g>
</svg>
