<?xml version="1.0" encoding="utf-8"?>
<!-- Generator: Adobe Illustrator 22.1.0, SVG Export Plug-In . SVG Version: 6.00 Build 0)  -->
<svg version="1.1" xmlns="http://www.w3.org/2000/svg" xmlns:xlink="http://www.w3.org/1999/xlink" x="0px" y="0px"
	 viewBox="0 0 1200 800" style="enable-background:new 0 0 1200 800;" xml:space="preserve">
<style type="text/css">
	.st0{display:none;fill:url(#XMLID_83_);}
	.st1{fill:url(#XMLID_84_);}
	.st2{fill:url(#XMLID_85_);}
	.st3{opacity:0.9;fill:url(#XMLID_86_);}
	.st4{fill:#98B4EB;}
	.st5{fill:#6197CC;}
	.st6{fill:#2C4973;}
	.st7{fill:#4D78A2;}
	.st8{fill:#6591BA;}
	.st9{fill:url(#XMLID_87_);}
	.st10{fill:#3C6B94;}
	.st11{fill:#345F89;}
	.st12{fill:#ABD3F3;}
	.st13{fill:#FFFFFF;}
	.st14{fill:#C8E7FE;}
	.st15{fill:#9FC5E8;}
	.st16{fill:#BEDEF4;}
	.st17{fill:#8AB3DC;}
	.st18{fill:#C1DEF4;}
	.st19{fill:#73A1CD;}
	.st20{fill:#A2C4E7;}
	.st21{fill:#6F91AD;}
	.st22{fill:#3C6B95;}
	.st23{fill:#154873;}
	.st24{fill:#4C88BD;}
	.st25{fill:#6996BF;}
	.st26{fill:url(#XMLID_88_);}
	.st27{display:none;fill:url(#XMLID_89_);}
	.st28{fill:url(#XMLID_90_);}
	.st29{opacity:0.9;fill:url(#XMLID_91_);}
	.st30{fill:url(#XMLID_92_);}
	.st31{fill:url(#XMLID_93_);}
	.st32{fill:#231F20;}
	.st33{display:none;opacity:0.3;fill:#FFFFFF;}
	.st34{display:none;}
	.st35{display:inline;fill:#FFFFFF;}
	.st36{opacity:0.3;fill:#FFFFFF;}
	.st37{display:inline;}
</style>
<g id="BACKGROUND">
	<linearGradient id="XMLID_83_" gradientUnits="userSpaceOnUse" x1="600" y1="801.1304" x2="600" y2="-12.6623">
		<stop  offset="0" style="stop-color:#FFFFFF"/>
		<stop  offset="0.3093" style="stop-color:#BFCCDF"/>
		<stop  offset="0.6345" style="stop-color:#839BC0"/>
		<stop  offset="0.8741" style="stop-color:#5D7DAD"/>
		<stop  offset="1" style="stop-color:#4F71A6"/>
	</linearGradient>
	<rect id="XMLID_652_" class="st0" width="1200" height="799.4"/>
	<linearGradient id="XMLID_84_" gradientUnits="userSpaceOnUse" x1="600" y1="801.1304" x2="600" y2="-12.6623">
		<stop  offset="0" style="stop-color:#FFFFFF"/>
		<stop  offset="0.1517" style="stop-color:#D7D4DE"/>
		<stop  offset="0.462" style="stop-color:#8B809D"/>
		<stop  offset="0.7166" style="stop-color:#53436E"/>
		<stop  offset="0.9024" style="stop-color:#301D51"/>
		<stop  offset="1" style="stop-color:#230F46"/>
	</linearGradient>
	<rect id="XMLID_1_" class="st1" width="1200" height="799.4"/>
</g>
<g id="OBJECTS">
	<g id="XMLID_97_">
		
			<radialGradient id="XMLID_85_" cx="513.5035" cy="618.6173" r="183.6369" gradientTransform="matrix(6.123234e-17 -1 1.9972 1.222957e-16 -722.0237 1132.1207)" gradientUnits="userSpaceOnUse">
			<stop  offset="0" style="stop-color:#FFFFD9"/>
			<stop  offset="8.123976e-02" style="stop-color:#E4EED3;stop-opacity:0.9188"/>
			<stop  offset="0.2458" style="stop-color:#B3CFC9;stop-opacity:0.7542"/>
			<stop  offset="0.4094" style="stop-color:#8BB5C1;stop-opacity:0.5906"/>
			<stop  offset="0.5689" style="stop-color:#6CA1BA;stop-opacity:0.4311"/>
			<stop  offset="0.723" style="stop-color:#5593B6;stop-opacity:0.277"/>
			<stop  offset="0.8694" style="stop-color:#488AB3;stop-opacity:0.1306"/>
			<stop  offset="1" style="stop-color:#4387B2;stop-opacity:0"/>
		</radialGradient>
		<path id="XMLID_504_" style="opacity:0.9;fill:url(#XMLID_85_);" d="M912.2,603.2c0,111.3-179.1,196.8-400,196.8
			s-400-85.4-400-196.8c0-111.3,179.1-201.6,400-201.6S912.2,491.9,912.2,603.2z"/>
		<g id="XMLID_739_">
			<polygon id="XMLID_728_" class="st4" points="323.1,125.8 437.2,141.9 477,133 438.2,109.6 			"/>
			<polygon id="XMLID_730_" class="st4" points="921.2,158 1035.2,174.1 1075,165.3 1036.2,141.9 			"/>
			<polygon id="XMLID_727_" class="st4" points="316.3,419.6 206.5,381.2 146.7,397.7 113.1,389.5 26.9,411.2 209.8,428 			"/>
			<polygon id="XMLID_710_" class="st4" points="1187.9,243.5 1078.1,205.1 1018.3,221.6 984.8,213.4 898.6,235.1 1081.4,251.9 			
				"/>
			<polygon id="XMLID_729_" class="st4" points="430.8,338.6 351.9,311 308.9,322.9 284.8,316.9 222.8,332.6 354.3,344.6 			"/>
			<polygon id="XMLID_717_" class="st4" points="877.9,226.1 817.5,205.1 728.8,226.1 			"/>
			<polygon id="XMLID_716_" class="st4" points="347.7,218.1 248.3,192.1 125.6,212.3 108.2,199.2 33.6,218.1 313.5,218.1 			"/>
			<polygon id="XMLID_723_" class="st4" points="1193.1,321.2 1059.5,311.9 906.3,323 1059,330.6 			"/>
			<polygon id="XMLID_719_" class="st4" points="672.1,275.4 650,262.7 627.2,271.6 607.1,263.3 576.6,275.8 550.4,271.5 511.9,276 
				554.3,281 551.3,281 648.7,281 			"/>
		</g>
		<g id="XMLID_503_">
			<path id="XMLID_95_" class="st5" d="M1199,548.3l-12.2,31.7h4.1l-10.9,28.4l-6-10.4h4.1l-12.2-21.2l-12.2,21.2h4.1l-11.1,19.2h8
				l-5.5,9.5l-6.9-17.9h8l-11.1-28.8h4.1l-12.2-31.7l-12.2,31.7h4.1l-10.9,28.4l-6-10.4h4.1l-12.2-21.2l-12.2,21.2h4.1l-6.2,10.8
				l-8.2-14.3h4.5l-13.4-23.2l-11.5,19.9l-11.5-19.9l-11.5,19.9l-11.5-19.9l-13.4,23.2h4.5l-7,12.1l-5-8.6h4.1l-12.2-21.2
				l-12.2,21.2h4.1l-8.8,15.2l-8.8-15.2h4.1l-12.2-21.2L945,598.1h4.1l-4.8,8.3l-10.1-26.3h4.1L926,548.3l-12.2,31.7h4.1l-9.6,24.9
				l-4-6.9h4.1l-12.2-21.2l-12.2,21.2h4.1l-6.9,11.9l-6.9-11.9h4.1l-12.2-21.2l-10.6,18.4l-10.6-18.4l-12.2,21.2h4.1l-6.3,10.9
				l-6.3-10.9h4.1l-12.2-21.2l-8.4,14.6l-4.4-11.4h4.1l-12.2-31.7l-10.5,27.2l-10.5-27.2l-12.2,31.7h4.1l-10.3,26.8l-5.1-8.8h4.1
				l-12.2-21.2L730,598.1h4.1l-7.4,12.8l-7.4-12.8h4.1l-12.2-21.2l-12.2,21.2h4.1l-7.4,12.8L685,592.5h4.7L675.6,568l-13.4,23.2
				L648.8,568l-12.1,21l-12.1-21l-14,24.3l-9.3-16.1l-12.4,21.4h4.1l-8.6,14.8l-8.5-14.8h4.1l-12.4-21.4l-12.4,21.4h4.1l-4.6,8
				l-4.4-7.5h4.1l-12.2-21.2L530,598.1h4.1l-8.5,14.6l-8.5-14.6h4.1L509,576.9l-12.2,21.2h4.1l-5.7,9.9l-5.7-9.9h4.1l-12.2-21.2
				l-8.4,14.6l-4.4-11.4h4.1l-12.2-31.7l-12.2,31.7h4.1L441.8,607l-5.1-8.9h4.1l-12.2-21.2l-12.2,21.2h4.1l-4.3,7.5l-4.3-7.5h4.1
				l-12.2-21.2l-8.4,14.6l-4.4-11.4h4.1l-12.2-31.7l-12.2,31.7h4.1l-5,13l-9.4-16.2l-12.2,21.2h4.1l-8.8,15.2l-8.8-15.2h4.1
				l-12.2-21.2l-11.2,19.5l-11.2-19.5l-12.2,21.2h4.1l-8.2,14.2l-8.2-14.2h4.1L271,576.9l-12.2,21.2h4.1l-6,10.3l-6-10.3h4.1
				l-12.2-21.2l-7.4,12.8l-3.7-9.6h4.1l-12.2-31.7l-12.2,31.7h4.1l-9.8,25.4l-4.3-7.4h4.1l-12.2-21.2l-12.2,21.2h4.1l-7,12.2
				l-7-12.2h4.1l-12.2-21.2l-12.1,21l-12.1-21l-11.1,19.2l-6.2-16h4.1l-12.2-31.7l-12.2,31.7h4.1l-4.2,10.8l-4.2-10.8h4.1
				l-12.2-31.7l-12.2,31.7h4.1l-4.2,11l-8.6-14.9l-12.4,21.4h4.1L48,617.1h8.1l-8.3,14.3l-8.2-14.1h8l-11.1-19.2h4.1l-12.2-21.2
				l-12.2,21.2h4.1l-8.5,14.6l-8.4-14.6h4.1L0,585v49.2h1200V551L1199,548.3z M11.9,626.6l-5.4-9.4h10.8L11.9,626.6z M100.8,611.8
				l-1.1-2.9h2.2L100.8,611.8z M129.1,600.3l-0.9-2.3h2.2L129.1,600.3z M150.7,618.8l-0.9-1.5h1.8L150.7,618.8z M150.7,604.9
				l-3.9-6.8h7.9L150.7,604.9z M177.9,624.1l-4-6.9h8L177.9,624.1z M207.2,622.2l-2.8-4.9h4.7L207.2,622.2z M210.4,613.8l-2.9-5h4.8
				L210.4,613.8z M256.8,622.3l-2.9-5h5.8L256.8,622.3z M287.3,626.2l-5.1-8.9h10.3L287.3,626.2z M314.9,617.3L314.9,617.3
				L314.9,617.3L314.9,617.3z M314.9,603.4l-3.1-5.3h6.2L314.9,603.4z M343.1,627.2l-5.7-9.9h11.4L343.1,627.2z M416,619.5l-1.3-2.2
				h2.6L416,619.5z M443.4,623.7l-3.7-6.4h6.2L443.4,623.7z M446.6,615.3l-3.8-6.5h6.2L446.6,615.3z M495.2,621.9l-2.7-4.6h5.3
				L495.2,621.9z M525.7,626.6l-5.4-9.4h10.8L525.7,626.6z M554.8,619.6l-1.3-2.3h2.7L554.8,619.6z M584.4,626.5l-5.5-9.5h10.9
				L584.4,626.5z M610.8,600l-1.3-2.3h2.7L610.8,600z M612.9,596.4l-2.3-3.9h4.5L612.9,596.4z M636.7,597.2l-2.7-4.7h5.4
				L636.7,597.2z M662.2,615.5l-0.5-0.8h0.9L662.2,615.5z M662.2,599.4l-4-6.9h8L662.2,599.4z M695,625.9l-6.5-11.2h4.9l-1.5,2.6h8
				L695,625.9z M726.7,624.7l-4.3-7.5h8.6L726.7,624.7z M757,623.5l-3.6-6.3h6L757,623.5z M760.2,615.2l-3.7-6.4h6.1L760.2,615.2z
				 M784.4,586.2l-2.3-6.1h4.7L784.4,586.2z M830.4,622.9l-3.3-5.7h6.5L830.4,622.9z M855.5,602.3l-2.5-4.3h4.9L855.5,602.3z
				 M881.1,623.8l-3.8-6.6h7.6L881.1,623.8z M909.9,621.7l-2.6-4.4h4.2L909.9,621.7z M913.1,613.3l-2.6-4.5h4.3L913.1,613.3z
				 M937.2,608.8h5.7l-3.4,5.9L937.2,608.8z M942.7,623l-2.2-5.8h5.6L942.7,623z M974.2,627.2l-5.7-9.9h11.4L974.2,627.2z
				 M1004.6,621.2l-2.3-4h4.6L1004.6,621.2z M1031.6,599l-2.6-4.4h5.1L1031.6,599z M1054.6,599l-2.6-4.4h5.1L1054.6,599z
				 M1078.4,615.6h1l-0.5,0.8L1078.4,615.6z M1082.9,623.4l-3.6-6.2h7.1L1082.9,623.4z M1113.4,625.1l-4.5-7.9h7.6L1113.4,625.1z
				 M1116.7,616.8l-4.6-7.9h7.6L1116.7,616.8z M1181.5,625.1l-4.5-7.9h7.6L1181.5,625.1z M1184.7,616.8l-4.6-7.9h7.7L1184.7,616.8z"
				/>
			<path id="XMLID_494_" class="st6" d="M1200,609.5l-6.8-17.5h3.2l-9.5-24.5l-9.5,24.5h3.2l-4.8,12.4l-8.6-14.8l-8.6,14.9
				l-8.6-14.9l-9.5,16.4h3.2l-3.9,6.8l-7.5-13h3.9l-11.5-20l-11.5,20h3.8l-8.2,14.2l-4.6-8h3.2l-9.5-16.4l-7.4,12.9l-7.4-12.9
				l-9.5,16.4h3.2l-6.5,11.3l-6.5-11.3h3.2l-9.5-16.4l-9.5,16.4h3.2l-8.6,14.8h6.2l-6.3,10.9l-6.4-11.1h6.3l-8.7-15h3.2l-9.6-16.6
				l-6.6,11.5l-3.3-8.5h3.2l-9.5-24.5l-9.5,24.5h3.2l-3.2,8.4l-3.2-8.4h3.2l-9.5-24.5l-9.5,24.5h3.1l-4.8,12.4l-8.6-14.9l-9.3,16.2
				l-9.4-16.2l-9.5,16.4h3.2l-5.4,9.4l-5.4-9.4h3.2l-9.5-16.4l-9.5,16.4h3.2l-3.3,5.8l-7.6-19.7h3.2l-9.5-24.5L897,592h3.2l-2.9,7.4
				l-5.7-9.9l-9.5,16.4h3.2l-4.6,8l-4.6-8h3.1l-9.5-16.4l-9.5,16.4h3.2l-6.3,11l-6.3-11h3.2l-9.5-16.4l-8.7,15l-8.7-15l-9.5,16.4
				h3.2l-6.8,11.8l-6.8-11.8h3.2l-9.5-16.4l-7.2,12.5l-3.9-10.1h3.2l-9.5-24.5l-9.5,24.5h3.2l-3.4,8.8l-6.5-11.3l-9.5,16.4h3.2
				l-3.3,5.8l-3.3-5.8h3.1l-9.5-16.4l-9.5,16.4h3.2l-4,6.9l-8-20.8h3.2l-9.5-24.5L714,592h3.2l-3.4,8.8l-6.5-11.3l-9.5,16.4h3.2
				l-4.4,7.6l-4.4-7.6h3.2l-9.5-16.4l-9.5,16.4h3.2l-6.5,11.3l-6.5-11.3h3.1l-9.5-16.4l-9.5,16.4h3.2l-3.4,5.8l-3.6-6.2h3.2
				l-9.6-16.6l-9.6,16.6h3.2l-6.6,11.5l-6.6-11.5h3.2l-9.6-16.6l-7.2,12.5l-10.8-18.8l-9.4,16.2l-9.4-16.2l-10.4,17.9L557,582.7
				l-10.9,18.9h3.7l-8.2,14.2l-5.7-9.9h3.2l-9.5-16.4l-9.5,16.4h3.2l-5.7,9.9l-5.7-9.9h3.2l-9.5-16.4l-9.5,16.4h3.2l-3.9,6.8
				l-8-20.7h3.2l-9.5-24.5l-8.1,21l-8.1-21l-9.5,24.5h3.2l-3.4,8.8l-6.5-11.3l-9.5,16.4h3.2l-4.9,8.5l-4.9-8.5h3.2l-9.5-16.4
				l-8.2,14.2l-8.2-14.2l-9.5,16.4h3.2l-5.3,9.2l-5.3-9.2h3.2l-9.5-16.4l-9.5,16.4h3.1l-3.1,5.4l-7.4-19.3h3.2l-9.5-24.5l-9.5,24.5
				h3.2l-7.8,20.3l-3.7-6.4h3.2l-9.5-16.4l-9.5,16.4h3.2l-6.8,11.8l-6.8-11.8h3.2l-9.5-16.4l-9.5,16.4h3.2l-3.8,6.6l-5.4-9.3h3.5
				l-10.4-18l-8.9,15.4l-8.9-15.4l-8.9,15.4l-8.9-15.4l-10.4,18h3.5l-6.4,11l-4.8-8.3h3.2l-9.5-16.4l-9.5,16.4h3.2l-4.6,8l-8.5-21.9
				h3.2l-9.5-24.5l-9.5,24.5h3.2l-8.6,22.2h6.2L191,628l-4.2-7.3h6.2l-8.6-14.8h3.2l-9.5-16.4l-9.5,16.4h3.1l-4.6,8l-8.5-21.9h3.2
				l-9.5-24.5l-9.5,24.5h3.2l-8.5,21.9l-4.6-8h3.2l-9.5-16.4l-9.5,16.4h3.2l-6.8,11.8l-6.8-11.8h3.2l-9.5-16.4l-9.5,16.4h3.2
				l-8.6,14.8h6.2l-3.8,6.6L83,614.2h6.2L80.7,592h3.2l-9.5-24.5L64.9,592H68l-8.6,22.2h6.2l-5,13.1l-3.8-6.6H63l-8.6-14.8h3.1
				l-9.5-16.4l-9.5,16.4h3.2l-3.5,6L30.7,592h3.2l-9.5-24.5L15,592h3.2l-8.6,22.2h6.2l-7.6,19.6H1200v-8.2l-4.4-11.4h4.4V609.5z
				 M33.1,614.2h4l-2.4,4.1L33.1,614.2z M37.2,624.8l-1.6-4.1h3.9L37.2,624.8z M113.6,628.4l-4.4-7.7h8.8L113.6,628.4z M138.9,626.8
				l-3.5-6.1h5.8L138.9,626.8z M141.4,620.3l-3.6-6.1h5.9L141.4,620.3z M161,614.2h5.9l-3.5,6.1L161,614.2z M165.9,626.8l-2.3-6.1
				h5.8L165.9,626.8z M213.7,614.2h5.9l-3.6,6.1L213.7,614.2z M218.5,626.8l-2.3-6.1h5.8L218.5,626.8z M242.1,625.5l-2.8-4.8h5.5
				L242.1,625.5z M245.2,620.1l-0.4-0.6h0.8L245.2,620.1z M264,606.6l-2-3.4h4L264,606.6z M281.8,606.6l-2-3.4h4L281.8,606.6z
				 M302.7,623.8l-1.8-3.1h3.5L302.7,623.8z M326.2,628.4l-4.4-7.7h8.8L326.2,628.4z M350.5,625.2l-2.6-4.5h4.3L350.5,625.2z
				 M353,618.7l-2.6-4.5h4.4L353,618.7z M372.1,614.2h3.3l-2,3.5L372.1,614.2z M375.9,624.1l-1.3-3.4h3.3L375.9,624.1z M398.1,625.8
				l-2.9-5.1h5.9L398.1,625.8z M418,609.2l-1.9-3.3h3.8L418,609.2z M437.3,625.1l-2.5-4.4h5L437.3,625.1z M472.9,596.7l-1.8-4.7h3.6
				L472.9,596.7z M489.7,614.2h4.8l-2.8,4.9L489.7,614.2z M494,625.6l-1.9-4.9h4.7L494,625.6z M517.5,626.5l-3.3-5.8h6.7
				L517.5,626.5z M542,627.4l-3.8-6.7h6.2l-1.2-2h3.8L542,627.4z M567.4,619.3l-0.4-0.6h0.7L567.4,619.3z M567.4,606.9l-3.1-5.3h6.2
				L567.4,606.9z M587.1,605.2l-2.1-3.6h4.2L587.1,605.2z M603.7,601.6h3.5l-1.7,3L603.7,601.6z M607.1,607.3l-1.1-1.8h2.1
				L607.1,607.3z M627.5,627.9l-4.2-7.3h8.5L627.5,627.9z M650.4,622.5l-1-1.8h2.1L650.4,622.5z M672.9,628l-4.2-7.2h8.4L672.9,628z
				 M696.5,624.3l-2.1-3.6h4.1L696.5,624.3z M732.1,614.2h4.8l-2.9,5L732.1,614.2z M736.5,625.7l-1.9-4.9h4.8L736.5,625.7z
				 M757.7,622.4l-1-1.7h2L757.7,622.4z M814.1,628.4l-4.4-7.7h8.9L814.1,628.4z M835.8,620.8L835.8,620.8L835.8,620.8L835.8,620.8z
				 M835.8,610l-2.4-4.1h4.8L835.8,610z M857.2,627.6l-4-6.9h7.9L857.2,627.6z M880.7,624.6l-2.2-3.9h4.5L880.7,624.6z M915.2,614.2
				h3.7l-2.2,3.9L915.2,614.2z M919.2,624.5l-1.5-3.8h3.7L919.2,624.5z M941.7,626l-3.1-5.3h6.1L941.7,626z M962.8,621.9l-0.7-1.2
				h1.4L962.8,621.9z M962.8,611.2l-3-5.3h6.1L962.8,611.2z M979.5,607.6l-1-1.8h1.7L979.5,607.6z M1001.4,616.5l-0.9-2.3h1.7
				L1001.4,616.5z M1070.1,628l-4.2-7.2h8.4L1070.1,628z M1090.4,607.8l-1.1-2h2.3L1090.4,607.8z M1109.4,625.8l-3-5.1h5.9
				L1109.4,625.8z M1112.5,620.4l-1.5-2.6h3L1112.5,620.4z M1135.2,617.8h1.7l-0.8,1.4L1135.2,617.8z M1139.1,624.6l-2.3-3.9h4.5
				L1139.1,624.6z M1158.7,609.9l-2.3-4h4.6L1158.7,609.9z M1174.6,607.6l-1-1.8h1.7L1174.6,607.6z"/>
			<g id="XMLID_738_">
				<g id="XMLID_538_">
					<polygon id="XMLID_684_" class="st7" points="1200,370.5 887.9,370.5 887.9,438.7 859.1,370.5 798.3,370.5 798.3,472.5 
						758.6,472.5 758.6,633.7 1200,633.7 					"/>
					<polygon id="XMLID_688_" class="st8" points="859.1,370.5 887.9,370.5 887.9,438.7 					"/>
					<linearGradient id="XMLID_86_" gradientUnits="userSpaceOnUse" x1="758.5635" y1="495.083" x2="798.3359" y2="495.083">
						<stop  offset="0" style="stop-color:#FFFFFF"/>
						<stop  offset="0.1931" style="stop-color:#C5DAEB;stop-opacity:0.8069"/>
						<stop  offset="0.4882" style="stop-color:#71A6CF;stop-opacity:0.5118"/>
						<stop  offset="0.7305" style="stop-color:#3480BA;stop-opacity:0.2695"/>
						<stop  offset="0.9072" style="stop-color:#0E68AD;stop-opacity:9.283203e-02"/>
						<stop  offset="1" style="stop-color:#005FA8;stop-opacity:0"/>
					</linearGradient>
					<polygon id="XMLID_689_" style="fill:url(#XMLID_86_);" points="758.6,472.5 798.3,472.5 798.3,517.6 					"/>
					<polygon id="XMLID_337_" class="st8" points="798.3,517.6 832.7,457.1 832.7,370.5 798.3,370.5 					"/>
					<polygon id="XMLID_335_" class="st10" points="887.9,370.5 887.9,633.7 910.1,633.7 993.8,370.5 					"/>
					<polygon id="XMLID_338_" class="st11" points="887.9,438.7 880.1,420.1 844.5,633.7 887.9,633.7 					"/>
					<polygon id="XMLID_341_" class="st10" points="1013.3,449.5 1057,370.5 993.8,370.5 					"/>
					<polygon id="XMLID_340_" class="st8" points="1057,370.5 1013.3,449.5 1013.3,633.7 1057,633.7 					"/>
					<polygon id="XMLID_339_" class="st10" points="1057,633.7 1083,633.7 1146.4,370.5 1057,370.5 					"/>
					<polygon id="XMLID_532_" class="st8" points="1146.4,370.5 1174,404.6 1200,370.5 					"/>
					<polygon id="XMLID_544_" class="st8" points="1106,538 1142,633.7 1169,633.7 					"/>
					<polygon id="XMLID_526_" class="st7" points="798.3,517.6 798.3,633.7 758.6,633.7 758.6,472.5 					"/>
					<polygon id="XMLID_552_" class="st12" points="844.5,370.5 873.5,404.6 873.5,370.5 					"/>
					<polygon id="XMLID_653_" class="st12" points="798.3,472.5 798.3,495.1 778.4,472.5 					"/>
					<polygon id="XMLID_654_" class="st13" points="778.4,472.5 771.8,487.6 758.6,576.3 758.6,472.5 					"/>
					<polygon id="XMLID_550_" class="st14" points="778.4,472.5 771.8,487.6 778.4,514.5 790.5,486.1 					"/>
					<polygon id="XMLID_655_" class="st14" points="844.5,370.5 834.8,395.3 849.2,444.1 859,387.6 					"/>
				</g>
				<polygon id="XMLID_695_" class="st12" points="908,407.3 908,370.5 933.2,370.5 				"/>
				<polygon id="XMLID_697_" class="st12" points="967,370.5 993.8,416 1013.3,370.5 				"/>
				<polygon id="XMLID_691_" class="st14" points="967,370.5 961.6,404.6 974.5,438.7 979.3,391.4 				"/>
				<polygon id="XMLID_701_" class="st14" points="993.8,416 993.8,370.5 1013.3,370.5 				"/>
				<polygon id="XMLID_705_" class="st14" points="1041.3,370.5 1034.7,390.3 1051.3,421 1064.7,390.3 1060.7,370.5 				"/>
				<polygon id="XMLID_698_" class="st12" points="1060.7,370.5 1064.7,390.3 1076.7,404.6 1080.7,370.5 				"/>
				<path id="XMLID_708_" class="st12" d="M1100,370.5l22,17c0,0,29.4-17,24.4-17C1141.3,370.5,1100,370.5,1100,370.5z"/>
				<polygon id="XMLID_706_" class="st14" points="1100,370.5 1089.3,379.1 1100,390.3 1111,379.1 				"/>
				<polygon id="XMLID_635_" class="st13" points="1137.5,361 1089.3,349 1035.2,355.1 950.1,339.7 904.7,351.7 854.5,355.1 
					808.3,358.3 805,362.4 798.3,370.5 798.3,370.5 798.3,370.5 798.3,370.5 798.3,472.5 808.3,389.1 825,420.1 844.5,370.5 
					845.8,370.5 862.5,376 873.5,370.5 887.9,370.5 908,407.3 908,370.5 914.5,380.5 933.2,370.5 949,483.8 967,370.5 993.8,386.2 
					993.8,370.5 1001.8,377.2 1013.3,370.5 1028,410 1041.1,371.3 1062.4,379.1 1060.7,370.5 1070.7,375 1080.7,370.5 1078.7,387.6 
					1100,370.5 1131,377 1146.4,370.5 1173.2,416 1182,370.5 1193.5,379.1 1200,370.5 1200,363 				"/>
			</g>
			<g id="XMLID_665_">
				<polygon id="XMLID_666_" class="st11" points="225.3,633.7 350.9,434.3 487.8,633.7 				"/>
				<polygon id="XMLID_667_" class="st7" points="350.9,434.3 406.1,633.7 304.3,633.7 				"/>
				<polygon id="XMLID_681_" class="st8" points="350.9,434.3 304.3,633.7 225.3,633.7 				"/>
				<g id="XMLID_737_">
					<polygon id="XMLID_690_" class="st14" points="351.1,433 337.2,492.7 351.9,520.7 366.7,489.1 					"/>
					<polygon id="XMLID_692_" class="st13" points="311.5,495.8 351.1,433 337.2,492.7 					"/>
					<polygon id="XMLID_693_" class="st12" points="351.1,433 394.3,495.8 366.7,489.1 					"/>
				</g>
			</g>
			<g id="XMLID_663_">
				<polygon id="XMLID_658_" class="st7" points="304.3,633.7 203.1,311 95.6,633.7 				"/>
				<polygon id="XMLID_659_" class="st12" points="203.1,311 234,409.6 218.3,434.3 				"/>
				<polygon id="XMLID_656_" class="st14" points="218.3,434.3 204.2,502.1 190.4,434.3 203.1,311 				"/>
				<polygon id="XMLID_661_" class="st13" points="190.4,434.3 154.3,454.8 203.1,311 				"/>
				<polygon id="XMLID_660_" class="st8" points="190.4,434.3 150.3,633.7 95.6,633.7 154.3,454.8 				"/>
				<polygon id="XMLID_662_" class="st11" points="218.3,434.3 251,633.7 304.3,633.7 234,409.6 				"/>
			</g>
			<g id="XMLID_736_">
				<rect id="XMLID_460_" y="633.7" class="st15" width="1200" height="165.7"/>
				<polygon id="XMLID_441_" class="st16" points="773.1,667.5 499.9,665 773.1,679.8 832.9,667.5 				"/>
				<polygon id="XMLID_650_" class="st13" points="1200,633.7 783.3,633.7 943.7,644.5 666.4,656.6 1200,656.6 				"/>
				<polygon id="XMLID_440_" class="st16" points="394.9,633.7 755.1,633.7 627.4,641.8 244.1,633.7 				"/>
				<polygon id="XMLID_439_" class="st16" points="0,674.9 353.7,679.8 353.7,687.1 533.3,695.2 339.5,701.8 340.2,696.9 0,696.9 
									"/>
				<polygon id="XMLID_438_" class="st17" points="586.5,675.7 419,685.1 679,685.1 				"/>
				<polygon id="XMLID_437_" class="st18" points="522.6,716.4 713.4,696.9 764.5,716.4 				"/>
				<polygon id="XMLID_13_" class="st13" points="0,651.2 565.3,655.9 0,660.6 				"/>
				<polygon id="XMLID_651_" class="st17" points="1200,687.1 1166.3,672.4 1000,688.4 				"/>
			</g>
			<g id="XMLID_731_">
				<polygon id="XMLID_459_" class="st13" points="697.4,768.1 642.2,735.4 571,748.1 527.1,725 400.1,761.1 451.4,786.9 
					554.8,753.1 643.5,786.9 				"/>
				<polygon id="XMLID_458_" class="st18" points="202.7,778.4 377.4,748.1 451.4,786.9 554.8,753.1 643.5,786.9 740.3,753.1 
					829,769.6 913.7,739.9 1002.7,786.9 1002.7,799.4 945.3,749.4 860.6,800.6 737.6,769.6 635.5,799.4 564.3,776.2 462.1,799.4 
					202.7,799.4 				"/>
				<polygon id="XMLID_16_" class="st18" points="943.7,733.4 1069,708.2 1122,736 1169,756.6 1200,762.8 1200,800 950,800 				"/>
				<polygon id="XMLID_456_" class="st13" points="740.3,753.1 763.2,725 791.4,732.3 799.4,706.8 818.3,701.2 846.5,727.2 
					880.1,716.6 900.2,730 925.1,725 913.7,739.9 829,769.6 				"/>
				<polygon id="XMLID_455_" class="st19" points="818.3,701.2 841.1,739.9 841.1,765.4 880.1,753.1 				"/>
				<polygon id="XMLID_452_" class="st17" points="737.6,769.6 755.1,799.4 859.1,799.4 				"/>
				<polygon id="XMLID_451_" class="st13" points="755.1,799.4 737.6,769.6 635.5,799.4 				"/>
				<polygon id="XMLID_450_" class="st19" points="587.1,765.4 697.4,768.1 643.5,786.9 				"/>
				<polygon id="XMLID_449_" class="st20" points="763.2,725 763.2,757.4 783.3,761.1 				"/>
				<polygon id="XMLID_448_" class="st19" points="564.3,776.2 635.5,799.4 491.7,799.4 491.7,792.7 				"/>
				<polygon id="XMLID_447_" class="st13" points="643.5,786.9 587.1,765.4 629.2,766.4 				"/>
				<polygon id="XMLID_446_" class="st17" points="527.1,725 554.8,753.1 571,748.1 				"/>
				<polygon id="XMLID_445_" class="st19" points="642.2,735.4 740.3,753.1 697.4,768.1 				"/>
				<polygon id="XMLID_443_" class="st20" points="527.1,725 430.8,776.2 451.4,786.9 554.8,753.1 				"/>
				<polygon id="XMLID_14_" class="st19" points="925.1,725 950,735.4 943.7,748.1 936.2,751.8 913.7,739.9 				"/>
				<polygon id="XMLID_17_" class="st19" points="1069,707.6 1200,730 1169,756 1122,736 				"/>
				<polygon id="XMLID_5_" class="st13" points="1169,756 1200,730 1200,762.8 				"/>
				<polygon id="XMLID_396_" class="st13" points="1069,707.6 1057,743.9 1032.8,730 1017.5,731.8 1025.7,716.9 				"/>
				<polygon id="XMLID_402_" class="st20" points="1069,707.6 1096,746.4 1092.7,792.3 1076,756 1057,743.9 				"/>
				<polygon id="XMLID_6_" class="st20" points="1096,746.4 1157.5,770.2 1200,775 1169,756 				"/>
				<polygon id="XMLID_414_" class="st13" points="1096,799.4 1092.7,792.3 1148,775 1200,787.2 1200,800 				"/>
				<polygon id="XMLID_408_" class="st19" points="1148,775 1169,799.4 1200,800 1200,787.2 				"/>
			</g>
			<path id="XMLID_735_" class="st21" d="M928.6,755.9c0,0,3.3-12,3.7-13.3c0.3-1.3-3.7,2-3.7,2.7c0,0.7,6-17.7,6-17.7l-6,4.7
				l3.3-24.7c0,0,6.3-12,7-13.3c0.7-1.3-5,5.3-5,5.3s6.7-21,7-22.3c0.3-1.3-4.7,3.3-4.7,3.3l1.7-10.3l5.7-16l-3.3,2.7l4-19l2.7-8.7
				h-2.7l3.8-15.7h-1.5l3-18l4,25.3l-2.3-0.3l5.7,15.7l-2.7-1.3l4.3,22.7l-3-3l6.3,29.3l-3-1.3l7.3,27c0,0-3.7-5.3-3.7-3.7
				c0,1.7,9,50,9,50H928.6z"/>
			<g id="XMLID_712_">
				<path id="XMLID_715_" class="st13" d="M894.4,776.4c0.5,1.9,5.3,19.4,5.3,19.4h-62.5c0,0,13.1-70.3,13.1-72.7
					c0-2.4-5.1,4.9-5.3,5.3l10.7-39.2l-4.4,1.9l9.2-42.6l-4.4,4.4l6.3-33l-3.9,1.9l8.2-22.8l-3.4,0.5l5.1-32.2l0.7-4.6l4.4,26.2
					h-2.2l5.6,22.8h-3.9l3.9,12.6l5.8,27.6L878,648l8.2,23.3l2.4,15c0,0-7.3-6.8-6.8-4.8c0.5,1.9,10.2,32.5,10.2,32.5
					s-8.2-9.7-7.3-7.8c1,1.9,10.2,19.4,10.2,19.4l4.8,35.9l-8.7-6.8c0,0,7,21.3,8.4,25.1C898.3,778.1,894,774.7,894.4,776.4z"/>
				<path id="XMLID_714_" class="st14" d="M894.4,776.4c0.5,1.9,5.3,19.4,5.3,19.4h-31.2V567.2l0.7-4.6l4.4,26.2h-2.2l5.6,22.8h-3.9
					l3.9,12.6l5.8,27.6L878,648l8.2,23.3l2.4,15c0,0-7.3-6.8-6.8-4.8c0.5,1.9,10.2,32.5,10.2,32.5s-8.2-9.7-7.3-7.8
					c1,1.9,10.2,19.4,10.2,19.4l4.8,35.9l-8.7-6.8c0,0,7,21.3,8.4,25.1C898.3,778.1,894,774.7,894.4,776.4z"/>
			</g>
			<path id="XMLID_724_" class="st13" d="M1015.9,719.8c0.2,0.3,0.3,0.5,0.3,0.6C1016.2,720.5,1016.1,720.3,1015.9,719.8z"/>
			<g id="XMLID_682_">
				<path id="XMLID_725_" class="st13" d="M1010,715.9c0.6,2.2,6.2,22.5,6.2,22.5h-72.5c0,0,15.2-81.5,15.2-84.3
					c0-2.7-5.9,5.7-6.2,6.2l12.4-45.5L960,617l10.7-49.5l-5.1,5.1l7.3-38.2l-4.5,2.2l9.5-26.4l-3.9,0.6l5.9-37.4l0.8-5.3l5.1,30.3
					h-2.5l6.5,26.4h-4.5l4.5,14.6l6.8,32l-5.6-4.5l9.6,27l2.8,17.4c0,0-8.4-7.9-7.9-5.6c0.6,2.2,11.8,37.7,11.8,37.7
					s-9.5-11.2-8.4-9c1.1,2.2,11.8,22.5,11.8,22.5l5.6,41.6l-10.1-7.9c0,0,8.1,24.7,9.8,29.1C1014.6,717.9,1009.5,714,1010,715.9z"
					/>
				<path id="XMLID_722_" class="st14" d="M1010,715.9c0.6,2.2,6.2,22.5,6.2,22.5H980v-265l0.8-5.3l5.1,30.3h-2.5l6.5,26.4h-4.5
					l4.5,14.6l6.8,32l-5.6-4.5l9.6,27l2.8,17.4c0,0-8.4-7.9-7.9-5.6c0.6,2.2,11.8,37.7,11.8,37.7s-9.5-11.2-8.4-9
					c1.1,2.2,11.8,22.5,11.8,22.5l5.6,41.6l-10.1-7.9c0,0,8.1,24.7,9.8,29.1C1014.6,717.9,1009.5,714,1010,715.9z"/>
			</g>
			<polygon id="XMLID_444_" class="st20" points="629.2,766.4 587.1,765.4 554.8,753.1 571,748.1 599.4,743.1 578.1,753.1 			"/>
			<g id="XMLID_96_">
				<g id="XMLID_649_">
					<polygon id="XMLID_453_" class="st22" points="916.8,800 910.1,768.7 859.1,800 					"/>
					<g id="XMLID_1028_">
						<polygon id="XMLID_436_" class="st22" points="916.8,800 910.1,768.7 943.7,748.7 966.6,763.3 955.1,725.6 993.8,736.4 
							1032.8,753.7 1076,756.6 1096,800 						"/>
						<polygon id="XMLID_435_" class="st23" points="993.8,736.4 1032.8,730.6 1032.8,753.7 						"/>
						<polygon id="XMLID_434_" class="st23" points="955.1,725.6 966.6,763.3 943.7,748.7 						"/>
						<polygon id="XMLID_433_" class="st23" points="901.1,800 922.5,792.9 962.5,800 935.2,784.4 916.8,766 						"/>
					</g>
				</g>
				<path id="XMLID_7_" class="st24" d="M1032.8,731c0,0,46.5,26.2,43.2,26c-3.3-0.2-43.2-2.9-43.2-2.9V731z"/>
			</g>
			<path id="XMLID_683_" class="st21" d="M255.5,755.9c0,0,3.3-12,3.7-13.3c0.3-1.3-3.7,2-3.7,2.7c0,0.7,6-17.7,6-17.7l-6,4.7
				l3.3-24.7c0,0,6.3-12,7-13.3c0.7-1.3-5,5.3-5,5.3s6.7-21,7-22.3c0.3-1.3-4.7,3.3-4.7,3.3l1.7-10.3l5.7-16l-3.3,2.7l4-19l2.7-8.7
				h-2.7l3.8-15.7h-1.5l3-18l4,25.3l-2.3-0.3l5.7,15.7l-2.7-1.3l4.3,22.7l-3-3l6.3,29.3l-3-1.3l7.3,27c0,0-3.7-5.3-3.7-3.7
				c0,1.7,9,50,9,50H255.5z"/>
			<path id="XMLID_703_" class="st13" d="M222.8,721.2c-0.2,0.4-0.2,0.6-0.2,0.5C222.6,721.5,222.7,721.3,222.8,721.2z"/>
			<g id="XMLID_726_">
				<path id="XMLID_704_" class="st13" d="M277,735.1h-54.4c0,0,4.2-15.2,4.6-16.9c0.4-1.5-3.4,1.5-4.4,2.9
					c1.3-3.3,7.3-21.9,7.3-21.9l-7.6,5.9l4.2-31.2c0,0,8-15.2,8.9-16.9c0.8-1.7-6.3,6.8-6.3,6.8s8.4-26.6,8.8-28.2
					c0.4-1.7-5.9,4.2-5.9,4.2l2.1-13.1l7.2-20.2l-4.2,3.4l5.1-24l3.4-11h-3.4l4.8-19.8h-1.9l3.8-22.8l0.6,4l4.4,28.1l-3-0.4
					l7.2,19.8l-3.4-1.7l5.5,28.7l-3.8-3.8l8,37.1l-3.8-1.7l9.3,34.1c0,0-4.6-6.8-4.6-4.6C265.6,674,277,735.1,277,735.1z"/>
				<path id="XMLID_700_" class="st14" d="M277,735.1H258l-8.3-198.8l4.4,28.1l-3-0.4l7.2,19.8l-3.4-1.7l5.5,28.7l-3.8-3.8l8,37.1
					l-3.8-1.7l9.3,34.1c0,0-4.6-6.8-4.6-4.6C265.6,674,277,735.1,277,735.1z"/>
			</g>
			<g id="XMLID_732_">
				<path id="XMLID_734_" class="st13" d="M190.7,735.1h-78.5c0,0,6.1-21.9,6.7-24.3c0.5-2.1-4.9,2.2-6.4,4.2
					c1.8-4.8,10.6-31.6,10.6-31.6l-11,8.5l6.1-45c0,0,11.6-21.9,12.8-24.3c1.2-2.4-9.1,9.7-9.1,9.7s12.2-38.3,12.8-40.8
					c0.6-2.4-8.5,6.1-8.5,6.1l3-18.9l10.3-29.2l-6.1,4.9l7.3-34.7l4.9-15.8h-4.9l7-28.6H145l5.5-32.9l0.9,5.8l6.4,40.5l-4.3-0.6
					l10.3,28.6l-4.9-2.4l7.9,41.4l-5.5-5.5l11.6,53.5l-5.5-2.4l13.4,49.3c0,0-6.7-9.7-6.7-6.7C174.2,646.9,190.7,735.1,190.7,735.1z
					"/>
				<path id="XMLID_733_" class="st14" d="M190.7,735.1h-27.3l-11.9-286.9l6.4,40.5l-4.3-0.6l10.3,28.6l-4.9-2.4l7.9,41.4l-5.5-5.5
					l11.6,53.5l-5.5-2.4l13.4,49.3c0,0-6.7-9.7-6.7-6.7C174.2,646.9,190.7,735.1,190.7,735.1z"/>
			</g>
			<g id="XMLID_1022_">
				<polygon id="XMLID_308_" class="st22" points="421.4,787.5 421.4,800 132.4,800 0,800 0,733.9 33.3,702.5 87.3,729.7 
					132.4,687.8 200.1,693 234.8,682.7 258.8,722 324.6,707.4 362.1,730.6 388.1,730.6 401.2,764.7 				"/>
				<polygon id="XMLID_431_" class="st23" points="234.8,682.7 258.8,722 238.6,719 218.5,730.6 				"/>
				<polygon id="XMLID_306_" class="st23" points="434.1,800 421.4,800 369,800 375.7,772.8 358.2,748.7 335.4,763.3 346.1,730.6 
					324.6,707.4 362.1,730.6 388.1,730.6 401.2,764.7 				"/>
				<polygon id="XMLID_429_" class="st25" points="200.1,693 153.9,707.4 147.2,697.5 132.4,687.7 				"/>
				<polygon id="XMLID_428_" class="st25" points="258.8,722 285.6,730.6 324.6,707.4 				"/>
			</g>
			<path id="XMLID_721_" class="st13" d="M1015.9,719.8c0.2,0.3,0.3,0.5,0.3,0.6C1016.2,720.5,1016.1,720.3,1015.9,719.8z"/>
		</g>
		<g id="XMLID_3_">
			<path id="XMLID_8_" class="st13" d="M750.7,214.8c0,3.3-2.7,5.9-5.9,5.9c-3.3,0-5.9-2.7-5.9-5.9c0-3.3,2.7-5.9,5.9-5.9
				C748,208.8,750.7,211.5,750.7,214.8z"/>
			<circle id="XMLID_9_" class="st13" cx="438.7" cy="473.1" r="5.9"/>
			<path id="XMLID_10_" class="st13" d="M305.2,242c0,3.3-2.7,5.9-5.9,5.9c-3.3,0-5.9-2.7-5.9-5.9c0-3.3,2.7-5.9,5.9-5.9
				C302.5,236.1,305.2,238.7,305.2,242z"/>
			<path id="XMLID_43_" class="st13" d="M777.7,292.4c0,3.3-2.7,5.9-5.9,5.9c-3.3,0-5.9-2.7-5.9-5.9c0-3.3,2.7-5.9,5.9-5.9
				C775.1,286.4,777.7,289.1,777.7,292.4z"/>
			<path id="XMLID_51_" class="st13" d="M819.6,94.1c0,3.3-2.7,5.9-5.9,5.9c-3.3,0-5.9-2.7-5.9-5.9c0-3.3,2.7-5.9,5.9-5.9
				C816.9,88.2,819.6,90.9,819.6,94.1z"/>
			<circle id="XMLID_44_" class="st13" cx="1093.2" cy="505.3" r="5.9"/>
			<path id="XMLID_48_" class="st13" d="M1094.7,649.1c0,3.3-2.7,5.9-5.9,5.9c-3.3,0-5.9-2.7-5.9-5.9c0-3.3,2.7-5.9,5.9-5.9
				C1092,643.2,1094.7,645.9,1094.7,649.1z"/>
			<path id="XMLID_11_" class="st13" d="M226.7,103.3c0,3.3-2.7,5.9-5.9,5.9c-3.3,0-5.9-2.7-5.9-5.9c0-3.3,2.7-5.9,5.9-5.9
				C224,97.3,226.7,100,226.7,103.3z"/>
			<circle id="XMLID_12_" class="st13" cx="386" cy="178" r="5.9"/>
			<path id="XMLID_22_" class="st13" d="M900,511.2c0,3.3-2.7,5.9-5.9,5.9c-3.3,0-5.9-2.7-5.9-5.9c0-3.3,2.7-5.9,5.9-5.9
				C897.3,505.3,900,507.9,900,511.2z"/>
			<path id="XMLID_36_" class="st13" d="M738.5,351c0,3.3-2.7,5.9-5.9,5.9c-3.3,0-5.9-2.7-5.9-5.9c0-3.3,2.7-5.9,5.9-5.9
				C735.9,345,738.5,347.7,738.5,351z"/>
			<circle id="XMLID_37_" class="st13" cx="462.9" cy="331.7" r="5.9"/>
			<path id="XMLID_38_" class="st13" d="M500.8,135.3c0,3.3-2.7,5.9-5.9,5.9c-3.3,0-5.9-2.7-5.9-5.9c0-3.3,2.7-5.9,5.9-5.9
				C498.2,129.4,500.8,132.1,500.8,135.3z"/>
			<path id="XMLID_39_" class="st13" d="M318.5,17.1c0,3.3-2.7,5.9-5.9,5.9c-3.3,0-5.9-2.7-5.9-5.9c0-3.3,2.7-5.9,5.9-5.9
				C315.9,11.2,318.5,13.9,318.5,17.1z"/>
			<path id="XMLID_40_" class="st13" d="M90.5,26.5c0,3.3-2.7,5.9-5.9,5.9c-3.3,0-5.9-2.7-5.9-5.9c0-3.3,2.7-5.9,5.9-5.9
				C87.9,20.6,90.5,23.3,90.5,26.5z"/>
			<path id="XMLID_35_" class="st13" d="M963.7,698.6c0,3.3-2.7,5.9-5.9,5.9c-3.3,0-5.9-2.7-5.9-5.9c0-3.3,2.7-5.9,5.9-5.9
				C961.1,692.7,963.7,695.3,963.7,698.6z"/>
			<circle id="XMLID_49_" class="st13" cx="765.9" cy="713.1" r="5.9"/>
			<path id="XMLID_50_" class="st13" d="M712,481.5c0,3.3-2.7,5.9-5.9,5.9c-3.3,0-5.9-2.7-5.9-5.9c0-3.3,2.7-5.9,5.9-5.9
				C709.3,475.6,712,478.2,712,481.5z"/>
			<circle id="XMLID_25_" class="st13" cx="580.3" cy="670.5" r="5.9"/>
			<path id="XMLID_26_" class="st13" d="M963.7,88.2c0,3.3-2.7,5.9-5.9,5.9c-3.3,0-5.9-2.7-5.9-5.9c0-3.3,2.7-5.9,5.9-5.9
				C961.1,82.3,963.7,84.9,963.7,88.2z"/>
			<path id="XMLID_27_" class="st13" d="M1093.2,38.4c0,3.3-2.7,5.9-5.9,5.9c-3.3,0-5.9-2.7-5.9-5.9c0-3.3,2.7-5.9,5.9-5.9
				C1090.5,32.5,1093.2,35.1,1093.2,38.4z"/>
			<path id="XMLID_58_" class="st13" d="M580.3,534.9c0,3.3-2.7,5.9-5.9,5.9c-3.3,0-5.9-2.7-5.9-5.9c0-3.3,2.7-5.9,5.9-5.9
				C577.6,529,580.3,531.7,580.3,534.9z"/>
			<path id="XMLID_59_" class="st13" d="M161.7,452.6c0,3.3-2.7,5.9-5.9,5.9c-3.3,0-5.9-2.7-5.9-5.9c0-3.3,2.7-5.9,5.9-5.9
				C159.1,446.7,161.7,449.4,161.7,452.6z"/>
			<path id="XMLID_24_" class="st13" d="M1082.4,264.5c0,3.3-2.7,5.9-5.9,5.9c-3.3,0-5.9-2.7-5.9-5.9c0-3.3,2.7-5.9,5.9-5.9
				C1079.8,258.6,1082.4,261.3,1082.4,264.5z"/>
			<circle id="XMLID_78_" class="st13" cx="1164.2" cy="311" r="5.9"/>
			<circle id="XMLID_52_" class="st13" cx="631.5" cy="540.2" r="5.9"/>
			<path id="XMLID_53_" class="st13" d="M350.4,349.4c0,3.3-2.7,5.9-5.9,5.9c-3.3,0-5.9-2.7-5.9-5.9c0-3.3,2.7-5.9,5.9-5.9
				C347.7,343.5,350.4,346.2,350.4,349.4z"/>
			<path id="XMLID_54_" class="st13" d="M422.2,85c0,3.3-2.7,5.9-5.9,5.9c-3.3,0-5.9-2.7-5.9-5.9c0-3.3,2.7-5.9,5.9-5.9
				C419.5,79,422.2,81.7,422.2,85z"/>
			<circle id="XMLID_55_" class="st13" cx="430.1" cy="550.7" r="5.9"/>
			<path id="XMLID_56_" class="st13" d="M1072.4,400.2c0,3.3-2.7,5.9-5.9,5.9s-5.9-2.7-5.9-5.9c0-3.3,2.7-5.9,5.9-5.9
				S1072.4,396.9,1072.4,400.2z"/>
			<path id="XMLID_57_" class="st13" d="M1109.3,208.8c0,3.3-2.7,5.9-5.9,5.9c-3.3,0-5.9-2.7-5.9-5.9c0-3.3,2.7-5.9,5.9-5.9
				C1106.7,202.9,1109.3,205.6,1109.3,208.8z"/>
			<path id="XMLID_79_" class="st13" d="M1164.2,117.9c0,3.3-2.7,5.9-5.9,5.9s-5.9-2.7-5.9-5.9c0-3.3,2.7-5.9,5.9-5.9
				S1164.2,114.6,1164.2,117.9z"/>
			<path id="XMLID_80_" class="st13" d="M54.1,270.5c0,3.3-2.7,5.9-5.9,5.9c-3.3,0-5.9-2.7-5.9-5.9c0-3.3,2.7-5.9,5.9-5.9
				C51.5,264.5,54.1,267.2,54.1,270.5z"/>
			<circle id="XMLID_81_" class="st13" cx="26.9" cy="760.7" r="5.9"/>
			<path id="XMLID_28_" class="st13" d="M836.7,252.7c0,1.5-1.2,2.7-2.7,2.7c-1.5,0-2.7-1.2-2.7-2.7c0-1.5,1.2-2.7,2.7-2.7
				C835.5,250,836.7,251.2,836.7,252.7z"/>
			<path id="XMLID_45_" class="st13" d="M1114.3,459c0,1.5-1.2,2.7-2.7,2.7s-2.7-1.2-2.7-2.7s1.2-2.7,2.7-2.7
				S1114.3,457.5,1114.3,459z"/>
			<path id="XMLID_46_" class="st13" d="M836.7,582c0,1.5-1.2,2.7-2.7,2.7c-1.5,0-2.7-1.2-2.7-2.7c0-1.5,1.2-2.7,2.7-2.7
				C835.5,579.3,836.7,580.5,836.7,582z"/>
			<path id="XMLID_47_" class="st13" d="M1057.9,606.7c0,1.5-1.2,2.7-2.7,2.7s-2.7-1.2-2.7-2.7c0-1.5,1.2-2.7,2.7-2.7
				S1057.9,605.2,1057.9,606.7z"/>
			<path id="XMLID_29_" class="st13" d="M561.7,397.5c0,1.5-1.2,2.7-2.7,2.7c-1.5,0-2.7-1.2-2.7-2.7c0-1.5,1.2-2.7,2.7-2.7
				C560.5,394.8,561.7,396,561.7,397.5z"/>
			<path id="XMLID_30_" class="st13" d="M93.2,519.9c0,1.5-1.2,2.7-2.7,2.7c-1.5,0-2.7-1.2-2.7-2.7s1.2-2.7,2.7-2.7
				C92,517.2,93.2,518.4,93.2,519.9z"/>
			<path id="XMLID_31_" class="st13" d="M333.3,491.6c0,1.5-1.2,2.7-2.7,2.7c-1.5,0-2.7-1.2-2.7-2.7c0-1.5,1.2-2.7,2.7-2.7
				C332.1,488.9,333.3,490.1,333.3,491.6z"/>
			<path id="XMLID_32_" class="st13" d="M152.6,82.3c0,1.5-1.2,2.7-2.7,2.7c-1.5,0-2.7-1.2-2.7-2.7c0-1.5,1.2-2.7,2.7-2.7
				C151.3,79.6,152.6,80.8,152.6,82.3z"/>
			<path id="XMLID_42_" class="st13" d="M87.3,391.1c0,1.5-1.2,2.7-2.7,2.7c-1.5,0-2.7-1.2-2.7-2.7c0-1.5,1.2-2.7,2.7-2.7
				C86.1,388.4,87.3,389.6,87.3,391.1z"/>
			<path id="XMLID_41_" class="st13" d="M95.9,129.8c0,1.5-1.2,2.7-2.7,2.7c-1.5,0-2.7-1.2-2.7-2.7c0-1.5,1.2-2.7,2.7-2.7
				C94.7,127.1,95.9,128.3,95.9,129.8z"/>
			<path id="XMLID_33_" class="st13" d="M131.6,295.1c0,1.5-1.2,2.7-2.7,2.7c-1.5,0-2.7-1.2-2.7-2.7c0-1.5,1.2-2.7,2.7-2.7
				C130.4,292.4,131.6,293.6,131.6,295.1z"/>
			<path id="XMLID_60_" class="st13" d="M376.8,258.6c0,1.5-1.2,2.7-2.7,2.7c-1.5,0-2.7-1.2-2.7-2.7c0-1.5,1.2-2.7,2.7-2.7
				C375.6,255.9,376.8,257.1,376.8,258.6z"/>
			<path id="XMLID_61_" class="st13" d="M666.4,406.4c0,1.5-1.2,2.7-2.7,2.7c-1.5,0-2.7-1.2-2.7-2.7c0-1.5,1.2-2.7,2.7-2.7
				C665.2,403.7,666.4,404.9,666.4,406.4z"/>
			<path id="XMLID_62_" class="st13" d="M927,461.7c0,1.5-1.2,2.7-2.7,2.7c-1.5,0-2.7-1.2-2.7-2.7c0-1.5,1.2-2.7,2.7-2.7
				C925.8,459,927,460.2,927,461.7z"/>
			<path id="XMLID_63_" class="st13" d="M987,526.3c0,1.5-1.2,2.7-2.7,2.7c-1.5,0-2.7-1.2-2.7-2.7c0-1.5,1.2-2.7,2.7-2.7
				C985.8,523.6,987,524.8,987,526.3z"/>
			<path id="XMLID_64_" class="st13" d="M711.4,117.9c0,1.5-1.2,2.7-2.7,2.7c-1.5,0-2.7-1.2-2.7-2.7c0-1.5,1.2-2.7,2.7-2.7
				C710.2,115.2,711.4,116.4,711.4,117.9z"/>
			<path id="XMLID_65_" class="st13" d="M512.2,199.3c0,1.5-1.2,2.7-2.7,2.7c-1.5,0-2.7-1.2-2.7-2.7c0-1.5,1.2-2.7,2.7-2.7
				C511,196.6,512.2,197.8,512.2,199.3z"/>
			<path id="XMLID_66_" class="st13" d="M333.3,94.1c0,1.5-1.2,2.7-2.7,2.7c-1.5,0-2.7-1.2-2.7-2.7c0-1.5,1.2-2.7,2.7-2.7
				C332.1,91.4,333.3,92.6,333.3,94.1z"/>
			<path id="XMLID_67_" class="st13" d="M267.2,189.8c0,1.5-1.2,2.7-2.7,2.7c-1.5,0-2.7-1.2-2.7-2.7c0-1.5,1.2-2.7,2.7-2.7
				C265.9,187.1,267.2,188.3,267.2,189.8z"/>
			<path id="XMLID_68_" class="st13" d="M212.9,50.3c0,1.5-1.2,2.7-2.7,2.7c-1.5,0-2.7-1.2-2.7-2.7c0-1.5,1.2-2.7,2.7-2.7
				C211.6,47.6,212.9,48.8,212.9,50.3z"/>
			<path id="XMLID_69_" class="st13" d="M868,178c0,1.5-1.2,2.7-2.7,2.7c-1.5,0-2.7-1.2-2.7-2.7c0-1.5,1.2-2.7,2.7-2.7
				C866.8,175.3,868,176.5,868,178z"/>
			<path id="XMLID_70_" class="st13" d="M571.1,44.3c0,1.5-1.2,2.7-2.7,2.7c-1.5,0-2.7-1.2-2.7-2.7c0-1.5,1.2-2.7,2.7-2.7
				C569.9,41.6,571.1,42.8,571.1,44.3z"/>
			<path id="XMLID_71_" class="st13" d="M223.7,678.1c0,1.5-1.2,2.7-2.7,2.7c-1.5,0-2.7-1.2-2.7-2.7c0-1.5,1.2-2.7,2.7-2.7
				C222.5,675.4,223.7,676.6,223.7,678.1z"/>
			<path id="XMLID_72_" class="st13" d="M768.6,511.2c0,1.5-1.2,2.7-2.7,2.7s-2.7-1.2-2.7-2.7c0-1.5,1.2-2.7,2.7-2.7
				S768.6,509.7,768.6,511.2z"/>
			<circle id="XMLID_73_" class="st13" cx="1027.7" cy="445.1" r="2.7"/>
			<path id="XMLID_74_" class="st13" d="M1019.8,639.5c0,1.5-1.2,2.7-2.7,2.7c-1.5,0-2.7-1.2-2.7-2.7c0-1.5,1.2-2.7,2.7-2.7
				C1018.6,636.8,1019.8,638,1019.8,639.5z"/>
			<path id="XMLID_75_" class="st13" d="M571.1,636.8c0,1.5-1.2,2.7-2.7,2.7c-1.5,0-2.7-1.2-2.7-2.7c0-1.5,1.2-2.7,2.7-2.7
				C569.9,634.1,571.1,635.3,571.1,636.8z"/>
			<path id="XMLID_34_" class="st13" d="M468.3,613.4c0,1.5-1.2,2.7-2.7,2.7c-1.5,0-2.7-1.2-2.7-2.7c0-1.5,1.2-2.7,2.7-2.7
				C467.1,610.7,468.3,611.9,468.3,613.4z"/>
			<path id="XMLID_23_" class="st13" d="M1019.1,655.1c0,3.3-2.7,5.9-5.9,5.9c-3.3,0-5.9-2.7-5.9-5.9c0-3.3,2.7-5.9,5.9-5.9
				C1016.5,649.1,1019.1,651.8,1019.1,655.1z"/>
			<circle id="XMLID_15_" class="st13" cx="674.7" cy="550.7" r="5.9"/>
			<circle id="XMLID_18_" class="st13" cx="93.2" cy="673.8" r="5.9"/>
			<circle id="XMLID_76_" class="st13" cx="353.8" cy="707.4" r="5.9"/>
			<path id="XMLID_19_" class="st13" d="M129,620.6c0,3.3-2.7,5.9-5.9,5.9c-3.3,0-5.9-2.7-5.9-5.9c0-3.3,2.7-5.9,5.9-5.9
				C126.3,614.7,129,617.3,129,620.6z"/>
			<path id="XMLID_20_" class="st13" d="M161.7,373.1c0,3.3-2.7,5.9-5.9,5.9c-3.3,0-5.9-2.7-5.9-5.9c0-3.3,2.7-5.9,5.9-5.9
				C159.1,367.2,161.7,369.8,161.7,373.1z"/>
			<path id="XMLID_21_" class="st13" d="M941.7,109.2c0,3.3-2.7,5.9-5.9,5.9c-3.3,0-5.9-2.7-5.9-5.9c0-3.3,2.7-5.9,5.9-5.9
				C939.1,103.3,941.7,105.9,941.7,109.2z"/>
			<path id="XMLID_77_" class="st13" d="M698.1,44.3c0,3.3-2.7,5.9-5.9,5.9c-3.3,0-5.9-2.7-5.9-5.9c0-3.3,2.7-5.9,5.9-5.9
				C695.4,38.4,698.1,41.1,698.1,44.3z"/>
		</g>
		<linearGradient id="XMLID_87_" gradientUnits="userSpaceOnUse" x1="-10.127" y1="245.0637" x2="707.8726" y2="679.0643">
			<stop  offset="0" style="stop-color:#FFFFFF"/>
			<stop  offset="0.3266" style="stop-color:#A3C5DF;stop-opacity:0.6734"/>
			<stop  offset="0.6554" style="stop-color:#4C8FC2;stop-opacity:0.3446"/>
			<stop  offset="0.8878" style="stop-color:#156CAF;stop-opacity:0.1122"/>
			<stop  offset="1" style="stop-color:#005FA8;stop-opacity:0"/>
		</linearGradient>
		<polygon id="XMLID_555_" style="display:none;fill:url(#XMLID_87_);" points="1.8,148.3 1201.8,700.3 423.2,700.3 1.8,529.6 		"/>
		<linearGradient id="XMLID_88_" gradientUnits="userSpaceOnUse" x1="-10.127" y1="245.0637" x2="707.8726" y2="679.0643">
			<stop  offset="0" style="stop-color:#FFFFE9;stop-opacity:0.7"/>
			<stop  offset="1" style="stop-color:#FFF8DD;stop-opacity:0"/>
		</linearGradient>
		<polygon id="XMLID_2_" class="st26" points="1.8,148.3 1201.8,700.3 423.2,700.3 1.8,529.6 		"/>
	</g>
	<rect x="442.1" y="199.3" class="st33" width="315.9" height="199.5"/>
	<g class="st34">
		<path class="st35" d="M482.2,289.8c3,1.8,7.3,3.3,11.9,3.3c6.8,0,10.7-3.6,10.7-8.7c0-4.8-2.7-7.5-9.7-10.2
			c-8.4-3-13.5-7.3-13.5-14.5c0-8,6.6-13.9,16.6-13.9c5.2,0,9,1.2,11.3,2.5l-1.8,5.4c-1.7-0.9-5.1-2.4-9.7-2.4c-7,0-9.7,4.2-9.7,7.7
			c0,4.8,3.1,7.1,10.2,9.9c8.7,3.3,13.1,7.5,13.1,15.1c0,7.9-5.9,14.7-17.9,14.7c-4.9,0-10.3-1.4-13.1-3.3L482.2,289.8z"/>
		<path class="st35" d="M520.6,297.9v-51.2h7.2l16.4,25.9c3.8,6,6.8,11.4,9.2,16.6l0.2-0.1c-0.6-6.8-0.8-13.1-0.8-21.1v-21.4h6.2
			v51.2h-6.7l-16.3-26c-3.6-5.7-7-11.6-9.6-17.1l-0.2,0.1c0.4,6.5,0.5,12.6,0.5,21.1v21.9H520.6z"/>
		<path class="st35" d="M614.4,271.7c0,17.6-10.7,27-23.8,27c-13.5,0-23-10.5-23-26c0-16.3,10.1-26.9,23.8-26.9
			C605.4,245.8,614.4,256.5,614.4,271.7z M574.6,272.6c0,10.9,5.9,20.8,16.3,20.8c10.5,0,16.4-9.7,16.4-21.3
			c0-10.2-5.3-20.8-16.3-20.8C580.1,251.2,574.6,261.3,574.6,272.6z"/>
		<path class="st35" d="M631.4,297.9l-13-51.2h7l6.1,25.9c1.5,6.4,2.9,12.8,3.8,17.7h0.2c0.8-5.1,2.4-11.2,4.2-17.8l6.8-25.8h6.9
			l6.2,26c1.4,6.1,2.8,12.2,3.6,17.6h0.2c1.1-5.6,2.5-11.3,4.1-17.7l6.8-25.8h6.8l-14.5,51.2h-6.9l-6.5-26.7
			c-1.6-6.5-2.7-11.6-3.3-16.7h-0.2c-0.9,5.1-2.1,10.1-4,16.7l-7.3,26.7H631.4z"/>
		<path class="st35" d="M698.7,297.9v-21.7l-16.2-29.5h7.5l7.2,14.1c2,3.9,3.5,7,5.1,10.6h0.2c1.4-3.3,3.2-6.7,5.2-10.6l7.4-14.1
			h7.5l-17.2,29.4v21.8H698.7z"/>
		<path class="st35" d="M435.1,316.2h5.8v39.9H460v4.8h-24.9V316.2z"/>
		<path class="st35" d="M473.7,346.8l-4.6,14.1h-6l15.2-44.7h7l15.3,44.7h-6.2l-4.8-14.1H473.7z M488.3,342.3l-4.4-12.9
			c-1-2.9-1.7-5.6-2.3-8.2h-0.1c-0.7,2.7-1.4,5.4-2.3,8.1l-4.4,12.9H488.3z"/>
		<path class="st35" d="M507.1,360.9v-44.7h6.3l14.3,22.6c3.3,5.2,5.9,10,8,14.5l0.1-0.1c-0.5-6-0.7-11.4-0.7-18.4v-18.7h5.4v44.7
			h-5.8l-14.2-22.7c-3.1-5-6.1-10.1-8.4-14.9l-0.2,0.1c0.3,5.6,0.5,11,0.5,18.4v19.1H507.1z"/>
		<path class="st35" d="M550.7,316.8c3.5-0.5,7.7-0.9,12.3-0.9c8.3,0,14.2,1.9,18.1,5.6c4,3.6,6.3,8.8,6.3,16.1
			c0,7.3-2.3,13.3-6.4,17.4c-4.2,4.2-11.1,6.4-19.8,6.4c-4.1,0-7.6-0.2-10.5-0.5V316.8z M556.5,356.3c1.5,0.3,3.6,0.3,5.8,0.3
			c12.3,0,19-6.9,19-19c0.1-10.6-5.9-17.3-18.1-17.3c-3,0-5.2,0.3-6.8,0.6V356.3z"/>
		<path class="st35" d="M594.1,353.9c2.6,1.6,6.4,2.9,10.4,2.9c5.9,0,9.4-3.1,9.4-7.6c0-4.2-2.4-6.6-8.4-8.9
			c-7.3-2.6-11.8-6.4-11.8-12.7c0-7,5.8-12.1,14.5-12.1c4.6,0,7.9,1.1,9.9,2.2l-1.6,4.7c-1.5-0.8-4.4-2.1-8.5-2.1
			c-6.1,0-8.4,3.6-8.4,6.7c0,4.2,2.7,6.2,8.9,8.6c7.6,2.9,11.4,6.6,11.4,13.1c0,6.9-5.1,12.9-15.7,12.9c-4.3,0-9-1.3-11.4-2.9
			L594.1,353.9z"/>
		<path class="st35" d="M658.9,359.5c-2.1,1.1-6.4,2.1-11.8,2.1c-12.6,0-22.1-8-22.1-22.6c0-14,9.5-23.5,23.4-23.5
			c5.6,0,9.1,1.2,10.6,2l-1.4,4.7c-2.2-1.1-5.3-1.9-9-1.9c-10.5,0-17.5,6.7-17.5,18.4c0,10.9,6.3,18,17.2,18c3.5,0,7.1-0.7,9.4-1.9
			L658.9,359.5z"/>
		<path class="st35" d="M673.6,346.8l-4.6,14.1h-6l15.2-44.7h7l15.3,44.7h-6.2l-4.8-14.1H673.6z M688.3,342.3l-4.4-12.9
			c-1-2.9-1.7-5.6-2.3-8.2h-0.1c-0.7,2.7-1.4,5.4-2.3,8.1l-4.4,12.9H688.3z"/>
		<path class="st35" d="M707,316.7c2.8-0.5,6.4-0.9,11.1-0.9c5.7,0,9.9,1.3,12.5,3.7c2.5,2.1,3.9,5.4,3.9,9.4c0,4-1.2,7.2-3.5,9.6
			c-3.1,3.3-8,4.9-13.7,4.9c-1.7,0-3.3-0.1-4.6-0.4v17.9H707V316.7z M712.8,338.3c1.3,0.3,2.9,0.5,4.8,0.5c7,0,11.2-3.4,11.2-9.6
			c0-5.9-4.2-8.8-10.6-8.8c-2.5,0-4.4,0.2-5.4,0.5V338.3z"/>
		<path class="st35" d="M765.5,339.9h-17.4v16.1h19.4v4.8h-25.2v-44.7h24.2v4.8h-18.4v14.1h17.4V339.9z"/>
	</g>
</g>
<g id="DESIGNED_BY_FREEPIK" class="st34">
	<g id="XMLID_570_" class="st37">
		<g id="XMLID_607_">
			<path id="XMLID_632_" class="st32" d="M488.5,774.3V774c-0.3,0.4-0.7,0.7-1,1c-0.3,0.3-0.7,0.4-1.1,0.6c-0.4,0.1-0.8,0.2-1.3,0.2
				c-0.6,0-1.2-0.1-1.7-0.4c-0.5-0.3-1-0.6-1.4-1.1c-0.4-0.5-0.7-1.1-0.9-1.7c-0.2-0.7-0.3-1.4-0.3-2.1c0-1.6,0.4-2.9,1.2-3.8
				c0.8-0.9,1.8-1.4,3.1-1.4c0.7,0,1.4,0.1,1.9,0.4c0.5,0.3,1,0.7,1.5,1.2V763c0-0.5,0.1-0.9,0.3-1.2c0.2-0.3,0.5-0.4,0.9-0.4
				s0.7,0.1,0.9,0.4c0.2,0.3,0.3,0.6,0.3,1.1v11.4c0,0.5-0.1,0.9-0.3,1.1c-0.2,0.2-0.5,0.4-0.9,0.4c-0.4,0-0.6-0.1-0.9-0.4
				C488.6,775.1,488.5,774.8,488.5,774.3z M483.4,770.5c0,0.7,0.1,1.3,0.3,1.8c0.2,0.5,0.5,0.9,0.9,1.1c0.4,0.3,0.8,0.4,1.2,0.4
				c0.5,0,0.9-0.1,1.2-0.4c0.4-0.2,0.7-0.6,0.9-1.1c0.2-0.5,0.3-1.1,0.3-1.8c0-0.7-0.1-1.3-0.3-1.8c-0.2-0.5-0.5-0.9-0.9-1.1
				c-0.4-0.3-0.8-0.4-1.3-0.4c-0.5,0-0.9,0.1-1.3,0.4c-0.4,0.3-0.7,0.7-0.9,1.2C483.5,769.2,483.4,769.8,483.4,770.5z"/>
			<path id="XMLID_629_" class="st32" d="M499.9,771.1h-5.1c0,0.6,0.1,1.1,0.4,1.6c0.2,0.5,0.5,0.8,0.9,1c0.4,0.2,0.8,0.3,1.3,0.3
				c0.3,0,0.6,0,0.8-0.1c0.3-0.1,0.5-0.2,0.7-0.3c0.2-0.2,0.5-0.3,0.7-0.5c0.2-0.2,0.5-0.4,0.8-0.7c0.1-0.1,0.3-0.2,0.6-0.2
				c0.3,0,0.5,0.1,0.6,0.2c0.2,0.1,0.2,0.4,0.2,0.6c0,0.2-0.1,0.5-0.3,0.8c-0.2,0.3-0.5,0.6-0.8,0.9c-0.4,0.3-0.8,0.5-1.4,0.7
				c-0.6,0.2-1.2,0.3-1.9,0.3c-1.7,0-3-0.5-3.9-1.4c-0.9-0.9-1.4-2.2-1.4-3.9c0-0.8,0.1-1.5,0.3-2.1c0.2-0.7,0.6-1.2,1-1.7
				c0.4-0.5,1-0.8,1.6-1.1c0.6-0.2,1.3-0.4,2.1-0.4c1,0,1.9,0.2,2.6,0.6c0.7,0.4,1.3,1,1.6,1.7c0.4,0.7,0.5,1.4,0.5,2.1
				c0,0.7-0.2,1.1-0.6,1.3C501.1,771,500.6,771.1,499.9,771.1z M494.9,769.7h4.7c-0.1-0.9-0.3-1.6-0.7-2c-0.4-0.4-1-0.7-1.6-0.7
				c-0.6,0-1.2,0.2-1.6,0.7C495.2,768.1,494.9,768.8,494.9,769.7z"/>
			<path id="XMLID_627_" class="st32" d="M511.7,772.4c0,0.7-0.2,1.3-0.5,1.8c-0.3,0.5-0.9,0.9-1.5,1.2c-0.7,0.3-1.5,0.4-2.5,0.4
				c-0.9,0-1.7-0.1-2.4-0.4c-0.7-0.3-1.2-0.6-1.5-1.1c-0.3-0.4-0.5-0.9-0.5-1.3c0-0.3,0.1-0.5,0.3-0.7c0.2-0.2,0.5-0.3,0.8-0.3
				c0.3,0,0.5,0.1,0.6,0.2c0.1,0.1,0.3,0.3,0.4,0.6c0.3,0.5,0.6,0.8,1,1c0.4,0.2,0.9,0.3,1.5,0.3c0.5,0,0.9-0.1,1.3-0.3
				c0.3-0.2,0.5-0.5,0.5-0.8c0-0.5-0.2-0.8-0.5-1c-0.3-0.2-0.9-0.4-1.7-0.6c-0.9-0.2-1.6-0.5-2.2-0.7c-0.6-0.2-1-0.6-1.3-1
				c-0.3-0.4-0.5-0.9-0.5-1.5c0-0.5,0.2-1,0.5-1.5c0.3-0.5,0.8-0.8,1.4-1.1c0.6-0.3,1.3-0.4,2.2-0.4c0.7,0,1.3,0.1,1.8,0.2
				c0.5,0.1,1,0.3,1.3,0.6c0.4,0.2,0.6,0.5,0.8,0.8c0.2,0.3,0.3,0.6,0.3,0.8c0,0.3-0.1,0.5-0.3,0.7c-0.2,0.2-0.5,0.3-0.9,0.3
				c-0.3,0-0.5-0.1-0.7-0.2c-0.2-0.2-0.4-0.4-0.6-0.7c-0.2-0.3-0.4-0.5-0.7-0.6c-0.3-0.2-0.6-0.2-1.1-0.2c-0.5,0-0.9,0.1-1.2,0.3
				c-0.3,0.2-0.5,0.4-0.5,0.7c0,0.3,0.1,0.5,0.3,0.7c0.2,0.2,0.5,0.3,0.9,0.4c0.4,0.1,0.9,0.3,1.6,0.4c0.8,0.2,1.5,0.4,2,0.7
				c0.5,0.3,0.9,0.6,1.2,1C511.6,771.5,511.7,771.9,511.7,772.4z"/>
			<path id="XMLID_624_" class="st32" d="M514.4,764c-0.4,0-0.7-0.1-0.9-0.3c-0.3-0.2-0.4-0.5-0.4-0.9c0-0.4,0.1-0.7,0.4-0.9
				c0.3-0.2,0.6-0.4,0.9-0.4c0.3,0,0.6,0.1,0.9,0.3c0.3,0.2,0.4,0.5,0.4,0.9c0,0.4-0.1,0.7-0.4,0.9C515,763.9,514.7,764,514.4,764z
				 M515.7,766.7v7.5c0,0.5-0.1,0.9-0.4,1.2c-0.2,0.3-0.6,0.4-0.9,0.4c-0.4,0-0.7-0.1-0.9-0.4c-0.2-0.3-0.4-0.7-0.4-1.2v-7.4
				c0-0.5,0.1-0.9,0.4-1.2c0.2-0.3,0.5-0.4,0.9-0.4c0.4,0,0.7,0.1,0.9,0.4C515.5,765.9,515.7,766.2,515.7,766.7z"/>
			<path id="XMLID_621_" class="st32" d="M527,767.1v7.5c0,0.9-0.1,1.6-0.3,2.2c-0.2,0.6-0.5,1.1-0.9,1.5c-0.4,0.4-0.9,0.7-1.6,0.9
				c-0.7,0.2-1.5,0.3-2.4,0.3c-0.9,0-1.7-0.1-2.4-0.4c-0.7-0.2-1.2-0.6-1.6-1c-0.4-0.4-0.6-0.8-0.6-1.2c0-0.3,0.1-0.6,0.3-0.8
				c0.2-0.2,0.5-0.3,0.8-0.3c0.4,0,0.7,0.2,1,0.5c0.1,0.2,0.3,0.3,0.4,0.5c0.1,0.2,0.3,0.3,0.5,0.4c0.2,0.1,0.4,0.2,0.7,0.3
				c0.3,0.1,0.5,0.1,0.9,0.1c0.7,0,1.2-0.1,1.6-0.3c0.4-0.2,0.6-0.4,0.8-0.8c0.1-0.3,0.2-0.7,0.3-1.1c0-0.4,0-1,0.1-1.8
				c-0.4,0.6-0.9,1-1.4,1.3c-0.5,0.3-1.1,0.4-1.9,0.4c-0.9,0-1.6-0.2-2.3-0.7c-0.6-0.4-1.1-1.1-1.5-1.9c-0.3-0.8-0.5-1.7-0.5-2.8
				c0-0.8,0.1-1.5,0.3-2.1c0.2-0.6,0.5-1.2,0.9-1.6c0.4-0.4,0.8-0.8,1.4-1c0.5-0.2,1.1-0.3,1.7-0.3c0.7,0,1.4,0.1,1.9,0.4
				c0.5,0.3,1,0.7,1.5,1.3v-0.4c0-0.4,0.1-0.8,0.3-1c0.2-0.2,0.5-0.4,0.9-0.4c0.5,0,0.8,0.2,1,0.5C526.9,766,527,766.5,527,767.1z
				 M519.5,770.4c0,1,0.2,1.8,0.7,2.4c0.5,0.5,1.1,0.8,1.8,0.8c0.4,0,0.8-0.1,1.2-0.3c0.4-0.2,0.7-0.6,0.9-1c0.2-0.5,0.4-1,0.4-1.7
				c0-1.1-0.2-1.9-0.7-2.5c-0.5-0.6-1.1-0.9-1.8-0.9c-0.7,0-1.3,0.3-1.8,0.8C519.7,768.6,519.5,769.4,519.5,770.4z"/>
			<path id="XMLID_619_" class="st32" d="M531.2,766.7v0.3c0.5-0.6,1-1,1.5-1.3c0.5-0.3,1.2-0.4,1.9-0.4c0.7,0,1.3,0.2,1.8,0.4
				c0.5,0.3,0.9,0.7,1.2,1.3c0.2,0.3,0.3,0.7,0.3,1c0.1,0.4,0.1,0.8,0.1,1.4v4.8c0,0.5-0.1,0.9-0.4,1.2c-0.2,0.3-0.5,0.4-0.9,0.4
				c-0.4,0-0.7-0.1-0.9-0.4c-0.2-0.3-0.4-0.7-0.4-1.2v-4.3c0-0.9-0.1-1.5-0.4-2c-0.2-0.5-0.7-0.7-1.4-0.7c-0.5,0-0.9,0.1-1.3,0.4
				c-0.4,0.3-0.7,0.7-0.8,1.1c-0.1,0.4-0.2,1.1-0.2,2.2v3.2c0,0.5-0.1,0.9-0.4,1.2c-0.2,0.3-0.6,0.4-0.9,0.4c-0.4,0-0.7-0.1-0.9-0.4
				c-0.2-0.3-0.4-0.7-0.4-1.2v-7.5c0-0.5,0.1-0.9,0.3-1.1c0.2-0.2,0.5-0.4,0.9-0.4c0.2,0,0.4,0.1,0.6,0.2c0.2,0.1,0.3,0.3,0.4,0.5
				C531.1,766.1,531.2,766.3,531.2,766.7z"/>
			<path id="XMLID_616_" class="st32" d="M546.9,771.1h-5.1c0,0.6,0.1,1.1,0.4,1.6c0.2,0.5,0.5,0.8,0.9,1c0.4,0.2,0.8,0.3,1.3,0.3
				c0.3,0,0.6,0,0.9-0.1c0.3-0.1,0.5-0.2,0.7-0.3c0.2-0.2,0.5-0.3,0.7-0.5c0.2-0.2,0.5-0.4,0.8-0.7c0.1-0.1,0.3-0.2,0.6-0.2
				c0.3,0,0.5,0.1,0.6,0.2c0.2,0.1,0.2,0.4,0.2,0.6c0,0.2-0.1,0.5-0.3,0.8c-0.2,0.3-0.5,0.6-0.8,0.9c-0.4,0.3-0.8,0.5-1.4,0.7
				c-0.6,0.2-1.2,0.3-1.9,0.3c-1.7,0-3-0.5-3.9-1.4c-0.9-0.9-1.4-2.2-1.4-3.9c0-0.8,0.1-1.5,0.3-2.1c0.2-0.7,0.6-1.2,1-1.7
				c0.4-0.5,1-0.8,1.6-1.1c0.6-0.2,1.3-0.4,2.1-0.4c1,0,1.9,0.2,2.6,0.6c0.7,0.4,1.3,1,1.6,1.7c0.4,0.7,0.5,1.4,0.5,2.1
				c0,0.7-0.2,1.1-0.6,1.3C548.1,771,547.6,771.1,546.9,771.1z M541.9,769.7h4.7c-0.1-0.9-0.3-1.6-0.7-2c-0.4-0.4-1-0.7-1.6-0.7
				c-0.6,0-1.2,0.2-1.6,0.7C542.2,768.1,541.9,768.8,541.9,769.7z"/>
			<path id="XMLID_613_" class="st32" d="M557.5,774.3V774c-0.3,0.4-0.7,0.7-1,1c-0.3,0.3-0.7,0.4-1.1,0.6c-0.4,0.1-0.8,0.2-1.3,0.2
				c-0.6,0-1.2-0.1-1.7-0.4c-0.5-0.3-1-0.6-1.4-1.1c-0.4-0.5-0.7-1.1-0.9-1.7c-0.2-0.7-0.3-1.4-0.3-2.1c0-1.6,0.4-2.9,1.2-3.8
				c0.8-0.9,1.8-1.4,3.1-1.4c0.7,0,1.4,0.1,1.9,0.4c0.5,0.3,1,0.7,1.5,1.2V763c0-0.5,0.1-0.9,0.3-1.2c0.2-0.3,0.5-0.4,0.9-0.4
				c0.4,0,0.7,0.1,0.9,0.4c0.2,0.3,0.3,0.6,0.3,1.1v11.4c0,0.5-0.1,0.9-0.3,1.1c-0.2,0.2-0.5,0.4-0.9,0.4c-0.4,0-0.6-0.1-0.9-0.4
				C557.6,775.1,557.5,774.8,557.5,774.3z M552.4,770.5c0,0.7,0.1,1.3,0.3,1.8c0.2,0.5,0.5,0.9,0.9,1.1c0.4,0.3,0.8,0.4,1.2,0.4
				c0.5,0,0.9-0.1,1.2-0.4c0.4-0.2,0.7-0.6,0.9-1.1c0.2-0.5,0.3-1.1,0.3-1.8c0-0.7-0.1-1.3-0.3-1.8c-0.2-0.5-0.5-0.9-0.9-1.1
				c-0.4-0.3-0.8-0.4-1.3-0.4c-0.5,0-0.9,0.1-1.3,0.4c-0.4,0.3-0.7,0.7-0.9,1.2C552.5,769.2,552.4,769.8,552.4,770.5z"/>
			<path id="XMLID_610_" class="st32" d="M568.1,762.8v4c0.5-0.5,1-0.9,1.5-1.2c0.5-0.3,1.1-0.4,1.9-0.4c0.9,0,1.6,0.2,2.3,0.6
				c0.6,0.4,1.2,1,1.5,1.8c0.4,0.8,0.5,1.7,0.5,2.8c0,0.8-0.1,1.5-0.3,2.2c-0.2,0.7-0.5,1.2-0.9,1.7c-0.4,0.5-0.8,0.9-1.4,1.1
				c-0.5,0.3-1.1,0.4-1.8,0.4c-0.4,0-0.8,0-1.1-0.1c-0.4-0.1-0.7-0.2-0.9-0.4c-0.2-0.2-0.5-0.3-0.6-0.5c-0.2-0.2-0.4-0.4-0.7-0.7
				v0.3c0,0.5-0.1,0.9-0.4,1.1c-0.2,0.2-0.5,0.4-0.9,0.4c-0.4,0-0.7-0.1-0.9-0.4c-0.2-0.2-0.3-0.6-0.3-1.1V763
				c0-0.5,0.1-0.9,0.3-1.2c0.2-0.3,0.5-0.4,0.9-0.4c0.4,0,0.7,0.1,0.9,0.4C568,762,568.1,762.4,568.1,762.8z M568.2,770.6
				c0,1,0.2,1.8,0.7,2.4c0.5,0.6,1.1,0.8,1.9,0.8c0.7,0,1.2-0.3,1.7-0.8c0.5-0.6,0.7-1.4,0.7-2.4c0-0.7-0.1-1.3-0.3-1.8
				c-0.2-0.5-0.5-0.9-0.8-1.1c-0.4-0.3-0.8-0.4-1.3-0.4c-0.5,0-0.9,0.1-1.3,0.4c-0.4,0.3-0.7,0.7-0.9,1.2
				C568.3,769.2,568.2,769.8,568.2,770.6z"/>
			<path id="XMLID_608_" class="st32" d="M579.1,776.1l0.2-0.6l-3.2-8c-0.2-0.5-0.3-0.8-0.3-1c0-0.2,0.1-0.4,0.2-0.6
				c0.1-0.2,0.3-0.3,0.5-0.5c0.2-0.1,0.4-0.2,0.6-0.2c0.4,0,0.7,0.1,0.8,0.4c0.2,0.2,0.4,0.6,0.5,1l2.2,6.4l2.1-5.9
				c0.2-0.5,0.3-0.9,0.4-1.1c0.1-0.3,0.3-0.5,0.4-0.6c0.1-0.1,0.4-0.1,0.6-0.1c0.2,0,0.4,0.1,0.6,0.2c0.2,0.1,0.3,0.2,0.4,0.4
				c0.1,0.2,0.1,0.4,0.1,0.6c0,0.1-0.1,0.3-0.1,0.5c-0.1,0.2-0.1,0.4-0.2,0.7l-3.4,8.9c-0.3,0.8-0.6,1.4-0.9,1.8
				c-0.3,0.4-0.6,0.8-1.1,1c-0.5,0.2-1.1,0.4-1.9,0.4c-0.8,0-1.3-0.1-1.7-0.2c-0.4-0.2-0.6-0.5-0.6-0.9c0-0.3,0.1-0.5,0.3-0.7
				c0.2-0.2,0.4-0.2,0.8-0.2c0.1,0,0.3,0,0.4,0.1c0.2,0,0.3,0.1,0.4,0.1c0.3,0,0.5,0,0.7-0.1c0.2-0.1,0.3-0.2,0.5-0.5
				C578.8,776.8,579,776.5,579.1,776.1z"/>
		</g>
		<g id="XMLID_585_">
			<path id="XMLID_606_" class="st32" d="M616.7,765.4h0.6v-0.8c0-0.8,0.1-1.5,0.3-1.9c0.2-0.5,0.6-0.8,1-1c0.5-0.2,1.2-0.3,2-0.3
				c1.5,0,2.3,0.4,2.3,1.1c0,0.2-0.1,0.4-0.2,0.6c-0.2,0.2-0.3,0.3-0.6,0.3c-0.1,0-0.3,0-0.5-0.1c-0.2,0-0.5-0.1-0.6-0.1
				c-0.5,0-0.8,0.1-0.9,0.4c-0.1,0.3-0.2,0.7-0.2,1.2v0.6h0.6c1,0,1.5,0.3,1.5,0.9c0,0.4-0.1,0.7-0.4,0.8c-0.3,0.1-0.6,0.2-1.1,0.2
				h-0.6v6.9c0,0.5-0.1,0.9-0.4,1.2c-0.2,0.3-0.6,0.4-0.9,0.4c-0.4,0-0.7-0.1-0.9-0.4c-0.2-0.3-0.4-0.7-0.4-1.2v-6.9h-0.7
				c-0.4,0-0.7-0.1-0.9-0.3c-0.2-0.2-0.3-0.4-0.3-0.7C615.4,765.8,615.8,765.4,616.7,765.4"/>
			<path id="XMLID_605_" class="st32" d="M625.2,772v2.2c0,0.5-0.1,0.9-0.4,1.2c-0.2,0.3-0.6,0.4-0.9,0.4c-0.4,0-0.7-0.1-0.9-0.4
				c-0.2-0.3-0.4-0.7-0.4-1.2V767c0-1.2,0.4-1.7,1.3-1.7c0.4,0,0.7,0.1,0.9,0.4c0.2,0.3,0.3,0.7,0.3,1.2c0.3-0.5,0.6-0.9,0.9-1.2
				c0.3-0.3,0.8-0.4,1.3-0.4c0.5,0,1.1,0.1,1.6,0.4c0.5,0.3,0.8,0.6,0.8,1.1c0,0.3-0.1,0.6-0.3,0.8c-0.2,0.2-0.5,0.3-0.7,0.3
				c-0.1,0-0.3-0.1-0.7-0.2c-0.4-0.1-0.7-0.2-1-0.2c-0.4,0-0.7,0.1-0.9,0.3c-0.2,0.2-0.4,0.5-0.6,0.9c-0.1,0.4-0.2,0.9-0.3,1.4
				C625.2,770.6,625.2,771.2,625.2,772"/>
			<path id="XMLID_602_" class="st32" d="M637.1,771.1H632c0,0.6,0.1,1.1,0.4,1.6c0.2,0.4,0.5,0.8,0.9,1c0.4,0.2,0.8,0.3,1.3,0.3
				c0.3,0,0.6,0,0.8-0.1c0.3-0.1,0.5-0.2,0.7-0.3c0.2-0.2,0.5-0.3,0.7-0.5c0.2-0.2,0.5-0.4,0.8-0.7c0.1-0.1,0.3-0.2,0.6-0.2
				c0.3,0,0.5,0.1,0.6,0.2c0.2,0.1,0.2,0.4,0.2,0.6c0,0.2-0.1,0.5-0.3,0.8c-0.2,0.3-0.5,0.6-0.8,0.9c-0.4,0.3-0.8,0.5-1.4,0.7
				c-0.6,0.2-1.2,0.3-1.9,0.3c-1.7,0-3-0.5-3.9-1.4c-0.9-1-1.4-2.2-1.4-3.9c0-0.8,0.1-1.5,0.3-2.1c0.2-0.7,0.6-1.2,1-1.7
				c0.4-0.5,1-0.8,1.6-1.1c0.6-0.2,1.3-0.4,2.1-0.4c1,0,1.9,0.2,2.6,0.6c0.7,0.4,1.3,1,1.6,1.7c0.4,0.7,0.5,1.4,0.5,2.1
				c0,0.6-0.2,1.1-0.6,1.3C638.3,771,637.8,771.1,637.1,771.1 M632,769.7h4.7c-0.1-0.9-0.3-1.5-0.7-2c-0.4-0.4-1-0.7-1.6-0.7
				c-0.6,0-1.2,0.2-1.6,0.7C632.4,768.1,632.1,768.8,632,769.7"/>
			<path id="XMLID_599_" class="st32" d="M647.9,771.1h-5.1c0,0.6,0.1,1.1,0.4,1.6c0.2,0.4,0.5,0.8,0.9,1c0.4,0.2,0.8,0.3,1.3,0.3
				c0.3,0,0.6,0,0.8-0.1c0.3-0.1,0.5-0.2,0.8-0.3c0.2-0.2,0.5-0.3,0.7-0.5c0.2-0.2,0.5-0.4,0.8-0.7c0.1-0.1,0.3-0.2,0.6-0.2
				c0.3,0,0.5,0.1,0.7,0.2c0.2,0.1,0.2,0.4,0.2,0.6c0,0.2-0.1,0.5-0.3,0.8c-0.2,0.3-0.5,0.6-0.8,0.9c-0.4,0.3-0.8,0.5-1.4,0.7
				c-0.6,0.2-1.2,0.3-1.9,0.3c-1.7,0-3-0.5-3.9-1.4c-0.9-1-1.4-2.2-1.4-3.9c0-0.8,0.1-1.5,0.3-2.1c0.2-0.7,0.6-1.2,1-1.7
				c0.4-0.5,1-0.8,1.6-1.1c0.6-0.2,1.4-0.4,2.1-0.4c1,0,1.9,0.2,2.6,0.6c0.7,0.4,1.3,1,1.6,1.7c0.4,0.7,0.5,1.4,0.5,2.1
				c0,0.6-0.2,1.1-0.6,1.3C649.1,771,648.6,771.1,647.9,771.1 M642.8,769.7h4.7c-0.1-0.9-0.3-1.5-0.7-2c-0.4-0.4-1-0.7-1.6-0.7
				c-0.6,0-1.2,0.2-1.6,0.7C643.2,768.1,642.9,768.8,642.8,769.7"/>
			<path id="XMLID_596_" class="st32" d="M653.6,766.7v0.3c0.5-0.6,1-1,1.5-1.3c0.5-0.3,1.1-0.4,1.8-0.4c0.8,0,1.5,0.2,2.2,0.6
				c0.7,0.4,1.2,1,1.6,1.8c0.4,0.8,0.6,1.7,0.6,2.8c0,0.8-0.1,1.5-0.3,2.2c-0.2,0.7-0.5,1.2-0.9,1.7c-0.4,0.5-0.9,0.8-1.4,1
				c-0.5,0.2-1.1,0.4-1.7,0.4c-0.7,0-1.4-0.1-1.9-0.4c-0.5-0.3-1-0.7-1.4-1.3v3.9c0,1.1-0.4,1.7-1.2,1.7c-0.5,0-0.8-0.1-1-0.4
				c-0.2-0.3-0.2-0.7-0.2-1.3v-11.2c0-0.5,0.1-0.9,0.3-1.1c0.2-0.2,0.5-0.4,0.9-0.4c0.4,0,0.7,0.1,0.9,0.4
				C653.5,765.8,653.6,766.2,653.6,766.7 M658.7,770.4c0-0.7-0.1-1.3-0.3-1.8c-0.2-0.5-0.5-0.9-0.9-1.1c-0.4-0.3-0.8-0.4-1.2-0.4
				c-0.7,0-1.3,0.3-1.8,0.8c-0.5,0.6-0.7,1.4-0.7,2.5c0,1,0.2,1.8,0.7,2.4c0.5,0.6,1.1,0.9,1.8,0.9c0.4,0,0.8-0.1,1.2-0.4
				c0.4-0.3,0.7-0.6,0.9-1.1C658.6,771.8,658.7,771.2,658.7,770.4"/>
			<path id="XMLID_593_" class="st32" d="M663.9,764c-0.4,0-0.7-0.1-0.9-0.3c-0.3-0.2-0.4-0.5-0.4-0.9c0-0.4,0.1-0.7,0.4-0.9
				c0.3-0.2,0.6-0.4,0.9-0.4c0.3,0,0.6,0.1,0.9,0.3c0.3,0.2,0.4,0.5,0.4,0.9c0,0.4-0.1,0.7-0.4,0.9C664.5,763.9,664.2,764,663.9,764
				 M665.2,766.7v7.5c0,0.5-0.1,0.9-0.4,1.2c-0.2,0.3-0.6,0.4-0.9,0.4c-0.4,0-0.7-0.1-0.9-0.4c-0.2-0.3-0.4-0.7-0.4-1.2v-7.4
				c0-0.5,0.1-0.9,0.4-1.2c0.2-0.3,0.5-0.4,0.9-0.4c0.4,0,0.7,0.1,0.9,0.4C665,765.9,665.2,766.2,665.2,766.7"/>
			<path id="XMLID_592_" class="st32" d="M673.5,774.6l-2.3-3.8l-1.4,1.3v2.1c0,0.5-0.1,0.9-0.4,1.2c-0.3,0.3-0.6,0.4-0.9,0.4
				c-0.4,0-0.7-0.1-0.9-0.4c-0.2-0.3-0.3-0.7-0.3-1.2v-11.1c0-0.6,0.1-1,0.3-1.3c0.2-0.3,0.5-0.5,1-0.5c0.4,0,0.7,0.1,0.9,0.4
				c0.2,0.3,0.4,0.7,0.4,1.2v6.3l2.9-3.1c0.4-0.4,0.6-0.6,0.8-0.8c0.2-0.1,0.4-0.2,0.7-0.2c0.3,0,0.6,0.1,0.8,0.3
				c0.2,0.2,0.3,0.5,0.3,0.8c0,0.4-0.4,0.9-1.1,1.5l-1.4,1.3l2.7,4.2c0.2,0.3,0.3,0.5,0.4,0.7c0.1,0.2,0.1,0.3,0.1,0.5
				c0,0.4-0.1,0.7-0.3,1c-0.2,0.2-0.5,0.4-0.9,0.4c-0.3,0-0.6-0.1-0.7-0.3C674.1,775.3,673.8,775,673.5,774.6"/>
			<path id="XMLID_591_" class="st32" d="M679.2,775.8c-0.4,0-0.7-0.1-1-0.4c-0.3-0.2-0.4-0.6-0.4-1.1c0-0.4,0.1-0.7,0.4-1
				c0.3-0.3,0.6-0.4,1-0.4c0.4,0,0.7,0.1,1,0.4c0.3,0.3,0.4,0.6,0.4,1c0,0.5-0.1,0.8-0.4,1.1C679.9,775.6,679.5,775.8,679.2,775.8"
				/>
			<path id="XMLID_590_" class="st32" d="M692.1,772.6c0,0.3-0.1,0.7-0.3,1c-0.2,0.4-0.5,0.7-0.9,1c-0.4,0.3-0.9,0.6-1.5,0.8
				c-0.6,0.2-1.3,0.3-2,0.3c-1.6,0-2.9-0.5-3.8-1.4c-0.9-0.9-1.3-2.2-1.3-3.8c0-1.1,0.2-2,0.6-2.8c0.4-0.8,1-1.4,1.8-1.9
				c0.8-0.4,1.7-0.7,2.8-0.7c0.7,0,1.3,0.1,1.9,0.3c0.6,0.2,1,0.5,1.4,0.8c0.4,0.3,0.7,0.6,0.9,1c0.2,0.4,0.3,0.7,0.3,1
				c0,0.3-0.1,0.6-0.3,0.8c-0.2,0.2-0.5,0.3-0.8,0.3c-0.2,0-0.4-0.1-0.5-0.2c-0.1-0.1-0.3-0.3-0.5-0.5c-0.3-0.5-0.6-0.8-1-1.1
				c-0.3-0.2-0.8-0.4-1.3-0.4c-0.8,0-1.4,0.3-1.9,0.9c-0.5,0.6-0.7,1.4-0.7,2.5c0,0.5,0.1,0.9,0.2,1.3c0.1,0.4,0.3,0.8,0.5,1
				c0.2,0.3,0.5,0.5,0.8,0.7c0.3,0.2,0.7,0.2,1.1,0.2c0.5,0,1-0.1,1.3-0.4c0.4-0.2,0.7-0.6,1-1.1c0.2-0.3,0.3-0.5,0.5-0.7
				c0.2-0.2,0.4-0.2,0.7-0.2c0.3,0,0.6,0.1,0.8,0.4C692,772,692.1,772.3,692.1,772.6"/>
			<path id="XMLID_587_" class="st32" d="M703.2,770.5c0,0.8-0.1,1.5-0.4,2.1c-0.2,0.7-0.6,1.2-1,1.7c-0.5,0.5-1,0.8-1.6,1.1
				c-0.6,0.2-1.3,0.4-2.1,0.4c-0.8,0-1.5-0.1-2.1-0.4c-0.6-0.2-1.2-0.6-1.6-1.1c-0.5-0.5-0.8-1-1.1-1.7c-0.2-0.6-0.4-1.4-0.4-2.1
				c0-0.8,0.1-1.5,0.4-2.2c0.2-0.7,0.6-1.2,1-1.7c0.5-0.5,1-0.8,1.6-1.1c0.6-0.2,1.3-0.4,2.1-0.4c0.8,0,1.5,0.1,2.1,0.4
				c0.6,0.2,1.2,0.6,1.6,1.1c0.5,0.5,0.8,1,1,1.7C703.1,769,703.2,769.7,703.2,770.5 M700.6,770.5c0-1.1-0.2-1.9-0.7-2.5
				c-0.5-0.6-1.1-0.9-1.9-0.9c-0.5,0-1,0.1-1.3,0.4c-0.4,0.3-0.7,0.6-0.9,1.2c-0.2,0.5-0.3,1.1-0.3,1.8c0,0.7,0.1,1.3,0.3,1.8
				c0.2,0.5,0.5,0.9,0.9,1.2c0.4,0.3,0.8,0.4,1.4,0.4c0.8,0,1.4-0.3,1.9-0.9C700.4,772.4,700.6,771.5,700.6,770.5"/>
			<path id="XMLID_586_" class="st32" d="M713.1,770.7v3.4c0,0.5-0.1,1-0.4,1.2c-0.2,0.3-0.6,0.4-1,0.4c-0.4,0-0.7-0.1-1-0.4
				c-0.2-0.3-0.4-0.7-0.4-1.2V770c0-0.7,0-1.2-0.1-1.5c0-0.4-0.2-0.7-0.4-0.9c-0.2-0.2-0.5-0.4-0.9-0.4c-0.9,0-1.4,0.3-1.7,0.9
				c-0.3,0.6-0.4,1.4-0.4,2.5v3.5c0,0.5-0.1,0.9-0.4,1.2c-0.2,0.3-0.6,0.4-1,0.4c-0.4,0-0.7-0.1-1-0.4c-0.3-0.3-0.4-0.7-0.4-1.2
				v-7.4c0-0.5,0.1-0.9,0.3-1.1c0.2-0.3,0.5-0.4,0.9-0.4c0.4,0,0.7,0.1,0.9,0.4c0.2,0.2,0.4,0.6,0.4,1v0.2c0.5-0.5,0.9-0.9,1.4-1.2
				c0.5-0.3,1.1-0.4,1.7-0.4c0.7,0,1.2,0.1,1.7,0.4c0.5,0.3,0.9,0.7,1.2,1.2c0.4-0.5,0.9-0.9,1.4-1.2c0.5-0.3,1.1-0.4,1.7-0.4
				c0.7,0,1.3,0.1,1.8,0.4c0.5,0.3,0.9,0.7,1.1,1.2c0.2,0.5,0.3,1.2,0.3,2.2v5.1c0,0.5-0.1,1-0.4,1.2c-0.2,0.3-0.6,0.4-1,0.4
				c-0.4,0-0.7-0.1-1-0.4c-0.2-0.3-0.4-0.7-0.4-1.2v-4.4c0-0.6,0-1-0.1-1.3c0-0.3-0.2-0.6-0.4-0.8c-0.2-0.2-0.5-0.3-1-0.3
				c-0.3,0-0.7,0.1-1,0.3c-0.3,0.2-0.5,0.5-0.7,0.8C713.2,768.8,713.1,769.6,713.1,770.7"/>
		</g>
		<g id="XMLID_571_">
			<path id="XMLID_584_" class="st32" d="M592.4,769.9C592.4,769.9,592.4,769.9,592.4,769.9C592.4,769.9,592.4,769.9,592.4,769.9z"
				/>
			<path id="XMLID_583_" class="st32" d="M592.6,770.7C592.6,770.7,592.6,770.7,592.6,770.7c0-0.2-0.1-0.5-0.1-0.7
				C592.5,770.2,592.5,770.5,592.6,770.7z"/>
			<path id="XMLID_582_" class="st32" d="M593.4,773.1C593.4,773.1,593.4,773.1,593.4,773.1C593.4,773.1,593.4,773.1,593.4,773.1z"
				/>
			<path id="XMLID_581_" class="st32" d="M593.3,772.9c0,0,0-0.1-0.1-0.1C593.3,772.9,593.3,772.9,593.3,772.9z"/>
			<path id="XMLID_580_" class="st32" d="M592.8,771.6c0.1,0.4,0.3,0.8,0.5,1.2C593.1,772.4,592.9,772,592.8,771.6
				C592.8,771.6,592.8,771.6,592.8,771.6z"/>
			<path id="XMLID_579_" class="st32" d="M602.5,759.9c0.5,0,0.9,0,1.3,0.1l0.1-0.8c0,0-1.2-0.4-2.7-0.2l-0.1-0.4
				c0.5-0.1,0.8-0.5,0.8-1c0-0.6-0.5-1.1-1.1-1.1s-1.1,0.5-1.1,1.1c0,0.5,0.4,0.9,0.8,1l0.1,0.5c-1.6,0.2-2.9,0.9-2.9,0.9l0.2,0.7
				c1-0.3,1.8-0.5,2.6-0.6C601.4,760,602,759.9,602.5,759.9z"/>
			<path id="XMLID_578_" class="st32" d="M593.4,763.8L593.4,763.8c0-0.1,0.1-0.1,0.1-0.2l-0.3-0.2l-0.5-0.4c0,0-0.8,0.7-1.4,2
				c0,0-0.1-0.1-0.1-0.1c-0.2-0.2-0.4-0.3-0.8-0.3c0,0,0,0,0,0c-0.2,0-0.3-0.1-0.4-0.1c0.1-0.1,0.1-0.3,0.1-0.4
				c0-0.4-0.3-0.7-0.7-0.7c-0.4,0-0.7,0.3-0.7,0.7c0,0.4,0.3,0.7,0.7,0.7c0.1,0,0.1,0,0.2,0c0.2,0.2,0.4,0.3,0.8,0.3
				c0.2,0,0.3,0,0.4,0.2c0.1,0.1,0.1,0.3,0.2,0.4c0,0,0,0,0,0c-0.4,1.2-0.3,2.7-0.3,2.7l1.1,0c0-0.5,0.1-1.5,0.4-2.2
				C592.7,764.7,593.4,763.8,593.4,763.8z"/>
			<path id="XMLID_577_" class="st32" d="M611.7,760.8c-0.4,0-0.7,0.3-0.7,0.7c0,0.1,0,0.1,0,0.2c-0.2,0.2-0.3,0.4-0.3,0.8
				c0,0.2,0,0.3-0.2,0.4c-0.1,0.1-0.2,0.1-0.3,0.1c-0.8-1.1-1.8-1.8-1.8-1.8l-0.8,0.8c0.6,0.5,1.2,1.2,1.7,2c0.4,0.6,0.8,1.3,1.1,2
				l1-0.5c0,0-0.5-1.2-1.1-2.2c0.1,0,0.2-0.1,0.3-0.2c0.2-0.2,0.3-0.4,0.3-0.8c0-0.2,0.1-0.3,0.1-0.4c0.1,0.1,0.3,0.1,0.4,0.1
				c0.4,0,0.7-0.3,0.7-0.7C612.3,761.1,612,760.8,611.7,760.8z"/>
			<path id="XMLID_576_" class="st32" d="M609,770c-1.4,0.7-3.7,1.6-6.8,2c-1.2,0.2-2.4,0.2-3.4,0.2c-1.4,0-2.6-0.1-3.6-0.2
				c-1.1-0.1-1.9-0.3-2.4-0.4c0.1,0.4,0.3,0.8,0.5,1.2c0,0,0,0,0,0c0,0,0,0.1,0.1,0.1c0,0,0,0.1,0.1,0.1c0,0,0,0,0,0
				c0.3,0.6,0.7,1.1,1.1,1.5c1.4,1.6,2.9,1.8,2.9,1.8l0,0l0,0c0,0,1.3,0.4,3.3,0.4c1.9,0,3.9-0.4,5.7-1.2c1.3-0.7,2.6-1.7,3.3-2.7
				c0.5-0.7,0.8-1.5,1-2.3c0.1-0.4,0.2-1.1,0.1-1.8C610.5,769.2,609.9,769.6,609,770z"/>
			<path id="XMLID_572_" class="st32" d="M593.9,764.1c0,0.1-0.7,0.9-1.1,2.3c-0.4,1-0.3,2.4-0.3,2.5v0c0,0.3,0,0.7,0.1,1
				c0,0,0,0,0,0c0,0,0,0.1,0,0.1c0,0.2,0.1,0.5,0.1,0.7c0.7,0.2,4.9,1.2,9.5,0.5c2.9-0.4,5.1-1.3,6.5-1.9c1.1-0.5,1.8-1,2.1-1.2
				c-0.3-1-1-2.6-1.7-3.6c-2-2.9-4.2-3.6-5.3-3.8c-0.4-0.1-0.8-0.1-1.2-0.1c-0.4,0-1,0-1.7,0.1c-0.7,0.1-1.6,0.3-2.5,0.6
				c-1.3,0.5-2.6,1.2-3.5,2l0,0C594.5,763.4,594.2,763.7,593.9,764.1z M606.1,763.5c1,0,1.7,0.8,1.7,1.7c0,1-0.8,1.7-1.7,1.7
				c-1,0-1.7-0.8-1.7-1.7C604.4,764.2,605.2,763.5,606.1,763.5z M597.9,763.4c1.6,0,2.8,1.3,2.8,2.8c0,1.6-1.3,2.8-2.8,2.8
				c-1.6,0-2.8-1.3-2.8-2.8C595.1,764.6,596.3,763.4,597.9,763.4z"/>
		</g>
	</g>
</g>
</svg>
