<?xml version="1.0" encoding="utf-8"?>
<!-- Generator: Adobe Illustrator 22.1.0, SVG Export Plug-In . SVG Version: 6.00 Build 0)  -->
<svg version="1.1" xmlns="http://www.w3.org/2000/svg" xmlns:xlink="http://www.w3.org/1999/xlink" x="0px" y="0px"
	 viewBox="0 0 800 800" style="enable-background:new 0 0 800 800;" xml:space="preserve">
<style type="text/css">
	.st0{display:none;}
	.st1{display:inline;fill:#7FB5A0;}
	.st2{display:inline;}
	.st3{fill:#FFFFFF;}
	.st4{display:inline;fill:#FFFFFF;}
	.st5{fill:#FFE500;}
	.st6{fill:#FFBB00;}
	.st7{fill:#262424;}
	.st8{fill:#CCCCCC;}
</style>
<g id="background" class="st0">
	<rect class="st1" width="800" height="800"/>
</g>
<g id="objects">
	<g class="st0">
		<g class="st2">
			<path class="st3" d="M286,774.3V774c-0.3,0.4-0.7,0.7-1,1c-0.3,0.3-0.7,0.4-1.1,0.6c-0.4,0.1-0.8,0.2-1.3,0.2
				c-0.6,0-1.2-0.1-1.7-0.4c-0.5-0.3-1-0.6-1.4-1.1c-0.4-0.5-0.7-1.1-0.9-1.7c-0.2-0.7-0.3-1.4-0.3-2.1c0-1.6,0.4-2.9,1.2-3.8
				c0.8-0.9,1.8-1.4,3.1-1.4c0.7,0,1.4,0.1,1.9,0.4c0.5,0.3,1,0.7,1.5,1.2V763c0-0.5,0.1-0.9,0.3-1.2c0.2-0.3,0.5-0.4,0.9-0.4
				c0.4,0,0.7,0.1,0.9,0.4c0.2,0.3,0.3,0.6,0.3,1.1v11.4c0,0.5-0.1,0.9-0.3,1.1c-0.2,0.2-0.5,0.4-0.9,0.4c-0.4,0-0.6-0.1-0.9-0.4
				C286.1,775.1,286,774.8,286,774.3z M280.9,770.5c0,0.7,0.1,1.3,0.3,1.8c0.2,0.5,0.5,0.9,0.9,1.1c0.4,0.3,0.8,0.4,1.2,0.4
				c0.5,0,0.9-0.1,1.2-0.4c0.4-0.2,0.7-0.6,0.9-1.1c0.2-0.5,0.3-1.1,0.3-1.8c0-0.7-0.1-1.3-0.3-1.8c-0.2-0.5-0.5-0.9-0.9-1.1
				c-0.4-0.3-0.8-0.4-1.3-0.4c-0.5,0-0.9,0.1-1.3,0.4c-0.4,0.3-0.7,0.7-0.9,1.2C281,769.2,280.9,769.8,280.9,770.5z"/>
			<path class="st3" d="M297.5,771.1h-5.1c0,0.6,0.1,1.1,0.4,1.6c0.2,0.5,0.5,0.8,0.9,1c0.4,0.2,0.8,0.3,1.3,0.3
				c0.3,0,0.6,0,0.9-0.1c0.3-0.1,0.5-0.2,0.7-0.3c0.2-0.2,0.5-0.3,0.7-0.5c0.2-0.2,0.5-0.4,0.8-0.7c0.1-0.1,0.3-0.2,0.6-0.2
				c0.3,0,0.5,0.1,0.6,0.2c0.2,0.1,0.2,0.4,0.2,0.6c0,0.2-0.1,0.5-0.3,0.8c-0.2,0.3-0.5,0.6-0.8,0.9c-0.4,0.3-0.8,0.5-1.4,0.7
				c-0.6,0.2-1.2,0.3-1.9,0.3c-1.7,0-3-0.5-3.9-1.4s-1.4-2.2-1.4-3.9c0-0.8,0.1-1.5,0.3-2.1c0.2-0.7,0.6-1.2,1-1.7
				c0.4-0.5,1-0.8,1.6-1.1c0.6-0.2,1.3-0.4,2.1-0.4c1,0,1.9,0.2,2.6,0.6c0.7,0.4,1.3,1,1.6,1.7c0.4,0.7,0.5,1.4,0.5,2.1
				c0,0.7-0.2,1.1-0.6,1.3C298.7,771,298.1,771.1,297.5,771.1z M292.4,769.7h4.7c-0.1-0.9-0.3-1.6-0.7-2c-0.4-0.4-1-0.7-1.6-0.7
				c-0.6,0-1.2,0.2-1.6,0.7C292.7,768.1,292.5,768.8,292.4,769.7z"/>
			<path class="st3" d="M309.3,772.4c0,0.7-0.2,1.3-0.5,1.8c-0.3,0.5-0.9,0.9-1.5,1.2c-0.7,0.3-1.5,0.4-2.5,0.4
				c-0.9,0-1.7-0.1-2.4-0.4c-0.7-0.3-1.2-0.6-1.5-1.1c-0.3-0.4-0.5-0.9-0.5-1.3c0-0.3,0.1-0.5,0.3-0.7c0.2-0.2,0.5-0.3,0.8-0.3
				c0.3,0,0.5,0.1,0.6,0.2c0.1,0.1,0.3,0.3,0.4,0.6c0.3,0.5,0.6,0.8,1,1c0.4,0.2,0.9,0.3,1.5,0.3c0.5,0,0.9-0.1,1.3-0.3
				c0.3-0.2,0.5-0.5,0.5-0.8c0-0.5-0.2-0.8-0.5-1c-0.3-0.2-0.9-0.4-1.7-0.6c-0.9-0.2-1.6-0.5-2.2-0.7c-0.6-0.2-1-0.6-1.3-1
				c-0.3-0.4-0.5-0.9-0.5-1.5c0-0.5,0.2-1,0.5-1.5c0.3-0.5,0.8-0.8,1.4-1.1c0.6-0.3,1.3-0.4,2.2-0.4c0.7,0,1.3,0.1,1.8,0.2
				c0.5,0.1,1,0.3,1.3,0.6c0.4,0.2,0.6,0.5,0.8,0.8c0.2,0.3,0.3,0.6,0.3,0.8c0,0.3-0.1,0.5-0.3,0.7c-0.2,0.2-0.5,0.3-0.9,0.3
				c-0.3,0-0.5-0.1-0.7-0.2c-0.2-0.2-0.4-0.4-0.6-0.7c-0.2-0.3-0.4-0.5-0.7-0.6c-0.3-0.2-0.6-0.2-1.1-0.2c-0.5,0-0.9,0.1-1.2,0.3
				c-0.3,0.2-0.5,0.4-0.5,0.7c0,0.3,0.1,0.5,0.3,0.7c0.2,0.2,0.5,0.3,0.9,0.4c0.4,0.1,0.9,0.3,1.6,0.4c0.8,0.2,1.5,0.4,2,0.7
				c0.5,0.3,0.9,0.6,1.2,1C309.1,771.5,309.3,771.9,309.3,772.4z"/>
			<path class="st3" d="M311.9,764c-0.4,0-0.7-0.1-0.9-0.3c-0.3-0.2-0.4-0.5-0.4-0.9c0-0.4,0.1-0.7,0.4-0.9s0.6-0.4,0.9-0.4
				c0.3,0,0.6,0.1,0.9,0.3c0.3,0.2,0.4,0.5,0.4,0.9c0,0.4-0.1,0.7-0.4,0.9C312.6,763.9,312.3,764,311.9,764z M313.2,766.7v7.5
				c0,0.5-0.1,0.9-0.4,1.2c-0.2,0.3-0.6,0.4-0.9,0.4s-0.7-0.1-0.9-0.4c-0.2-0.3-0.4-0.7-0.4-1.2v-7.4c0-0.5,0.1-0.9,0.4-1.2
				c0.2-0.3,0.5-0.4,0.9-0.4s0.7,0.1,0.9,0.4C313.1,765.9,313.2,766.2,313.2,766.7z"/>
			<path class="st3" d="M324.6,767.1v7.5c0,0.9-0.1,1.6-0.3,2.2c-0.2,0.6-0.5,1.1-0.9,1.5c-0.4,0.4-0.9,0.7-1.6,0.9
				c-0.7,0.2-1.5,0.3-2.4,0.3c-0.9,0-1.7-0.1-2.4-0.4c-0.7-0.3-1.2-0.6-1.6-1c-0.4-0.4-0.6-0.8-0.6-1.2c0-0.3,0.1-0.6,0.3-0.8
				c0.2-0.2,0.5-0.3,0.8-0.3c0.4,0,0.7,0.2,1,0.5c0.1,0.2,0.3,0.3,0.4,0.5c0.1,0.2,0.3,0.3,0.5,0.4c0.2,0.1,0.4,0.2,0.7,0.3
				c0.3,0.1,0.5,0.1,0.9,0.1c0.7,0,1.2-0.1,1.6-0.3c0.4-0.2,0.6-0.4,0.8-0.8c0.1-0.3,0.2-0.7,0.3-1.1c0-0.4,0-1,0.1-1.8
				c-0.4,0.6-0.9,1-1.4,1.3c-0.5,0.3-1.1,0.4-1.9,0.4c-0.9,0-1.6-0.2-2.3-0.7c-0.6-0.4-1.1-1.1-1.5-1.9c-0.3-0.8-0.5-1.7-0.5-2.8
				c0-0.8,0.1-1.5,0.3-2.1c0.2-0.6,0.5-1.2,0.9-1.6c0.4-0.4,0.8-0.8,1.4-1c0.5-0.2,1.1-0.3,1.7-0.3c0.7,0,1.4,0.1,1.9,0.4
				c0.5,0.3,1,0.7,1.5,1.3v-0.4c0-0.4,0.1-0.8,0.3-1c0.2-0.2,0.5-0.4,0.9-0.4c0.5,0,0.8,0.2,1,0.5
				C324.5,766,324.6,766.5,324.6,767.1z M317,770.4c0,1.1,0.2,1.8,0.7,2.4c0.5,0.5,1.1,0.8,1.8,0.8c0.4,0,0.8-0.1,1.2-0.3
				c0.4-0.2,0.7-0.6,0.9-1c0.2-0.5,0.4-1,0.4-1.7c0-1.1-0.2-1.9-0.7-2.5c-0.5-0.6-1.1-0.9-1.8-0.9c-0.7,0-1.3,0.3-1.8,0.8
				C317.3,768.6,317,769.4,317,770.4z"/>
			<path class="st3" d="M328.7,766.7v0.3c0.5-0.6,1-1,1.5-1.3c0.5-0.3,1.2-0.4,1.9-0.4c0.7,0,1.3,0.1,1.8,0.4
				c0.5,0.3,0.9,0.7,1.2,1.3c0.2,0.3,0.3,0.7,0.3,1c0.1,0.4,0.1,0.8,0.1,1.4v4.8c0,0.5-0.1,0.9-0.4,1.2c-0.2,0.3-0.5,0.4-0.9,0.4
				c-0.4,0-0.7-0.1-0.9-0.4c-0.2-0.3-0.4-0.7-0.4-1.2v-4.3c0-0.9-0.1-1.5-0.4-2c-0.2-0.5-0.7-0.7-1.4-0.7c-0.5,0-0.9,0.1-1.3,0.4
				c-0.4,0.3-0.7,0.7-0.8,1.1c-0.1,0.4-0.2,1.1-0.2,2.2v3.2c0,0.5-0.1,0.9-0.4,1.2c-0.2,0.3-0.6,0.4-0.9,0.4c-0.4,0-0.7-0.1-0.9-0.4
				c-0.2-0.3-0.4-0.7-0.4-1.2v-7.5c0-0.5,0.1-0.9,0.3-1.1c0.2-0.2,0.5-0.4,0.9-0.4c0.2,0,0.4,0.1,0.6,0.2c0.2,0.1,0.3,0.3,0.4,0.5
				C328.6,766.1,328.7,766.3,328.7,766.7z"/>
			<path class="st3" d="M344.5,771.1h-5.1c0,0.6,0.1,1.1,0.4,1.6c0.2,0.5,0.5,0.8,0.9,1c0.4,0.2,0.8,0.3,1.3,0.3
				c0.3,0,0.6,0,0.9-0.1c0.3-0.1,0.5-0.2,0.7-0.3c0.2-0.2,0.5-0.3,0.7-0.5c0.2-0.2,0.5-0.4,0.8-0.7c0.1-0.1,0.3-0.2,0.6-0.2
				c0.3,0,0.5,0.1,0.6,0.2c0.2,0.1,0.2,0.4,0.2,0.6c0,0.2-0.1,0.5-0.3,0.8c-0.2,0.3-0.5,0.6-0.8,0.9c-0.4,0.3-0.8,0.5-1.4,0.7
				c-0.6,0.2-1.2,0.3-1.9,0.3c-1.7,0-3-0.5-3.9-1.4c-0.9-0.9-1.4-2.2-1.4-3.9c0-0.8,0.1-1.5,0.3-2.1c0.2-0.7,0.6-1.2,1-1.7
				c0.4-0.5,1-0.8,1.6-1.1c0.6-0.2,1.3-0.4,2.1-0.4c1,0,1.9,0.2,2.6,0.6c0.7,0.4,1.3,1,1.6,1.7c0.4,0.7,0.5,1.4,0.5,2.1
				c0,0.7-0.2,1.1-0.6,1.3C345.7,771,345.1,771.1,344.5,771.1z M339.4,769.7h4.7c-0.1-0.9-0.3-1.6-0.7-2c-0.4-0.4-1-0.7-1.6-0.7
				c-0.6,0-1.2,0.2-1.6,0.7C339.7,768.1,339.5,768.8,339.4,769.7z"/>
			<path class="st3" d="M355,774.3V774c-0.3,0.4-0.7,0.7-1,1c-0.3,0.3-0.7,0.4-1.1,0.6c-0.4,0.1-0.8,0.2-1.3,0.2
				c-0.6,0-1.2-0.1-1.7-0.4c-0.5-0.3-1-0.6-1.4-1.1c-0.4-0.5-0.7-1.1-0.9-1.7c-0.2-0.7-0.3-1.4-0.3-2.1c0-1.6,0.4-2.9,1.2-3.8
				c0.8-0.9,1.8-1.4,3.1-1.4c0.7,0,1.4,0.1,1.9,0.4c0.5,0.3,1,0.7,1.5,1.2V763c0-0.5,0.1-0.9,0.3-1.2c0.2-0.3,0.5-0.4,0.9-0.4
				c0.4,0,0.7,0.1,0.9,0.4c0.2,0.3,0.3,0.6,0.3,1.1v11.4c0,0.5-0.1,0.9-0.3,1.1c-0.2,0.2-0.5,0.4-0.9,0.4c-0.4,0-0.6-0.1-0.9-0.4
				C355.1,775.1,355,774.8,355,774.3z M349.9,770.5c0,0.7,0.1,1.3,0.3,1.8c0.2,0.5,0.5,0.9,0.9,1.1c0.4,0.3,0.8,0.4,1.2,0.4
				c0.5,0,0.9-0.1,1.2-0.4c0.4-0.2,0.7-0.6,0.9-1.1c0.2-0.5,0.3-1.1,0.3-1.8c0-0.7-0.1-1.3-0.3-1.8c-0.2-0.5-0.5-0.9-0.9-1.1
				c-0.4-0.3-0.8-0.4-1.3-0.4c-0.5,0-0.9,0.1-1.3,0.4c-0.4,0.3-0.7,0.7-0.9,1.2C350,769.2,349.9,769.8,349.9,770.5z"/>
			<path class="st3" d="M365.6,762.9v4c0.5-0.5,1-0.9,1.5-1.2c0.5-0.3,1.1-0.4,1.9-0.4c0.9,0,1.6,0.2,2.3,0.6c0.6,0.4,1.2,1,1.5,1.8
				c0.4,0.8,0.5,1.7,0.5,2.8c0,0.8-0.1,1.5-0.3,2.2c-0.2,0.7-0.5,1.2-0.9,1.7c-0.4,0.5-0.8,0.9-1.4,1.1c-0.5,0.3-1.1,0.4-1.8,0.4
				c-0.4,0-0.8,0-1.1-0.1c-0.4-0.1-0.7-0.2-0.9-0.4c-0.2-0.2-0.5-0.3-0.6-0.5c-0.2-0.2-0.4-0.4-0.7-0.7v0.3c0,0.5-0.1,0.9-0.4,1.1
				c-0.2,0.2-0.5,0.4-0.9,0.4c-0.4,0-0.7-0.1-0.9-0.4c-0.2-0.3-0.3-0.6-0.3-1.1V763c0-0.5,0.1-0.9,0.3-1.2c0.2-0.3,0.5-0.4,0.9-0.4
				c0.4,0,0.7,0.1,0.9,0.4C365.5,762,365.6,762.4,365.6,762.9z M365.7,770.6c0,1,0.2,1.8,0.7,2.4c0.5,0.6,1.1,0.8,1.9,0.8
				c0.7,0,1.2-0.3,1.7-0.9c0.5-0.6,0.7-1.4,0.7-2.4c0-0.7-0.1-1.3-0.3-1.8c-0.2-0.5-0.5-0.9-0.8-1.1c-0.4-0.3-0.8-0.4-1.3-0.4
				c-0.5,0-0.9,0.1-1.3,0.4c-0.4,0.3-0.7,0.7-0.9,1.2C365.9,769.2,365.7,769.9,365.7,770.6z"/>
			<path class="st3" d="M376.7,776.1l0.2-0.6l-3.2-8c-0.2-0.5-0.3-0.8-0.3-1c0-0.2,0.1-0.4,0.2-0.6c0.1-0.2,0.3-0.3,0.5-0.5
				c0.2-0.1,0.4-0.2,0.6-0.2c0.4,0,0.7,0.1,0.8,0.4c0.2,0.2,0.4,0.6,0.5,1l2.2,6.4l2.1-5.9c0.2-0.5,0.3-0.9,0.4-1.1
				c0.1-0.3,0.3-0.5,0.4-0.5c0.1-0.1,0.4-0.1,0.6-0.1c0.2,0,0.4,0.1,0.6,0.2c0.2,0.1,0.3,0.2,0.4,0.4c0.1,0.2,0.1,0.4,0.1,0.6
				c0,0.1-0.1,0.3-0.1,0.5c-0.1,0.2-0.1,0.4-0.2,0.7l-3.4,8.9c-0.3,0.8-0.6,1.4-0.9,1.8c-0.3,0.4-0.6,0.8-1.1,1
				c-0.5,0.2-1.1,0.4-1.9,0.4c-0.8,0-1.3-0.1-1.7-0.2c-0.4-0.2-0.6-0.5-0.6-0.9c0-0.3,0.1-0.5,0.3-0.7c0.2-0.2,0.4-0.2,0.8-0.2
				c0.1,0,0.3,0,0.4,0.1c0.2,0,0.3,0.1,0.4,0.1c0.3,0,0.5,0,0.7-0.1c0.2-0.1,0.3-0.2,0.5-0.5C376.3,776.8,376.5,776.5,376.7,776.1z"
				/>
		</g>
		<g class="st2">
			<path class="st3" d="M414.2,765.4h0.6v-0.8c0-0.8,0.1-1.5,0.3-1.9c0.2-0.5,0.6-0.8,1-1c0.5-0.2,1.2-0.3,2-0.3
				c1.5,0,2.3,0.4,2.3,1.1c0,0.2-0.1,0.4-0.2,0.6c-0.2,0.2-0.3,0.3-0.6,0.3c-0.1,0-0.3,0-0.5-0.1c-0.2,0-0.5-0.1-0.6-0.1
				c-0.5,0-0.8,0.1-0.9,0.4c-0.1,0.3-0.2,0.7-0.2,1.2v0.6h0.6c1,0,1.5,0.3,1.5,0.9c0,0.4-0.1,0.7-0.4,0.8c-0.3,0.1-0.6,0.2-1.1,0.2
				h-0.6v6.9c0,0.5-0.1,0.9-0.4,1.2c-0.2,0.3-0.6,0.4-0.9,0.4c-0.4,0-0.7-0.1-0.9-0.4c-0.2-0.3-0.4-0.7-0.4-1.2v-6.9h-0.7
				c-0.4,0-0.7-0.1-0.9-0.3c-0.2-0.2-0.3-0.4-0.3-0.7C412.9,765.8,413.4,765.4,414.2,765.4"/>
			<path class="st3" d="M422.7,772v2.2c0,0.5-0.1,0.9-0.4,1.2c-0.2,0.3-0.6,0.4-0.9,0.4c-0.4,0-0.7-0.1-0.9-0.4
				c-0.2-0.3-0.4-0.7-0.4-1.2V767c0-1.2,0.4-1.7,1.3-1.7c0.4,0,0.7,0.1,0.9,0.4c0.2,0.3,0.3,0.7,0.3,1.2c0.3-0.5,0.6-0.9,0.9-1.2
				c0.3-0.3,0.8-0.4,1.3-0.4c0.5,0,1.1,0.1,1.6,0.4c0.5,0.3,0.8,0.6,0.8,1.1c0,0.3-0.1,0.6-0.3,0.8c-0.2,0.2-0.5,0.3-0.7,0.3
				c-0.1,0-0.3-0.1-0.7-0.2c-0.4-0.1-0.7-0.2-1-0.2c-0.4,0-0.7,0.1-0.9,0.3c-0.2,0.2-0.4,0.5-0.6,0.9c-0.1,0.4-0.2,0.9-0.3,1.4
				C422.7,770.6,422.7,771.2,422.7,772"/>
			<path class="st3" d="M434.6,771.1h-5.1c0,0.6,0.1,1.1,0.4,1.6c0.2,0.4,0.5,0.8,0.9,1c0.4,0.2,0.8,0.3,1.3,0.3
				c0.3,0,0.6,0,0.8-0.1c0.3-0.1,0.5-0.2,0.7-0.3c0.2-0.2,0.5-0.3,0.7-0.5c0.2-0.2,0.5-0.4,0.8-0.7c0.1-0.1,0.3-0.2,0.6-0.2
				c0.3,0,0.5,0.1,0.6,0.2c0.2,0.1,0.2,0.4,0.2,0.6c0,0.2-0.1,0.5-0.3,0.8c-0.2,0.3-0.5,0.6-0.8,0.9c-0.4,0.3-0.8,0.5-1.4,0.7
				c-0.6,0.2-1.2,0.3-1.9,0.3c-1.7,0-3-0.5-3.9-1.4c-0.9-1-1.4-2.2-1.4-3.9c0-0.8,0.1-1.5,0.3-2.1c0.2-0.7,0.6-1.2,1-1.7
				c0.4-0.5,1-0.8,1.6-1.1c0.6-0.2,1.3-0.4,2.1-0.4c1,0,1.9,0.2,2.6,0.6c0.7,0.4,1.3,1,1.6,1.7c0.4,0.7,0.5,1.4,0.5,2.1
				c0,0.6-0.2,1.1-0.6,1.3C435.8,771,435.3,771.1,434.6,771.1 M429.6,769.7h4.7c-0.1-0.9-0.3-1.5-0.7-2c-0.4-0.4-1-0.7-1.6-0.7
				c-0.6,0-1.2,0.2-1.6,0.7C429.9,768.1,429.7,768.8,429.6,769.7"/>
			<path class="st3" d="M445.4,771.1h-5.1c0,0.6,0.1,1.1,0.4,1.6c0.2,0.4,0.5,0.8,0.9,1c0.4,0.2,0.8,0.3,1.3,0.3
				c0.3,0,0.6,0,0.8-0.1c0.3-0.1,0.5-0.2,0.8-0.3c0.2-0.2,0.5-0.3,0.7-0.5c0.2-0.2,0.5-0.4,0.8-0.7c0.1-0.1,0.3-0.2,0.6-0.2
				c0.3,0,0.5,0.1,0.7,0.2c0.2,0.1,0.2,0.4,0.2,0.6c0,0.2-0.1,0.5-0.3,0.8c-0.2,0.3-0.5,0.6-0.8,0.9c-0.4,0.3-0.8,0.5-1.4,0.7
				c-0.6,0.2-1.2,0.3-1.9,0.3c-1.7,0-3-0.5-3.9-1.4c-0.9-1-1.4-2.2-1.4-3.9c0-0.8,0.1-1.5,0.3-2.1c0.2-0.7,0.6-1.2,1-1.7
				c0.4-0.5,1-0.8,1.6-1.1c0.6-0.2,1.4-0.4,2.1-0.4c1,0,1.9,0.2,2.6,0.6c0.7,0.4,1.3,1,1.6,1.7c0.4,0.7,0.5,1.4,0.5,2.1
				c0,0.6-0.2,1.1-0.6,1.3C446.6,771,446.1,771.1,445.4,771.1 M440.4,769.7h4.7c-0.1-0.9-0.3-1.5-0.7-2c-0.4-0.4-1-0.7-1.6-0.7
				c-0.6,0-1.2,0.2-1.6,0.7C440.7,768.1,440.4,768.8,440.4,769.7"/>
			<path class="st3" d="M451.1,766.7v0.3c0.5-0.6,1-1,1.5-1.3c0.5-0.3,1.1-0.4,1.8-0.4c0.8,0,1.5,0.2,2.2,0.6c0.7,0.4,1.2,1,1.6,1.8
				c0.4,0.8,0.6,1.7,0.6,2.8c0,0.8-0.1,1.5-0.3,2.2c-0.2,0.7-0.5,1.2-0.9,1.7c-0.4,0.5-0.9,0.8-1.4,1c-0.5,0.2-1.1,0.4-1.7,0.4
				c-0.7,0-1.4-0.1-1.9-0.4c-0.5-0.3-1-0.7-1.4-1.3v3.9c0,1.1-0.4,1.7-1.2,1.7c-0.5,0-0.8-0.1-1-0.4c-0.2-0.3-0.2-0.7-0.2-1.3v-11.2
				c0-0.5,0.1-0.9,0.3-1.1c0.2-0.2,0.5-0.4,0.9-0.4c0.4,0,0.7,0.1,0.9,0.4C451,765.8,451.1,766.2,451.1,766.7 M456.2,770.4
				c0-0.7-0.1-1.3-0.3-1.8c-0.2-0.5-0.5-0.9-0.9-1.1c-0.4-0.3-0.8-0.4-1.2-0.4c-0.7,0-1.3,0.3-1.8,0.8c-0.5,0.6-0.7,1.4-0.7,2.5
				c0,1,0.2,1.8,0.7,2.4c0.5,0.6,1.1,0.9,1.8,0.9c0.4,0,0.8-0.1,1.2-0.4c0.4-0.3,0.7-0.6,0.9-1.1
				C456.1,771.8,456.2,771.2,456.2,770.4"/>
			<path class="st3" d="M461.4,764c-0.4,0-0.7-0.1-0.9-0.3c-0.3-0.2-0.4-0.5-0.4-0.9c0-0.4,0.1-0.7,0.4-0.9c0.3-0.2,0.6-0.4,0.9-0.4
				c0.3,0,0.6,0.1,0.9,0.3c0.3,0.2,0.4,0.5,0.4,0.9c0,0.4-0.1,0.7-0.4,0.9C462.1,763.9,461.8,764,461.4,764 M462.7,766.7v7.5
				c0,0.5-0.1,0.9-0.4,1.2c-0.2,0.3-0.6,0.4-0.9,0.4c-0.4,0-0.7-0.1-0.9-0.4c-0.2-0.3-0.4-0.7-0.4-1.2v-7.4c0-0.5,0.1-0.9,0.4-1.2
				c0.2-0.3,0.5-0.4,0.9-0.4c0.4,0,0.7,0.1,0.9,0.4C462.6,765.9,462.7,766.2,462.7,766.7"/>
			<path class="st3" d="M471.1,774.6l-2.3-3.8l-1.4,1.3v2.1c0,0.5-0.1,0.9-0.4,1.1c-0.3,0.3-0.6,0.4-0.9,0.4c-0.4,0-0.7-0.1-0.9-0.4
				c-0.2-0.3-0.3-0.7-0.3-1.2v-11.1c0-0.6,0.1-1,0.3-1.3c0.2-0.3,0.5-0.5,1-0.5c0.4,0,0.7,0.1,0.9,0.4c0.2,0.3,0.4,0.7,0.4,1.2v6.3
				l2.9-3.1c0.4-0.4,0.6-0.6,0.8-0.8c0.2-0.1,0.4-0.2,0.7-0.2c0.3,0,0.6,0.1,0.8,0.3c0.2,0.2,0.3,0.5,0.3,0.8c0,0.4-0.4,0.9-1.1,1.5
				l-1.4,1.3l2.7,4.2c0.2,0.3,0.3,0.5,0.4,0.7c0.1,0.2,0.1,0.3,0.1,0.5c0,0.4-0.1,0.7-0.3,1c-0.2,0.2-0.5,0.4-0.9,0.4
				c-0.3,0-0.6-0.1-0.7-0.3C471.6,775.3,471.3,775,471.1,774.6"/>
			<path class="st3" d="M476.7,775.8c-0.4,0-0.7-0.1-1-0.4c-0.3-0.2-0.4-0.6-0.4-1.1c0-0.4,0.1-0.7,0.4-1c0.3-0.3,0.6-0.4,1-0.4
				c0.4,0,0.7,0.1,1,0.4c0.3,0.3,0.4,0.6,0.4,1c0,0.5-0.1,0.8-0.4,1.1C477.4,775.6,477.1,775.8,476.7,775.8"/>
			<path class="st3" d="M489.6,772.6c0,0.3-0.1,0.7-0.3,1c-0.2,0.4-0.5,0.7-0.9,1c-0.4,0.3-0.9,0.6-1.5,0.8c-0.6,0.2-1.3,0.3-2,0.3
				c-1.6,0-2.9-0.5-3.8-1.4c-0.9-0.9-1.3-2.2-1.3-3.8c0-1.1,0.2-2,0.6-2.8c0.4-0.8,1-1.4,1.8-1.9c0.8-0.4,1.7-0.7,2.8-0.7
				c0.7,0,1.3,0.1,1.9,0.3c0.6,0.2,1,0.5,1.4,0.8c0.4,0.3,0.7,0.6,0.9,1c0.2,0.4,0.3,0.7,0.3,1c0,0.3-0.1,0.6-0.3,0.8
				c-0.2,0.2-0.5,0.3-0.8,0.3c-0.2,0-0.4-0.1-0.5-0.2c-0.1-0.1-0.3-0.3-0.5-0.5c-0.3-0.5-0.6-0.8-1-1.1c-0.3-0.2-0.8-0.4-1.3-0.4
				c-0.8,0-1.4,0.3-1.9,0.9c-0.5,0.6-0.7,1.4-0.7,2.5c0,0.5,0.1,0.9,0.2,1.3c0.1,0.4,0.3,0.8,0.5,1c0.2,0.3,0.5,0.5,0.8,0.7
				c0.3,0.2,0.7,0.2,1.1,0.2c0.5,0,1-0.1,1.3-0.4c0.4-0.2,0.7-0.6,1-1.1c0.2-0.3,0.3-0.5,0.5-0.7c0.2-0.2,0.4-0.2,0.7-0.2
				c0.3,0,0.6,0.1,0.8,0.4C489.5,772,489.6,772.3,489.6,772.6"/>
			<path class="st3" d="M500.8,770.5c0,0.8-0.1,1.5-0.4,2.1c-0.2,0.7-0.6,1.2-1,1.7c-0.5,0.5-1,0.8-1.6,1.1
				c-0.6,0.2-1.3,0.4-2.1,0.4c-0.8,0-1.5-0.1-2.1-0.4c-0.6-0.2-1.2-0.6-1.6-1.1c-0.5-0.5-0.8-1-1.1-1.7c-0.2-0.6-0.4-1.4-0.4-2.1
				c0-0.8,0.1-1.5,0.4-2.2c0.2-0.7,0.6-1.2,1-1.7c0.5-0.5,1-0.8,1.6-1.1c0.6-0.2,1.3-0.4,2.1-0.4c0.8,0,1.5,0.1,2.1,0.4
				c0.6,0.3,1.2,0.6,1.6,1.1c0.5,0.5,0.8,1,1,1.7C500.7,769,500.8,769.7,500.8,770.5 M498.2,770.5c0-1.1-0.2-1.9-0.7-2.5
				c-0.5-0.6-1.1-0.9-1.9-0.9c-0.5,0-1,0.1-1.3,0.4c-0.4,0.3-0.7,0.6-0.9,1.2c-0.2,0.5-0.3,1.1-0.3,1.8c0,0.7,0.1,1.3,0.3,1.8
				c0.2,0.5,0.5,0.9,0.9,1.2c0.4,0.3,0.8,0.4,1.4,0.4c0.8,0,1.4-0.3,1.9-0.9C497.9,772.4,498.2,771.5,498.2,770.5"/>
			<path class="st3" d="M510.7,770.7v3.4c0,0.5-0.1,1-0.4,1.2c-0.2,0.3-0.6,0.4-1,0.4c-0.4,0-0.7-0.1-1-0.4
				c-0.2-0.3-0.4-0.7-0.4-1.2V770c0-0.7,0-1.2-0.1-1.5c0-0.4-0.2-0.7-0.4-0.9c-0.2-0.2-0.5-0.4-0.9-0.4c-0.9,0-1.4,0.3-1.7,0.9
				c-0.3,0.6-0.4,1.4-0.4,2.5v3.5c0,0.5-0.1,0.9-0.4,1.2c-0.2,0.3-0.6,0.4-1,0.4c-0.4,0-0.7-0.1-1-0.4c-0.3-0.3-0.4-0.7-0.4-1.2
				v-7.4c0-0.5,0.1-0.9,0.3-1.1c0.2-0.3,0.5-0.4,0.9-0.4c0.4,0,0.7,0.1,0.9,0.4c0.2,0.2,0.4,0.6,0.4,1v0.2c0.5-0.5,0.9-0.9,1.4-1.2
				c0.5-0.3,1.1-0.4,1.7-0.4c0.7,0,1.2,0.1,1.7,0.4c0.5,0.3,0.9,0.7,1.2,1.2c0.4-0.5,0.9-0.9,1.4-1.2c0.5-0.3,1.1-0.4,1.7-0.4
				c0.7,0,1.3,0.1,1.8,0.4c0.5,0.3,0.9,0.7,1.1,1.2c0.2,0.5,0.3,1.2,0.3,2.2v5.1c0,0.5-0.1,1-0.4,1.2c-0.2,0.3-0.6,0.4-1,0.4
				c-0.4,0-0.7-0.1-1-0.4c-0.2-0.3-0.4-0.7-0.4-1.2v-4.4c0-0.6,0-1-0.1-1.3c0-0.3-0.2-0.6-0.4-0.8c-0.2-0.2-0.5-0.3-1-0.3
				c-0.3,0-0.7,0.1-1,0.3c-0.3,0.2-0.5,0.5-0.7,0.8C510.8,768.8,510.7,769.6,510.7,770.7"/>
		</g>
		<g class="st2">
			<path class="st3" d="M390,769.9C390,769.9,390,769.9,390,769.9C390,769.9,390,769.9,390,769.9z"/>
			<path class="st3" d="M390.1,770.7C390.1,770.7,390.1,770.7,390.1,770.7c0-0.2-0.1-0.5-0.1-0.7C390,770.2,390.1,770.5,390.1,770.7
				z"/>
			<path class="st3" d="M391,773.1C391,773.1,390.9,773.1,391,773.1C390.9,773.1,391,773.1,391,773.1z"/>
			<path class="st3" d="M390.9,772.9c0,0,0-0.1-0.1-0.1C390.8,772.9,390.9,772.9,390.9,772.9z"/>
			<path class="st3" d="M390.3,771.6c0.1,0.4,0.3,0.8,0.5,1.2C390.6,772.4,390.5,772,390.3,771.6
				C390.3,771.6,390.3,771.6,390.3,771.6z"/>
			<path class="st3" d="M400,759.9c0.5,0,0.9,0,1.3,0.1l0.1-0.8c0,0-1.2-0.4-2.7-0.2l-0.1-0.4c0.5-0.1,0.8-0.5,0.8-1
				c0-0.6-0.5-1.1-1.1-1.1c-0.6,0-1.1,0.5-1.1,1.1c0,0.5,0.4,0.9,0.8,1l0.1,0.5c-1.6,0.2-2.9,0.9-2.9,0.9l0.2,0.7
				c1-0.3,1.8-0.5,2.6-0.6C399,760,399.5,759.9,400,759.9z"/>
			<path class="st3" d="M390.9,763.8L390.9,763.8c0-0.1,0.1-0.1,0.1-0.2l-0.3-0.2l-0.5-0.4c0,0-0.8,0.7-1.4,2c0,0-0.1-0.1-0.1-0.1
				c-0.2-0.2-0.4-0.3-0.8-0.3c0,0,0,0,0,0c-0.2,0-0.3-0.1-0.4-0.1c0.1-0.1,0.1-0.3,0.1-0.4c0-0.4-0.3-0.7-0.7-0.7
				c-0.4,0-0.7,0.3-0.7,0.7c0,0.4,0.3,0.7,0.7,0.7c0.1,0,0.1,0,0.2,0c0.2,0.2,0.4,0.3,0.8,0.3c0.2,0,0.3,0,0.4,0.2
				c0.1,0.1,0.1,0.3,0.2,0.4c0,0,0,0,0,0c-0.4,1.2-0.3,2.7-0.3,2.7l1.1,0c0-0.5,0.1-1.5,0.4-2.2
				C390.3,764.7,390.9,763.8,390.9,763.8z"/>
			<path class="st3" d="M409.2,760.8c-0.4,0-0.7,0.3-0.7,0.7c0,0.1,0,0.1,0,0.2c-0.2,0.2-0.3,0.4-0.3,0.8c0,0.2,0,0.3-0.2,0.4
				c-0.1,0.1-0.2,0.1-0.3,0.1c-0.8-1.1-1.8-1.8-1.8-1.8l-0.8,0.8c0.6,0.5,1.2,1.2,1.7,2c0.4,0.6,0.8,1.3,1.1,2l1-0.5
				c0,0-0.5-1.2-1.1-2.2c0.1,0,0.2-0.1,0.3-0.2c0.2-0.2,0.3-0.4,0.3-0.8c0-0.2,0.1-0.3,0.1-0.4c0.1,0.1,0.3,0.1,0.4,0.1
				c0.4,0,0.7-0.3,0.7-0.7C409.9,761.1,409.6,760.8,409.2,760.8z"/>
			<path class="st3" d="M406.5,770c-1.4,0.7-3.7,1.6-6.8,2c-1.2,0.2-2.4,0.2-3.4,0.2c-1.4,0-2.6-0.1-3.6-0.2
				c-1.1-0.1-1.9-0.3-2.4-0.4c0.1,0.4,0.3,0.8,0.5,1.2c0,0,0,0,0,0c0,0,0,0.1,0.1,0.1c0,0,0,0.1,0.1,0.1c0,0,0,0,0,0
				c0.3,0.6,0.7,1.1,1.1,1.5c1.4,1.6,2.9,1.8,2.9,1.8l0,0l0,0c0,0,1.3,0.4,3.3,0.4c1.9,0,3.9-0.4,5.7-1.2c1.3-0.7,2.6-1.7,3.3-2.7
				c0.5-0.7,0.8-1.5,1-2.3c0.1-0.4,0.2-1.1,0.1-1.8C408,769.2,407.4,769.6,406.5,770z"/>
			<path class="st3" d="M391.4,764.1c0,0.1-0.7,0.9-1.1,2.3c-0.4,1-0.3,2.4-0.3,2.5v0c0,0.3,0,0.7,0.1,1c0,0,0,0,0,0
				c0,0,0,0.1,0,0.1c0,0.2,0.1,0.5,0.1,0.7c0.7,0.2,4.9,1.2,9.5,0.5c2.9-0.4,5.1-1.3,6.5-1.9c1.1-0.5,1.8-1,2.1-1.2
				c-0.3-1-1-2.6-1.7-3.6c-2-2.9-4.2-3.6-5.3-3.8c-0.4-0.1-0.8-0.1-1.2-0.1c-0.4,0-1,0-1.7,0.1c-0.7,0.1-1.6,0.3-2.5,0.6
				c-1.3,0.5-2.6,1.2-3.5,2l0,0C392,763.4,391.7,763.7,391.4,764.1z M403.7,763.5c1,0,1.7,0.8,1.7,1.7c0,1-0.8,1.7-1.7,1.7
				c-1,0-1.7-0.8-1.7-1.7C401.9,764.2,402.7,763.5,403.7,763.5z M395.4,763.4c1.6,0,2.8,1.3,2.8,2.8c0,1.6-1.3,2.8-2.8,2.8
				c-1.6,0-2.8-1.3-2.8-2.8C392.6,764.6,393.9,763.4,395.4,763.4z"/>
		</g>
	</g>
	<g class="st0">
		<path class="st4" d="M214.5,86.5c0,0,37.3-22,44.7-6.3c5.3,11.3-34.8,25.5-34.8,25.5s4.7,11,4,19.7c0,0,50.4-2.3,45.3,21.7
			c-2.3,11-43.2,1.2-46.2,0.2c0,0-3.8,10.7-8.2,15c0,0,42,22.8,28.2,36c-13.1,12.5-40.8-18-41.8-20.2c0,0-9.3,9.3-14.2,11.7
			c0,0,28,28.7,14.7,38.2c-13.3,9.5-31-24.7-31.7-27.5c0,0-16.5,4.2-25.2,4.5c0,0,3.5,40.7-10.8,39.8s-7.3-40.2-7.3-40.2
			s-20-3.5-26.2-7c0,0-21.7,40.5-34.3,27s17.5-39,17.5-39s-14-6.2-19-19.7c0,0-44.7,24.5-51.2,7.5s42.7-27.5,42.7-27.5
			s-0.7-18.3,0-22c0,0-45.7-10.2-39.5-23.2s42.3,1.8,42.3,1.8s6-13.5,8.2-16.5c0,0-39.2-23.2-28.3-34.2s41.3,20.7,41.3,20.7
			S97,61.7,104.2,57.8c0,0-14.7-36.1-0.5-40.8c18-6,22.8,35.3,22.8,35.3s17.7-2.2,24.7-1.8c0,0-1.5-34.8,11-34
			c19.5,1.3,10.2,38.7,10.2,38.7s10.3,2.8,14.7,5.3c0,0,20.3-32.3,33.8-23.7S202,73.3,202,73.3S211.7,82.7,214.5,86.5z"/>
		<g class="st2">
			<path class="st5" d="M92.3,80.3C153,24.3,263.4,102.7,199,171C131.7,242.3,22.3,145,92.3,80.3z"/>
			<g>
				<g>
					<path class="st6" d="M131.6,137.7c-4.3-0.3-7.1,5.8-10.8,7.3c-1.9,0.8-5,2.9-5.1,5.2c-0.1,1.1,1.4,1.6,1.9,0.5
						c0.8-1.7,3.6-2.2,5-3.2c1.4-1,2.8-2,4.1-3.1c1.2-0.9,3.3-3.4,4.8-3.5C133.4,140.9,133.4,137.8,131.6,137.7z"/>
					<path class="st6" d="M133.4,143.6c-2.4,0.4-3.4,2.6-5.3,3.8c-1,0.6-1.8,1.4-2.5,2.3c-0.2,0.2-0.3,0.5-0.5,0.7
						c0.4,0,0.4,0,0.1,0.1c-0.2,0.1-0.3,0.4-0.6,0.4c-0.5,0.1-0.5,0.9,0,1c0.4,0,0.6,0.6,1.2,0.5c0.8-0.1,1.7-1,2.3-1.4
						c1.1-0.6,2.2-1,3.1-1.8c0.7-0.6,1.7-1.9,2.6-2C136.1,146.8,135.6,143.2,133.4,143.6z"/>
					<path class="st6" d="M183.9,108.6c-2.7,0.9-5,2.9-7.1,4.7c-1.2,1-2.3,2-3.6,2.8c-0.9,0.6-2,1.8-3,2.2c-1.1,0.5-0.6,2.2,0.6,2
						c2-0.2,4.3-1.6,5.9-2.7c2.8-2,5.6-4.2,8.7-5.6C187.6,111.1,186.2,107.8,183.9,108.6z"/>
					<path class="st6" d="M184.9,117.6c-0.2,0-0.3,0-0.5,0c0,0,0,0,0,0c-1.7,0.1-3.1,0.8-4.5,1.9c-0.5,0.4-1,0.9-1.5,1.3
						c-0.2,0.2-0.5,0.3-0.7,0.5c-0.1,0.1-0.2,0.2-0.2,0.2c0,0-0.1,0-0.2,0.1c-0.7,0.3-0.5,1.3,0.2,1.4c1,0.2,1.9,0.1,3.1-0.4
						c1.4-0.6,2.6-1.6,4.2-1.6C186.8,121,186.8,117.6,184.9,117.6z"/>
				</g>
				<path d="M172.1,107.7c-1.9,0.3-3.8,0.6-5.8,0.7c-0.3,0-0.6,0.1-0.9,0.1c2.5-2.3,4.9-4.6,7.2-7.1c0.6-0.7-0.9-2.8-1.6-2.2
					c-3.7,3.4-7.1,7-11.1,10.2c-0.9,0.7,0.3,2.7,1.3,2.6c2.1-0.2,4.1-0.7,6.2-0.9c1.9-0.2,3.9-0.4,5.8-0.7
					C174.5,110.2,173.2,107.5,172.1,107.7z"/>
				<path d="M129.8,127.3c-0.9-2.8-1.7-6.4-4.3-8.1c-0.6-0.4-1.4-0.6-2.1-0.4c-2.3,0.5-1.5,4.6-1.2,6.1c0.5,2.7,1.2,5.9,3.9,7.2
					c0.6,0.3,1.6,0.5,2.3,0.6C130.6,132.8,130.3,128.8,129.8,127.3z"/>
				<path class="st3" d="M145.7,129.9l12.9-3.7c0,0-0.1,5.8-2.9,7S145.8,132,145.7,129.9z"/>
				<path d="M158.6,124.1c-2.7,1.2-5.6,2.2-8.1,2.9c-1.5,0.4-2.9,0.9-4.4,1.3c-1,0.3-3,0.6-2.9,1.4c0.1,1.7,3,2.9,4.3,3.6
					c2.2,1.1,4.7,1.6,7.1,1.6c4.6,0,5.3-5,5.8-8.8C160.4,125.5,160.1,123.4,158.6,124.1z M148.9,131.5c-0.6-0.3-1.6-0.6-2.1-0.9
					c1.8-0.4,4.1-1,5.6-1.4c1.7-0.5,3.9-1.4,5.7-2c-0.4,1.7-1.4,3.8-2.6,4.8C154.2,133.3,150.2,132.2,148.9,131.5z"/>
			</g>
			<g>
				<path class="st6" d="M213,41.3c-9.4,3.9-16.2,14.6-20.7,23.3c-1,1.9,1,4.5,3.1,4c5.2-1.2,7.1-5.4,10.1-9.4
					c3.4-4.6,7.9-8.3,11.5-12.8C219.1,43.7,216,40,213,41.3z"/>
				<path class="st6" d="M268.1,141.4c-1.5-3.5-3.3-3.6-6.6-4.5c-3.5-1-6.7-2.3-10.3-2.8c-7.1-1-16.6-3.6-23.4-0.4
					c-2.4,1.1-2.3,4.3,0,5.4c5.5,2.6,12.8,2.8,18.8,3.9c5.8,1.1,11.3,2.9,17.1,4.1C266.9,147.6,269.2,144.1,268.1,141.4z"/>
				<path class="st6" d="M242.2,189.7c-3.4-4.6-8.2-7.6-12.5-11.2c-4.8-3.9-9.1-7.6-14.6-10.6c-3.1-1.7-5.4,3-2.9,5.1
					c8.6,7.1,15.7,15.6,24.9,21.9C240.5,197.3,244.8,193.2,242.2,189.7z"/>
				<path class="st6" d="M203.4,220.5c-1.2-4.7-3.9-8.6-6.6-12.6c-3.2-4.7-6.7-9.4-10.4-13.7c-2.4-2.9-7.8-0.1-5.9,3.5
					c2.3,4.4,5,8.4,7.6,12.6c2.7,4.3,5.1,9.4,8.6,13C199,225.7,204.4,224.5,203.4,220.5z"/>
				<path class="st6" d="M143.2,203.8c-0.8-2.6-4.9-2.4-5.8,0c-1.6,4.9-1.9,10.2-2.6,15.3c-0.7,4.9-1.7,10.6,0.6,15.1
					c1.3,2.5,4.6,2.5,5.9,0c2.3-4.6,1.6-10.7,2.1-15.7C143.9,213.6,144.6,208.6,143.2,203.8z"/>
				<path class="st6" d="M95.3,190c-0.1,0-0.2,0-0.3-0.1c-1.9-0.4-3.6,1.2-4.3,2.8c-0.2,0.4-2.6,2.5-3.4,3.3
					c-1.8,1.8-3.3,3.9-4.9,5.9c-3.3,4-6.8,7.8-7.8,13c-0.7,3.7,4,5.1,6.5,3.3c4.9-3.5,8.4-9.9,12.2-14.6c2-2.5,6.4-6.4,5.6-10.1
					C98.6,191.8,97.1,190.4,95.3,190z"/>
				<path class="st6" d="M60.1,154.1c-5.2-0.9-11.7,3.8-16.3,6c-3,1.5-6.1,2.6-9.3,3.4c-3.3,0.8-5.9,0.8-8.3,3.5
					c-1.3,1.5-0.6,3.5,0.6,4.7c4.1,3.9,11.4,0.7,15.8-1.1c6.4-2.5,12.2-6.4,18.3-9.6C64.3,159.4,63.8,154.7,60.1,154.1z"/>
				<path class="st6" d="M65.8,111.8c-1.5-4.7-8.6-4.9-12.6-5.9c-3.9-1-7.7-1.8-11.6-2.9c-3.6-1-7.5-2.2-11.1-1.8
					c-2.6,0.2-4,3.7-2.3,5.6c4.4,5,12.2,6.4,18.5,7.8c5.3,1.2,10.6,2.7,16.1,2.4C65.5,116.9,66.5,114,65.8,111.8z"/>
				<path class="st6" d="M75.8,72.2c-2.4-2.6-4.8-5.2-7.3-7.7c-3.8-3.7-8.3-8.2-13.6-9.1c-4.1-0.7-6.1,4.1-4.1,7.1
					c2.2,3.3,6.6,5.3,9.7,7.7c1.9,1.6,3.7,3.3,5.6,5c2.3,2,4.7,3.2,7.2,4.7c1.9,1.1,4,0.3,4.5-1.9C78.4,75.7,77.4,73.9,75.8,72.2z"
					/>
				<path class="st6" d="M116.5,36.5c-1.6-4.3-2.8-12-7.8-13.7c-3.5-1.3-8,2.3-6,6.1c1.9,3.6,3.1,7.7,4.7,11.5
					c2,4.9,3.2,10.5,6.1,15c1.2,1.9,3.8,1,4.6-0.6C121.2,49.2,118.6,41.9,116.5,36.5z"/>
				<path class="st6" d="M164.7,23.2c-1.3-0.9-3.5-1.2-4.8,0c-3.9,3.8-1.9,9.5-1.8,14.4c0.1,5.2-1,12.5,1.4,17.2
					c1.3,2.5,4.3,2.3,5.7,0c2.7-4.8,2.6-11.8,2.8-17.2C168,32.9,169.1,26.4,164.7,23.2z"/>
				<path class="st6" d="M250.5,79.4c-5.9,0.7-11.6,3.1-17,5.5c-2.8,1.2-5.4,2.7-8,4c-1.6,0.8-3.5,2.5-5.2,3c-2.5,0.8-2.8,4-1.5,5.9
					c0.5,0.7,1.5,1.4,2.4,1.4c3.9,0.2,8.8-3.5,12.2-5.1c6.5-3.1,13.7-4.5,19.9-8.2C256.5,83.9,253.8,79,250.5,79.4z"/>
			</g>
		</g>
	</g>
	<g class="st0">
		<path class="st4" d="M390.3,21c6.7,0,21.3,17.3,21.3,17.3s12.7-12,19.3-12S447,47,447,47s18.7-13.3,24.7-10.7s7.3,28,7.3,28
			s29.3-4,32.7,3.3c3.3,7.3-4,28-4,28s25.3,13.3,26.7,22c1.3,8.7-12.7,23.3-12.7,23.3s13.3,14,13.3,17.3c0,3.3-20.7,18-20.7,18
			s8,26.7,6.7,30.7s-24.7,4.7-24.7,4.7s-4.7,25.3-8.7,27.3s-26-10-26-10s-10.7,26-16,26.7c-5.3,0.7-20-18-20-18S415,260.3,407,259
			c-8-1.3-16-20.7-16-20.7S373,257,366.3,255c-6.7-2-8-26-8-26s-28,12.7-31.3,9.3c-3.3-3.3-3.3-30-3.3-30s-28.7-4.7-30-8
			c-1.3-3.3,9.3-28.7,9.3-28.7s-15.3-18-15.3-24s18.7-16.7,18.7-16.7s-20-16-18.7-22c1.3-6,32.7-11.3,32.7-11.3s-12.7-26.7-8-30.7
			c4.7-4,33.3,2.7,33.3,2.7s-1.3-30.7,4.7-33.3s25.3,13.3,25.3,13.3S381.7,21,390.3,21z"/>
		<g class="st2">
			<path class="st5" d="M403.7,71.7c37.4-0.5,93,15.9,84,87.3c-8.7,68.7-124,62.7-150,16.7C316.5,138.2,351,72.3,403.7,71.7z"/>
			<g>
				<g>
					<path class="st6" d="M418.2,66.6c-1.6-0.2-2.4-1.6-1.7-3.1l13.7-28.8c0.7-1.5,1.5-1.4,1.9,0.2l6.1,31.3
						c0.3,1.6-0.8,2.8-2.4,2.6L418.2,66.6z"/>
				</g>
				<g>
					<path class="st6" d="M445.6,73.4c-1.5-0.7-1.8-2.3-0.7-3.5l21.8-23.3c1.1-1.2,1.9-0.8,1.7,0.8l-3.8,31.7
						c-0.2,1.6-1.6,2.4-3.1,1.7L445.6,73.4z"/>
				</g>
				<g>
					<path class="st6" d="M472.4,88.9c-1.1-1.2-0.8-2.8,0.7-3.4l29.1-12.9c1.5-0.7,2.1,0,1.3,1.4l-15.8,27.7
						c-0.8,1.4-2.4,1.6-3.5,0.4L472.4,88.9z"/>
				</g>
				<g>
					<path class="st6" d="M490.2,111.8c-0.2-1.6,1-2.7,2.6-2.4l31.3,6.1c1.6,0.3,1.7,1.1,0.2,1.9L495.5,131
						c-1.5,0.7-2.9-0.1-3.1-1.7L490.2,111.8z"/>
				</g>
				<g>
					<path class="st6" d="M494.2,145.2c0.2-1.6,1.5-2.4,3-1.8l29.1,13c1.5,0.7,1.4,1.5-0.2,1.9l-31.2,6.8c-1.6,0.4-2.8-0.7-2.6-2.3
						L494.2,145.2z"/>
				</g>
				<g>
					<path class="st6" d="M490.6,175.3c0.9-1.4,2.5-1.5,3.5-0.2l20.5,24.5c1.1,1.3,0.6,2-1,1.6l-31-7.6c-1.6-0.4-2.2-1.9-1.3-3.3
						L490.6,175.3z"/>
				</g>
				<g>
					<path class="st6" d="M474.8,197.9c1.4-0.9,2.9-0.3,3.3,1.3l8,30.9c0.4,1.6-0.3,2.1-1.6,1L459.8,211c-1.3-1-1.2-2.6,0.2-3.5
						L474.8,197.9z"/>
				</g>
				<g>
					<path class="st6" d="M449.5,212c1.6-0.2,2.7,1,2.4,2.6l-6.6,31.2c-0.3,1.6-1.2,1.7-1.9,0.2l-13.2-29c-0.7-1.5,0.1-2.9,1.7-3.1
						L449.5,212z"/>
				</g>
				<g>
					<path class="st6" d="M419.9,215.1c1.6,0.1,2.5,1.5,1.8,3l-12.3,29.4c-0.6,1.5-1.5,1.5-1.9-0.1l-7.5-31
						c-0.4-1.6,0.6-2.8,2.3-2.7L419.9,215.1z"/>
				</g>
				<g>
					<path class="st6" d="M389.3,213.1c1.6,0.5,2.1,2,1.2,3.3l-18.2,26.1c-0.9,1.4-1.7,1.1-1.8-0.5l-0.8-31.9c0-1.6,1.2-2.6,2.8-2.1
						L389.3,213.1z"/>
				</g>
				<g>
					<path class="st6" d="M361.3,204.5c1.4,0.9,1.5,2.5,0.2,3.5l-24.8,20.1c-1.3,1-2,0.6-1.6-1l8.1-30.8c0.4-1.6,1.9-2.2,3.3-1.3
						L361.3,204.5z"/>
				</g>
				<g>
					<path class="st6" d="M336.1,185.4c0.8,1.4,0.2,2.9-1.4,3.2l-31.2,6.7c-1.6,0.3-2-0.4-0.9-1.6l21.1-23.9
						c1.1-1.2,2.7-1.1,3.5,0.3L336.1,185.4z"/>
				</g>
				<g>
					<path class="st6" d="M326.1,159.2c-0.1,1.6-1.4,2.5-3,1.9l-29.7-11.7c-1.5-0.6-1.5-1.4,0.1-1.9l30.8-8.2
						c1.6-0.4,2.8,0.6,2.7,2.2L326.1,159.2z"/>
				</g>
				<g>
					<path class="st6" d="M329.1,129.2c-0.4,1.6-1.9,2.1-3.3,1.2l-26.5-17.8c-1.4-0.9-1.1-1.7,0.5-1.8l31.9-1.3
						c1.6-0.1,2.6,1.2,2.2,2.8L329.1,129.2z"/>
				</g>
				<g>
					<path class="st6" d="M341.5,101.3c-1,1.3-2.6,1.3-3.5-0.1l-17.9-26.4c-0.9-1.4-0.4-2,1.1-1.5L351.3,84c1.6,0.6,2,2.1,1,3.4
						L341.5,101.3z"/>
				</g>
				<g>
					<path class="st6" d="M362.2,77.4c-1.5,0.8-2.9,0.1-3.1-1.6l-5.2-31.5c-0.3-1.6,0.5-2,1.7-0.9l22.8,22.3
						c1.2,1.2,0.9,2.7-0.5,3.5L362.2,77.4z"/>
				</g>
				<g>
					<path class="st6" d="M388.7,66.6c-1.6,0.3-2.8-0.8-2.5-2.4l4.4-31.6c0.2-1.6,1.1-1.8,1.8-0.3l15.2,28c0.8,1.5,0.1,2.9-1.5,3.2
						L388.7,66.6z"/>
				</g>
			</g>
			<g>
				<path d="M389.2,130c0-4.5-1.5-11.8-8-9.6c-7.4,2.5-7.1,27.4,1.3,26.2C389.1,145.7,389.2,136.6,389.2,130z"/>
				<path d="M427.4,121.7c-4.4-2.2-7.4,1.7-8.1,5.5c-0.6,3.6-2.4,17.5,3,19c6.7,1.9,7.3-5,8-10.7
					C430.7,132.6,431.4,123.1,427.4,121.7z"/>
				<path d="M415.1,150.2c-0.1-0.8-1.2-1.1-1.6-0.4c-0.3,0.4-0.1,0.9,0,1.4c0,0.3,0,0.6,0,0.9c-0.1,1.6-0.3,3-1.5,4.3
					c-0.4,0.4-0.8,0.7-1.3,1c-1.7,0.8-4.1,0.6-5.9,0.5c-1.4,0-2.7-0.2-4.2-0.5c-3.8-0.8-3-3.7-3.3-6.2c0-0.3-0.4-0.6-0.7-0.5
					c-0.2,0-0.3,0.1-0.5,0.2c-0.4,0.4-0.3,1.1-0.2,1.6c0,1.6-0.1,2.9,0.6,4.3c1.2,2.3,4.5,2.7,6.8,3c2.5,0.2,7.2,0.8,9.2-1.2
					C415.1,156.2,415.4,153.6,415.1,150.2z"/>
				<path class="st6" d="M442.2,153c0.2-1.3-0.3-2.6-1.8-3.6c-2.7-1.8-6-2.2-8.9-1.5c-0.6,0.1-1.1,0.2-1.6,0.3
					c-2.8,0.5-5.1,2.4-6.3,4.9c-2.3,4.8,1.5,9.3,6.1,9.6c1.3,0.4,2.6,0.5,3.9,0.4c2.3-0.1,4.6-1.3,6.2-3c0,0,0,0,0,0
					c0.6-0.5,1.1-1.1,1.5-1.8c0.5-0.8,0.9-1.6,1.1-2.4C442.6,155.1,442.5,154,442.2,153z"/>
				<path class="st6" d="M387,154.9c0.6-3.1-1.4-4.4-4.1-5.5c-0.3-0.1-0.7-0.3-1-0.4c-0.1-0.2-0.3-0.3-0.5-0.3
					c-0.5,0-1.1-0.1-1.6-0.1c-0.4,0-0.9-0.1-1.3-0.1c-2,0-4,0.2-5.8,1.4c-1.4,1-2.4,2.2-2.8,3.7c-0.9,1.7-1.4,4.1-0.7,5.7
					c1.3,2.8,4,3.5,6.8,4c0.4,0.1,0.8,0.1,1.2,0.1c1,0.2,2.1,0.3,3.2,0.2C384.8,163.2,388.1,158.7,387,154.9z"/>
			</g>
		</g>
	</g>
	<g class="st0">
		<path class="st4" d="M787.7,125.2c-1.7-6.9-7.8-10.1-25.3-16.3c-0.6-0.2-1.2-0.4-1.8-0.6c0.9-1,1.7-2,2.6-3
			c4.1-5,7.3-9.2,9.4-12.5c5.4-8.6,5.6-15.5,0.6-20.5c-3.7-3.7-8.7-4.2-12-4.2c-6.1,0-15.6,1.8-23.7,3.7c0.1-1.6,0.2-3.3,0.2-4.9
			c0.8-18.2,0.4-25.5-6.6-29.3c-1.8-1-3.7-1.5-5.8-1.5c-2.4,0-6.3,0-28.4,12.3c0-0.3-0.1-0.5-0.1-0.8c-1.9-9.6-4.5-22.9-15.9-22.9
			c-6.1,0-10.7,3.6-22.3,17.7c-0.6,0.7-1.2,1.5-1.8,2.2c-0.3-0.4-0.6-0.9-1-1.4c-10.2-14.1-13.9-17.9-20.3-17.9l-1.4,0l-1.3,0.3
			c-8.2,2-9.7,9.8-11.5,22.7c-9.4-6.7-13.2-6.7-15.4-6.7c-2.4,0-4.7,0.6-6.7,1.8c-7,4.3-7.6,12.8-6.2,27c0,0.4,0.1,0.7,0.1,1
			c-1.7-0.1-3.4-0.2-5-0.2c-3.9,0-14.3,0-18.2,8.5c-1.1,2.4-3.2,6.9,2.2,19.6c-5.8,1.4-12.8,4.4-14.4,12.1
			c-1.3,6.6,2.5,12.1,7.8,16.9c-7.4,4.6-12,8.7-12,15.1c0,7.9,6.6,11.8,17.5,17.1c-11,13.3-9.3,18.9-8.4,21.9
			c2.7,9.1,12.9,11.1,24.3,11.5c-0.4,0.9-0.7,1.8-1.1,2.6c-6.2,15.3-9.5,25.1-1.7,31.3c2.1,1.7,4.8,2.6,7.6,2.6
			c2.5,0,6.6,0,23.3-10.5c0,0.4,0.1,0.8,0.1,1.3c0.5,5,1.1,8.9,1.6,11.8c0.6,3.4,2.6,13.8,12.6,13.8c5.5,0,9.2-3.2,14.9-10.7
			c3.3,8.7,7,15.3,14.9,15.3c6.6,0,10.6-4.3,19.7-17.9c6.7,11.2,10.5,15.8,17.3,15.8c1.4,0,2.7-0.2,4-0.7c5.5-2.1,7.5-5.7,14.4-25.7
			c0.6-1.6,1.1-3.3,1.6-4.8c16.2,9.9,21,9.9,23,9.9c0,0,0,0,0,0c2.4,0,4.7-0.7,6.7-1.9c8-5.1,6.5-15.2,3-31.3c-0.4-2-0.9-4-1.3-5.9
			c1.5-0.1,3-0.3,4.5-0.5c16.3-1.8,24.3-3.5,27.1-11.2c2.9-8.1-3-14.6-13-24.5c-0.8-0.8-1.7-1.7-2.5-2.5c1.5-0.8,3-1.6,4.5-2.5
			C779.5,141.6,790.3,135.6,787.7,125.2z"/>
		<g class="st2">
			<path class="st5" d="M656.2,63c0,0,20.6-27.4,24.6-27.4s7.7,30.1,7.7,30.1s34.4-20.3,37.2-18.7c2.8,1.5-0.3,39-0.3,39
				s36-10.1,40-6.1S741,113.4,741,113.4s35,10.8,36,14.4c0.9,3.7-32.6,20-32.6,20s25.5,22.4,24.3,25.8s-35,5.5-35,5.5
				s9.5,35.6,6.1,37.8c-3.4,2.2-29.8-15.7-29.8-15.7s-11.4,36.3-13.8,37.2c-2.5,0.9-16.9-26.1-16.9-26.1s-17.2,28.3-20.3,28.3
				s-11.4-28.9-11.4-28.9s-15.7,24.3-18.4,24.3s-4.9-35.3-4.9-35.3s-30.4,21.2-33.5,18.7s12.9-36.6,12.9-36.6s-29.2,1.8-30.7-3.4
				c-1.5-5.2,16.3-22.4,16.3-22.4s-24.9-10.8-24.9-13.5s20.9-13.8,20.9-13.8s-17.8-11.4-16.9-16c0.9-4.6,20.6-5.2,20.6-5.2
				s-11.4-19.4-9.2-24c2.2-4.6,26.1-0.3,26.1-0.3s-4.9-28.9-0.9-31.3s24.9,16.9,24.9,16.9s3.1-32.9,5.5-33.5
				C637.8,35.7,656.2,63,656.2,63z"/>
			<path class="st6" d="M605.8,84.2c25.5-27.6,125.4-40.6,138.3,43c11.1,71.9-68.3,97.8-107.6,80.5
				C586.1,185.7,568.3,124.8,605.8,84.2z"/>
			<g>
				<path d="M625.1,116c-5.7-1.4-10.4,0.3-13.8,3.9c-0.2-0.4-0.4-0.8-0.7-1.1c-0.6-0.7-1.2-0.9-2.1-0.9c-1.2,0-1.7,1.4-1.3,2.4
					c0.2,0.4,0.4,0.8,0.8,1c-0.4-0.3,0,0,0,0.1c0.1,0.1,0.3,0.5,0.1,0.1c0.2,0.3,0.4,0.6,0.6,0.9c0.1,0.2,0.2,0.3,0.4,0.4
					c-0.2,0.4-0.5,0.8-0.7,1.2c-0.3-0.2-0.7-0.3-1-0.5c-0.5-0.3-1-0.5-1.6-0.4c-0.4,0.1-0.7,0.2-1,0.4c-0.2,0.1-0.8,0.6-0.2,0.2
					c-0.4,0.3-0.7,0.9-0.6,1.4c0-0.5,0-0.4,0,0.2c0,0.2,0.1,0.4,0.2,0.6c0.3,0.6,0.8,1,1.5,1.3c0.6,0.3,1.2,0.5,1.8,0.7
					c0.7,0.2,1.4,0.1,1.9-0.2c0.3-0.1,0.6-0.4,0.8-0.8c1.1-2.4,2.3-4.3,4.3-6c2.9-2.4,5.7-2.3,9-2.1c6.6,0.3,10.7,7.1,11.1,13.1
					c0.1,1.4,2.5,1.4,2.5,0C637.2,124.5,632.3,117.7,625.1,116z"/>
				<path d="M670.9,122.6c5.8,0.7,9.6,3.8,11.7,8.4c0.3-0.3,0.6-0.6,1-0.8c0.8-0.4,1.5-0.4,2.3-0.1c1.1,0.4,1.1,1.9,0.5,2.7
					c-0.3,0.3-0.7,0.6-1.1,0.7c0.4-0.2,0,0,0,0c-0.1,0-0.4,0.3-0.1,0c-0.3,0.2-0.6,0.4-0.9,0.6c-0.2,0.1-0.3,0.2-0.5,0.3
					c0.1,0.4,0.2,0.9,0.3,1.3c0.4,0,0.8-0.1,1.1-0.2c0.6-0.1,1.1-0.1,1.6,0.2c0.3,0.2,0.6,0.4,0.8,0.7c0.1,0.2,0.5,0.8,0.1,0.2
					c0.3,0.5,0.3,1.1,0.1,1.6c0.2-0.5,0.1-0.4-0.1,0.2c-0.1,0.2-0.2,0.4-0.4,0.5c-0.5,0.5-1.1,0.7-1.8,0.7c-0.6,0-1.3,0.1-1.9,0.1
					c-0.7,0-1.3-0.3-1.7-0.9c-0.3-0.2-0.5-0.6-0.5-1c-0.2-2.6-0.7-4.8-2-7.1c-1.9-3.2-4.5-4.1-7.7-5.1c-6.3-2-12.5,3-14.9,8.5
					c-0.6,1.3-2.8,0.5-2.4-0.9C656.6,126.5,663.6,121.7,670.9,122.6z"/>
				<path d="M664.1,153.6c-1.2-0.5-2.5-0.6-3.7-1.2c0,0-0.1-0.1-0.1-0.1c-0.1-0.1-0.1-0.1-0.2-0.2c-0.2-0.3-0.6-0.5-1-0.5
					c-0.2-0.1-0.4-0.2-0.5-0.4c-0.3-0.2-1.6-1.1-1.1-0.3c-0.2-0.4-0.8-0.6-1.2-0.3c-0.1,0.1-0.2,0.2-0.3,0.3c0,0-0.1,0.1-0.1,0.2
					c-0.2,0.3-0.2,0.7,0.1,1.1c0.2,0.3,0.5,0.7,0.8,1c-4.5,3.9-9.1,6.3-15.5,5.8c-3.4-0.3-6.4-0.7-9.7-1.5c-1.4-0.3-1.6-0.5-2.6-1
					c-0.6-0.2-0.7-0.2-0.6-0.2c-1.3-0.7-2.7,0.9-1.8,2.2c2.9,4.1,11.2,4.2,15.9,4.7c6.1,0.7,14.2-2.2,17.9-7.4
					c1.2,0.5,2.4,0.8,3.5,0.6C665.1,156.2,665.5,154.2,664.1,153.6z"/>
			</g>
		</g>
	</g>
	<g class="st0">
		<path class="st4" d="M249.3,372.6c-0.4-6.1-3.6-10.5-7-13.8c3.3-4.7,4.3-10.3,2.8-15.8c-2.2-8.1-8.7-12.6-14.3-15.6
			c1.1-5.2,1.6-11.9-2.3-18.2c-3.5-5.6-9.5-8.8-16.3-8.8c-0.3,0-0.5,0-0.8,0c-0.7-5.6-2.5-12.2-8.7-16.6c-3.1-2.2-6.9-3.4-10.9-3.4
			c-4.7,0-9.2,1.6-13.3,3.4c-3.6-6.1-8.9-13-18.4-13c-0.4,0-0.7,0-1.1,0c-7.2,0.5-11.9,4.9-14.9,8.4c-2.9-3.5-7.6-7.4-14.6-7.4
			c-0.3,0-0.6,0-0.9,0c-9,0.5-14.1,6.5-17.1,11.1c-3.6-1.6-7.8-3.1-12.3-3.1c-2.5,0-5,0.5-7.2,1.4c-7.6,3.1-10.8,9.9-12.8,15.1
			c-1.7-0.3-3.5-0.6-5.5-0.6c-5,0-9.6,1.6-13.4,4.7c-8,6.5-9.3,15.4-9.9,20.8c-4.7,1.1-11.7,3.7-15.9,12.3
			c-4.7,9.4-1.6,18.3,0.8,23.9c-4.7,3.2-11,8.8-11.4,18.7c-0.4,10.6,6.6,17.1,11.8,21.1c-3.3,5.9-7.5,14.9-3.3,24.6
			c3.5,8.1,10.6,11.5,16.7,13.3c-0.4,1.3-0.7,2.6-0.9,4c-1.3,8.2,1.9,15.6,8.3,19.8c3.4,2.2,7.3,3.4,11.3,3.4c1.9,0,3.6-0.2,5.2-0.6
			c1.2,6,4.4,13.4,13.8,16.5c2.2,0.7,4.5,1.1,6.8,1.1c5.5,0,9.9-2,13.6-4.3c3.3,5,8.5,10.3,17,10.3c0.3,0,0.7,0,1,0
			c8-0.4,13-5.5,16.3-10.1c4.5,4.2,9.6,8.3,16.7,8.3c1.9,0,3.9-0.3,5.7-1c6-2.1,9.3-6.7,11.4-11.2c3.3,2.5,7.3,4.5,12.4,4.5
			c1.9,0,3.7-0.3,5.5-0.9c11.1-3.7,12.5-15.3,13.2-21.7c0.4,0,0.7,0,1.1,0c0,0,0,0,0,0c7.3,0,13.7-3.5,17.9-9.7
			c5.1-7.6,4.4-15.5,3.6-20.5c0,0,0,0,0.1,0c4.3-2.6,10.2-6.3,13.6-13c3.9-7.8,1.5-14.6-1.3-19.2
			C245.2,386.5,249.8,380.6,249.3,372.6z"/>
		<g class="st2">
			<path class="st6" d="M129.2,286.2c4.7-0.2,7,11.7,14.7,11c7.7-0.7,11-11.7,16-12c5-0.3,9.3,15,13,16c3.7,1,16.7-9,21.3-5.7
				c4.7,3.3,1.7,16,5.7,19.7c4,3.7,13-3.7,16.3,1.7c3.3,5.3-3.3,15-1.3,18s14.7,6,16.3,12c1.7,6-9.7,7.3-9,12.3
				c0.7,5,12.3,9,12.7,14.3c0.3,5.3-10.3,10.7-11.3,15.3s8.7,9,6,14.3c-2.7,5.3-11,7.7-14.7,12c-3.7,4.3,3,13-1.7,20
				c-4.7,7-11,0-17,3.7s-2.7,20.3-7.7,22s-12-11.7-18-10s-7,16-11.7,17.7c-4.7,1.7-13.7-13-19.7-12.7s-9,14.3-15,14.7
				c-6,0.3-8.3-14.3-13.3-15.3s-11.7,11.7-19.7,9c-8-2.7-1.7-15.7-7.7-20c-6-4.3-12.7,6.7-19.3,2.3c-6.7-4.3,5.7-18,2-21.7
				c-3.7-3.7-17.7-2-20.7-9s7.3-16.3,7-22c-0.3-5.7-14.7-9.3-14.3-17.3c0.3-8,12.7-9,13.3-15c0.7-6-8-14.3-4.3-21.7
				c3.7-7.3,11-3,15-8s0.3-14.9,7-20.3c5.3-4.3,12.7,2.7,17.7,0c5-2.7,5.3-15,10.3-17s14.9,6.1,18.3,5.3
				C121.8,298.5,122.8,286.5,129.2,286.2z"/>
			<path class="st5" d="M126.7,302.3c42.2-7.5,93.7,15.6,92.4,69c-1.3,53.4-33.4,74.9-87.2,80C50,459.2,12.9,322.5,126.7,302.3z"/>
			<g>
				<path class="st7" d="M182.2,380.8c-0.7-3.2-3.5-7.4-4.4-8.7c-0.5-1-1.9-1.6-2.4-0.4c-3,7.7-14.3,14.5-22.9,16.1
					c-0.8-0.1-1.7,0.6-1.2,1.5c1.9,3.4,4.6,7.9,8.7,9.7c4.3,1.8,9.5,1.3,14-1.1c3.8-2,7.4-4.9,8.2-9.7
					C182.6,385.6,182.7,383.4,182.2,380.8z"/>
				<path class="st3" d="M158.8,388.3c0,0,13.2-4.6,16.5-11.5c0,0,1.3,8.4-3,11.2C165.5,392.6,158.8,388.3,158.8,388.3z"/>
				<path class="st7" d="M131.3,365.3c4.2-2.8,12.2,9,7,12.8C132.7,382.3,127.2,368.1,131.3,365.3z"/>
				<path class="st7" d="M166.2,345.9c4.2-2.8,12.2,9,7,12.8C167.5,362.9,162,348.7,166.2,345.9z"/>
			</g>
		</g>
	</g>
	<g class="st0">
		<path class="st4" d="M783.6,378.4c-0.7-0.8-1.5-1.5-2.4-2.1c3.1-2.9,4.4-6.7,4.5-10.2c0.2-6-2.2-9.7-4.2-11.8
			c-1.1-1.2-2.8-2.5-5.1-3.4c0.6-0.7,1-1.3,1.3-1.7c2.7-4,3.2-8.8,1.4-13.7c-2.5-6.6-7.5-10.6-13.7-11c0.1-0.3,0.2-0.5,0.3-0.8
			c1-3.1,1.7-9.3-4.3-15.6c-4.4-4.6-9-5.6-12-5.6c-1.2,0-2.4,0.2-3.6,0.4c0.3-1,0.4-2.1,0.4-3.2c0.1-3.3-0.8-9.6-8.3-14.3
			c-2.6-1.6-5.3-2.4-8-2.4c-2.2,0-4.2,0.5-6.1,1.4c-0.6-4.6-3.2-8.4-7.5-10.8c-2.8-1.5-5.6-2.3-8.3-2.3c-3.9,0-7.5,1.6-10.4,4.5
			c-0.2,0.2-0.4,0.5-0.6,0.7c-0.3-1-0.6-1.9-1.1-2.8c-1.5-3-5.5-7.9-14.5-8.1l-0.4,0c-7,0-11.1,3.1-13.3,5.7
			c-3.4-4-8.6-5.7-14.7-4.9c-8.6,1.2-12,6.5-13.2,9.5c0,0.1,0,0.1-0.1,0.2c0,0,0,0-0.1-0.1c-3-3.4-7-5.2-11.5-5.2
			c-2.3,0-4.8,0.5-7.3,1.5c-4.9,2-8.1,5.8-9,10.7c0,0.1,0,0.1,0,0.2c-1.9-1-4.1-1.6-6.6-1.6c-2.2,0-4.4,0.5-6.5,1.5
			c-7.6,3.6-9.1,9.4-9.3,12.6c-0.1,1.6,0,3.2,0.4,4.8c-1.6-0.6-3.2-0.8-4.9-0.8c-3.5,0-8.6,1.3-13,7.3c-5.3,7.2-3.9,13.4-2.6,16.5
			c0.1,0.3,0.2,0.5,0.4,0.8c0,0-0.1,0-0.1,0c-5.6,0-10.3,2.9-13,8c-3.8,7.2-1.7,12.7-0.1,15.3c0.9,1.5,2.1,2.8,3.5,3.9
			c-2.8,0.9-4.7,2.4-6,3.7c-2.1,2.1-4.5,5.9-4.5,12.3c0.1,5.8,2.3,10.5,6.1,13.5c-0.5,0.4-0.9,0.9-1.3,1.4
			c-2.1,2.4-4.3,6.8-3.1,13.4c1.1,6.5,4.8,11.1,10,13c-1,0.9-1.8,1.9-2.5,3c-1.7,2.6-4.1,8.2-0.7,15.9c2.2,5,6.4,8.1,11.4,8.7
			c-0.4,0.5-0.7,1-1,1.6c-2.3,4.2-2.3,9,0,13.5c2.9,5.7,7.8,9,13.5,9c0,0,0,0,0,0c1.4,0,2.8-0.2,4.2-0.6c-0.3,1-0.6,2-0.7,3
			c-0.4,3.3,0.1,9.6,7.5,14.8c3.3,2.3,6.6,3.4,10,3.5c1.2,2.9,3.5,6.1,8.3,8.5c2.8,1.4,5.5,2.1,8.2,2.1c0,0,0,0,0,0
			c2.4,0,4.7-0.6,6.8-1.6c1.3,3.2,4.5,7.8,12.2,9.5c1.2,0.3,2.4,0.4,3.6,0.4c0,0,0,0,0,0c3.2,0,6.1-1,8.5-2.9
			c2.2,3.6,5.7,6,10.2,6.8c1.1,0.2,2.2,0.3,3.3,0.3c0,0,0,0,0,0c3.9,0,7.3-1.2,9.9-3.6c2.4,1.7,5.4,2.6,8.6,2.6c0,0,0,0,0,0
			c1.6,0,3.3-0.2,5.1-0.7c5.1-1.3,8.2-3.8,10.1-6.3c2.3,1.4,4.8,2.2,7.6,2.2c1.1,0,2.3-0.1,3.4-0.4c7.5-1.7,10.4-6.3,11.6-9.4
			c2.1,1.2,4.4,1.9,7.1,1.9c0,0,0,0,0,0c3.1,0,6-1,8.7-2.9c7.2-5.1,7.8-11.4,7.5-14.7c0-0.3-0.1-0.7-0.1-1c1,0.2,2,0.3,3,0.3
			c0,0,0,0,0,0c3.1,0,8.9-1,13.3-8.1c3.8-6.1,3.2-11.2,2.1-14.4c6.6-0.4,11.8-4.8,14.1-11.8c1.3-4.1,1-8.2-0.9-11.6
			c2.5-1.9,4.5-4.8,5.7-8.3c2.6-7.5,0.1-12.6-1.6-15c0,0-0.1-0.1-0.1-0.1c4.6-2.5,7.6-7.3,8.2-13.5
			C787.6,384.1,785.4,380.5,783.6,378.4z"/>
		<g class="st2">
			<path class="st5" d="M667.9,308.7c54.3-0.6,76,45.8,76.6,76c0.7,33.2-18.1,76.6-80.8,71.8s-72.4-50.1-72.4-74.2
				S614.9,309.3,667.9,308.7z"/>
			<g>
				<path class="st5" d="M741.7,350.3c0,0,22.6-28.2,29-11.5C775.7,351.8,741.7,350.3,741.7,350.3z"/>
				<path class="st6" d="M746.2,366.8c0,0,31-17.5,30.5-1C776.3,378.8,746.2,366.8,746.2,366.8z"/>
				<path class="st5" d="M748.1,387c0,0,31.2-11.7,30,1.8C776.7,406.3,748.1,387,748.1,387z"/>
				<path class="st6" d="M745.2,405.3c0,0,32.5-6,27,10S745.2,405.3,745.2,405.3z"/>
				<path class="st5" d="M679,305.3c0,0-15.7-30.7,2.2-30.5C699.2,275.1,679,305.3,679,305.3z"/>
				<path class="st6" d="M698.7,309.2c0,0-1.3-35.6,13.2-27.5C723.2,288,698.7,309.2,698.7,309.2z"/>
				<path class="st5" d="M717.6,319c0,0,3.9-33.1,15.5-25.8C747.9,302.6,717.6,319,717.6,319z"/>
				<path class="st6" d="M733.5,333.8c0,0,9.6-31.6,21.3-19.4C766.4,326.7,733.5,333.8,733.5,333.8z"/>
				<path class="st5" d="M712.5,455.2c0,0,32.9,15,18.3,25.3C719.4,488.5,712.5,455.2,712.5,455.2z"/>
				<path class="st6" d="M698.1,460.1c0,0,24.6,25.8,8.4,29.3C693.9,492.3,698.1,460.1,698.1,460.1z"/>
				<path class="st5" d="M738.5,426.7c0,0,33.1-4.3,28.8,8.7C761.8,452.1,738.5,426.7,738.5,426.7z"/>
				<path class="st6" d="M728,443.7c0,0,33,1.6,24,15.9C743,473.9,728,443.7,728,443.7z"/>
				<path class="st5" d="M602.7,332c0,0-34.1-5.1-23.5-19.5C589.9,298,602.7,332,602.7,332z"/>
				<path class="st6" d="M617.4,318.2c0,0-29.7-19.6-14.8-26.7C614.4,286,617.4,318.2,617.4,318.2z"/>
				<path class="st5" d="M636.3,308.5c0,0-24.7-22.4-12-27.6C640.5,274.3,636.3,308.5,636.3,308.5z"/>
				<path class="st6" d="M657.6,304.2c0,0-20.1-26.2-3.4-28.6C670.9,273.2,657.6,304.2,657.6,304.2z"/>
				<path class="st5" d="M589,368.9c0,0-30.3,16.5-30.5-1.4C558.3,349.5,589,368.9,589,368.9z"/>
				<path class="st6" d="M592.4,349.1c0,0-35.5,2.2-27.9-12.4C570.6,325.1,592.4,349.1,592.4,349.1z"/>
				<path class="st5" d="M616.7,446.4c0,0-4.2,34.3-18.9,24C583.1,460.2,616.7,446.4,616.7,446.4z"/>
				<path class="st6" d="M602.6,432.1c0,0-18.8,30.2-26.3,15.5C570.4,436,602.6,432.1,602.6,432.1z"/>
				<path class="st5" d="M593.4,411.5c0,0-21.8,25.3-27.3,12.8C559.1,408.2,593.4,411.5,593.4,411.5z"/>
				<path class="st6" d="M588.5,390.3c0,0-25.7,20.8-28.5,4.2C557.1,377.8,588.5,390.3,588.5,390.3z"/>
				<path class="st5" d="M679.3,464.1c0,0,23.2,25.5,5.9,30C667.7,498.5,679.3,464.1,679.3,464.1z"/>
				<path class="st6" d="M665.2,464.9c0,0,13.1,33.1-3.1,30.4C649.2,493.1,665.2,464.9,665.2,464.9z"/>
				<path class="st5" d="M646.1,461.5c0,0,7.4,32.5-5.9,29.5C623.1,487.2,646.1,461.5,646.1,461.5z"/>
				<path class="st6" d="M628.7,456.4c0,0,1.5,33-13.6,25.4C600,474.2,628.7,456.4,628.7,456.4z"/>
			</g>
			<g>
				<path d="M633,368.4c5.6,0.2,5.3,20.4-3,18.7C622.4,385.6,624.8,368.1,633,368.4z"/>
				<path d="M675.8,373.8c6,0.9,3.9,17.8-3,17.2S669.5,372.9,675.8,373.8z"/>
				<path d="M668.6,407.4c-0.7-0.7-2-0.1-1.5,0.9c2.4,5-5.8,5.3-8.4,5.2c-4.3-0.3-7-4.1-7.2-8.1c-0.1-1.1-1.6-1.1-2-0.3
					c-1.6,3.2-4.4,5.1-7.9,5.7c-4.1,0.8-10.2-1.5-8-6.9c0.3-0.7-0.7-1.3-1.1-0.6c-2.2,3.7-0.1,8.2,4,9.2c5.2,1.2,10.3-0.3,13.4-4.2
					c1.3,4.3,5.2,7.4,10.1,7.3c2.1,0,6.3,0.2,7.9-1.6C669.6,412.1,670.5,409.3,668.6,407.4z"/>
				<path class="st6" d="M693.9,401.8c-2.3-3.3-6.4-4.9-10.7-3.2c-4.3,1.6-4.6,7.2-3,11.2c0.7,2.6,2.5,4.9,5.2,5.8
					c5.5,2,10.3-3,10.1-8.4C696,404.9,695.3,403,693.9,401.8z"/>
				<path class="st6" d="M627.4,400.9c-0.6-2.7-3.2-4.3-5.9-4.6c-1.3-1-3.1-1.7-4.6-0.7c-3.8,0.2-5.5,4.5-5.3,8.5
					c0.3,5.3,3.9,10,9.6,8.2c0.6-0.2,1.1-0.5,1.6-0.8c0.1,0,0.3-0.1,0.4-0.1c0.6-0.2,1.1-0.5,1.5-0.9
					C627.2,408.3,628,403.7,627.4,400.9z"/>
			</g>
		</g>
	</g>
	<g class="st0">
		<path class="st4" d="M278.6,655.2l-34.6-13.3l3-2.4c2.6-2.1,4-5.2,3.8-8.5c-0.2-2.7-1.4-5.2-3.4-6.9L279,612
			c4.8-1.8,7.5-7,6.2-12.1s-6.2-8.2-11.3-7.4l-31,4.8c1.4-3.2,1-6.9-1-9.8c-0.5-0.8-1.1-1.4-1.8-2l21.7-24.2
			c3.5-3.9,3.4-9.9-0.2-13.7c-3.6-3.8-9.6-4.2-13.7-0.9l-27.6,22.3c0-3.4-1.7-6.5-4.5-8.3l12.2-31c1.9-4.8-0.2-10.3-4.8-12.7
			c-4.6-2.4-10.3-0.9-13.1,3.5l-19.5,29.8c-1.5-1.7-3.5-2.9-5.8-3.4l-2.3-28.3c-0.4-5.1-4.5-9-9.6-9.3c-5.1-0.3-9.6,3.3-10.5,8.3
			l-4.9,27.4c-2-1.4-4.4-2-6.8-1.8l-7.7-27.9c-1.4-5-6.4-8.2-11.5-7.3c-5.1,0.9-8.8,5.6-8.3,10.8l2.3,29.2c-1.6-0.2-3.3,0.1-4.9,0.7
			c-0.1,0-0.2,0.1-0.3,0.1l-16.9-25.1c-2.9-4.3-8.5-5.7-13.1-3.3c-4.6,2.4-6.6,7.8-4.8,12.6l9.5,24.6c-2.9-0.3-5.9,0.8-8.1,2.9
			c0,0,0,0,0,0l-16.2-13.8c-4-3.4-9.9-3.2-13.7,0.5c-3.7,3.7-4.1,9.6-0.8,13.6l15.6,19.2c-1.7,0.8-3.2,2-4.3,3.6
			c-0.1,0.1-0.2,0.3-0.3,0.5l-24.2-9.5c-4.8-1.9-10.3,0.1-12.7,4.7c-2.4,4.6-1,10.2,3.3,13.1l24.1,16.2c-0.7,0.9-1.3,2-1.7,3.1
			l-27-0.9c-5.1-0.1-9.6,3.6-10.3,8.7c-0.8,5.1,2.4,9.9,7.4,11.3l26,6.9c-1,1.5-1.6,3.2-1.8,5c-0.3,3.9,1.7,7.6,5,9.5l1.3,0.7
			l-27.7,16.1c-4.3,2.5-6.2,7.8-4.3,12.5c1.9,4.7,6.9,7.3,11.7,6.1l28.1-6.6l-1.2,2.3c-1.9,3.7-1.3,8.2,1.5,11.3
			c1.2,1.3,2.7,2.3,4.3,2.8c-20.5,26.5-20.5,27.2-20.5,31c0,2.7,1.1,5.3,3,7.2c1.9,1.9,4.5,3,7.2,3c4.2,0,4.9,0,35-25.2
			c0.7,3.1,2.8,5.8,5.8,7.1c0.9,0.4,1.9,0.7,2.8,0.8l-10.9,28.7c-1.9,4.9,0.3,10.4,5.1,12.7c4.7,2.3,10.4,0.6,13.1-3.9l18.8-31.4
			c1.6,2.2,4.1,3.7,6.9,4.1c1.6,0.2,3.1,0,4.6-0.4l2.5,26.6c0.5,5.1,4.7,9,9.8,9.2c0.1,0,0.2,0,0.3,0c5,0,9.2-3.6,10-8.6l4.2-26.8
			c2,1.2,4.4,1.7,6.7,1.3c2-0.3,3.8-1.2,5.2-2.5l8,20.4c1.6,4.2,5.7,6.7,10,6.4c5.3-0.3,9.5-4.7,9.5-10.1c0-0.7-0.1-1.5-0.2-2.1
			l-4.2-27.3c1.5,0.8,3.2,1.2,4.8,1.2c0,0,0,0,0,0c4.7,0,8.6-3.2,9.8-7.5l24.7,16.4c1.8,1.2,3.8,1.7,5.8,1.7c5.5-0.1,10-4.6,10-10.1
			c0-2.9-1.2-5.5-3.2-7.4l-23.1-24.1l2.5-0.3c3.3-0.4,6.2-2.5,7.7-5.4c1.5-3,1.5-6.5-0.1-9.4l-0.9-1.7l34.1,3.8
			c5.1,0.6,9.8-2.7,11-7.7C286,662.1,283.3,657,278.6,655.2z"/>
		<g class="st2">
			<g>
				<path class="st5" d="M186.8,574.3l31.7-48.5l-22.5,57.3l9.7,10.6l48.5-39.2l-42.3,47.1l6.2,9.7l57.3-8.8l-55.5,21.1l2.2,20.7
					l52.9,20.3l-58.6-6.6l-8.8,20.3l39.2,41l-48.5-32.2l-10.1,7.9l7.9,52l-18.9-48l-15.9,1.8l-8.8,56l-5.3-55.5l-12.8-3.5l-33.5,56
					l22-58.2l-16.7-5.7c0,0-47.6,40.1-47.6,38.8c0-1.3,37.5-49.3,37.5-49.3l-9.7-13.7l-52.4,12.3l49.3-28.6l-1.8-14.1L28.6,621
					l55.1,1.8l2.6-7L39.2,584L93,605.2l5.7-7.9l-34.8-42.7l41.9,35.7l9.7-7l-20.7-53.8l32.6,48.5l10.1-3.1l-4.4-56.8l15.4,55.5
					l14.1-0.4l9.7-53.8l4.4,53.3L186.8,574.3z"/>
				<polygon class="st5" points="121.2,573.9 124.2,558 138.8,567.7 146.3,568.2 151.6,553.2 162.6,567.7 174,570.4 182.8,556.7 
					186.8,574.3 196.1,580.5 210.2,569 209.7,590.6 212.8,597.7 233.5,593.3 220.7,613.1 223.4,621 240.6,631.6 222.5,646.2 
					220.7,657.2 231.7,677.4 208.4,680.5 204.4,685.4 206.6,708.7 185.9,695.1 179.3,697.7 171.8,722.8 156.4,700.3 150.2,701.2 
					136.6,721.5 128.2,697.3 122.9,695.5 103.5,711.4 102.2,687.1 96,679.2 72.3,688 85,662.9 83.3,656.7 60.4,643.5 81.5,635.1 
					82.8,625.4 65.6,614.9 86.4,615.7 88.6,606.5 75.8,589.3 97.8,595 103.5,587.1 93.8,567.7 115,578.3 				"/>
			</g>
			<path class="st6" d="M147.6,565.2c60.5-2.2,82.8,38.2,81.7,74s-26.4,74-81.1,71.1s-74.6-38.2-72.8-72.3S99.4,567,147.6,565.2z"/>
			<g>
				<path class="st7" d="M158.8,621.6c-0.5-0.8-1.9-1-2.6-0.3c-0.2,0.2-0.4,0.3-0.5,0.5c-0.5,0.7,0,2,0.2,2.6c1.2,2.4,0.9,4,0.9,6.2
					c0,3.7-3.6,7.9-7.6,7.9c-4.3,0-6.1-1.4-9.2-4.1c-1-0.9-3.1-4.8-3.2-6c-0.2-1.8-3.5-1.3-3.1,0.7c0.7,3.6,3,6.9,5.5,9.4
					c3.4,3.3,8,4.2,12.6,3.5c3.6-0.6,7.3-4.6,8.2-7.6C160.9,630.6,161.2,625,158.8,621.6z"/>
				<path class="st7" d="M199.3,604.7c-0.5-0.8-1.9-1-2.6-0.3c-0.2,0.2-0.4,0.3-0.5,0.5c-0.5,0.7,0,2,0.2,2.6c1.2,2.4,0.9,4,0.9,6.2
					c0,3.7-3.6,7.9-7.6,7.9c-4.3,0-6.1-1.4-9.2-4.1c-1-0.9-3.1-4.8-3.2-6c-0.2-1.8-3.5-1.3-3.1,0.7c0.7,3.6,3,6.9,5.5,9.4
					c3.4,3.3,8,4.2,12.6,3.5c3.6-0.6,7.3-4.6,8.2-7.6C201.4,613.7,201.7,608.1,199.3,604.7z"/>
				<path class="st7" d="M193.6,655.5c-3.6,1.1-7.7,1.5-11.4,1.6c-1,0-2,0.1-3,0.2c0.6-0.3,1.2-0.6,1.7-0.9c4.3-2.1,6.5-4.8,9.4-8.5
					c1-1.3-0.9-3.3-2.1-2.1c-2.9,2.9-4.8,5.5-8.6,7.4c-3.5,1.8-7.5,4.5-11.4,4.8c-2.3,0.2-1.7,3.5,0.5,3.5c4.7-0.1,9.4-0.8,14.1-0.8
					c4.1-0.1,8.4-0.7,12.4-1.9C197.2,658.1,195.8,654.8,193.6,655.5z"/>
			</g>
		</g>
	</g>
	<g class="st0">
		<path class="st4" d="M522.7,645.8c1.6-3.5,2.1-7.4,1.4-11.3c-0.5-2.9-1.6-5.7-3.3-8.2c-0.3-0.5-0.7-1-1-1.4
			c0.1-0.1,0.1-0.2,0.2-0.2c1.4-1.8,2.4-3.9,3.1-6.2c1.2-4.2,0.8-8.7-1-12.8c0-0.1-0.1-0.1-0.1-0.2c-0.9-1.9-2.1-3.7-3.6-5.2
			c-0.2-0.2-0.5-0.4-0.7-0.7l-0.4-0.3c0,0-0.1,0-0.1-0.1l-0.1-0.1c-0.1-0.1-0.4-0.3-0.5-0.4c-0.2-0.1-0.4-0.3-0.6-0.5l-0.8-0.6
			c0,0,0,0,0,0c1.2-2.3,1.9-4.9,2.1-7.6c0-0.1,0-0.1,0-0.2c0.1-2.3-0.1-4.4-0.7-6.5c-0.7-2.5-2-4.8-3.6-6.7
			c-1.8-2.1-4.1-3.8-6.7-4.9c-0.1-0.1-0.3-0.1-0.4-0.2l-0.6-0.2c-0.4-0.2-0.9-0.3-1.3-0.4c-0.2-0.1-0.5-0.1-0.7-0.2l-2.1-0.5
			c-0.2,0-0.4-0.1-0.6-0.1c-0.6-5.4-3.4-10.4-7.8-13.8c-3.4-2.6-7.7-4-12-3.8c-0.3,0-0.6,0-0.8,0l-0.7,0.1c-0.6-1.9-1.5-3.6-2.7-5.3
			c-2.3-3.2-5.3-5.7-8.9-7.1c-4.2-1.7-9.1-1.8-13.4-0.3c-0.2,0.1-0.4,0.2-0.6,0.2l-0.1,0c-0.3,0.1-0.9,0.4-1.6,0.7
			c-0.2,0.1-0.5,0.2-0.7,0.4l-0.1,0.1c-1.2-3.4-3.4-6.5-6.1-8.7c-3.3-2.7-7.5-4.4-11.7-4.5c-3.6-0.2-7.3,0.7-10.5,2.5
			c-0.9-0.6-1.8-1.2-2.8-1.7c-2.8-1.5-6-2.3-9.2-2.3c-1.5,0-3,0.2-4.5,0.5c-0.4,0.1-0.7,0.2-1.1,0.3c-0.4,0.1-0.8,0.2-1.2,0.4
			l-0.5,0.2c-0.1,0-0.1,0.1-0.2,0.1c-0.5,0.2-1.1,0.5-1.9,0.9l-0.2,0.1c-1.2,0.6-2.2,1.3-3.1,1.9c-0.2,0.1-0.3,0.2-0.5,0.3
			c-1.4,1-2.6,2.2-3.8,3.5c-0.1-0.1-0.2-0.1-0.3-0.2c-0.1-0.1-0.3-0.2-0.4-0.2c-2.1-1.3-4.2-2.1-6.5-2.5c-4.2-0.8-8.8-0.2-12.7,1.7
			c-3.6,1.7-6.7,4.5-8.8,8c-0.1,0.2-0.3,0.4-0.4,0.7l-0.3,0.5c0,0,0,0.1,0,0.1c-0.3,0.5-0.5,1-0.7,1.5l-0.1,0.2c0,0,0,0.1,0,0.1
			c0,0,0,0.1,0,0.1c-0.3,0-0.5,0-0.8-0.1l-1.1-0.1c-0.3,0-0.6,0-0.9,0c-3.9,0.1-7.7,1.3-10.9,3.4c-3.6,2.4-6.4,6-7.8,10
			c-0.3,0.9-0.6,1.9-0.8,2.9c-0.1,0-0.1,0-0.2,0l-0.1,0c-0.3,0-0.7,0-1,0.1c-0.8,0.1-1.4,0.2-1.8,0.2l-0.2,0c-0.2,0-0.5,0.1-0.7,0.1
			c-4,0.9-7.8,3.1-10.6,6.1c-2.8,3.1-4.6,7-5.1,11.1c-0.1,0.8-0.2,1.6-0.2,2.4c-0.1,0.1-0.3,0.1-0.4,0.2c0,0-0.2,0.1-0.2,0.1
			c-0.5,0.2-1.4,0.7-2.4,1.5c-2.4,1.7-4.5,3.9-6.2,6.6c-1.8,2.7-2.9,5.8-3.4,9.1c-0.5,3.7-0.1,7.4,1.3,10.7c-1,0.9-1.9,1.8-2.7,2.9
			c-2,2.6-3.4,5.7-4.1,9c0,0,0,0.1,0,0.1c-0.6,3.3-0.4,6.7,0.5,9.7c0.8,2.7,2.1,5.2,3.7,7.3c0.2,0.3,0.4,0.5,0.6,0.7
			c-0.2,0.2-0.4,0.3-0.5,0.5c-0.5,0.5-1.2,1.2-1.9,2.1c-1.8,2.3-3.1,5.1-3.9,8.4c-0.7,2.7-0.8,5.5-0.3,8.7c0.4,3,1.5,6,3.2,8.7
			c1.3,2,2.9,3.8,4.9,5.3c-0.2,0.2-0.3,0.5-0.4,0.8l-0.7,1.3c-0.2,0.4-0.4,0.8-0.6,1.3l-0.1,0.1c-0.1,0.2-0.2,0.4-0.2,0.6l-0.3,0.7
			c-0.1,0.3-0.2,0.6-0.3,0.9c-0.1,0.4-0.2,0.8-0.3,1.3c0,0.2-0.1,0.3-0.1,0.5l-0.1,0.6c0,0.3-0.1,0.5-0.1,0.8
			c-0.4,4.5,0.6,8.9,3.1,12.8c0.1,0.1,0.1,0.2,0.2,0.3c0.3,0.5,0.7,0.9,1,1.4l0.1,0.1c0.2,0.3,0.5,0.6,0.8,0.9
			c0.2,0.3,0.5,0.5,0.8,0.8c0,0,0.1,0.1,0.1,0.1l0.4,0.3c0,0,0.1,0.1,0.1,0.1c0,0,0.1,0.1,0.1,0.1c0.3,0.3,0.6,0.6,1,0.8l0.1,0.1
			c0.1,0.1,0.3,0.2,0.4,0.3l0.4,0.3c0.4,0.3,0.9,0.6,1.3,0.9c0.5,0.3,1,0.6,1.6,0.9l0.3,0.1c0.7,0.4,1.8,0.9,3.3,1.4
			c0.2,0.1,0.4,0.1,0.6,0.2l1,0.3c0,0,0.1,0,0.1,0l0.5,0.1c0.6,0.2,1.3,0.3,1.9,0.4l0.6,0.1c0.6,0.1,1.4,0.2,2.4,0.2
			c0.4,1.6,0.9,3,1.6,4.4c1.1,2.3,2.7,4.4,4.8,6.4c0.3,0.3,0.6,0.5,0.9,0.8c2.4,1.9,4.9,3.2,7.5,3.8c1.4,0.4,2.9,0.6,4.4,0.7
			c0.1,0.2,0.1,0.4,0.2,0.5c1,2.9,2.7,5.5,4.8,7.6c2,2,4.4,3.6,7,4.7c0.1,0,0.2,0.1,0.3,0.1c3.3,1.2,6.8,1.6,10.2,1.1
			c0.2,0,0.5-0.1,0.7-0.1c0.4-0.1,1.2-0.2,2.2-0.6c0.3-0.1,0.6-0.2,0.8-0.3l0.2-0.1c1.5,2.9,3.7,5.4,6.5,7.2c3.1,2,6.7,3.2,10.4,3.3
			c0.1,0,0.2,0,0.3,0c3.4,0,6.8-0.9,9.9-2.7c0.3-0.1,0.5-0.3,0.7-0.5l0.7-0.5c0.1-0.1,0.3-0.2,0.4-0.3c0.8-0.6,1.4-1.1,1.7-1.5
			c0.1-0.1,0.1-0.1,0.2-0.2l0.5-0.4c0.2-0.1,0.3-0.3,0.5-0.5c0,0.1,0.1,0.1,0.1,0.2l0.3,0.5c0.6,0.9,1.2,1.7,1.6,2.1l0.1,0.1
			c0.2,0.3,0.4,0.5,0.7,0.8c1.4,1.5,3.1,2.8,4.8,3.7c2.8,1.5,5.9,2.3,9,2.3c1.3,0,2.7-0.1,4-0.4c4.1-0.9,7.9-3.2,10.7-6.6
			c0.3-0.4,1-1.2,1.7-2.3l0.1-0.2c0,0,0,0,0,0c0.2-0.3,0.4-0.7,0.6-1l0-0.1c0.1-0.2,0.2-0.4,0.3-0.6l0.6-1.3c2.2,1,4.5,1.6,6.9,1.8
			c0,0,0.1,0,0.1,0c2.9,0.2,5.8-0.2,8.5-1.2c0.1,0,0.2-0.1,0.3-0.1c3-1.2,5.6-3.1,7.7-5.4c1.4-1.6,2.6-3.6,3.4-5.7
			c2.7,0.7,5.6,0.7,8.3,0.3c3.3-0.5,6.4-1.9,8.9-3.8c3.4-2.6,5.8-6.2,6.8-10.4c0.1-0.4,0.2-0.8,0.3-1.3c2.7-0.2,5.4-0.9,7.8-2.2
			c3.7-1.9,6.6-4.8,8.4-8.3c2-3.8,2.6-8.5,1.6-12.8c2.3-1,4.4-2.5,6.1-4.3c2.7-2.8,4.6-6.3,5.4-10.2c0.7-3.6,0.5-7.3-0.7-10.8
			c0-0.1-0.1-0.2-0.1-0.2l0-0.1c-0.3-0.7-0.6-1.7-1.2-2.9c-0.5-1-1-1.8-1.3-2.3l-0.1-0.2c-0.1-0.2-0.2-0.4-0.3-0.5
			c-0.1-0.2-0.3-0.4-0.4-0.6C519.3,651.3,521.4,648.7,522.7,645.8z"/>
		<g class="st2">
			<g>
				<path class="st6" d="M480,566.8c-9.2,1.6-18.4,9.1-22.9,17.3c-1.1,2-0.2,5.4,1.8,6.6c5.3,3.2,9.2,0.4,13.1-3.4
					c3.9-3.7,8.2-6.8,12.4-10.1C488.8,573.7,485.9,565.8,480,566.8z"/>
				<path class="st6" d="M500.3,584.5c-6.1-1.8-12.8,0.3-18.7,2.3c-4.2,1.4-9.7,4.1-11.4,8.4c-2.2,3-0.1,6.9,3.3,7.5
					c1.7,0.3,3.5-0.1,4.9-1.2c3.7-1.6,7.3-2.9,11.2-3.8c4.1-1,8.6-1.8,12-4.6C504.1,590.9,504.1,585.6,500.3,584.5z"/>
				<g>
					<path class="st6" d="M483.1,621.4C483.1,621.4,483.1,621.4,483.1,621.4L483.1,621.4z"/>
					<path class="st6" d="M507.9,609.8c-5.5-4.3-13.3-3.9-20-2.9c-5.4,0.9-13.6,4.7-10.9,11.5c1.3,3.2,5.2,3.8,7.8,2
						c-1.1,0.7-1.8,0.9-1.8,1c0.1,0,0.4-0.1,1.1-0.1c0.9-0.1,1.8-0.2,2.6-0.3c1.9-0.2,3.9-0.2,5.8-0.4c5.6-0.4,10.6,0.2,15.4-3.5
						C510.4,615.3,510.3,611.6,507.9,609.8z"/>
				</g>
				<path class="st6" d="M509.3,634.5c-2.6-4.3-8.1-6-12.6-7.3c-5-1.5-10.2-2.2-15,0c-4.3,2-3.8,7.5,0.1,9.5
					c3.5,1.8,7.4,2.4,11.1,3.6c4.2,1.4,8.5,3.8,13,2.7C510.1,642.1,511.5,638.1,509.3,634.5z"/>
				<path class="st6" d="M506.8,664.6c-1.9-5.6-8.3-10.1-12.9-13.4c-1.2-0.9-2.5-1.6-3.8-2.4c-0.3-0.2-0.6-0.3-0.8-0.5
					c0-0.1-0.3-0.4-1.3-1.3c-2.6-2.3-5.6-2.8-9-2.6c-2.6,0.2-4.8,2.7-5.1,5.2c-0.5,3.6,2,5.9,5.2,6.7c-0.3-0.1,2.4,2.7,3,3.1
					c2.1,1.3,4,2.9,5.9,4.5c3.4,2.9,6.7,7.1,11.1,8.6C504.2,674.4,508.6,669.8,506.8,664.6z"/>
				<path class="st6" d="M495.6,688.7c-1.9-9.8-11.1-16.2-18.1-22.5c-4.9-4.4-12.6,3.4-8.1,8.3c5.8,6.3,11.5,13.5,18.1,19
					C490.8,696.3,496.5,693.1,495.6,688.7z"/>
				<path class="st6" d="M477.4,704.2c-1.8-8.1-8.2-16.2-15.1-20.7c-4.8-3.2-9.7,2.2-6.8,6.9c1.9,3.1,4.1,6.1,6.1,9.1
					c2,3,3.7,6.1,6.1,8.7C471.1,712,478.7,709.9,477.4,704.2z"/>
				<path class="st6" d="M454.2,715.9c-1-7.1-3.9-14.6-6.9-21c-3.2-7-13.5-2.5-10.9,4.7c2.5,6.7,2.8,15.1,7.9,20.6
					C447.9,724,455,721.7,454.2,715.9z"/>
				<path class="st6" d="M428.1,703.2c-0.6-6.5-10.8-6.5-11.4,0c-0.8,8.2-2.5,19.3,1.5,26.9c1.9,3.6,6.5,3.5,8.4-0.1
					C430.6,722.6,428.9,711.4,428.1,703.2z"/>
				<path class="st6" d="M396.2,701.4c-4.2,6.3-7.8,13.7-9.8,21.1c-1.6,5.8,4.8,9.7,9,5.2c5-5.4,6.5-12.9,10.3-19
					C409.8,702.1,400.5,694.9,396.2,701.4z"/>
				<path class="st6" d="M377.1,695.7c-2.7,2.3-5.2,4.9-7.8,7.4c-3,2.9-5.7,5.7-7.6,9.5c-2.3,4.3,3.2,9.7,7.5,7.4
					c7-3.7,12.9-10.8,16.6-17.7C388.5,697.2,381.2,692.2,377.1,695.7z"/>
				<path class="st6" d="M360.5,684.6c-5.8,2.5-11.1,6.6-15.9,10.8c-5.3,4.5-0.4,13,6.2,10.4c6.4-2.5,13-5.8,17.2-11.5
					C371.9,689.1,366.4,682,360.5,684.6z"/>
				<path class="st6" d="M351.2,669.8c-2.5-0.4-4.8-0.8-7.3-0.3c-2.8,0.5-5,2.4-7.7,3.3c-5.5,2-12.4,3-15.1,8.7
					c-1,2.2-0.1,4.8,1.7,6.3c8.7,7.2,19.8-4.7,28.4-6.1C357.9,680.6,357.9,670.9,351.2,669.8z"/>
				<path class="st6" d="M346.8,651.1c-7.3-4.2-18.8-4.8-26.9-2.6c-6,1.7-5.8,12,0.1,13.6c7.2,2,19,1.9,25.7-2
					C348.6,658.5,350.7,653.4,346.8,651.1z"/>
				<path class="st6" d="M345,624.3c-3.3-1.4-6.9-2.2-10.3-3.3c-3.6-1.2-7.7-3.8-11.5-2.8c-6.2,1.6-8,8.2-3.3,12.6
					c3,2.9,7,3.6,10.9,4.6c3.2,0.8,7.1,1.5,10.6,1.1c2.1,0.4,4.5-0.3,5.8-2.1c0.4-0.6,1-1.3,1.2-2
					C349.4,629.2,348.2,625.7,345,624.3z"/>
				<path class="st6" d="M354.8,606.9c-3.6-3.6-6.7-6.6-11.4-8.8c-4.2-1.9-9.6-5.5-14.4-4.4c-6.2,1.4-9.2,11.4-1.8,13.7
					c4.2,1.3,8.2,3.3,12.5,4.4c4.7,1.2,8.5,3.1,13.4,1.8C355.6,612.9,356.6,608.7,354.8,606.9z"/>
				<path class="st6" d="M364.7,594.3c-2.9-3.6-5.6-6.9-9.1-10c-3.4-3.1-7.2-7-11.7-8.4c-5.1-1.6-9.5,2.7-7.8,7.9
					c1.5,4.3,5.4,7.4,9,10.1c3.8,2.9,7.7,5.8,11.5,8.7C361.8,606.6,368.7,599.5,364.7,594.3z"/>
				<path class="st6" d="M378.5,584.2c-1.4-3.9-3.6-7.6-5.4-11.3c-2-4.2-4.1-8.3-7.4-11.7c-4.5-4.5-12.4-0.6-9.9,5.9
					c1.6,4.3,4,8.3,6.4,12.3c2.3,3.9,4.8,8.2,8.5,11C374.9,593.6,380.2,588.9,378.5,584.2z"/>
				<path class="st6" d="M393.3,564.6c-1-5.9-2.4-13.2-7.2-17.2c-3.1-2.5-7.5-0.9-9.1,2.5c-2.3,5-0.3,10.1,1,15.1
					c1.3,5.3,1.8,11.4,4.9,15.9c2,2.8,7.1,2.9,9-0.1C395.1,575.7,394.3,570.3,393.3,564.6z"/>
				<path class="st6" d="M408.2,541.9c-6.2,3-6.8,8.8-7,15.2c-0.2,7.1,0,14.3,3.7,20.5c2.3,3.7,8.2,1.5,8.6-2.4
					c0.6-4.9,0.7-10,0.9-14.9c0.1-4.3,1.4-8.1,1.9-12.2C416.8,543.8,412.4,539.8,408.2,541.9z"/>
				<path class="st6" d="M427.6,544.8c-4.4,5-7.1,11-8.8,17.5c-1.3,5.1-2,13.2,3,16.6c1.7,1.1,3.5,1.1,5.2,0
					c4.2-2.9,3.5-8.6,4.8-13.1c1.4-5.3,4-10.1,5.7-15.3C439.4,544.2,432,539.8,427.6,544.8z"/>
				<path class="st6" d="M458.1,553.8c-4.8,2.6-8,6.2-11.3,10.5c-3.4,4.4-8.4,9.4-5.9,15.3c1.9,4.4,7.7,3.8,9.7-0.1
					c1.6-3.1,5-5.9,7.2-8.6c2.4-2.8,4.8-5.6,7.1-8.5C468.2,558.1,463.3,551,458.1,553.8z"/>
			</g>
			<path class="st5" d="M416.2,566.1c49.3,1.5,76.6,33.7,73.3,75.9c-3.2,42.2-38.9,73.3-89.6,69.4s-65.5-45.4-64.3-75.3
				C337.1,606.3,372.8,564.8,416.2,566.1z"/>
			<g>
				<path d="M400,649.2l16.5,0.1c0,0-1,12.4-10.1,12.2C397.1,661.3,400,649.2,400,649.2z"/>
				<path d="M419.5,628.6c-0.2-1.2,23.1-6.8,25.1-5.1s0.6,4.4-1.1,4.9S419.7,630.5,419.5,628.6z"/>
				<path d="M396.5,630.6c-0.1-1.6-25.2-5.8-26.6-4.7c-1.5,1.1-1.3,4,0.1,5S396.6,632,396.5,630.6z"/>
				<g>
					<path class="st6" d="M435.1,644.1c0,0,0-0.1,0.1-0.2c0-0.1,0.1-0.1,0.1-0.2c0.1-0.1,0.2-0.3,0.4-0.5c0.5-0.6,1.4-1.1,2.6-1.2
						c0.6-0.1,1.3,0,1.9,0.2c0.7,0.2,1.4,0.8,1.8,1.6c0.1,0.2,0.2,0.4,0.2,0.6c0,0.2,0.1,0.4,0.1,0.6c0,0.2,0,0.4,0,0.6l0,0.3l0,0
						l0,0.1l0,0l0,0.1l0,0.1c0,0.2-0.1,0.3-0.2,0.5l-0.2,0.3c-0.1,0.2-0.3,0.4-0.4,0.6c-0.3,0.4-0.6,0.7-1,1
						c-1.4,1.2-3.1,2.2-5.2,2.7c-1,0.2-2.2,0.4-3.5,0.1c-1.2-0.3-2.5-1.1-3.3-2.2c-0.2-0.3-0.3-0.6-0.5-0.9L428,648l-0.1-0.2
						c0-0.1,0,0.1,0-0.1l0,0l0,0l0-0.1l-0.1-0.4c0-0.2-0.1-0.4-0.1-0.6c-0.1-0.5,0-0.8,0-1.2c0.3-1.5,1.2-2.6,2.1-3.5
						c0.9-0.9,2-1.5,3.1-2c1.1-0.5,2.2-0.9,3.4-1.3c2.3-0.6,4.7-0.9,7.3-0.4c1.2,0.3,2.6,0.9,3.5,2c0.2,0.3,0.4,0.6,0.6,0.9
						c0.1,0.3,0.3,0.6,0.4,1c0.1,0.3,0.1,0.5,0.2,0.8c0,0.3,0.1,0.7,0.1,1c0.1,2.6-1,4.8-2.3,6.4c-1.3,1.7-2.9,2.8-4.5,3.7
						c-1.6,0.9-3.1,1.5-4.5,1.8c-1.4,0.4-2.7,0.5-3.8,0.4c-1.1-0.1-1.9-0.3-2.5-0.5c-0.6-0.2-0.9-0.4-0.9-0.4
						c-0.5-0.3-0.6-0.9-0.4-1.3c0.3-0.5,0.8-0.6,1.3-0.4l0,0c0,0,0.2,0.1,0.6,0.3c0.4,0.2,1.1,0.3,1.9,0.3c1.7,0.1,4.4-0.5,7-2.2
						c1.3-0.8,2.6-2,3.7-3.3c1-1.4,1.7-3,1.6-4.7c0-0.2,0-0.4-0.1-0.6c0-0.2-0.1-0.5-0.2-0.7c0-0.1-0.1-0.3-0.2-0.5
						c-0.1-0.1-0.2-0.3-0.3-0.4c-0.4-0.5-1.2-1-2-1.2c-1.8-0.5-4-0.3-6,0.2c-2,0.6-3.9,1.5-5.3,2.9c-0.7,0.6-1.1,1.4-1.2,2
						c0,0.2,0,0.4,0,0.4c0,0.1,0,0.1,0,0.2l0.1,0.4l0,0.1l0,0l0,0c-0.1-0.2,0-0.1,0-0.1l0.1,0.1l0.1,0.3c0.1,0.2,0.2,0.4,0.3,0.5
						c0.4,0.6,1,1,1.7,1.2c0.7,0.2,1.6,0.3,2.4,0.2c1.7-0.2,3.4-0.8,4.6-1.7c0.3-0.2,0.6-0.5,0.8-0.7c0.1-0.1,0.2-0.2,0.3-0.4
						l0.1-0.2c0,0,0-0.1,0.1-0.1c0.1-0.6,0.1-1.3-0.2-1.7c-0.4-0.9-1.5-1.1-2.3-0.9c-0.8,0.1-1.3,0.6-1.4,0.8c0,0,0,0.1-0.1,0.1
						c0,0.1-0.1,0.2-0.1,0.2c0,0.1-0.1,0.2-0.1,0.2c-0.2,0.5-0.7,0.8-1.2,0.6c-0.5-0.2-0.8-0.7-0.6-1.2
						C435.1,644.2,435.1,644.1,435.1,644.1z"/>
				</g>
				<g>
					<path class="st6" d="M381.8,647.5C381.8,647.5,381.8,647.5,381.8,647.5c0.1,0,0.1,0,0.1,0c0.1,0,0.1,0,0.2-0.1
						c0.3-0.1,0.5,0,0.8,0c0.6,0.1,1.4,0.2,2.3,0.6c0.5,0.2,1,0.5,1.5,1c0.2,0.3,0.5,0.7,0.5,1.3c0,0.5-0.2,0.9-0.5,1.3
						c-0.9,1.1-2.4,2.1-4.1,2.3c-1.7,0.3-3.7,0-5.5-1c-0.9-0.5-1.8-1.1-2.5-2.1c-0.3-0.5-0.6-1.1-0.8-1.8c-0.1-0.7,0.1-1.6,0.5-2.3
						c0.1-0.2,0.2-0.3,0.3-0.5l0,0c0,0,0.1-0.1,0.1-0.1l0,0l0.1-0.1l0.1-0.1c0.2-0.2,0.5-0.5,0.8-0.6c0.5-0.3,1-0.6,1.5-0.8
						c1-0.5,2.1-0.8,3.1-1c2.1-0.5,4.4-0.6,6.7-0.2c1.1,0.2,2.3,0.7,3.3,1.5c1,0.8,1.8,2,2.1,3.2c0.3,1.2,0.3,2.4,0.1,3.5
						c-0.2,1.2-0.7,2.3-1.4,3.3c-1.4,1.9-3.5,2.9-5.3,3.4c-1.9,0.5-3.7,0.6-5.4,0.6c-3.3-0.2-6-1.1-7.7-2.4c-0.8-0.6-1.4-1.4-1.6-2
						c-0.3-0.6-0.3-0.9-0.3-0.9l0-0.1c-0.1-0.5,0.3-1,0.8-1.1c0.5-0.1,1,0.3,1.1,0.8c0,0,0,0.2,0.2,0.5c0.2,0.3,0.5,0.7,1.1,1.2
						c1.2,0.9,3.6,1.7,6.5,1.7c1.5,0,3-0.2,4.6-0.7c1.5-0.5,3-1.3,3.9-2.6c0.5-0.6,0.8-1.3,1-2.1c0.2-0.8,0.2-1.7,0-2.5
						c-0.2-0.8-0.6-1.4-1.2-1.9c-0.6-0.5-1.4-0.8-2.3-1c-1.8-0.3-3.8-0.1-5.6,0.4c-0.9,0.2-1.8,0.5-2.6,0.9
						c-0.4,0.2-0.8,0.4-1.1,0.6c-0.2,0.1-0.2,0.2-0.4,0.3l-0.1,0.1l-0.1,0.1l0,0c0,0,0.1-0.1,0,0l0,0c0,0-0.1,0.1-0.1,0.1
						c-0.1,0.2-0.1,0.3-0.1,0.5c0,0.2,0.1,0.5,0.2,0.8c0.3,0.6,0.9,1.2,1.5,1.6c1.3,0.9,2.8,1.4,4.1,1.3c1.4-0.1,2.5-0.8,3.2-1.6
						c0.1-0.2,0.2-0.3,0.2-0.4c0-0.1,0-0.2-0.1-0.3c-0.2-0.2-0.6-0.4-1-0.6c-0.7-0.3-1.4-0.3-1.8-0.2c-0.2,0-0.3,0.1-0.3,0.1
						c0,0,0.1,0,0.1,0c0,0,0,0,0,0c0,0,0,0,0,0l0,0c-0.5,0.3-1.1,0.1-1.3-0.3c-0.3-0.5-0.1-1.1,0.3-1.3
						C381.6,647.5,381.7,647.5,381.8,647.5z"/>
				</g>
			</g>
		</g>
	</g>
	<g class="st0">
		<path class="st4" d="M782.5,664.5c-0.6-6.3-5.1-11.3-11-12.3c3.1-3.9,5.2-8.2,6.4-13c0.1-0.3,0.2-0.6,0.2-0.9
			c1-3.8,2.8-10.2-0.4-16.3c-1.4-2.7-3.5-4.7-6-6c0.4-2,0.7-4.1,0.8-6.3c0-0.3,0-0.6,0-0.9c0.2-4,0.6-10.6-3.9-15.9
			c-2.5-3-6.3-4.9-10.1-5c0-2.7-0.3-5.4-0.9-8.2c-0.1-0.3-0.1-0.6-0.2-0.9c-0.8-3.9-2.2-10.3-7.9-14.3c-2.3-1.6-5.2-2.5-8-2.5
			c-2.5,0-4.9,0.7-7,2c-0.9-3.9-2.4-7.4-4.6-10.8c-0.2-0.2-0.3-0.5-0.5-0.8c-2.1-3.4-5.5-9-12.2-10.8c-1.2-0.3-2.5-0.5-3.8-0.5
			c-3.3,0-6.4,1.2-8.7,3.1c-0.7-0.8-1.4-1.5-2.2-2.2c-0.2-0.2-0.4-0.4-0.7-0.6c-2.8-2.8-7.5-7.4-14.4-7.6c-0.1,0-0.3,0-0.4,0
			c-5.4,0-10.1,3-12.3,7.5c-2.8-2.9-6-5.1-9.6-7c-0.3-0.1-0.5-0.3-0.8-0.4c-2.7-1.4-6.9-3.5-11.7-3.5c-1.5,0-2.9,0.2-4.3,0.6
			c-5.7,1.6-9.6,6.5-10,11.9c-4.5-2.8-9.2-4.4-14.4-5.1c-0.3,0-0.6-0.1-0.9-0.1c-1.5-0.2-3.5-0.5-5.6-0.5c-4.1,0-7.6,1-10.5,3
			c-4.7,3.3-6.7,8.7-5.7,13.8c-5.6-1.2-10.7-1.1-16.1,0.2c-0.3,0.1-0.6,0.1-0.9,0.2c-3.9,0.9-10.3,2.4-14.2,8.1
			c-3.4,5-3.2,11.2,0.1,15.6c-3.6,0.9-6.9,2.4-10.1,4.5c-0.2,0.2-0.5,0.3-0.8,0.5c-3.4,2.1-9,5.6-10.8,12.3
			c-1.7,6.3,1,12.6,6.3,15.4c-3.8,2.3-6.9,5.2-9.6,8.8c-0.2,0.2-0.4,0.5-0.6,0.7c-2.4,3.1-6.5,8.4-5.9,15.2
			c0.6,7.1,6.3,12.5,13.1,12.5c0.1,0,0.3,0,0.4,0c-0.5,0.4-0.9,0.9-1.3,1.4c-4.5,5.2-7.3,10.5-8.6,16.8c-0.1,0.3-0.1,0.6-0.2,0.9
			c-0.9,3.9-2.3,10.3,1.2,16.3c2.4,4.1,6.6,6.7,11.1,6.9c-0.8,3.3-1,6.6-0.8,10.1c0,0.3,0,0.6,0,0.9c0.2,4,0.5,10.6,5.5,15.4
			c2.6,2.5,6.1,4,9.7,4c3.4,0,6.7-1.3,9.1-3.7c0.4-0.4,0.7-0.7,1-1.1c0,0.2,0,0.4,0,0.6c-0.2,6.9,1.1,12.7,4,18.5
			c0.1,0.3,0.3,0.5,0.4,0.8c1.8,3.5,4.8,9.5,11.2,11.8c1.6,0.6,3.2,0.9,4.9,0.9c4.7,0,8.8-2.3,11.2-6c2.2,4.9,5.1,8.9,9.1,12.4
			c0.2,0.2,0.4,0.4,0.7,0.6c2.9,2.6,7.7,7,14.5,7c0.1,0,0.2,0,0.2,0c6.5-0.1,11.8-4.4,13.1-10.3c4.2,4.6,8.8,7.7,14.4,9.7
			c0.3,0.1,0.6,0.2,0.9,0.3c2.4,0.9,6.1,2.3,10.2,2.3c2.2,0,4.2-0.4,6.1-1.2c4-1.7,6.9-4.9,8-8.6c3.8,1.6,7.8,2.4,12,2.6
			c0.3,0,0.6,0,0.9,0c0.9,0,2,0.1,3.2,0.1c2,0,7.9,0,12.7-4c3.4-2.8,5.1-6.8,5-10.7c2.6-0.1,5.1-0.4,7.7-1.1
			c0.3-0.1,0.6-0.1,0.9-0.2c3.9-0.9,10.3-2.4,14.2-8.1c2.2-3.3,2.9-7.1,2.1-10.6c3.2-0.8,6.2-2.1,9.2-3.9c0.2-0.1,0.5-0.3,0.8-0.5
			c3.4-2,9.2-5.3,11.2-11.9c1.8-6-0.4-12.1-5.1-15.3c5.5-2.6,9.7-6.1,13.3-10.8c0.2-0.2,0.4-0.5,0.6-0.7
			C779,676.6,783.1,671.4,782.5,664.5z"/>
		<g class="st2">
			<g>
				<path class="st6" d="M653.6,621.1c-2.2-6-7.8-9.8-10.8-15.3c-3.5-6.5-3.7-14.3-2.3-21.3c1.4-7.2,3.7-14.9,0.3-21.9
					c-1.5-3.2-3.1-6.7-5.9-8.8c-3.8-2.8-7.5-4.5-12.3-5.1c-2.7-0.3-7-1.2-9.4,0.5c-0.9,0.7-1.7,2.1-0.9,3.2c0.8,1.1,6.1,2.1,9,2.9
					c10.3,2.8,8.5,13.8,6.9,22.6c-0.5,2.6-1.7,7.2-2.2,9.9c-0.9,4.8,0.1,7.9,1.1,12.7c0.8,4.1,2.1,8.4,4.2,12
					c2.3,4,5.4,8.3,8.9,11.3c1.9,1.6,5,3.3,7.6,3.3c0.9,0,4,0.6,0.9-0.1c0.8,0.2,1.4,0.1,2.2,0c1.3-0.1,1.9-1.1,2.1-2.1
					C653.7,623.7,654,622.3,653.6,621.1z"/>
				<path class="st6" d="M642.4,621.6c-4.1-4.8-10.8-6.4-15.5-10.5c-5.6-4.8-8.5-12-9.7-19.1c-1.3-7.3-1.8-15.2-7.5-20.6
					c-2.5-2.4-5.2-5.2-8.7-6.1c-4.5-1.3-8.6-1.5-13.3-0.4c-2.6,0.6-6.9,1.4-8.6,3.8c-0.6,1-0.9,2.5,0.3,3.3c1.1,0.8,6.5-0.2,9.4-0.5
					c10.6-1,12.8,10,14.4,18.7c0.5,2.6,0.9,7.4,1.4,10c0.9,4.8,2.9,7.3,5.5,11.5c2.2,3.5,5,7.1,8.2,9.8c3.5,2.9,8,5.9,12.3,7.4
					c2.3,0.8,5.9,1.3,8.3,0.4c0.9-0.3,4-0.9,0.8-0.4c0.8-0.1,1.4-0.4,2.1-0.8c1.1-0.6,1.4-1.7,1.3-2.7
					C643.4,624.1,643.3,622.6,642.4,621.6z"/>
				<path class="st6" d="M636.2,627.7c-5.5-3.2-12.2-2.5-18.1-4.8c-6.8-2.7-12-8.6-15.4-14.9c-3.5-6.5-6.7-13.8-13.8-17.1
					c-3.2-1.5-6.6-3.2-10.2-3c-4.7,0.3-8.7,1.4-12.7,4c-2.3,1.5-6.1,3.5-6.9,6.4c-0.3,1.1,0,2.7,1.3,3.1c1.3,0.4,6-2.3,8.8-3.6
					c9.7-4.4,15.4,5.2,19.7,13c1.3,2.3,3.3,6.7,4.6,9c2.4,4.3,5.1,6,8.9,9.1c3.2,2.6,7,5.1,10.9,6.6c4.3,1.6,9.5,2.9,14,3
					c2.5,0,6-0.7,8-2.3c0.7-0.6,3.5-2.2,0.6-0.7c0.7-0.4,1.2-0.9,1.7-1.4c0.9-0.9,0.8-2,0.3-3C637.9,629.7,637.3,628.4,636.2,627.7z
					"/>
				<path class="st6" d="M632.2,635.8c-6.3-1.1-12.4,1.8-18.6,1.7c-7.3-0.2-14.2-4-19.6-8.7c-5.6-4.8-11-10.7-18.8-11.3
					c-3.5-0.3-7.3-0.7-10.6,0.7c-4.3,1.9-7.7,4.3-10.5,8.1c-1.6,2.2-4.5,5.4-4.3,8.4c0.1,1.2,0.9,2.5,2.3,2.4c1.3-0.1,4.9-4.3,7-6.3
					c7.6-7.5,16.2-0.4,23,5.4c2,1.7,5.4,5.1,7.4,6.9c3.7,3.2,6.8,3.9,11.5,5.5c3.9,1.3,8.3,2.4,12.5,2.4c4.6,0,9.9-0.5,14.2-2.1
					c2.3-0.8,5.3-2.7,6.7-4.9c0.5-0.8,2.5-3.2,0.3-0.8c0.6-0.6,0.8-1.2,1.1-1.9c0.5-1.2,0-2.2-0.8-2.9
					C634.5,637,633.5,636,632.2,635.8z"/>
				<path class="st6" d="M628,643.7c-6.2,1.6-10.4,6.9-16.1,9.5c-6.7,2.9-14.5,2.5-21.5,0.5c-7.1-2-14.5-5-21.8-2.2
					c-3.3,1.2-6.9,2.5-9.3,5.1c-3.1,3.5-5.1,7.1-6.1,11.8c-0.6,2.6-1.8,6.9-0.3,9.4c0.6,1,1.9,1.9,3.1,1.2c1.2-0.7,2.6-5.9,3.6-8.7
					c3.7-10,14.5-7.3,23.1-4.9c2.6,0.7,7.1,2.3,9.7,3c4.7,1.3,7.9,0.6,12.8,0c4.1-0.5,8.6-1.4,12.4-3.1c4.2-1.9,8.7-4.7,12-7.9
					c1.7-1.8,3.7-4.7,4-7.3c0.1-0.9,0.9-4,0-0.9c0.2-0.8,0.2-1.4,0.2-2.2c0-1.3-0.9-2-1.9-2.3C630.6,643.9,629.2,643.4,628,643.7z"
					/>
				<path class="st6" d="M630.2,655.9c-5.5,3.2-8.2,9.5-13,13.4c-5.7,4.6-13.4,6.2-20.5,6.2c-7.4,0-15.3-0.9-21.6,3.7
					c-2.8,2.1-6,4.2-7.6,7.4c-2.1,4.2-3,8.2-2.7,13c0.2,2.7,0.1,7.1,2.2,9.1c0.8,0.8,2.3,1.3,3.3,0.3c1-0.9,0.9-6.4,1.2-9.4
					c0.9-10.6,12.1-10.9,20.9-10.9c2.7,0,7.4,0.4,10.1,0.4c4.9,0,7.7-1.5,12.3-3.4c3.8-1.6,7.9-3.6,11.1-6.3c3.5-3,7.2-6.8,9.4-10.8
					c1.2-2.2,2.3-5.5,1.9-8.1c-0.1-0.9-0.2-4.1-0.3-0.8c0-0.8-0.2-1.4-0.4-2.2c-0.4-1.2-1.4-1.7-2.5-1.7
					C632.7,655.4,631.3,655.3,630.2,655.9z"/>
				<path class="st6" d="M634.8,663.2c-3.7,5.2-3.6,12-6.5,17.5c-3.3,6.5-9.7,11.1-16.3,14c-6.7,2.9-14.4,5.4-18.3,12.2
					c-1.7,3-3.8,6.3-3.9,9.9c-0.2,4.7,0.6,8.8,2.8,13c1.3,2.4,3,6.4,5.7,7.4c1.1,0.4,2.7,0.3,3.2-1c0.5-1.3-1.8-6.2-2.7-9
					c-3.5-10.1,6.6-14.8,14.7-18.5c2.4-1.1,6.9-2.7,9.4-3.8c4.5-2,6.4-4.5,9.9-8.1c2.9-3,5.8-6.5,7.6-10.3c2-4.1,3.8-9.2,4.2-13.7
					c0.2-2.5-0.2-6-1.5-8.1c-0.5-0.8-1.8-3.6-0.6-0.7c-0.3-0.8-0.7-1.2-1.3-1.9c-0.8-1-2-1-3-0.6
					C636.9,661.7,635.5,662.2,634.8,663.2z"/>
				<path class="st6" d="M642.4,669.3c-1.6,6.2,0.9,12.5,0.3,18.7c-0.8,7.3-5,13.9-10.1,18.9c-5.2,5.2-11.5,10.2-12.7,17.9
					c-0.5,3.5-1.3,7.3-0.1,10.6c1.5,4.5,3.7,8,7.3,11.1c2,1.8,5.1,4.9,8,4.9c1.2,0,2.6-0.7,2.6-2.1c0-1.3-3.9-5.2-5.8-7.4
					c-6.9-8.1,0.8-16.2,7.1-22.5c1.9-1.9,5.5-5,7.4-6.9c3.4-3.5,4.4-6.5,6.3-11.1c1.6-3.8,3-8.1,3.4-12.3c0.4-4.6,0.2-9.9-1-14.3
					c-0.7-2.4-2.3-5.5-4.4-7c-0.8-0.6-3-2.7-0.8-0.4c-0.6-0.6-1.1-0.9-1.9-1.3c-1.1-0.6-2.2-0.2-3,0.5
					C643.9,667.1,642.8,668.1,642.4,669.3z"/>
				<path class="st6" d="M652.6,674c0.8,6.3,5.4,11.3,7.1,17.3c2,7.1,0.4,14.7-2.5,21.3c-3,6.7-7,13.7-5.3,21.3
					c0.8,3.4,1.5,7.2,3.8,9.9c3.1,3.6,6.3,6.1,10.8,7.7c2.5,0.9,6.5,2.7,9.2,1.6c1.1-0.4,2.1-1.6,1.6-2.9c-0.5-1.3-5.5-3.4-8.1-4.8
					c-9.4-5.1-5.1-15.4-1.6-23.5c1.1-2.5,3.3-6.6,4.4-9.1c1.9-4.5,1.7-7.7,1.8-12.6c0.1-4.1-0.1-8.7-1.4-12.7
					c-1.3-4.4-3.4-9.3-6.1-13c-1.5-2-4.2-4.3-6.6-5c-0.9-0.2-3.8-1.5-0.9-0.1c-0.7-0.4-1.4-0.4-2.2-0.5c-1.3-0.1-2.1,0.6-2.6,1.6
					C653.1,671.4,652.5,672.7,652.6,674z"/>
				<path class="st6" d="M663.5,676.6c2.7,5.8,8.6,9.1,12,14.3c4,6.2,4.8,13.9,4.1,21.1c-0.8,7.3-2.5,15.1,1.5,21.9
					c1.8,3,3.6,6.4,6.6,8.3c4,2.5,7.9,3.8,12.7,4c2.7,0.1,7.1,0.6,9.3-1.3c0.9-0.7,1.6-2.2,0.7-3.3c-0.8-1-6.3-1.6-9.2-2.1
					c-10.5-2-9.6-13.1-8.7-21.9c0.3-2.7,1.1-7.3,1.4-10c0.5-4.9-0.7-7.8-2.1-12.6c-1.2-4-2.8-8.2-5.2-11.7
					c-2.6-3.8-6.1-7.8-9.8-10.5c-2-1.4-5.3-2.8-7.8-2.7c-0.9,0.1-4.1-0.2-0.9,0.2c-0.8-0.1-1.4,0-2.2,0.2c-1.2,0.2-1.8,1.2-2,2.3
					C663.2,674,663,675.5,663.5,676.6z"/>
				<path class="st6" d="M672.1,674.3c4.2,4.8,10.8,6.3,15.5,10.4c5.6,4.8,8.5,12,9.8,19.1c1.3,7.3,1.8,15.2,7.5,20.6
					c2.5,2.4,5.3,5.2,8.7,6.1c4.5,1.3,8.6,1.5,13.3,0.3c2.6-0.7,6.9-1.4,8.6-3.8c0.6-1,0.9-2.5-0.3-3.3c-1.1-0.8-6.5,0.3-9.4,0.5
					c-10.6,1-12.8-9.9-14.5-18.7c-0.5-2.6-1-7.4-1.5-10c-0.9-4.8-2.9-7.3-5.5-11.5c-2.2-3.5-5-7.1-8.2-9.8c-3.6-2.9-8-5.8-12.3-7.3
					c-2.3-0.8-5.9-1.3-8.3-0.4c-0.9,0.3-4,0.9-0.8,0.4c-0.8,0.1-1.4,0.4-2.1,0.8c-1.1,0.6-1.4,1.7-1.2,2.8
					C671.1,671.9,671.3,673.3,672.1,674.3z"/>
				<path class="st6" d="M681.5,670.9c5.4,3.4,12.1,3,17.9,5.5c6.7,3,11.6,9.1,14.9,15.5c3.3,6.6,6.1,14.1,13.1,17.6
					c3.1,1.6,6.5,3.4,10.1,3.4c4.7-0.1,8.7-1.1,12.8-3.5c2.3-1.4,6.3-3.3,7.1-6.1c0.3-1.1,0.1-2.7-1.2-3.1c-1.3-0.4-6.1,2.1-8.9,3.2
					c-9.9,4-15.2-5.8-19.2-13.7c-1.2-2.4-3-6.8-4.3-9.2c-2.3-4.4-4.9-6.2-8.6-9.4c-3.1-2.7-6.8-5.4-10.7-7
					c-4.2-1.8-9.3-3.3-13.9-3.5c-2.5-0.1-6,0.5-8,2c-0.8,0.6-3.5,2-0.6,0.6c-0.7,0.4-1.2,0.8-1.8,1.4c-0.9,0.9-0.9,2-0.4,3
					C679.8,668.9,680.4,670.2,681.5,670.9z"/>
				<path class="st6" d="M689.1,664.2c6.3,1.1,12.4-1.8,18.6-1.6c7.3,0.2,14.2,4,19.6,8.7c5.5,4.8,11,10.7,18.8,11.3
					c3.5,0.3,7.3,0.7,10.6-0.7c4.3-1.9,7.7-4.3,10.5-8.1c1.6-2.2,4.5-5.4,4.3-8.3c-0.1-1.2-0.9-2.5-2.3-2.4c-1.3,0.1-4.9,4.3-7,6.3
					c-7.6,7.5-16.2,0.3-23-5.4c-2-1.7-5.4-5.1-7.4-6.9c-3.7-3.2-6.8-3.9-11.5-5.5c-3.9-1.3-8.3-2.4-12.5-2.4c-4.6,0-9.9,0.5-14.2,2
					c-2.3,0.8-5.4,2.7-6.7,4.9c-0.5,0.8-2.5,3.2-0.3,0.8c-0.6,0.6-0.8,1.2-1.1,1.9c-0.5,1.2-0.1,2.2,0.8,2.9
					C686.8,662.9,687.9,664,689.1,664.2z"/>
				<path class="st6" d="M691.4,657.5c6.2-1.3,10.7-6.4,16.6-8.7c6.9-2.6,14.6-1.8,21.4,0.5c7,2.3,14.3,5.7,21.7,3.3
					c3.3-1.1,7.1-2.1,9.5-4.7c3.3-3.4,5.4-6.9,6.6-11.5c0.7-2.6,2.1-6.8,0.8-9.4c-0.5-1-1.8-2-3.1-1.4c-1.2,0.6-2.9,5.8-4,8.5
					c-4.2,9.8-14.9,6.5-23.3,3.8c-2.5-0.8-6.9-2.7-9.5-3.5c-4.7-1.5-7.8-1-12.7-0.6c-4.1,0.3-8.6,1-12.5,2.5
					c-4.2,1.7-9,4.2-12.3,7.3c-1.8,1.7-3.9,4.5-4.3,7.1c-0.2,0.9-1.1,3.9,0,0.9c-0.3,0.8-0.3,1.4-0.3,2.2c0,1.3,0.8,2,1.8,2.4
					C688.8,657.3,690.2,657.8,691.4,657.5z"/>
				<path class="st6" d="M692,646.2c5.8-2.7,9.1-8.6,14.3-12c6.2-4,13.9-4.8,21.1-4.1c7.3,0.8,15.1,2.5,21.9-1.5
					c3-1.8,6.4-3.6,8.3-6.6c2.5-4,3.8-7.9,4-12.7c0.1-2.7,0.6-7.1-1.3-9.3c-0.7-0.9-2.2-1.6-3.3-0.7c-1,0.8-1.6,6.3-2.1,9.2
					c-2,10.5-13.1,9.6-21.9,8.7c-2.7-0.3-7.3-1.1-10-1.4c-4.9-0.5-7.8,0.7-12.6,2.1c-4,1.2-8.2,2.8-11.7,5.2
					c-3.8,2.6-7.8,6.1-10.5,9.8c-1.4,2-2.8,5.3-2.7,7.8c0.1,0.9-0.2,4.1,0.2,0.9c-0.1,0.8,0,1.4,0.2,2.2c0.2,1.2,1.2,1.8,2.3,2
					C689.3,646.5,690.8,646.7,692,646.2z"/>
				<path class="st6" d="M689.5,636.1c4.9-4.1,6.5-10.7,10.7-15.4c4.9-5.5,12.2-8.3,19.3-9.5c7.3-1.2,15.3-1.6,20.7-7.2
					c2.4-2.5,5.3-5.2,6.3-8.6c1.3-4.5,1.6-8.6,0.6-13.3c-0.6-2.6-1.3-7-3.7-8.6c-1-0.7-2.5-0.9-3.3,0.2c-0.8,1.1,0.2,6.5,0.4,9.4
					c0.8,10.6-10.1,12.7-18.9,14.2c-2.6,0.4-7.4,0.8-10,1.3c-4.8,0.8-7.4,2.8-11.6,5.3c-3.5,2.2-7.2,4.9-9.9,8
					c-3,3.5-6,7.9-7.5,12.2c-0.8,2.3-1.4,5.8-0.6,8.3c0.3,0.9,0.9,4,0.4,0.8c0.1,0.8,0.4,1.4,0.8,2.1c0.6,1.1,1.7,1.4,2.7,1.3
					C687.1,637.1,688.6,636.9,689.5,636.1z"/>
				<path class="st6" d="M684.4,629c3.3-5.5,2.6-12.2,5-18c2.8-6.8,8.7-11.9,15-15.3c6.5-3.5,13.9-6.6,17.2-13.7
					c1.5-3.2,3.2-6.6,3.1-10.2c-0.2-4.7-1.3-8.7-3.9-12.7c-1.5-2.3-3.5-6.2-6.3-6.9c-1.1-0.3-2.7,0-3.1,1.3
					c-0.4,1.3,2.3,6.1,3.5,8.8c4.3,9.7-5.3,15.3-13.1,19.6c-2.3,1.3-6.7,3.2-9,4.6c-4.3,2.4-6,5.1-9.2,8.9c-2.6,3.2-5.2,7-6.7,10.9
					c-1.6,4.3-3,9.4-3.1,14c0,2.5,0.7,6,2.2,8c0.6,0.7,2.1,3.5,0.7,0.6c0.4,0.7,0.8,1.2,1.4,1.7c0.9,0.9,2,0.8,3,0.3
					C682.4,630.7,683.7,630.1,684.4,629z"/>
				<path class="st6" d="M676.5,626.5c1.9-6.1-0.4-12.5,0.5-18.7c1.1-7.3,5.6-13.6,10.9-18.5c5.4-5,11.9-9.7,13.4-17.4
					c0.7-3.4,1.6-7.2,0.5-10.6c-1.4-4.5-3.4-8.1-6.8-11.4c-2-1.9-4.9-5.1-7.8-5.2c-1.2,0-2.6,0.6-2.7,2c-0.1,1.3,3.7,5.3,5.5,7.7
					c6.5,8.4-1.5,16.2-8,22.2c-2,1.8-5.7,4.7-7.7,6.6c-3.6,3.3-4.6,6.4-6.8,10.8c-1.8,3.7-3.4,8-3.9,12.2c-0.5,4.6-0.7,9.9,0.4,14.4
					c0.6,2.4,2.1,5.6,4.1,7.2c0.7,0.6,2.9,2.9,0.8,0.4c0.5,0.6,1.1,0.9,1.8,1.4c1.1,0.6,2.2,0.3,3-0.4
					C675,628.6,676.1,627.7,676.5,626.5z"/>
				<path class="st6" d="M665.6,622.7c-0.1-6.4-4.1-11.8-5.1-18c-1.2-7.3,1.2-14.7,4.9-20.9c3.7-6.4,8.4-12.8,7.6-20.6
					c-0.4-3.5-0.7-7.3-2.7-10.3c-2.6-3.9-5.6-6.7-9.9-8.8c-2.4-1.2-6.2-3.4-9-2.6c-1.1,0.3-2.3,1.4-2,2.7c0.3,1.3,5.1,4,7.5,5.7
					c8.8,6.1,3.4,15.9-1,23.6c-1.3,2.3-4,6.2-5.4,8.6c-2.4,4.3-2.5,7.5-3.2,12.3c-0.6,4.1-0.8,8.7,0,12.8c0.8,4.5,2.3,9.6,4.7,13.6
					c1.3,2.1,3.7,4.7,6,5.7c0.9,0.3,3.6,1.9,0.9,0.2c0.7,0.4,1.3,0.6,2.1,0.7c1.2,0.3,2.2-0.4,2.7-1.3
					C664.8,625.2,665.6,624,665.6,622.7z"/>
			</g>
			<path class="st5" d="M660.3,574.8c55.9-2.4,75,46.7,73.8,78.5c-1.2,31.7-35.2,75-83.7,68.7c-48.5-6.3-74.4-36.3-71-76.2
				C583,605.9,606.1,577.1,660.3,574.8z"/>
			<g>
				<g>
					<path class="st3" d="M625,663.2c2.3-0.4,6.5,3.5,6.7,6.6s-0.1,8.3-3.1,8.5s-7.3-3.6-7.3-6.9C621.4,668.1,623.2,663.5,625,663.2
						z"/>
					<path d="M630.8,663c-1.1-1.1-1.6-1.8-3.3-2.2c-1.7-0.4-4.4-0.2-5.7,2.4c-2.4,4.7-2.9,10.4,0.5,14.4c1.6,1.9,4.1,2.8,6.5,2.5
						c1.9-0.3,3.4-2.5,4.1-4C634.8,671.5,633.3,665.5,630.8,663z M627.4,676.8c-3,0.1-4.3-4.8-4.2-7.3c0.1-1.5,0.1-3.5,1.2-4.5
						c1.1-1.1,2.8,0,3.7,1c1.1,1.4,1.6,2.9,1.8,4.6C630,673.1,629.4,676.4,627.4,676.8z"/>
				</g>
				<g>
					<path class="st3" d="M664.1,662.4c2.6-2.1,6.5,4.4,5.7,8.5s-3.7,6.7-5.4,6S658.1,667.3,664.1,662.4z"/>
					<path d="M667.9,661.4c-0.2-0.1-2.1-0.8-2.8-0.8c-2.1,0-3.3,1-4.4,2.6c-2.5,3.7-3.1,10.6,0.2,14c3.5,3.5,8.7,0.8,10.2-3.3
						C672.5,670.1,671.8,663.4,667.9,661.4z M665.3,675.2c-2.8,0.5-3.1-5.3-2.9-6.6c0.2-2.4,1.5-4.8,3.5-4.4
						c1.9,0.3,2.4,3.7,2.7,5.3C668.9,671.6,667.7,674.8,665.3,675.2z"/>
				</g>
				<path d="M650.5,689.6c-0.1,3.8,0.3,13-6.1,10.6c-5.1-1.9-3.5-7.1-4.2-11.2c-0.2-1.1-1.7-1.3-2.2-0.3c-0.7,1.6-0.7,3.2-0.7,4.9
					c-0.1,1.6,0.2,3.4,0.4,4.9c0.6,4.1,4,5.4,6.5,5.8c9.2,1.6,10.2-8.6,10.2-14.3C654.4,687.7,650.6,687.1,650.5,689.6z"/>
			</g>
		</g>
	</g>
	<g class="st0">
		<g class="st2">
			<path class="st8" d="M394.3,280.9c90-3,141,37.5,141,123s-73.5,96-145.5,96c-63,0-129-12-126-103.5
				C267.4,286.7,352.3,282.3,394.3,280.9z"/>
		</g>
		<g class="st2">
			<path class="st3" d="M333.7,367.4c2.8,1.7,6.9,3.2,11.2,3.2c6.4,0,10.2-3.4,10.2-8.3c0-4.5-2.6-7.1-9.1-9.6
				c-7.9-2.8-12.8-6.9-12.8-13.8c0-7.6,6.3-13.2,15.7-13.2c5,0,8.6,1.2,10.7,2.4l-1.7,5.1c-1.6-0.9-4.8-2.3-9.2-2.3
				c-6.6,0-9.1,4-9.1,7.3c0,4.5,3,6.8,9.6,9.4c8.2,3.2,12.4,7.1,12.4,14.3c0,7.5-5.5,14-17,14c-4.7,0-9.8-1.4-12.4-3.1L333.7,367.4z
				"/>
			<path class="st3" d="M376.3,326.5v28.7c0,10.9,4.8,15.5,11.3,15.5c7.2,0,11.8-4.8,11.8-15.5v-28.7h6.3v28.3
				c0,14.9-7.8,21-18.4,21c-9.9,0-17.4-5.7-17.4-20.7v-28.6H376.3z"/>
			<path class="st3" d="M416.7,375v-48.5h6.8l15.6,24.6c3.6,5.7,6.4,10.8,8.7,15.8l0.1-0.1c-0.6-6.5-0.7-12.4-0.7-19.9v-20.3h5.9
				V375h-6.3l-15.4-24.6c-3.4-5.4-6.6-10.9-9.1-16.2l-0.2,0.1c0.4,6.1,0.5,12,0.5,20V375H416.7z"/>
			<path class="st3" d="M325.6,435.2c2.1,1.3,5.3,2.4,8.6,2.4c4.9,0,7.8-2.6,7.8-6.3c0-3.5-2-5.4-7-7.4c-6-2.1-9.8-5.3-9.8-10.5
				c0-5.8,4.8-10.1,12-10.1c3.8,0,6.5,0.9,8.2,1.8l-1.3,3.9c-1.2-0.7-3.7-1.8-7-1.8c-5.1,0-7,3-7,5.6c0,3.5,2.3,5.2,7.4,7.1
				c6.3,2.4,9.5,5.4,9.5,10.9c0,5.7-4.2,10.7-13,10.7c-3.6,0-7.5-1-9.5-2.4L325.6,435.2z"/>
			<path class="st3" d="M372.5,440c-1.3,0.7-4.1,1.5-7.6,1.5c-8,0-13.3-5.4-13.3-13.6c0-8.2,5.6-14.1,14.3-14.1
				c2.9,0,5.4,0.7,6.7,1.4l-1.1,3.7c-1.2-0.7-3-1.3-5.6-1.3c-6.1,0-9.4,4.5-9.4,10.1c0,6.2,4,10,9.2,10c2.8,0,4.6-0.7,5.9-1.3
				L372.5,440z"/>
			<path class="st3" d="M378.2,422.7c0-3.1-0.1-5.8-0.2-8.3h4.2l0.2,5.2h0.2c1.2-3.6,4.1-5.8,7.4-5.8c0.5,0,0.9,0.1,1.4,0.2v4.6
				c-0.5-0.1-1-0.2-1.7-0.2c-3.4,0-5.8,2.6-6.5,6.2c-0.1,0.7-0.2,1.4-0.2,2.3V441h-4.8V422.7z"/>
			<path class="st3" d="M398.3,428.6c0.1,6.5,4.3,9.2,9.1,9.2c3.5,0,5.6-0.6,7.4-1.4l0.8,3.5c-1.7,0.8-4.6,1.6-8.9,1.6
				c-8.2,0-13.1-5.4-13.1-13.4c0-8,4.7-14.4,12.5-14.4c8.7,0,11,7.6,11,12.5c0,1-0.1,1.8-0.2,2.3H398.3z M412.5,425.1
				c0.1-3.1-1.3-7.9-6.7-7.9c-4.9,0-7,4.5-7.4,7.9H412.5z"/>
			<path class="st3" d="M425.9,428.6c0.1,6.5,4.3,9.2,9.1,9.2c3.5,0,5.6-0.6,7.4-1.4l0.8,3.5c-1.7,0.8-4.6,1.6-8.9,1.6
				c-8.2,0-13.1-5.4-13.1-13.4c0-8,4.7-14.4,12.5-14.4c8.7,0,11,7.6,11,12.5c0,1-0.1,1.8-0.2,2.3H425.9z M440.1,425.1
				c0.1-3.1-1.3-7.9-6.7-7.9c-4.9,0-7,4.5-7.4,7.9H440.1z"/>
			<path class="st3" d="M450.7,421.6c0-2.7-0.1-5-0.2-7.2h4.3l0.3,4.4h0.1c1.3-2.5,4.4-5,8.8-5c3.7,0,9.4,2.2,9.4,11.3V441h-4.8
				v-15.3c0-4.3-1.6-7.9-6.2-7.9c-3.2,0-5.7,2.3-6.5,4.9c-0.2,0.6-0.3,1.4-0.3,2.3v16h-4.8V421.6z"/>
		</g>
	</g>
	<g>
		<path class="st3" d="M512,476.9c0,0,62.5-36.8,74.9-10.6c8.9,19-58.4,42.7-58.4,42.7s7.8,18.4,6.7,33c0,0,84.5-3.8,76,36.3
			c-3.9,18.4-72.3,2-77.4,0.3c0,0-6.4,17.9-13.7,25.1c0,0,70.4,38.3,47.2,60.3c-22,20.9-68.4-30.2-70.1-33.8
			c0,0-15.6,15.6-23.7,19.6c0,0,46.9,48,24.6,64s-52-41.3-53.1-46.1c0,0-27.7,7-42.2,7.5c0,0,5.9,68.2-18.2,66.8
			c-24-1.4-12.3-67.3-12.3-67.3s-33.5-5.9-43.9-11.7c0,0-36.3,67.9-57.5,45.2c-21.2-22.6,29.3-65.4,29.3-65.4s-23.5-10.3-31.8-33
			c0,0-74.9,41.1-85.7,12.6c-10.9-28.5,71.5-46.1,71.5-46.1s-1.1-30.7,0-36.9c0,0-76.5-17-66.2-38.8c10.3-21.8,70.9,3.1,70.9,3.1
			s10.1-22.6,13.7-27.7c0,0-65.6-38.8-47.5-57.3s69.3,34.6,69.3,34.6s20.7-18.2,32.7-24.6c0,0-24.7-60.5-0.8-68.4
			c30.2-10.1,38.3,59.2,38.3,59.2s29.6-3.6,41.3-3.1c0,0-2.5-58.4,18.4-57c32.7,2.2,17,64.8,17,64.8s17.3,4.7,24.6,8.9
			c0,0,34.1-54.2,56.7-39.7c22.6,14.5-31.6,61.2-31.6,61.2S507.2,470.5,512,476.9z"/>
		<g>
			<path class="st5" d="M307.2,466.6C408.9,372.7,594,504.1,486,618.5C373.1,738.1,189.8,575,307.2,466.6z"/>
			<g>
				<g>
					<path class="st6" d="M373,562.7c-7.3-0.4-11.9,9.6-18.1,12.2c-3.2,1.3-8.3,4.9-8.5,8.8c-0.1,1.9,2.4,2.6,3.2,0.9
						c1.4-2.9,6.1-3.7,8.4-5.3c2.4-1.6,4.7-3.4,6.9-5.2c1.9-1.6,5.5-5.7,8.1-5.8C376.1,568,376.1,562.9,373,562.7z"/>
					<path class="st6" d="M376.1,572.6c-4,0.7-5.7,4.4-8.9,6.4c-1.6,1-3,2.3-4.2,3.8c-0.3,0.4-0.6,0.8-0.9,1.2
						c0.6-0.1,0.7,0,0.1,0.1c-0.4,0.2-0.6,0.6-1,0.7c-0.9,0.1-0.9,1.5,0,1.6c0.7,0.1,1.1,0.9,2,0.8c1.3-0.2,2.8-1.7,3.9-2.4
						c1.8-1.1,3.7-1.7,5.3-3.1c1.2-1,2.8-3.2,4.4-3.4C380.6,577.9,379.8,572,376.1,572.6z"/>
					<path class="st6" d="M460.7,514c-4.5,1.5-8.3,4.8-11.9,7.8c-1.9,1.6-3.9,3.4-6,4.8c-1.5,1-3.3,3-5,3.8
						c-1.8,0.8-1.1,3.8,0.9,3.4c3.3-0.3,7.2-2.7,9.9-4.6c4.7-3.3,9.3-7.1,14.6-9.4C467,518.1,464.5,512.7,460.7,514z"/>
					<path class="st6" d="M462.3,529.1c-0.3,0-0.5,0-0.8,0.1c0,0,0,0,0-0.1c-2.9,0.1-5.3,1.4-7.5,3.1c-0.9,0.7-1.7,1.5-2.5,2.2
						c-0.4,0.3-0.8,0.6-1.1,0.9c-0.1,0.1-0.3,0.3-0.4,0.4c-0.1,0-0.2,0.1-0.3,0.1c-1.3,0.5-0.8,2.1,0.3,2.4c1.7,0.4,3.2,0.2,5.2-0.6
						c2.4-1,4.4-2.6,7.1-2.7C465.6,534.7,465.6,529.1,462.3,529.1z"/>
				</g>
				<path d="M440.9,512.4c-3.2,0.5-6.4,1-9.7,1.2c-0.5,0-1,0.1-1.5,0.2c4.2-3.8,8.2-7.7,12-11.9c1-1.1-1.5-4.8-2.7-3.7
					c-6.2,5.7-12,11.8-18.5,17.2c-1.4,1.2,0.6,4.5,2.2,4.3c3.5-0.4,6.9-1.2,10.4-1.6c3.3-0.3,6.5-0.7,9.7-1.2
					C444.9,516.6,442.7,512.1,440.9,512.4z"/>
				<path d="M370,545.2c-1.6-4.6-2.9-10.7-7.2-13.6c-1-0.7-2.4-1-3.5-0.7c-3.9,0.9-2.6,7.7-2.1,10.3c0.9,4.5,2,9.9,6.5,12.1
					c1.1,0.5,2.7,0.9,3.9,1C371.4,554.5,370.8,547.8,370,545.2z"/>
				<path class="st3" d="M396.7,549.6l21.7-6.2c0,0-0.1,9.6-4.8,11.7C408.9,557.3,396.8,553.1,396.7,549.6z"/>
				<path d="M418.2,539.9c-4.5,2.1-9.4,3.7-13.6,4.9c-2.4,0.7-4.9,1.5-7.3,2.2c-1.6,0.4-5,0.9-4.9,2.4c0.2,2.8,5,4.9,7.2,6.1
					c3.6,1.9,7.8,2.7,11.9,2.8c7.7,0,8.9-8.5,9.7-14.7C421.4,542.2,420.9,538.7,418.2,539.9z M402.1,552.3c-0.9-0.5-2.6-1-3.5-1.4
					c3-0.7,6.9-1.7,9.4-2.4c2.8-0.8,6.6-2.3,9.5-3.4c-0.7,2.8-2.4,6.3-4.3,8.1C410.9,555.3,404.1,553.5,402.1,552.3z"/>
			</g>
			<g>
				<path class="st6" d="M509.5,401.1c-15.7,6.6-27.1,24.5-34.7,39c-1.6,3.1,1.7,7.5,5.2,6.7c8.7-2,12-9.1,16.9-15.8
					c5.7-7.8,13.3-14,19.3-21.4C519.7,405.2,514.5,399,509.5,401.1z"/>
				<path class="st6" d="M601.7,568.9c-2.5-5.9-5.5-6-11-7.6c-5.8-1.6-11.2-3.9-17.2-4.8c-12-1.7-27.8-6.1-39.2-0.6
					c-3.9,1.9-3.8,7.2,0.1,9.1c9.2,4.4,21.5,4.7,31.5,6.6c9.7,1.8,19,4.9,28.7,6.8C599.8,579.3,603.6,573.5,601.7,568.9z"/>
				<path class="st6" d="M558.4,649.9c-5.7-7.6-13.7-12.8-21-18.7c-8-6.5-15.3-12.8-24.4-17.8c-5.1-2.8-9,5.1-4.9,8.5
					c14.3,11.8,26.3,26.1,41.7,36.7C555.6,662.6,562.7,655.7,558.4,649.9z"/>
				<path class="st6" d="M493.3,701.5c-1.9-7.9-6.6-14.4-11.1-21c-5.4-7.9-11.2-15.7-17.4-23c-4.1-4.8-13-0.2-9.9,5.8
					c3.8,7.3,8.4,14.1,12.8,21.1c4.5,7.2,8.5,15.7,14.4,21.8C486,710.2,495,708.2,493.3,701.5z"/>
				<path class="st6" d="M392.5,673.4c-1.3-4.3-8.3-4-9.6,0.1c-2.7,8.1-3.2,17.2-4.4,25.6c-1.2,8.2-2.9,17.8,1,25.4
					c2.2,4.2,7.7,4.1,9.8-0.1c3.9-7.6,2.6-18,3.5-26.4C393.6,689.9,394.9,681.5,392.5,673.4z"/>
				<path class="st6" d="M312.2,650.4c-0.2,0-0.3-0.1-0.5-0.1c-3.2-0.6-6.1,1.9-7.2,4.6c-0.3,0.7-4.3,4.2-5.6,5.6
					c-3,3-5.5,6.6-8.2,9.8c-5.5,6.7-11.4,13.1-13,21.8c-1.2,6.3,6.7,8.5,10.8,5.6c8.3-5.9,14.1-16.6,20.4-24.5
					c3.4-4.3,10.7-10.8,9.5-16.9C317.8,653.5,315.3,651,312.2,650.4z"/>
				<path class="st6" d="M253.3,590.2c-8.7-1.6-19.7,6.3-27.3,10.1c-5,2.5-10.2,4.4-15.5,5.7c-5.5,1.3-10,1.4-13.9,5.8
					c-2.2,2.5-1,5.9,1.1,7.8c6.8,6.5,19.1,1.1,26.5-1.9c10.7-4.3,20.5-10.8,30.6-16C260.2,599,259.4,591.3,253.3,590.2z"/>
				<path class="st6" d="M262.8,519.4c-2.5-7.8-14.3-8.3-21-10c-6.5-1.6-13-3.1-19.4-4.8c-6-1.6-12.5-3.6-18.7-3.1
					c-4.3,0.4-6.7,6.2-3.8,9.4c7.4,8.4,20.5,10.8,31,13.1c8.9,2,17.8,4.6,27,4.1C262.2,527.9,263.9,523,262.8,519.4z"/>
				<path class="st6" d="M279.5,452.9c-4-4.4-8-8.7-12.2-12.9c-6.3-6.2-13.9-13.7-22.9-15.3c-6.8-1.2-10.3,6.9-6.8,11.9
					c3.7,5.5,11.1,8.8,16.2,13c3.3,2.6,6.2,5.6,9.4,8.4c3.8,3.4,7.8,5.3,12.1,7.8c3.2,1.9,6.6,0.5,7.5-3.1
					C283.8,458.8,282.1,455.8,279.5,452.9z"/>
				<path class="st6" d="M347.8,393.1c-2.8-7.3-4.7-20-13-23c-5.9-2.1-13.5,3.8-10.1,10.2c3.2,6.1,5.2,13,7.9,19.3
					c3.4,8.2,5.4,17.7,10.2,25.1c2.1,3.2,6.3,1.6,7.8-1.1C355.7,414.4,351.2,402.2,347.8,393.1z"/>
				<path class="st6" d="M428.5,370.8c-2.2-1.6-5.9-2-8.1,0.1c-6.5,6.4-3.2,15.9-3,24.2c0.2,8.7-1.6,21,2.4,28.8
					c2.2,4.2,7.3,3.8,9.5-0.1c4.6-8.1,4.4-19.7,4.6-28.8C434.1,387.1,436,376.1,428.5,370.8z"/>
				<path class="st6" d="M572.3,465c-9.9,1.2-19.4,5.2-28.5,9.1c-4.6,2-9,4.5-13.5,6.7c-2.6,1.3-5.9,4.2-8.7,5
					c-4.2,1.3-4.6,6.7-2.5,9.9c0.8,1.2,2.5,2.3,4,2.4c6.5,0.4,14.7-5.8,20.4-8.5c10.9-5.1,22.9-7.5,33.3-13.8
					C582.4,472.6,577.9,464.3,572.3,465z"/>
			</g>
		</g>
	</g>
</g>
</svg>
