<svg xmlns="http://www.w3.org/2000/svg" viewBox="0 0 20.15 20.25">
  <defs>
    <style>
      .a {
        fill: #319dbe;
        opacity: 0.5;
      }
    </style>
  </defs>
  <title>Virus-light</title>
  <path class="a" d="M18.34,9a.93.93,0,0,0,.75.54,1.12,1.12,0,0,0,1.05-1.16,1.12,1.12,0,0,0-.9-1.28,1,1,0,0,0-1,.8,7.79,7.79,0,0,1-1.11.19,7.91,7.91,0,0,0-.56-1.42c.26-.11.6-.26.8-.32a.47.47,0,0,0,.47.16c.26-.08.38-.46.26-.84s-.43-.63-.7-.54-.33.32-.3.62a4.69,4.69,0,0,1-.81.45A6.91,6.91,0,0,0,15,4.72c.3-.25.61-.51.82-.65a.93.93,0,0,0,.93,0,1.12,1.12,0,0,0,.11-1.56A1.12,1.12,0,0,0,15.4,2a1,1,0,0,0-.27,1.23,9.65,9.65,0,0,1-.83.9,6.88,6.88,0,0,0-1.7-.83c.18-.43.39-1.11.56-1.43a.85.85,0,0,0,.73-.44A1.05,1.05,0,0,0,13.26.14a1,1,0,0,0-1.42.32,1,1,0,0,0,.34,1.12,6.65,6.65,0,0,1-.41,1.53A6.42,6.42,0,0,0,10.45,3h-.34c0-.3-.15-.75-.16-1a.58.58,0,0,0,.27-.49A.68.68,0,0,0,9.42,1a.67.67,0,0,0-.69.65.63.63,0,0,0,.57.52A4.79,4.79,0,0,1,9.56,3a7,7,0,0,0-1.84.49c-.26-.44-.59-1-.74-1.28a1,1,0,0,0,.13-1A1.25,1.25,0,0,0,5.42.82a1.24,1.24,0,0,0-.76,1.56A1.13,1.13,0,0,0,6,2.9,10.33,10.33,0,0,1,6.83,4,6.68,6.68,0,0,0,5.3,5.28v0c-.09-.17-.68-.63-.9-.88a.5.5,0,0,0,0-.52c-.2-.22-.61-.17-.93.11s-.4.69-.21.9a.59.59,0,0,0,.73,0,3.8,3.8,0,0,1,1,.76L5,5.57a6.67,6.67,0,0,0-1,1.6c-.28-.14-.66-.3-.84-.41A.56.56,0,0,0,3,6.25a.68.68,0,0,0-.89.33.68.68,0,0,0,.13,1A.62.62,0,0,0,3,7.37a5,5,0,0,1,.9.32,6.66,6.66,0,0,0-.35,1.84c-.52,0-1.14,0-1.5,0a1,1,0,0,0-.81-.65A1.25,1.25,0,0,0,0,10.11,1.24,1.24,0,0,0,1,11.56a1.13,1.13,0,0,0,1.12-.84,9,9,0,0,1,1.47-.17,6.82,6.82,0,0,0,.53,2.11c-.29.08-.76.25-1,.3a.54.54,0,0,0-.52-.2.76.76,0,0,0,.31,1.45.61.61,0,0,0,.44-.62,4.26,4.26,0,0,1,1-.42A7.12,7.12,0,0,0,5.76,15c-.43.37-.91.83-1.23,1a1.13,1.13,0,0,0-1.13.07,1.36,1.36,0,0,0-.09,1.9,1.35,1.35,0,0,0,1.83.5,1.23,1.23,0,0,0,.31-1.5,8.69,8.69,0,0,1,1.2-1.32,7.06,7.06,0,0,0,1.19.62c-.09.19-.2.59-.29.78a.35.35,0,0,0-.33.18c-.09.19.06.45.34.58a.49.49,0,0,0,.66-.12.43.43,0,0,0-.2-.49,2.8,2.8,0,0,1,.2-.78,7.33,7.33,0,0,0,1.25.29c-.05.44,0,1.3-.08,1.71a.9.9,0,0,0-.56.68,1.06,1.06,0,0,0,1,1.06,1.06,1.06,0,0,0,1.26-.78,1,1,0,0,0-.7-1,6.53,6.53,0,0,1-.1-1.63h.12a7.12,7.12,0,0,0,1.23-.12c0,.22.13.51.15.68a.35.35,0,0,0-.18.33c0,.21.3.34.61.3s.52-.25.49-.46a.43.43,0,0,0-.44-.3,3.93,3.93,0,0,1-.23-.63,7.29,7.29,0,0,0,1.06-.34c.23.42.55.93.68,1.24a.91.91,0,0,0-.13.92,1.11,1.11,0,0,0,1.51.39,1.12,1.12,0,0,0,.72-1.39,1,1,0,0,0-1.17-.5A7.61,7.61,0,0,1,14,15.91,7,7,0,0,0,16,14.05c.24.18.62.41.8.56a.47.47,0,0,0,.12.5.66.66,0,0,0,.87-.24A.66.66,0,0,0,17.9,14a.57.57,0,0,0-.71.09,4.62,4.62,0,0,1-.85-.46A6.63,6.63,0,0,0,17,12.17a1.66,1.66,0,0,0,.68-.79,4.5,4.5,0,0,1,.56.25.54.54,0,0,0,.28.48.76.76,0,0,0,.68-1.32.62.62,0,0,0-.73.2,4.59,4.59,0,0,1-.65-.16,1.68,1.68,0,0,0-.47-1.39c0-.15,0-.29,0-.43A8.71,8.71,0,0,1,18.34,9Z"/>
</svg>
