<svg xmlns="http://www.w3.org/2000/svg" viewBox="0 0 43.63 46.21">
  <defs>
    <style>
      .a {
        fill: #1b6d84;
      }

      .b {
        fill: #2c708b;
      }

      .c {
        fill: #4d8ba0;
      }

      .d {
        fill: #17505e;
      }
    </style>
  </defs>
  <title>Virus-dark</title>
  <g>
    <g>
      <path class="a" d="M39.81,28.68c.39-.85,1.19-1.32,1.78-1.05s.76,1.19.37,2-1.18,1.32-1.78,1S39.42,29.53,39.81,28.68Z"/>
      <path class="a" d="M40.36,28.29a9.73,9.73,0,0,1-2.88-.75s-.85.81-.47,1.14,2.71.89,2.9,1.2S40.36,28.29,40.36,28.29Z"/>
    </g>
    <g>
      <path class="a" d="M35.21,10.54c-.49-.77-.45-1.67.09-2s1.37,0,1.86.77.45,1.67-.09,2S35.71,11.31,35.21,10.54Z"/>
      <path class="a" d="M35.18,9.88a9.47,9.47,0,0,1-2.13,2s.22,1.13.69,1,2.15-1.75,2.51-1.74S35.18,9.88,35.18,9.88Z"/>
    </g>
    <g>
      <path class="a" d="M30.94,38.36c.64-.27,1.31-.14,1.5.3s-.16,1-.8,1.31-1.31.14-1.5-.3S30.31,38.64,30.94,38.36Z"/>
      <path class="a" d="M31.44,38.42a7.38,7.38,0,0,1-1.22-1.84s-.87,0-.82.4,1.05,1.83,1,2.09S31.44,38.42,31.44,38.42Z"/>
    </g>
    <g>
      <path class="a" d="M21.52,40.65c.69.12,1.18.6,1.1,1.08s-.7.77-1.39.65-1.17-.59-1.09-1.07S20.84,40.54,21.52,40.65Z"/>
      <path class="a" d="M21.91,41a7.24,7.24,0,0,1,0-2.21s-.74-.45-.9-.11-.12,2.1-.3,2.3S21.91,41,21.91,41Z"/>
    </g>
    <g>
      <ellipse class="a" cx="4.93" cy="14.93" rx="1.73" ry="1.21" transform="translate(-10.28 10.96) rotate(-57.08)"/>
      <path class="a" d="M5.33,15.9a10.22,10.22,0,0,1,2.8,1.18s1-.69.64-1.08S6.17,14.7,6,14.36,5.33,15.9,5.33,15.9Z"/>
    </g>
    <circle class="b" cx="22.85" cy="23.19" r="15.78" transform="translate(-4.02 4.8) rotate(-11.04)"/>
    <g>
      <path class="c" d="M23.05,18.87a2.13,2.13,0,1,1-2.61-1.5A2.14,2.14,0,0,1,23.05,18.87Z"/>
      <path class="d" d="M21.36,20.78a1.41,1.41,0,1,1,1-1.72A1.39,1.39,0,0,1,21.36,20.78Z"/>
    </g>
    <g>
      <path class="c" d="M18.4,26.86a1.63,1.63,0,1,1-2-1.15A1.62,1.62,0,0,1,18.4,26.86Z"/>
      <path class="d" d="M17.11,28.32A1.07,1.07,0,1,1,17.87,27,1.08,1.08,0,0,1,17.11,28.32Z"/>
    </g>
    <g>
      <path class="c" d="M33.07,15.92a1.62,1.62,0,0,1-1.14,2,1.63,1.63,0,1,1,1.14-2Z"/>
      <path class="d" d="M31.78,17.38a1.08,1.08,0,1,1,.76-1.32A1.07,1.07,0,0,1,31.78,17.38Z"/>
    </g>
    <g>
      <path class="c" d="M18.67,11.37a2.07,2.07,0,0,1-.64,2.8,2.08,2.08,0,0,1-2.88.16,2.07,2.07,0,0,1,.65-2.81A2.06,2.06,0,0,1,18.67,11.37Z"/>
      <path class="d" d="M17.65,13.72a1.38,1.38,0,0,1-1.91.11A1.39,1.39,0,0,1,16.17,12a1.38,1.38,0,0,1,1.91-.1A1.38,1.38,0,0,1,17.65,13.72Z"/>
    </g>
    <g>
      <path class="c" d="M12.45,31.49a2.08,2.08,0,0,1,2.88.07,2.07,2.07,0,0,1,.74,2.78,2.09,2.09,0,0,1-2.88-.06A2.09,2.09,0,0,1,12.45,31.49Z"/>
      <path class="d" d="M15,32a1.38,1.38,0,0,1,.49,1.84,1.38,1.38,0,0,1-1.91,0A1.37,1.37,0,0,1,13.07,32,1.38,1.38,0,0,1,15,32Z"/>
    </g>
    <g>
      <ellipse class="c" cx="34.79" cy="29.56" rx="1.7" ry="1.28" transform="translate(-7.17 47.54) rotate(-63.55)"/>
      <path class="d" d="M35.55,29.94A.88.88,0,1,1,34,29.19a.88.88,0,1,1,1.52.75Z"/>
    </g>
    <g>
      <path class="c" d="M27.11,36c.09,1-.91,1.9-2.23,2a2.18,2.18,0,0,1-2.57-1.59c-.09-1,.91-1.9,2.24-2A2.17,2.17,0,0,1,27.11,36Z"/>
      <path class="d" d="M24.82,37.38a1.44,1.44,0,0,1-1.7-1.05c-.06-.66.61-1.26,1.48-1.34a1.44,1.44,0,0,1,1.7,1C26.36,36.7,25.7,37.3,24.82,37.38Z"/>
    </g>
    <g>
      <path class="b" d="M9.62,10c-1.29,1.11-3.06,1.17-3.94.13s-.56-2.77.74-3.87S9.48,5,10.36,6.08,10.91,8.85,9.62,10Z"/>
      <path class="d" d="M8.56,8.69c-1,.89-2.3,1.11-2.81.51s-.1-1.81.93-2.7S9,5.39,9.49,6,9.59,7.81,8.56,8.69Z"/>
      <path class="b" d="M8.4,10.18a17.64,17.64,0,0,1,4.18,3.43s2-.68,1.65-1.52S10.45,8.56,10.37,7.9,8.4,10.18,8.4,10.18Z"/>
    </g>
    <g>
      <path class="b" d="M4.91,29c.28,1.68-.58,3.22-1.92,3.44s-2.66-1-2.94-2.63A2.84,2.84,0,0,1,2,26.34C3.32,26.12,4.64,27.3,4.91,29Z"/>
      <path class="d" d="M3.29,29.24c.22,1.34-.24,2.53-1,2.66S.66,31.05.44,29.71s.23-2.53,1-2.66S3.06,27.9,3.29,29.24Z"/>
      <path class="b" d="M4.48,30.14a17.61,17.61,0,0,1,5.1-1.8s.46-2.1-.45-2.2-5,1.41-5.59,1.14S4.48,30.14,4.48,30.14Z"/>
    </g>
    <g>
      <path class="b" d="M15.4,41.05c1.45,1.17,1.87,3.06.93,4.22s-2.87,1.15-4.32,0-1.86-3.06-.93-4.22S14,39.88,15.4,41.05Z"/>
      <path class="d" d="M14.26,42.45c1.16.93,1.66,2.24,1.11,2.92s-1.93.47-3.09-.46S10.62,42.66,11.17,42,13.1,41.51,14.26,42.45Z"/>
      <path class="b" d="M15.89,42.32a19.52,19.52,0,0,1,2.86-5.19s-1.15-2.05-2-1.47-3,4.78-3.74,5S15.89,42.32,15.89,42.32Z"/>
    </g>
    <g>
      <ellipse class="b" cx="22.82" cy="2.08" rx="2.06" ry="2.58" transform="translate(16.58 24.13) rotate(-79.4)"/>
      <path class="d" d="M22.71,2.76c-1.12-.21-1.93-.91-1.81-1.57S22,.17,23.15.38,25.08,1.29,25,2,23.83,3,22.71,2.76Z"/>
      <path class="b" d="M21.66,3.44A14.94,14.94,0,0,1,21.61,8s1.52,1,1.86.28.32-4.32.7-4.72S21.66,3.44,21.66,3.44Z"/>
    </g>
    <g>
      <path class="b" d="M38.85,15a2.55,2.55,0,0,1,1.61-3.17,2.54,2.54,0,0,1,2.74,2.26,2.56,2.56,0,0,1-1.61,3.18A2.55,2.55,0,0,1,38.85,15Z"/>
      <path class="d" d="M40.31,14.67c-.25-1.2.11-2.3.82-2.44s1.47.71,1.72,1.91-.11,2.29-.82,2.44S40.56,15.87,40.31,14.67Z"/>
      <path class="b" d="M39.2,13.9a16,16,0,0,1-4.53,1.81s-.34,1.9.49,2,4.43-1.45,5-1.23S39.2,13.9,39.2,13.9Z"/>
    </g>
    <g>
      <path class="b" d="M29.71,6.4A2.55,2.55,0,0,1,29,2.91,2.55,2.55,0,0,1,32.59,3a2.55,2.55,0,0,1,.68,3.49A2.55,2.55,0,0,1,29.71,6.4Z"/>
      <path class="d" d="M30.68,5.28c-.93-.8-1.32-1.89-.85-2.43s1.6-.35,2.53.44,1.32,1.89.85,2.43S31.62,6.07,30.68,5.28Z"/>
      <path class="b" d="M29.33,5.35a16,16,0,0,1-2.45,4.21s.9,1.71,1.59,1.25,2.6-3.87,3.17-4S29.33,5.35,29.33,5.35Z"/>
    </g>
    <g>
      <path class="b" d="M35.78,36.59a2.54,2.54,0,0,1,3.55,0A2.54,2.54,0,0,1,38.59,40a2.55,2.55,0,0,1-3.56,0A2.54,2.54,0,0,1,35.78,36.59Z"/>
      <path class="d" d="M36.71,37.74c.95-.77,2.09-1,2.54-.4s.06,1.64-.89,2.42-2.09,1-2.55.4S35.76,38.52,36.71,37.74Z"/>
      <path class="b" d="M36.88,36.41a16.17,16.17,0,0,1-3.7-3.18s-1.84.58-1.52,1.34,3.34,3.26,3.4,3.85S36.88,36.41,36.88,36.41Z"/>
    </g>
    <g>
      <path class="b" d="M27.09,42A2.42,2.42,0,0,1,30,43.72a2.42,2.42,0,0,1-2.3,2.46,2.43,2.43,0,0,1-2.91-1.71A2.42,2.42,0,0,1,27.09,42Z"/>
      <path class="d" d="M27.29,43.4c1.15-.16,2.16.25,2.25.92s-.75,1.36-1.9,1.52-2.16-.24-2.26-.92S26.14,43.57,27.29,43.4Z"/>
      <path class="b" d="M28.08,42.4A14.92,14.92,0,0,1,26.63,38s-1.78-.43-1.88.34,1.11,4.28.87,4.79S28.08,42.4,28.08,42.4Z"/>
    </g>
    <g>
      <ellipse class="b" cx="15.76" cy="5.47" rx="1.7" ry="1.36" transform="translate(-0.92 5.68) rotate(-19.85)"/>
      <path class="d" d="M15.92,5.89c-.71.25-1.4.12-1.55-.29s.3-.95,1-1.21,1.39-.12,1.54.29S16.62,5.63,15.92,5.89Z"/>
      <path class="b" d="M15.55,6.62A9.86,9.86,0,0,1,17,9.2s1.18,0,1.15-.46S16.92,6.18,17,5.83,15.55,6.62,15.55,6.62Z"/>
    </g>
    <g>
      <path class="b" d="M9.18,35a1.55,1.55,0,0,1-.43,2.13,1.56,1.56,0,0,1-2-.89,1.55,1.55,0,0,1,.43-2.13A1.56,1.56,0,0,1,9.18,35Z"/>
      <path class="d" d="M8.37,35.39c.35.66.31,1.37-.08,1.57s-1-.18-1.33-.84-.3-1.37.09-1.57S8,34.72,8.37,35.39Z"/>
      <path class="b" d="M9.15,35.66a10.07,10.07,0,0,1,2.36-1.81s-.11-1.17-.6-1.07-2.37,1.58-2.73,1.54S9.15,35.66,9.15,35.66Z"/>
    </g>
    <g>
      <path class="b" d="M5.16,21.56a1.56,1.56,0,0,1-1.77,1.26,1.55,1.55,0,0,1-.84-2,1.55,1.55,0,0,1,1.77-1.26A1.56,1.56,0,0,1,5.16,21.56Z"/>
      <path class="d" d="M4.29,21.31c-.21.72-.71,1.2-1.14,1.08s-.59-.8-.39-1.52.71-1.2,1.13-1.08S4.49,20.59,4.29,21.31Z"/>
      <path class="b" d="M4.67,22a9.72,9.72,0,0,1,3,.29s.72-.93.29-1.19-2.81-.47-3-.75S4.67,22,4.67,22Z"/>
    </g>
    <g>
      <path class="b" d="M40.93,21.25a1.39,1.39,0,1,1,2.65.58,1.39,1.39,0,1,1-2.65-.58Z"/>
      <path class="d" d="M41.81,21.45c.16-.73.64-1.25,1.07-1.16s.64.77.48,1.5S42.73,23,42.3,22.94,41.65,22.18,41.81,21.45Z"/>
      <path class="b" d="M41.39,20.75a9.63,9.63,0,0,1-3-.12s-.66,1-.21,1.22,2.83.29,3.08.55S41.39,20.75,41.39,20.75Z"/>
    </g>
    <g>
      <g>
        <path class="c" d="M14.43,21.24a3.36,3.36,0,0,1-4.09,2.34A3.35,3.35,0,0,1,8.6,19.2a3.34,3.34,0,0,1,4.09-2.34A3.35,3.35,0,0,1,14.43,21.24Z"/>
        <path class="d" d="M10.74,22.44a2.22,2.22,0,0,1-1.15-2.9A2.23,2.23,0,0,1,12.3,18a2.23,2.23,0,0,1,1.15,2.9A2.22,2.22,0,0,1,10.74,22.44Z"/>
      </g>
      <path class="c" d="M13.37,22.83a6.86,6.86,0,0,1,2.74.25,1.16,1.16,0,0,0,1.4-.54,1.61,1.61,0,0,0,0-1.57.29.29,0,0,0-.14-.13,12.29,12.29,0,0,1-3.12-1.75.26.26,0,0,0-.44.21,4.77,4.77,0,0,1-.68,3.1A.26.26,0,0,0,13.37,22.83Z"/>
    </g>
    <g>
      <g>
        <path class="c" d="M26,14.88a2.75,2.75,0,0,1-2.67-2.81,2.76,2.76,0,0,1,3.16-2.24,2.75,2.75,0,0,1,2.66,2.81A2.74,2.74,0,0,1,26,14.88Z"/>
        <path class="d" d="M24.31,12.17a2,2,0,0,1,3.86.38,2,2,0,0,1-3.86-.38Z"/>
      </g>
      <path class="c" d="M24.51,14.35a5.43,5.43,0,0,1,.34,2.23.94.94,0,0,0,.71,1,1.32,1.32,0,0,0,1.25-.29.21.21,0,0,0,.07-.14,10.41,10.41,0,0,1,.8-2.83.21.21,0,0,0-.25-.31,4,4,0,0,1-2.62.06A.22.22,0,0,0,24.51,14.35Z"/>
    </g>
    <g>
      <g>
        <path class="c" d="M25.3,26.89a2.68,2.68,0,0,1,3.67.8,2.68,2.68,0,0,1-1.31,3.52A2.66,2.66,0,0,1,24,30.42,2.67,2.67,0,0,1,25.3,26.89Z"/>
        <path class="d" d="M28.13,28.15A1.9,1.9,0,0,1,24.83,30a1.9,1.9,0,0,1,3.3-1.81Z"/>
      </g>
      <path class="c" d="M26.78,26.51a5.19,5.19,0,0,1-1.49-1.61.93.93,0,0,0-1.12-.42,1.3,1.3,0,0,0-.85.92.25.25,0,0,0,0,.15,10.19,10.19,0,0,1,.91,2.71.21.21,0,0,0,.37.11,3.88,3.88,0,0,1,2.06-1.48A.21.21,0,0,0,26.78,26.51Z"/>
    </g>
    <g>
      <g>
        <path class="c" d="M33.21,21.77A3.52,3.52,0,0,1,36,17.65a3.51,3.51,0,0,1,3.69,3.29,3.51,3.51,0,0,1-2.73,4.12A3.52,3.52,0,0,1,33.21,21.77Z"/>
        <path class="d" d="M36.11,18.9a2.33,2.33,0,0,1,2.44,2.18,2.17,2.17,0,1,1-4.25.55A2.32,2.32,0,0,1,36.11,18.9Z"/>
      </g>
      <path class="c" d="M33.45,19.77a6.81,6.81,0,0,1-2.68,1.06A1.21,1.21,0,0,0,29.71,22a1.7,1.7,0,0,0,.73,1.48.27.27,0,0,0,.19.05,13.31,13.31,0,0,1,3.76.18.27.27,0,0,0,.31-.4,5.07,5.07,0,0,1-.83-3.24A.28.28,0,0,0,33.45,19.77Z"/>
    </g>
    <path class="d" d="M10.7,27.76l0,.11A1.16,1.16,0,0,0,13,27.26l0-.11A1.16,1.16,0,0,0,10.7,27.76Z"/>
    <path class="d" d="M19.6,30.88a1.16,1.16,0,0,0,.61,2.24A1.16,1.16,0,0,0,19.6,30.88Z"/>
    <path class="d" d="M30.58,24.79A1.16,1.16,0,0,0,31.19,27,1.16,1.16,0,0,0,30.58,24.79Z"/>
    <path class="d" d="M20.75,12.9a1.16,1.16,0,0,0,.61,2.24A1.16,1.16,0,0,0,20.75,12.9Z"/>
    <path class="d" d="M16.76,16.38a.58.58,0,0,0,.31,1.12A.58.58,0,0,0,16.76,16.38Z"/>
    <path class="d" d="M26.77,21.37a.58.58,0,0,0,.3,1.12A.58.58,0,0,0,26.77,21.37Z"/>
    <path class="d" d="M21.06,27.36a.58.58,0,0,0,.3,1.12A.58.58,0,0,0,21.06,27.36Z"/>
    <path class="d" d="M29.4,33.76l0,.11a.58.58,0,0,0,1.12-.3l0-.11A.58.58,0,0,0,29.4,33.76Z"/>
    <path class="d" d="M19.35,35.28l-.11,0a.58.58,0,0,0,.3,1.12l.11,0A.58.58,0,0,0,19.35,35.28Z"/>
    <path class="d" d="M32,11.78a.58.58,0,0,0,.3,1.12A.58.58,0,0,0,32,11.78Z"/>
    <path class="d" d="M12.41,14.07a.58.58,0,0,0,.31,1.12A.58.58,0,0,0,12.41,14.07Z"/>
  </g>
</svg>
